<svg id="Layer_1" data-name="Layer 1" xmlns="http://www.w3.org/2000/svg" viewBox="0 0 500 500"><defs><style>.cls-1{fill:#fff;}</style></defs><title>corruption</title><rect class="cls-1" width="500" height="500"/><polygon points="74.66 21.36 84.28 69.48 110.24 21.36 285.24 21.36 295.81 8.15 301.58 21.36 322.74 64.77 331.39 32.68 349.66 27.96 396.77 21.36 475.62 24.19 441 55.33 481.39 54.39 481.39 208.2 491 216.69 484.27 216.69 494.85 230.84 488.12 240.28 482.35 261.98 480.43 354.46 491.05 347.66 483.31 388.3 484.27 474.3 459.27 474.3 444.85 494.11 432.35 474.3 311.2 475.24 328.5 494.11 284.75 474.3 204.42 482.12 211.71 439.56 166.01 489.4 157.35 472.41 24.66 473.35 65.05 429 20.82 439.38 20.82 349.74 5.43 362.01 20.82 329.92 17.93 195.93 28.51 205.37 16.01 174.23 16.97 149.69 27.55 176.11 16.97 114.78 16.97 20.42 37.16 20.42 34.28 36.46 55.43 3.43 56.39 18.53 74.66 21.36"/><path class="cls-1" d="M76.43,402.13a107.86,107.86,0,0,1-3.72,13.12c-1.72.5-7.83,2.14-12.35,2.14-17.66,0-25-14.19-25-27.23,0-16.89,10.42-28.53,26.29-28.53,5.38,0,10.29,1.72,12.08,2.21.6,4.51,1.07,8.28,1.53,13.37l-2.46.57c-2.19-9.68-7.3-12.55-12.41-12.55-9.63,0-14.94,11.16-14.94,23.29,0,15.09,6.57,25,15.6,25,5.51,0,9.63-4.34,13-12.62Z"/><path class="cls-1" d="M126.35,388.93c0,17.72-10.29,28.46-22.84,28.46-13.28,0-22.5-12.06-22.5-27.72,0-14.1,8.16-28,23.37-28C116.46,361.71,126.35,372.78,126.35,388.93ZM91.23,388c0,14.1,5,25.91,13.48,25.91,6.3,0,11.42-7.62,11.42-22.71,0-16.32-5.31-26.08-13.08-26.08C96.41,365.15,91.23,373.84,91.23,388Z"/><path class="cls-1" d="M171.63,416.9c-.4,0-1.13-.09-2-.09-8.36-.49-10.88-2.78-13.61-7.95-1.72-3.36-3.51-7.79-5.44-12.14-1.06-2.46-2.26-3.52-4.38-3.52h-1.26v12c0,6.81.6,7.54,5.64,8.12v2.87H130.53v-2.87c5-.58,5.71-1.31,5.71-8.12V373.68c0-6.56-.6-7.38-5.44-7.95v-2.87h18.65c5.84,0,9.16.82,11.89,3s4.44,5.82,4.44,10.91c0,7.21-3.85,11.15-8.29,13.36,1,2.46,3.45,7.88,5.44,11.65a68,68,0,0,0,5,8.94,10.32,10.32,0,0,0,4.05,3.52Zm-25-27c2.79,0,5.05-.58,6.51-2.13,2.26-2.3,3.19-5.58,3.19-9.76,0-8.78-4.12-11.89-7.84-11.89-1.66,0-2.59.32-3,.82s-.6,1.31-.6,3v19.93Z"/><path class="cls-1" d="M215.38,416.9c-.4,0-1.13-.09-2-.09-8.36-.49-10.88-2.78-13.61-7.95-1.72-3.36-3.52-7.79-5.44-12.14-1.06-2.46-2.26-3.52-4.38-3.52h-1.26v12c0,6.81.59,7.54,5.64,8.12v2.87H174.28v-2.87c5-.58,5.71-1.31,5.71-8.12V373.68c0-6.56-.6-7.38-5.45-7.95v-2.87H193.2c5.84,0,9.16.82,11.88,3s4.45,5.82,4.45,10.91c0,7.21-3.85,11.15-8.3,13.36,1,2.46,3.46,7.88,5.45,11.65a69.53,69.53,0,0,0,5,8.94,10.39,10.39,0,0,0,4.05,3.52Zm-25-27c2.79,0,5.05-.58,6.51-2.13,2.26-2.3,3.18-5.58,3.18-9.76,0-8.78-4.11-11.89-7.83-11.89-1.66,0-2.59.32-3,.82s-.59,1.31-.59,3v19.93Z"/><path class="cls-1" d="M261.25,365.73c-3.59.24-5.25,2-5.58,4.83a82.79,82.79,0,0,0-.6,11.4v8.94c0,8.69-1.06,15.58-4.78,20.5a15.36,15.36,0,0,1-12.28,6c-4.38,0-8.56-1.15-11.75-4.18-3.72-3.69-5.51-9.76-5.51-19.36V374.5c0-7.71-.66-8.2-5.58-8.77v-2.87h20v2.87c-4.85.57-5.51,1.06-5.51,8.77v17.88c0,12.3,3.58,19.43,10.75,19.43,7.9,0,11.35-7.38,11.35-21.07V382a79.13,79.13,0,0,0-.66-11.4c-.4-2.87-1.92-4.51-6.44-4.83v-2.87h16.6Z"/><path class="cls-1" d="M282.76,362.86c5.24,0,9,.9,11.61,3.19,3.13,2.63,4.92,6.73,4.92,12.06,0,11-6.58,16-13.61,17.06a17.13,17.13,0,0,1-2.72.16l-4.52-1.4v11.32c0,7,.6,7.54,6.24,8.12v2.79H264.1v-2.79c5-.58,5.58-1.15,5.58-8.12V373.84c0-7-.6-7.54-5.25-8.11v-2.87Zm-4.32,27.88a8.49,8.49,0,0,0,3.59.82c2.39,0,7.7-2.14,7.7-13.21,0-9.26-4.19-12.3-8.24-12.3a3.32,3.32,0,0,0-2.45.83,3.63,3.63,0,0,0-.6,2.54Z"/><path class="cls-1" d="M339.92,376.88c-.8-4.26-1.73-7.05-2.93-8.53s-2.85-1.89-6.77-1.89h-3v38.79c0,7,.67,7.46,6.51,8v2.87H312.1v-2.87c5.57-.58,6.24-1.07,6.24-8V366.46h-2.26c-5.51,0-6.7.83-7.63,2.22-1.13,1.39-1.93,4.18-2.79,8.28H303.2c.27-6,.66-12,.8-16.15h1.66c1,1.8,1.86,2.05,3.78,2.05h26.69a4,4,0,0,0,3.79-2.05h1.66c.06,3.44.39,10.66.72,15.9Z"/><path class="cls-1" d="M346.42,416.16v-2.87c5-.58,5.58-1.15,5.58-8V373.84c0-7-.6-7.54-5.58-8.11v-2.87h20v2.87c-5,.57-5.51,1.06-5.51,8.11v31.41c0,6.89.53,7.46,5.51,8v2.87Z"/><path class="cls-1" d="M416.53,388.93c0,17.72-10.3,28.46-22.84,28.46-13.28,0-22.51-12.06-22.51-27.72,0-14.1,8.17-28,23.37-28C406.63,361.71,416.53,372.78,416.53,388.93ZM381.4,388c0,14.1,5,25.91,13.48,25.91,6.31,0,11.42-7.62,11.42-22.71,0-16.32-5.31-26.08-13.08-26.08C386.58,365.15,381.4,373.84,381.4,388Z"/><path class="cls-1" d="M466.45,365.64c-3.59.25-5,1.4-5.31,5.09-.2,2.54-.6,6.4-.6,13.69V417h-3.19l-27.62-40.84h-.2v18.37c0,7.21.34,10.91.54,13.37.33,3.6,1.46,5.16,6.37,5.41v2.87H420.17v-2.87c3.72-.33,5.25-1.64,5.51-5.17a118.36,118.36,0,0,0,.67-13.61V377.45c0-5.41-.07-6.89-1.33-8.85s-2.72-2.63-5.58-3v-2.78h12.29l25.42,36h.2V384.42c0-7.29-.33-11.15-.53-13.53-.33-3.52-1.66-4.92-6.57-5.25v-2.78h16.2Z"/><path class="cls-1" d="M333.18,161.07q-3.33.56-6.66-6.66c-2.59-3-5.18-8.14-7.77-14.06a5.69,5.69,0,0,1-1.48-2.22c-.74-.37-2.22-2.22-4.07-5.18a42.76,42.76,0,0,1-7.39-8.13l-3.7-3.7a55.62,55.62,0,0,1-6.66-5.18c-5.55-1.48-4.07-1.48-11.1-3-6.28-.37-10.35-.74-12.57-.37l-9.62,1.85-6.66,2.22-10.72,8.51c-1.48,2.59-3.7,6.28-6.29,11.46l-.37.37c-.37,2.59-1.85,7.4-4.07,14.06a4.92,4.92,0,0,1-1.11,2.59,62.11,62.11,0,0,0-2.22,10l-1.48,5.55-.37,14.06c0,3,.74,9.25.74,12.2a30.77,30.77,0,0,0-.74,4.81,11,11,0,0,0,.74,3.7v6.29a54.32,54.32,0,0,0,1.85,7c.37,4.81,1.11,8.51,2.59,10.73.37,4.8,3.33,11.46,8.88,20.34l8.87,8.14a12.75,12.75,0,0,0,4.07,1.85l8.51,2.22h14.05c1.11-.37,3-.37,5.18-.74q12.76-2.77,18.87-13.32l7-8.14a14.11,14.11,0,0,0,3.32-3.33c.37-1.48,2.59-4.81,5.92-10.72h.37l3.33-4.81,2.22-4.44,3.7-3.33c2.59,0,4.07.74,5.18,2.59a2.77,2.77,0,0,0,.37,1.85A82.46,82.46,0,0,1,332.81,228c-.74.73-1.11,3.69-1.48,8.5-1.48,1.48.37,8.14-3.7,24.79a15.23,15.23,0,0,1-3.7,4.06l-2.22,1.11c-1.85,0-7.4,0-17.38.37-1.48.37-7,1.11-16.28,1.85-.74.37-3.33.37-7.4.37l-2.58,1.11a77.09,77.09,0,0,0-13.32,2.59H252.91c-1.11-.37-5.18-.37-11.83,0a71.67,71.67,0,0,1-8.14-2.22c-1.85,0-3-.37-3.33-.74-3.33-.37-7.4-1.11-12.58-2.22q-3.89-1.11-11.09-5.55c-.37-.37-1.11-.37-2.22-.73a20.69,20.69,0,0,1-9.62-5.55l-7-5.55-3.33-4.81c-1.85-1.11-4.44-3.7-7.76-7a20,20,0,0,1-4.81-8.88,8.79,8.79,0,0,1-2.22-4.06,105.3,105.3,0,0,1-3-10.36,56.11,56.11,0,0,0-1.11-8.88,5,5,0,0,0-.37-1.85v-2.22l-1.11-20.34a2.22,2.22,0,0,0,.37-1.48c.37-2.22.37-5.92.74-10.73,1.11-7,3-12.57,5.92-17.38l2.59-7,.74-1.48a168.27,168.27,0,0,1,14.79-18.86l8.51-7.4,1.48-1.11a31.58,31.58,0,0,1,7-2.22,14.56,14.56,0,0,1,4.81-1.48,28.67,28.67,0,0,0,4.43-3.7c2.59-1.48,6.66-2.59,12.21-3a69,69,0,0,0,7-1.85c1.11,0,4.81-.37,10.73-.74H254c2.59-1.48,8.88-1.85,18.13-1.48a5.49,5.49,0,0,1,2.59-.37l.37.74v1.85c.37-.37.37-.37.74-.37a7.22,7.22,0,0,0-.37-2.59,41.64,41.64,0,0,1,14.79,3.33,18.16,18.16,0,0,1,4.07.37h15.91a41.25,41.25,0,0,0,8.5-1.11,8.33,8.33,0,0,0,2.59-.37h5.92l.37.37c3.33,1.11,5.18,4.44,5.55,9.62l.74,4.07c.37,4.81.37,12.21.74,21.82a46.17,46.17,0,0,1,1.48,12.95C336.14,154.41,335,157.37,333.18,161.07Zm-149.81,39.2c-2.59-.74-4.07-1.85-4.07-3.7-1.84-1.85-3.32-2.21-4.06-1.85a18.77,18.77,0,0,0,.74,3.33l.74,1.48c0,.74-.37,1.11-1.11,1.48a2.78,2.78,0,0,0,1.85,2.59,2.68,2.68,0,0,0-1.48,2.22c0,.74,0,1.11.37,1.48h3a9.21,9.21,0,0,0,2.59,1.85H183c0-1.11,3-4.81,3-6.29Zm-7-19.23v1.85c.37.37.37.37.74.37h1.11c1.47-3.7,2.21-4.81,2.21-3.7C179.3,179.56,176.72,181,176.35,181Zm4.8,33.66c-1.11-.37-1.85-1.48-1.85-3.33h-1.84a2.81,2.81,0,0,0-.74,1.48,5.4,5.4,0,0,0,1.85,3c1.1,0,2.21,0,2.58-.37Zm27.75-7.77V203.6q-1.67,0-1.11-3.33c-.37-.74-.37-1.48.74-2.22-1.11-.37-1.48-1.84-1.48-3.69v-5.18c.74-1.11,2.22-1.48,4.44-1.48q.56-.55,0-2.22L209.64,184c0-1.48-.74-3-2.59-4.44,0-1.11,2.22-3,1.85-4.44a16.34,16.34,0,0,1-1.11-3c1.11-2.59,1.11-4.44.74-4.81h-.74c-.37,0-.37,0-.37-.37h-.74l-.37-3.33c1.11-1.11,1.48-1.85,1.48-2.21l-1.11-1.11a5.27,5.27,0,0,1-4.44-2.22,9.41,9.41,0,0,0-2.59.74,2.22,2.22,0,0,1,.37-1.48V157a5.26,5.26,0,0,0-2.22-.74,4.66,4.66,0,0,0-1.48,2.59c-2.59,1.85-3.7,2.59-4.07,2.59h-.37c0,1.1.37,3.32,0,3.69-.37,1.11-1.85,2.22-4.44,3.7,0,2.59.74,3.7,1.85,4.07.37.74.37,1.11,0,1.48-.37,0-.37-.37-.37-.74-1.11,0-1.48.74-1.11,2.59-.37,1.85-.37,3,.37,4.07.37,1.11-.74,1.85-2.59,2.22v.74l.74.74c.37,1.85-3.33,2.59-3.33,4.44a6,6,0,0,1,3.33,1.48,9.41,9.41,0,0,1-.74,2.59c-.37.37-.37.37,0,.74a1.36,1.36,0,0,1,.37,1.11c-1.85,1.47-2.22,2.95-1.85,4.06a5.6,5.6,0,0,1,2.59,5.18,9.41,9.41,0,0,1,.74,2.59,5.35,5.35,0,0,1-.74,2.59l.74.74c1.48.37,2.22,1.11,2.22,1.85s-1.11,1.48-3.33,2.22v1.11c.37.37,4.07,2.22,4.07,2.59,0,2.22,0,3.33.37,3.7H193l2.22-2.22a6.55,6.55,0,0,1,3,1.85,16.28,16.28,0,0,0-3.7.74c0,1.85-.74,2.59-2.22,2.59-.37.37-.74,1.48-.74,3.33l1.11.37c1.48,0,2.22-.74,2.59-2.59l3.33-3h2.59l5.18,5.18a2.24,2.24,0,0,0,2.22-1.11c-.37-2.59,0-4.44.74-5.55,0-2.59-.74-3.7-.74-4.81a14.55,14.55,0,0,1,.74-2.22c-.37-3-.74-4.81-.37-5.18a3.38,3.38,0,0,0,1.85,1.11,2.18,2.18,0,0,0,1.47-.37C212.22,207.67,211.12,206.93,208.9,206.93Zm-23.31,18.13-.74-.74h-1.48v.37l1.48.74Zm.74-15.91c-1.11,0-1.48.37-1.48,1.11Zm3.33,19.6h-.74v1.12c.37,0,.37,0,.74-.38Zm7-.37a1.36,1.36,0,0,0-1.11.37v1.85a1.36,1.36,0,0,0,1.11-.37Zm3.7,5.18c0-1.11-.37-1.48-1.48-1.48-.37.37-.37,1.11.37,2.22Zm1.11-8.87a1.36,1.36,0,0,0-1.11-.37,1.55,1.55,0,0,0-1.48,1.48c0,.37.37.74.74,1.11,1.11,0,1.48,0,1.85-.37Zm-1.85-69.54a1.36,1.36,0,0,1,.37,1.11,2.78,2.78,0,0,0,1.85-2.59ZM203,228.38c0,1.11.74,1.85,2.59,3a5.69,5.69,0,0,0,1.48,2.22c1.11-.37,1.85-.74,1.85-1.11a2.81,2.81,0,0,0-.74-1.48C205.94,229.13,204.09,228.38,203,228.38Zm10.72-28.11a11.81,11.81,0,0,0,2.59-2.22,4.42,4.42,0,0,0-3-3.33l-2.58-1.47,1.47,3a4.92,4.92,0,0,1-2.95,2.58v1.11l4.43,5.55h.37v.37c1.85,0,2.59-.74,2.59-2.22A3.24,3.24,0,0,1,213.7,200.27Zm-2.21-35.88h-1.11c-.37,1.11-.74,1.48-.37,1.85a2.77,2.77,0,0,1,1.85-.37C211.86,165.13,211.86,164.76,211.49,164.39Zm-1.11,6.66c0,1.11,0,1.48.37,1.85.74,0,1.11,0,1.47-.37C212.22,171.05,211.49,170.68,210.38,171.05ZM223,240.59a4.75,4.75,0,0,0,1.48-3.7,13.6,13.6,0,0,0-1.85-5.92h-2.22v3c-.74.37-1.85-.37-3.7-1.85a3.38,3.38,0,0,1-1.85-1.11c.37-.74,1.48-1.1,4.07-1.1l2.59-2.22c0-2.59-.74-3.7-2.59-3.33a28.1,28.1,0,0,0-4.07,1.48,9.27,9.27,0,0,1-.74,2.58h-1.48a4.06,4.06,0,0,0-1.84-.36c-.37.36-.37,1.11-.37,1.85,1.84.73,2.58,1.47,2.58,2.58s-1.84,2.22-1.84,3.7c0,.37.37.37.74.37a6.12,6.12,0,0,1,1.84-.74c.74,0,1.11.37,1.48,1.11a7.44,7.44,0,0,0-.37,4.44,13.29,13.29,0,0,0,3.7,2.59c.37-.37,1.11-.37,1.85-.74V241.7a2,2,0,0,1-1.11-1.85,2.81,2.81,0,0,1,.74-1.48l1.85,2.22Zm-8.88-58.07V184c.37.37,1.11.37,2.22.74a4,4,0,0,0,1.11-1.85c.37-.74.37-1.48-.37-1.85A5.17,5.17,0,0,1,214.07,182.52Zm.37-7c0,.37,0,.74.37.74,1.11,0,1.48-.37,1.11-.74Zm3,16.65a4.31,4.31,0,0,0-.74-2.59c-1.11,0-1.48,0-1.85.37v.37a9.81,9.81,0,0,1,2.22,1.85ZM215.92,248c0-.37,0-.37-.37-.74h-.74V248h1.11Zm.74-80.64c-.74-.37-1.11-.37-1.48.37s-.37,1.11.74,1.48h.74Zm-.37-4.81v-.36h-.74l-.37.36c0,.38,0,.38.37.38ZM220.36,221l-.74-.37-1.11,1.11a2.81,2.81,0,0,0,.74,1.48,1.36,1.36,0,0,0,1.11-.37A1.65,1.65,0,0,0,220.36,221Zm3,27c0-.37,0-.37-.37-.74h-.37V248Zm3.7,10.36v-1.11a.69.69,0,0,0-1.11,0v1.11Zm6.29,0c0-1.11-.37-1.48-1.48-1.48-.37.37,0,1.11.37,1.48Zm4.07-149.81a4.58,4.58,0,0,0-.74-1.11h-.74v1.11Zm2.22,152h-.74v.37l.37.37c0-.37,0-.37.37-.37Zm67.69-136.49v-.37h-.74l.37.37Zm1.11-11.47v-.37H308v.37Zm3.69,11.1h-.74v.37h.74Zm1.85,4.44h-.37v.37Zm5.55-23.31a4.65,4.65,0,0,0-3.7,2.59l3,2.22a7.94,7.94,0,0,0,1.48-2.59A3.13,3.13,0,0,1,319.49,104.84Z"/></svg>