<svg id="Layer_1" data-name="Layer 1" xmlns="http://www.w3.org/2000/svg" viewBox="0 0 500 500"><defs><style>.cls-1{fill:#fff;}</style></defs><title>rig</title><rect class="cls-1" width="500" height="500"/><polygon points="74.66 21.36 84.28 69.48 110.24 21.36 285.24 21.36 295.81 8.15 301.58 21.36 322.74 64.77 331.39 32.68 349.66 27.96 396.77 21.36 475.62 24.19 441 55.33 481.39 54.39 481.39 208.2 491 216.69 484.27 216.69 494.85 230.84 488.12 240.28 482.35 261.98 480.43 354.46 454.46 381.82 483.31 400.69 484.27 474.3 459.27 474.3 444.85 494.11 432.35 474.3 311.2 475.24 328.5 494.11 284.75 474.3 204.42 482.12 211.71 439.56 166.01 489.4 157.35 472.41 24.66 473.35 65.05 429 20.82 439.38 20.82 349.74 5.43 362.01 20.82 329.92 17.93 195.93 28.51 205.37 16.01 174.23 16.97 149.69 27.55 176.11 16.97 114.78 16.97 20.42 37.16 20.42 34.28 36.46 55.43 3.43 56.39 18.53 74.66 21.36"/><path class="cls-1" d="M231.77,416.9c-.49,0-1.39-.09-2.46-.09-10.33-.49-13.44-2.78-16.81-7.95-2.13-3.36-4.34-7.79-6.72-12.14-1.31-2.46-2.79-3.52-5.41-3.52h-1.56v12c0,6.81.74,7.54,7,8.12v2.87H181v-2.87c6.15-.58,7-1.31,7-8.12V373.68c0-6.56-.74-7.38-6.73-7.95v-2.87h23c7.22,0,11.32.82,14.68,3a12.53,12.53,0,0,1,5.5,10.91c0,7.21-4.76,11.15-10.25,13.36,1.23,2.46,4.26,7.88,6.72,11.65a68.52,68.52,0,0,0,6.23,8.94,12.52,12.52,0,0,0,5,3.52Zm-30.83-27c3.44,0,6.23-.58,8-2.13,2.79-2.3,3.93-5.58,3.93-9.76,0-8.78-5.08-11.89-9.67-11.89-2.05,0-3.2.32-3.69.82s-.74,1.31-.74,3v19.93Z"/><path class="cls-1" d="M235.22,416.16v-2.87c6.15-.58,6.88-1.15,6.88-8V373.84c0-7-.73-7.54-6.88-8.11v-2.87H259.9v2.87c-6.15.57-6.81,1.06-6.81,8.11v31.41c0,6.89.66,7.46,6.81,8v2.87Z"/><path class="cls-1" d="M320,393.53c-4.1.82-4.6,1.14-4.6,6.64v6.56a43,43,0,0,0,.5,7.71c-4.93,1.14-12.06,2.95-18.7,2.95-19,0-31.24-10.83-31.24-27.31,0-18.7,15.17-28.45,32.47-28.45,6.72,0,13,1.64,16,2.29.25,2.79.66,7.14,1.31,13.53l-3.11.66c-2-9.19-8.12-13-15.83-13-9.84,0-18.37,8.86-18.37,23.62,0,12.38,6.07,25.34,19.52,25.34a8.84,8.84,0,0,0,4.59-1c1.23-.74,1.89-2.05,1.89-4.59v-7.79c0-5.74-.41-6.4-9-7.13v-2.87H320Z"/><path class="cls-1" d="M285.16,259.83c-1.48.37-3,3-5.92,6.28H274.8a3.2,3.2,0,0,0-1.11-2.22c-.37,0-.37,0-.74.37v1.85c-1.85-.37-4.81.37-8.5,1.48H263c-.37-.37-.37-.37-.74-.37A5.26,5.26,0,0,0,260,268h-3l-1.11-2.22c-1.85-.37-3-1.11-3-1.85h3.33c.37-.37,0-1.47-.74-2.58v-3l-9.25-6.66-1.11,1.11,1.11,1.85a5,5,0,0,1,2.59,3l-1.85-1.11c-3.33,0-5.55.74-7.4,2.22h-1.85l1.11,4.07a2.1,2.1,0,0,1,.74,2.58c-.37,1.11-.74,2.22-1.48,2.59h-3.7c-.36-.37,0-1.48.37-3s.37-2.58,0-3l-1.1-1.47c-4.44-2.59-4.44-4.81-8.51-7.4h-1.48l1.11,1.85,2.22,3.33v1.85s-5.92.74-5.92,4.06l1.11.74a6.51,6.51,0,0,1,2.22-.37c.74,0,1.11.37,1.11.74l-3.7,2.59h-3.33l-1.85-1.11c-2.59-.37-5.92-3-10.36-8.13a7,7,0,0,1,1.85-4.81,23.59,23.59,0,0,0-.74-3.33c1.11-1.85,1.48-2.59,1.48-3-.37,0-1.11.74-2.22.74a4.92,4.92,0,0,1-2.59-1.11c-.74,0-1.48.74-2.22,1.85-1.47-.37-2.22-1.11-2.58-3l-1.11-1.85c-3-4.81-7-12.21-11.84-22.19H186a1.36,1.36,0,0,0-.37-1.11A63,63,0,0,0,179,210.63l-2.22-3.7c-.37-1.11-1.85-3.33-4.44-7.4a70.92,70.92,0,0,0-7.76-8.13,2.77,2.77,0,0,1-1.85-.37,40.6,40.6,0,0,0-8.88.74,11.86,11.86,0,0,0-5.55,6.28c-.37,2.22-.74,6.66-1.11,13.69A14,14,0,0,0,145,218.4a12.45,12.45,0,0,0,1.85,6.29A54.39,54.39,0,0,0,148.3,238c1.11,3.33,3.7,7.77,8.14,12.95,5.55,2.59,8.14,5.55,8.14,9.62,0,1.85-1.85,4.06-5.92,5.91H126.48a2.8,2.8,0,0,1-1.48-.37H91A28.17,28.17,0,0,0,83.2,265a21.54,21.54,0,0,1-7,0l-1.85-1.11h-3.7c-1.11-1.47-2.21-2.22-3.33-2.22v-.36a88.41,88.41,0,0,1,9.25-7.77l4.07-2.22c1.48-1.11,3.33-3.7,5.92-8.14L91,234.3c0-6.65.37-10.72,1.11-11.83a71.11,71.11,0,0,1,1.85-13.69c0-12.57.37-19.23,1.11-19.6q.55-4.44,0-26.64a11.41,11.41,0,0,1,.74-4.06c.74-4.44.74-7.4.37-9.25,0-2.59,0-5.92-.37-10.73-.37-.74-.74-2.59-.74-5.92-.74-1.11-1.48-3.69-1.85-7.76L92.45,123l-5.55-6.29a15.48,15.48,0,0,0-6.66-4.07L78,110.39c-1.11-3-.74-5.18,1.48-6.29.37-.37,3-1.48,7-2.59,4.81-.37,7.77-.37,8.51.37a8,8,0,0,1,3.7.74,78.57,78.57,0,0,1,11.09,1.11c4.07,0,9.25.37,15.54.74,18.86,0,34.77,0,48.08-.37l8.88-1.85,12.58-1.48c3.33,0,5.55.37,5.92,1.11,1.47.37,3.69.37,6.28.74s4.81.37,5.92-.74a18.15,18.15,0,0,0,4.81-1.11h5.92l2.59.74c0,.37,4.07,1.11,12.57,2.59,3,.37,4.81,1.48,5.55,2.59v1.48a2.19,2.19,0,0,0,2.59-.37c1.11,0,2.59,1.11,3.7,3.33a10.88,10.88,0,0,1,3,3c2.59,1.48,4.44,4.07,5.92,8.14l1.11,2.22c.37,1.48.37,4.8.37,10.35a4.78,4.78,0,0,1,.74,3q0,5-3.33,12.21a4.2,4.2,0,0,0-1.11,3h-.37c-1.11,3.33-3.7,6.66-7.77,10.72-.37,1.11-2.59,2.59-6.66,4.81a85.7,85.7,0,0,1-8.5,6.29c-3.7.74-6.29,2.22-7.4,4.81a29.68,29.68,0,0,0,0,8.14,22.57,22.57,0,0,0,4.44,5.92c.37,1.11-.37,1.11,5.17,7.39l4.81,10.36a17.15,17.15,0,0,1,3.7,3.7l1.85,3a86.38,86.38,0,0,1,8.88,10v1.84c-1.11.74-1.11,1.48-.74,2.22a11.56,11.56,0,0,1,2.59-.74c.37-.37,1.11.37,1.85,1.48a4,4,0,0,0,.37,1.85,5.67,5.67,0,0,1,2.59,3.7l1.11.74,1.11,1.48a3.73,3.73,0,0,0,3.32,4.07c.37.37.37,1.48.37,4.07a8.84,8.84,0,0,0,2.59,1.11v1.48h-2.59a3.89,3.89,0,0,0,1.85,3.33c1.11,0,1.48-1.11,1.48-3.33a7.66,7.66,0,0,1,5.55,1.85l4.81,3.7,3.33,2.22ZM79.5,259.09q0-2.77-2.22-2.22l-.74.74a4,4,0,0,0,1.85,1.48Zm.74,1.48c.37.37.37.37.37.74.37,0,.37,0,.37-.37S80.61,260.57,80.24,260.57Zm1.11-6.29H81c.37,0,.37.37.37.74Zm14.06.74a1.13,1.13,0,0,0-1.48,0c0,.37,0,.37.37.74a1.36,1.36,0,0,1,1.11-.37Zm8.87-33.29c-.37,0-.37,0-.74.37a2.17,2.17,0,0,0,.74,1.85,7.22,7.22,0,0,0,2.59-.37C106.87,224,106.13,223.21,104.28,221.73Zm6.29-9.62q0-4.44-5.55-4.44c-.74.74-1.11,2.22-1.11,4.07l1.11,4.81c.37,0,.74.37,1.11.74h2.22Zm-4.07,25.52v-.74h-1.11v.74h1.11Zm4.44-4.81a2.81,2.81,0,0,0-1.48-.74c-.37,0-.74.37-1.11.74a5.69,5.69,0,0,0,2.22,1.48l.37-.37Zm0,22.2a.8.8,0,0,0-.74-.74,1.13,1.13,0,0,0-1.48,0c0,.37.74,1.11,1.85,1.48Zm20-67.69c-.37,0-.37-.37-.74-1.11-1.85,0-2.59,1.11-3,3-1.85.37-3,1.48-3,2.59a11.81,11.81,0,0,0,2.59,2.22v1.84a7,7,0,0,0-2.59.38c0,1.1-1.11,2.21-3.7,3.69-.37.37-.74.74-.74,1.11a4.92,4.92,0,0,0,1.11,2.59v.74a14,14,0,0,0-6.66,2.22c-.74.37-1.48,0-2.22-1.48a1.63,1.63,0,0,0-1.85-.37v2.22q3.33.56,3.33,10l1.85,1.48c-.37.74-1.48,1.85-3.7,3.33,0,1.11.74,2.22,2.59,2.59a10.18,10.18,0,0,0,3.33-3c.37-.37,1.11-.37,1.85-.74.37-1.85,1.85-3,4.07-3.33l1.48-1.48c1.48.37,3,1.85,4.07,1.85s1.85-1.85,2.59-5.55a2.88,2.88,0,0,0-1.11-2.59v-3l-2.22-1.11c-3-1.11-4.44-2.59-4.44-5.18,1.48-.37,3.7-2.59,6.66-5.91.74-.37,1.85-1.85,3.7-4.44C132,189.18,130.92,188.44,130.92,187.33ZM113.53,177v.74a.8.8,0,0,0,.74-.74Zm2.59,18.49c-.37-1.47-.74-2.21-1.85-2.21h-.74v2.58a5.08,5.08,0,0,0,1.85,3C116.12,198.42,116.49,197.31,116.12,195.46Zm-2.59,7.4.74.74c1.85-.37,2.59-.74,2.59-1.85a9.41,9.41,0,0,0-.74-2.59C114.27,199.53,113.53,200.64,113.53,202.86Zm.74,28.11v-1.11c-.37,0-.37,0-.74.37,0,.37,0,.37.37.74Zm7-1.84a8.15,8.15,0,0,0-5.18,6.65c-1.11.37-1.85.37-2.22.74V238a4.93,4.93,0,0,0,2.22-1.85c4.44-.37,4.44-.37,4.81-3.33a8.33,8.33,0,0,1,1.85-1.85C122.41,229.86,122,229.13,121.3,229.13Zm-5.55-2.22c0,1.84.37,2.58.74,2.58h1.85a9.27,9.27,0,0,0,.74-2.58,2.83,2.83,0,0,0-.74-1.85C117.23,225.06,116.49,225.8,115.75,226.91Zm7,25.52v-1.11l-2.59,1.11q-3.33.56-3.33,2.22l.74,1.48c.74,0,1.85-.74,3-2.59ZM118,248v-.74h-.37V248Zm2.59-54.74a5,5,0,0,0,0,3.32c1.11-.36,1.48-1.47,1.48-2.95C121.67,193.25,121.3,193.25,120.56,193.25ZM122,238.37c.37-1.11.37-1.48,0-1.85-.74,0-1.11,0-1.48.37v2.22Zm3.7,2.22c-.74-.74-1.11-.74-1.48-.37a1.65,1.65,0,0,0,0,1.85C126.11,241.7,126.48,241,125.74,240.59Zm.37-63.25v-1.11h-1.85a2.77,2.77,0,0,0,.37,1.85Zm.37,78.79c.37-.74.37-1.11,0-1.48h-2.22v1.48Zm0-72.5a1.47,1.47,0,0,0-1.85-.37,2.17,2.17,0,0,0,.74,1.85C126.48,184.74,126.85,184.37,126.48,183.63ZM125,219.51c0,.37,0,.37.37.74,0-.37,0-.37.37-.74Zm1.11,14.79v-.74H125c0,.37,0,.74.37.74ZM132,218.4l-1.48,2.22a3.56,3.56,0,0,0-2.59,3.7c1.11,0,1.85,0,2.22.37h.74c0-1.48,3.33-3.33,2.22-5.92A1.36,1.36,0,0,0,132,218.4Zm-3.7-38.47,1.11,1.11c1.85-.37,2.59-1.48,2.59-2.59C129.44,177.71,128.33,178.08,128.33,179.93Zm2.22,33.29-1.48.74a.8.8,0,0,0-.74-.74c0-.37,0-.37.37-.74a4.69,4.69,0,0,1,2.22.37C130.92,213.22,130.92,213.22,130.55,213.22ZM129.44,191l-.37.37-.37-.74c.37-.37.37-.37.74-.37Zm.37,39.94v-.74H128.7V231Zm4.07,10.36v-1.85c-2.59-1.11-4.07-1.85-4.81-1.85a11.09,11.09,0,0,0,3.33,3.7Zm.37-13.68c0-1.48-1.11-2.22-3-2.59.37,1.85,0,3.69-.74,6.28a3.61,3.61,0,0,0,1.48,3.33h1.11c0-.37,0-.37.36-.37-.73-3-1.1-4.44-1.1-4.07Zm-.75-44.39a1,1,0,0,0-1.1,1.11h.37c.37,0,.37,0,.73-.37S133.88,183.63,133.5,183.26ZM137.2,194a4.92,4.92,0,0,0-2.58-1.11,5.26,5.26,0,0,0-2.22.74v1.11l1.1,1.1a32.06,32.06,0,0,0,3.7-.73Zm0-13.69v-.37c-.37-.37-.37-.37-.74-.37v.74Zm.37,62.88c-.37.37-.37.37-.74.37v1.11a.83.83,0,1,0,.74-1.48Zm3.33-59.55c-.37,0-.37,0-.37-.37,0,.37,0,.37-.37.37.37.37.37.37.37.74,0-.37,0-.37.37-.37Zm.37,71.39h-.74l-.37.37c0,.37,0,.37.37.74.37,0,.37,0,.74-.37Zm57-133.16a71,71,0,0,0-7-6.29,32.55,32.55,0,0,0-11.84-3,13.06,13.06,0,0,0-5.18-1.11,14.85,14.85,0,0,0-5.55,1.11,59.32,59.32,0,0,0-11.09,3c-3.33,3.33-5.55,8.88-5.92,16.64l-.74,4.81-.37,30.7c0,4.81,1.48,7.4,11.47,10.73l6.65,1.48a29.88,29.88,0,0,0,7-1.11,42.9,42.9,0,0,1,5.55-2.59c4.44-.74,8.14-3,11.47-7,1.85-1.48,3.33-3.7,5.18-6.66h.37l2.22-6.28,1.1-1.48a105.76,105.76,0,0,0,1.11-17C202.3,133.69,200.83,128.52,198.24,121.86ZM226,239.11c-.37-.74-1.11-.74-1.85-.37a2,2,0,0,0,1.11,1.85C226.35,240.22,226.35,239.85,226,239.11Zm4.44.37a23.65,23.65,0,0,1-3.7,1.48v1.85c.37,0,.37,0,.37.37a2.22,2.22,0,0,0,1.48-.37,12.13,12.13,0,0,0,2.22-3Zm-2.59,24.78a1.36,1.36,0,0,0-1.11-.37v-.74a2.27,2.27,0,0,1,1.48-.36,1.33,1.33,0,0,1,.37,1.1C228.2,264.26,228.2,264.26,227.83,264.26Zm3.7-136.85V126.3h-.74v1.11Zm6.28,130.94c-1.11-1.48-1.85-2.22-2.22-1.85-.37,0-.37,0-.37.37l1.85,1.85Zm2.59-9.62a13.3,13.3,0,0,0-.74-4.07h-.74c-.74,2.59-.37,4.44,1.11,4.81Zm-.74-120.95-.37-.74h-.74v.74h1.11ZM240,251.69a4.52,4.52,0,0,0-1.11,3.33c1.48,0,2.22-1.11,2.22-3A1.36,1.36,0,0,0,240,251.69Zm4.81,11.1h-.74a2.25,2.25,0,0,1-1.11-2.22,3.41,3.41,0,0,1,1.85,1.1Zm1.85-141.67c.37-.37,0-1.11-.37-1.48h-1.11a2.81,2.81,0,0,0,.74,1.48Zm.74,143.51c-.37.37-.37.37-.74.37a2.22,2.22,0,0,1-.37-1.48,1.36,1.36,0,0,1,1.11.37Zm1.48-136.11a1.35,1.35,0,0,0-.37,1.11,2,2,0,0,0,1.11,1.84c.74,0,1.11-.37,1.48-1.11A2.34,2.34,0,0,0,248.91,128.52Zm.37,139.07-.74-1.11c.37-.37.74-.74,1.11-.74a1.36,1.36,0,0,1,1.11.37C250.76,266.85,250.39,267.22,249.28,267.59Zm4.81-146.47a12.48,12.48,0,0,0-4.44,1.48c0,1.11,1.48,2.59,4.07,5.18a8.51,8.51,0,0,1,2.59-3c.37-1.11,1.85-.74,1.85-1.85A17.71,17.71,0,0,1,254.09,121.12ZM250.76,248a1.36,1.36,0,0,0-1.11.37c0,1.48,0,2.22.37,2.59,1.85-.37,2.59-1.11,2.59-2.59A4,4,0,0,0,250.76,248Zm8.14-6.29-4.07-3.33-1.48.74q0,1.66,2.22,2.22v1.48a1.36,1.36,0,0,1-1.11.37,1.89,1.89,0,0,1-1.85-1.48H250q-.56,1.11,2.22,3.33a4.42,4.42,0,0,0,1.48,3l2.22-2.59c.37-.74,1.11-1.48,3-2.59Zm-6.66,20H250v-1.1c.37-.37,1.11,0,2.22.37Zm9.62-14.79c.74-1.48,0-2.22-2.59-2.22l-1.48.74a2.83,2.83,0,0,0,.74,1.85Zm-3-11.84-.37.37Zm5.18,24.79,2.59-2.59c0-1.48-.38-2.22-1.48-2.22s-1.48,1.11-4.07,3.7c0,1.11.74,2.22,2.59,4.07a12.49,12.49,0,0,0,2.21,2.95,3.33,3.33,0,0,0,1.48-2.22C265.19,262.42,264.08,261.31,264.08,259.83Zm3.69-8.88-.73-1.48h-1.12a2.22,2.22,0,0,0,.37,1.48Zm20.72,10.36V262l-1.11,1.48c-.37,1.48-1.48,2.22-4.07,2.59-1.11-1.85,1.85-5.54,4.44-5.54Z"/><path class="cls-1" d="M411.26,189.6a2,2,0,0,1-1.3.26c-1,0-2.35-2.09-4.18-6-1.3-2.87-2.61-4.95-4.44-6.26l-6-11-3.65-4.7a12.51,12.51,0,0,0-5-2.87,1.91,1.91,0,0,1-1.57-1h-.52v-.27l-4.18-2.6c-.78-.53-3.13-.79-7.3-1.05l-4.44-.78c-2.87,0-5,.26-5.74.78-7.31.78-6,.52-7.83,2.35a7.56,7.56,0,0,1-2.35,1.83c-3.39,1.56-5.22,3.13-5.48,5h-.26c-2.87,2.87-5.22,6.78-7.57,11.74-.78.78-1.57,3.13-2.35,7.05a40.3,40.3,0,0,1-1.83,6.26l-.78,5.48c-.26.26-.26,2.61-.26,7-.26.78-.52,3.39-.52,7.83-.27.26-.27,1-.27,2.09a10.37,10.37,0,0,0-1,5.22,17.44,17.44,0,0,0,1.57,3.39c.26.78.26,1.31.52,1.57a61.5,61.5,0,0,1,.26,6.78,33.57,33.57,0,0,1,1.57,5.22,5.69,5.69,0,0,0,.78,2.35l2.35,6.27c0,.78,1,2.87,3.13,6.78,1.3,4.18,3.13,6.79,5.74,7.57a15.24,15.24,0,0,0,4.7,3.66,17.83,17.83,0,0,0,6,1.56c1.83.78,2.87,1.57,2.87,2.61s-1,1.83-3.13,3.66a2,2,0,0,0-1.3.26c-2.35,0-5.48,0-9.66.26a11.81,11.81,0,0,0-3.39-.26v-.26l-10.7-1.83a4.2,4.2,0,0,0-2.09-.78.56.56,0,0,0-.52-.53,62.83,62.83,0,0,1-9.92-3.39c-1.83-.26-2.87-.78-3.13-1.57h-.27c-.78-1-2.08-1.56-3.91-1.82-.26-.79-1.57-1.31-3.65-2.35-.26-.26-2.88-2.87-7.31-7.83-3.92-4.44-6-6.79-6-7.05h-.26c-.78-1-1.56-2.61-2.61-4.44h-.26a59.29,59.29,0,0,0-1.56-6.52c-1.31-2.09-2.35-5.22-2.87-9.66a11.43,11.43,0,0,1-.27-3.65,20.27,20.27,0,0,1-.52-3.92,9.47,9.47,0,0,1,.52-2.87,28.86,28.86,0,0,0-.26-5.74c.26-.78.79-4.18,1.57-10.18V193h.26a71.06,71.06,0,0,1,1.31-7.05,11.79,11.79,0,0,0,1.82-2.61,21,21,0,0,0,1.57-5,39.3,39.3,0,0,1,5.48-8.61h.52c0-1.3,3.13-3.91,3.92-5l3.91-3.91h.26a2.59,2.59,0,0,1,1.31-1,7.34,7.34,0,0,1,3.91-2.09,2,2,0,0,1,1.83-1.3v-.26l2.09-1v-.27c2.09-.78,5.22-1.56,9.13-2.61V152c1.05,0,3.4-2.35,4.44-2.35h.26a9.06,9.06,0,0,1,3.39-.78v-.26a10.53,10.53,0,0,0,3.92-.78h9.39l5.49-.79c8.61,0,14.35.26,17.22.53,1.57,0,4.44.26,8.35.52.79.26,2.35.26,4.18.52l17.75.52a8.73,8.73,0,0,1,3.91-.78,15,15,0,0,1,3.13.26l1.05,1.57,1,6.26c0,.26,0,.26.26.52,0,1.57,0,4.18.27,7.57a41.52,41.52,0,0,0,.52,9.4C412.31,182.81,412.05,188,411.26,189.6ZM297.73,205.26V205c-.52-.26-.79,0-.79.26h.79Zm2.87,6.52-1.05-.52-.78.52c-.26.26,0,.79.78,1.57a1.58,1.58,0,0,0,1.05-.26Zm-.52-3.65v-.52h-.79c0,.26,0,.26-.26.52Zm2.09,17c0-1.3-.79-2.08-2.35-2.35v.79c-.27.78.26,1.82,1,3.13A1.66,1.66,0,0,0,302.17,225.09Zm-2.35-22.7v.26c0-.26,0-.26.26-.26Zm2.87,17.22c-1.31,0-1.57.52-1.31,1.31.26,0,.26,0,.52.26a2,2,0,0,0,1.05-.52C303,219.87,303,219.61,302.69,219.61Zm23-34.45a2.6,2.6,0,0,0-1.3-1L321.48,181h-1.31c-.26.53,0,1.57,1.05,2.87l-4.18.79a1.88,1.88,0,0,1-1.56,1c-.27-.26-.27-.78-.27-1.56,0-.27,2.09-.53,2.09-1.83A2,2,0,0,0,317,181c-.78-.26-1.56.79-2.35,2.61a3.07,3.07,0,0,0-2.61,2.35l-.52.52c-1.83,0-2.87-3.13-3.91-3.13a12,12,0,0,0-2.35-1.3l-.26.26c.26.78,2.34,3.39,2.34,4.7a6.61,6.61,0,0,1-1.82.52c-1.31.78-2.09,1.57-2.09,2.35a2.25,2.25,0,0,0,.78,1.56c0,1.05.79,1.83,2.09,3.14a1,1,0,0,0-.26.78,2.67,2.67,0,0,0-1.31,2.09,4.24,4.24,0,0,0,.79,2.09v1a3.1,3.1,0,0,0-1.05,2.09,2.22,2.22,0,0,0,.79,1.56v.53a2,2,0,0,1-1.05.26,1.56,1.56,0,0,0-1-.26v.52c.78.26,1,1,1,2.35l1.05,1.56a4.62,4.62,0,0,0,.26,1.57,3.81,3.81,0,0,0-1.57,1.83l2.35.78a2.83,2.83,0,0,0,.26,1.3c-.52.79-.52,1.57-.26,1.83l-1,.78a3.78,3.78,0,0,0,1.3,2.09,1.6,1.6,0,0,0,.26,1.05l1.83,1.82-2.87.79a6.46,6.46,0,0,1-.26,2.08l-2.09.79a1.92,1.92,0,0,0,2.09,2.08l.52-1h3.13l.79,1.57a1.64,1.64,0,0,0,1.82-.26,1.15,1.15,0,0,0-.26-1.31c.78-.26,1.31-.26,1.57,0a6.65,6.65,0,0,0,2.35,2.61c.26.78,1.3,1.57,2.87,2.35l2.08-.78,1.31-2.35a14.08,14.08,0,0,0-.26-2.87c-.26-.79-2.61-2.87-2.87-3.92.26-.26.78-.26,1.56-.52a3.41,3.41,0,0,1,1.83-3.13v-1.05a3.32,3.32,0,0,1-1.57.26,9.08,9.08,0,0,1-3.13-.78c.79,0,1.57-.52,2.35-1.83l-1.83-2.34c0-1,.79-1.83,2.09-2.61v-.53c-.26-.26-1-.26-2.09-.26a1,1,0,0,1-.26-.78,3.66,3.66,0,0,1,.53-1.57,3.09,3.09,0,0,0,2.34-2.87l1.05-.78c.26-.26.26-.52.26-1a8.17,8.17,0,0,1-2.09-.53v-1.82a3.31,3.31,0,0,0-1.3-1.83,6.17,6.17,0,0,1,1.56-2.35,3.52,3.52,0,0,1,2.35-2.35c.26,0,.26-.26.52-.52l.26-1c.27-.27,1,0,2.09,1.3a1.47,1.47,0,0,0,1.57-.26,2.22,2.22,0,0,0,0-1.83c-.78-.26-1.05-.52-1.05-1.3,1.31-.26,1.83-1.57,1.83-3.66A4,4,0,0,0,325.65,185.16Zm-20.09,5.74H305v-.26h.52Zm7.83,39.41a2.77,2.77,0,0,0-1.31-.78h-4.17c-.26,1.83,1.3,2.35,1.3,3.39a2.69,2.69,0,0,1-1,2.09v.52l1-.52a34.42,34.42,0,0,0,4.18-3.91Zm-2.87-3.39c-.26-.26-.26-.26-.52-.26a8.1,8.1,0,0,1,.52-2.09c.26.26.52.78.52,2.09C310.78,226.66,310.78,226.66,310.52,226.92Zm.26,16.44a1.56,1.56,0,0,0-.26-1H310v1Zm2.35-3.91a1,1,0,0,1-.79-.26c0,.26,0,.26-.26.26a1,1,0,0,0,.26.78,1,1,0,0,1,.79-.26Zm5,4.7a2.34,2.34,0,0,1-1.83-.79,5.19,5.19,0,0,0-3.39,1v1l2.61,2.87c.78-.26,1-.78,1.3-1.82a8.9,8.9,0,0,0,2.09-1.57Zm-2.61-67.86a4.42,4.42,0,0,0-.27,1.56,1.76,1.76,0,0,0,1.05,1.83,1,1,0,0,0,.78-.26C317,177.33,316.52,176.29,315.48,176.29Zm3.39,26.62a1.58,1.58,0,0,1-1.05.26v-.26c.27-.26.79-.52,1.05-.26Zm0,31.84h-.52v1c.26-.26.26-.26.52-.26Zm2.61-27.67c-.78,0-1.31.53-1.31,1.57h.26a1.58,1.58,0,0,0,1.05-.26A1.18,1.18,0,0,0,321.48,207.08Zm3.39,12.53a2.9,2.9,0,0,0-2.09,0,6.31,6.31,0,0,1-2.35,2.09,5.9,5.9,0,0,0,1.05,1.57c1.3-.26,1.3-1.31,2.09-1.31a6.61,6.61,0,0,1,1.82.52,1,1,0,0,0,.79-.26C326.44,222.22,326.18,221.44,324.87,219.61ZM322,242.32c-.26,0-.26,0-.26-.26a2.88,2.88,0,0,0-1.31.26v1h1.05Zm.78-32.63a1.58,1.58,0,0,0,.26,1.05c.79,0,1-.26,1-.52s0-.26-.26-.53ZM323,178.9v1.56c1.83,0,2.35-.52,2.35-1.83A2.77,2.77,0,0,0,323,178.9Zm2.88-7.05a4.76,4.76,0,0,0-.53,2.09,5.86,5.86,0,0,0-1.82.26c-.53.78,0,1.3,1.56,2.09a8,8,0,0,0,.52,2.08,3.48,3.48,0,0,0,1.83-1.56,6.74,6.74,0,0,0,2.61-2.35C327.48,172.63,326.18,171.85,325.92,171.85ZM324.87,188h-1c-.26-.26-.26-.26-.26-.52a1.16,1.16,0,0,1,1.3,0Zm-.52,17.23c0-.26,0-.26-.26-.26h-.52v.26h.78Zm-.26,9.92v-.27h-.52c0,.27,0,.27.26.27Zm-.26,35.49-.26-.26v.26ZM325.92,175v-1h1a1.56,1.56,0,0,0,.26,1Zm0,67.34a1,1,0,0,0,.26.78v-.26c.26,0,.26-.26.52-.52Zm.52-44.89c0-.26,0-.26-.26-.52v.78Zm0-30.8c0,.26.26.26.52.52,1,0,1.57-.52,1.3-1.3A3.46,3.46,0,0,0,326.44,166.63Zm1,71.77c-.26-.26-.26-.26-.26-.52h-.52c0,.26,0,.26.26.52Zm2.09.53h-.78c0,.26,0,.26-.26.26l.52.78q.39,0,.78-.78Zm.26-62.64c-.52.26-.78.52-.78,1l.26.26c.26,0,.52-.26.78-.52A1,1,0,0,0,329.83,176.29Zm0,68.64c-.26-.26-.26-.26-.26-.52h-.52l.26.52Zm-.52-75.43v.26h.26l.26-.26Zm2.61,78.3h-.52v.78c.78-.26,1-.52,1-.78ZM334.79,164v.78c.26-.26.52-.52.52-.78Zm97.61,56.9-2.08,2.61a17.52,17.52,0,0,0-7.57,7.57l-1.05,3.13a59.77,59.77,0,0,1-.52,6.52l-.52,3.14c-.26.78-.26,4.69-.26,12.26,0,1.31-1,2.87-2.87,4.44-.53.52-8.09,1-22.45,1.83-2.87.26-7.05.78-12.79,1.82l-3.91,1.31H375c-1,0-7-.26-6.26-3.13,1-.79,2.35-1.31,3.65-2.09,2.35-1.31,5-3.66,8.09-7a12.58,12.58,0,0,0,2.35-3.91l1.05-7.57v-3.92a13.1,13.1,0,0,0-.78-3.65,7.59,7.59,0,0,0-5.75-7.31c-.26-.26-3.13-1.3-8.87-3.39h-1c0-.26,0-.26-.27-.26-4.69-.79-6.52-2.35-5.74-5l1.31-.79c1.56,0,5,0,9.91-.26a9.11,9.11,0,0,1,3.14-.26h2.87a62.32,62.32,0,0,0,8.61.52,52.64,52.64,0,0,0,6-.26h21.67c7.83-.26,13.31,0,16.44.53l1,1Zm-38.62,9.92v-.79a3.78,3.78,0,0,0-1.57-.52v1.31l.52.52Zm.78,16.18c0-1.83-.78-2.87-2.35-2.87V246A5.64,5.64,0,0,1,394,247Zm-.52-11c0-.79,0-1.05-.26-1.31h-1a2.26,2.26,0,0,0,.79,1.57Zm-.52,4.69a1.52,1.52,0,0,1-.27-1c-.26,0-.26,0-.52.26v.78Zm.52,8.62a1.23,1.23,0,0,0-1.31,1.3c.26,0,.26,0,.26.26a1,1,0,0,1,.79-.26Zm1.3-1.05a1,1,0,0,0-.26-.78h-.26a1,1,0,0,0,.26.78Zm-.26-11.22a2,2,0,0,0,1.31,1.83,2.07,2.07,0,0,0,1.3-2.09C397.17,236.58,396.39,236.84,395.08,237.1Zm2.87-6.79a7,7,0,0,1-2.35,1.83,1.56,1.56,0,0,1-.26,1l1.57-.26c1.3-1,1.83-1.56,1.56-1.56.27-.52.27-.79,0-1.05Zm-2.35,22.45v.52h.26v.26c0-.26,0-.26.27-.26C396.39,253,396.13,252.76,395.6,252.76Zm6-15.66a1.42,1.42,0,0,0-1.05-.78c-.26,0-.52,0-.52.26a5.8,5.8,0,0,1,.26,2.35,3.73,3.73,0,0,0-2.61,3.39,16.16,16.16,0,0,1,2.87,1.57h.78a1,1,0,0,0,.27-.79c0-.52-.27-1-1.05-1.82v-2.09l1.05-.79Zm5.22-8.61-1.57.78h-1c-.79-.78-1.57-1-2.09-.78v2.08a10.44,10.44,0,0,1,.52,3.92l.78,1.3a2,2,0,0,1,1.31-.26,3.18,3.18,0,0,1,1.56-2.35c0-.78-.52-1.82-.52-2.61a2,2,0,0,0,1.31-1.82Z"/></svg>