<svg id="Layer_1" data-name="Layer 1" xmlns="http://www.w3.org/2000/svg" viewBox="0 0 500 500"><defs><style>.cls-1{fill:#fff;}</style></defs><title>shoot</title><rect class="cls-1" width="500" height="500"/><polygon points="74.66 21.36 84.28 69.48 110.24 21.36 285.24 21.36 295.81 8.15 301.58 21.36 322.74 64.77 331.39 32.68 349.66 27.96 396.77 21.36 475.62 24.19 441 55.33 481.39 54.39 481.39 208.2 491 216.69 484.27 216.69 494.85 230.84 488.12 240.28 482.35 261.98 480.43 354.46 454.46 381.82 483.31 400.69 484.27 474.3 459.27 474.3 444.85 494.11 432.35 474.3 311.2 475.24 328.5 494.11 284.75 474.3 204.42 482.12 211.71 439.56 166.01 489.4 157.35 472.41 24.66 473.35 65.05 429 20.82 439.38 20.82 349.74 5.43 362.01 20.82 329.92 17.93 195.93 28.51 205.37 16.01 174.23 16.97 149.69 27.55 176.11 16.97 114.78 16.97 20.42 37.16 20.42 34.28 36.46 55.43 3.43 56.39 18.53 74.66 21.36"/><path class="cls-1" d="M142.52,376.22c-1.64-5.16-4.76-11.23-11.4-11.23a7.76,7.76,0,0,0-8,8.12c0,4.51,3,7.05,10.17,10.74,8.61,4.18,14.52,8.77,14.52,16.89,0,9.35-8,16.65-19.93,16.65a29.22,29.22,0,0,1-8.28-1.15,33.79,33.79,0,0,1-4.92-1.8c-.82-2.05-1.89-8.94-2.46-13.86l2.87-1c1.64,5.25,6.48,14.52,14.35,14.52,5,0,8.2-3.45,8.2-8.69,0-4.84-3.61-7.88-9.76-11.16-8.36-4.26-14.27-8.69-14.27-16.56,0-9,7.14-16.07,18.78-16.07a36.34,36.34,0,0,1,11.4,2.13c.33,3,.9,6.72,1.56,11.81Z"/><path class="cls-1" d="M210.66,365.73c-6.4.57-6.89,1.06-6.89,8v31.57c0,6.89.66,7.38,6.89,8v2.87h-25v-2.87c6.48-.58,7.13-1.07,7.13-8V390H170.4v15.25c0,7,.65,7.46,6.72,8v2.87H152.69v-2.87c6-.58,6.72-1.07,6.72-8V373.76c0-7-.74-7.46-7-8v-2.87H177v2.87c-5.91.57-6.56,1.06-6.56,8v12.06h22.38V373.76c0-7-.65-7.46-6.8-8v-2.87h24.68Z"/><path class="cls-1" d="M272.32,388.93c0,17.72-12.71,28.46-28.2,28.46-16.41,0-27.8-12.06-27.8-27.72,0-14.1,10.08-28,28.86-28C260.11,361.71,272.32,372.78,272.32,388.93ZM229,388c0,14.11,6.14,25.91,16.64,25.91,7.79,0,14.11-7.62,14.11-22.71,0-16.32-6.57-26.08-16.16-26.08C235.34,365.15,229,373.84,229,388Z"/><path class="cls-1" d="M336.61,388.93c0,17.72-12.71,28.46-28.21,28.46-16.4,0-27.8-12.06-27.8-27.72,0-14.1,10.09-28,28.87-28C324.39,361.71,336.61,372.78,336.61,388.93Zm-43.38-.9c0,14.11,6.15,25.91,16.65,25.91,7.79,0,14.1-7.62,14.1-22.71,0-16.32-6.56-26.08-16.15-26.08C299.63,365.15,293.23,373.84,293.23,388Z"/><path class="cls-1" d="M386,376.88c-1-4.26-2.13-7.05-3.6-8.53s-3.53-1.89-8.37-1.89h-3.69v38.79c0,7,.82,7.46,8,8v2.87H351.62v-2.87c6.88-.58,7.7-1.07,7.7-8V366.46h-2.78c-6.81,0-8.29.83-9.43,2.22-1.4,1.39-2.38,4.18-3.45,8.28h-3c.33-6,.82-12,1-16.15h2.05c1.23,1.8,2.3,2.05,4.67,2.05h33a5.35,5.35,0,0,0,4.67-2.05h2c.09,3.44.5,10.66.91,15.9Z"/><path class="cls-1" d="M241.61,221a1.36,1.36,0,0,0-1.11.37v.74c.37,0,.37,0,.37.37-.37,3.7-1.48,5.55-2.59,5.92l-.37-.74c-.74,0-1.11-.37-1.11-.74h-3l-2.21,1.48c.37.36.37.74.37,1.47h1.1v.37a1.36,1.36,0,0,1,1.11.37h.37V231a7.94,7.94,0,0,1,1.48,2.59c.37,2.22-1.48,5.92-5.54,10.73a50.87,50.87,0,0,1-6.29,7l-8.14,7.77h-.37a32.56,32.56,0,0,1-5.55,1.85c-.37.37-.74.37-1.85.73-1.11,1.85-3.7,3.7-7.4,5.92l-6.28,1.48c-5.18,0-11.47,1.11-19.24,3h-5.18c-.37-.37-.37-.37-.74-.37H156.17a55.18,55.18,0,0,1-7.77-1.85l-6.66-.74a10.24,10.24,0,0,1-3.33-.37L124.73,268c-.37,0-.37,0-.37-.37-8.51-.37-13.32-.37-14.8.37-4.44,0-7.4-1.11-8.88-3a2.84,2.84,0,0,0-.36-1.85A41.44,41.44,0,0,0,99.21,255c-.37-5.55-.37-8.88,0-9.25,0,2.59-.37-4.44-1.11-21.45a57.71,57.71,0,0,0,0-11.47,7.22,7.22,0,0,1-.37-2.59,3.71,3.71,0,0,1,2.22-3.7,6.63,6.63,0,0,1,4.06,1.11c2.22,4.44,4.81,9.62,8.14,15.17a74.71,74.71,0,0,1,6.66,11.83h.37c.74,2.22,3.7,5.55,8.88,10.36,2.59,4.07,5.18,7,8.13,8.14l1.11.74c1.48,1.48,5.55,4.44,17.76,7.4a11.4,11.4,0,0,0,3.7,1.11,11,11,0,0,0,3.7,1.1,13.7,13.7,0,0,0,5.17.74c8.51,0,8.88-2.22,16.28-5.17a19.63,19.63,0,0,0,5.55-5.55l3.33-2.59c1.85-2.59,3.33-5.18,3.7-7.77.37-.37.74-2.22.74-6.29,0-1.48-.37-1.85-1.48-7.4q-2.22-1.65-5.55-6.65a101.67,101.67,0,0,0-8.88-6.29c-1.11-1.11-4.07-1.85-8.88-3a27.46,27.46,0,0,1-5.91-1.85h-.74c-.74-.74-3.33-1.85-7.77-3.7a47.2,47.2,0,0,1-12.21-3.7c-4.81-2.22-8.51-3.7-11.1-4.07-2.21-.74-5.91-2.59-11.46-5.17a11.16,11.16,0,0,0-5.55-3.33l-2.22-1.48c-1.85-2.59-4.81-6.66-8.51-12.95l-3-5.55-2.22-7c0-.37,0-.37-.37-.37V145.16c1.11-3,2.22-7.4,4.07-13.69l8.88-13.31,7-5.92,3.33-2.59a23.31,23.31,0,0,1,10-3.7l6.29-2.22,3-1.85,3.7-1.11h16.28a29.8,29.8,0,0,1,5.91-.37c3,0,6.29.37,10,.74,2.59.37,5.92.74,10.73,1.85a2.77,2.77,0,0,0,1.85.37l7.76,1.11c1.85-.37,4.07,0,6.66.37C222,106.32,220.16,103,222,118.9c1.11,1.85,1.48,5.18,1.48,10a5.22,5.22,0,0,0-.74,2.21,25.92,25.92,0,0,0,1.11,5.18,60.06,60.06,0,0,1,.37,7.77c.37,3.33-.37,5.18-2.22,6.29h-1.85a28.93,28.93,0,0,1-4.44-7,50.33,50.33,0,0,0-4.44-6.29,21.66,21.66,0,0,0-4.07-5.18,24.67,24.67,0,0,1-2.59-6.28l-1.11-1.48-5.54-3.7c-6.29-7.4-12.95-11.47-20-11.84-1.11-.37-3-.37-4.81-.74H161.35c-2.59.37-5.55,2.22-8.51,4.81a53.74,53.74,0,0,0-7.77,5.92l-1.85,6.29a5.49,5.49,0,0,0-.37,2.59,24.87,24.87,0,0,0,1.11,6.65c.37,0,.37.37.74,1.11l3.33,3c1.48,2.59,6.29,5.92,14.43,10.73l1.85.37L178,153.67l1.11.37,3.7,1.48c1.11,1.11,4.81,2.59,11.47,3.7a52,52,0,0,1,5.91,1.85l9.25,4.8,6.66,3.33a40.11,40.11,0,0,0,9.62,7,25.65,25.65,0,0,1,8.13,9.62c.37,1.48.37,2.22.74,2.59a62.29,62.29,0,0,1,4.44,7c1.85,12.21,2.59,17.39,2.59,15.91ZM118.44,135.54v-.74c0-.37,0-.37-.37-.37l-3.7,7.4v2.22l.37.37,3-3.7a8.11,8.11,0,0,0-1.11-3Zm4.07,37.36a1,1,0,0,0-1.11-1.11c-.37.37,0,.74.37,1.11Zm2.22,8.88a1.92,1.92,0,0,0,.74,1.48,1.36,1.36,0,0,1,1.11-.37A4,4,0,0,0,124.73,181.78Zm1.11-5.55h-.74V177h.74Zm11.83-33.29c-2.22-1.85-3.7-3-4.8-2.59v.37c2.58,2.22,3.69,4.44,3.69,6.29-.37,0-.37,0-.74.37-3.32.37-5.17,1.85-5.17,4.44a2.22,2.22,0,0,0,1.48.37c.37-.74,1.11-.74,2.21-.37,0,.74-.73,1.11-1.84,1.48a7.39,7.39,0,0,0,.74,3.33,33,33,0,0,0,4.43-2.59c.37-.37,1.48.37,2.59,1.48h2.59a23.17,23.17,0,0,0,1.48-5.18A90.75,90.75,0,0,1,137.67,142.94Zm-3.33,24.78H134c-1.47.74-2.21,1.48-1.84,1.85a7.15,7.15,0,0,0,2.58-.37A2.22,2.22,0,0,1,134.34,167.72Zm-.73,6.66q-1.11.56-1.11,1.11a2.81,2.81,0,0,0,.74,1.48c1.47,0,2.21-.37,2.21-1.11a2.81,2.81,0,0,0-.74-1.48Zm7.39-11.1a1.34,1.34,0,0,0,.37-1.1c0-.74-.74-1.48-1.85-2.22a5.26,5.26,0,0,0-.74-2.22h-1.85a10.42,10.42,0,0,1-4.06,1.85v3.33l2.21,2.21c.37.37,1.11.37,1.85.74a4.66,4.66,0,0,1,1.48-2.59Zm-3,16.28v-.37c-.37,0-.37,0-.74.37H138Zm64,18.86a6.38,6.38,0,0,0-2.21-4.43v-1.48a6.06,6.06,0,0,0,1.47-3.33,2.83,2.83,0,0,0-.74-1.85,24.46,24.46,0,0,1-.37-4.07c-.36-.37-1.47.74-3.69,2.59a9.76,9.76,0,0,0-.37,2.59,9.2,9.2,0,0,1-3-.37l-3.7-4.44c-.37-.74,0-1.48.74-2.59,0-1.85-.37-3-1.48-3.7-.37-.74-.37-1.85.74-3.33a11.9,11.9,0,0,0,3-.37l.74-1.48h3a4.5,4.5,0,0,0,3.33,1.48v-.74c-2.59-2.22-7-3.7-13.32-4.07h-3.7c-.37-1.11-1.48-1.48-3-1.48,0,.37-.74,1.48-.74,1.85.37.37.37.74.74.74,0,.74-.74,1.48-1.85,1.85l-3,.74c-.37,1.48-1.85,2.22-4.44,1.85a4,4,0,0,0-1.48,1.85,8.69,8.69,0,0,1-7.39-4.44,24.16,24.16,0,0,1-4.07-.74V169.2a3.38,3.38,0,0,0-1.85-1.11,2,2,0,0,0-1.85,1.11,5.9,5.9,0,0,1-3,1.11,15.92,15.92,0,0,1,2.59-2.59c.37-2.22,0-3.33-.37-3.7s-1.48,0-2.59,1.11c0,.37-.37.74-1.11,1.48h-2.59l-.74-1.11a1.08,1.08,0,0,0-1.11,1.85c.37-.37.74-.37,1.48-.37v2.22l2.22,2.22-.74,1.48a5.19,5.19,0,0,1-1.48-2.59,5.69,5.69,0,0,1-2.22-1.48,5,5,0,0,0-3.33,0c-.37.74-.37,1.85,0,3.7,0,.37-2.22,1.85-2.22,3l1.11,1.11a7.22,7.22,0,0,0,2.59-.37,6.51,6.51,0,0,1,.37-2.22H144c1.85,1.48,2.59,2.59,1.85,3.7-1.11.37-1.85.74-1.85,1.85,1.48,1.11,4.07-1.48,5.18-1.11a2.22,2.22,0,0,1,.37,1.48,5.7,5.7,0,0,0,4.07.74l1.85,1.48c.37,2.59,1.48,3.33,2.59,2.22,0-1.85.37-2.59,1.11-2.59l1.48,2.59a3.13,3.13,0,0,1,2.22.74h3c1.1,1.85,2.58,2.59,5.17,1.85a5.19,5.19,0,0,1,1.48,2.59c4.81,1.11,6.66,1.48,5.55,1.48a2.22,2.22,0,0,1,1.48.37,14.55,14.55,0,0,1,2.22-.74c-.37,1.11,0,3,.74,4.8,1.11-.36,1.48-1.47,1.48-3.32l-1.11-1.48c.37-.37,1.11-.37,1.48.74a19.66,19.66,0,0,1,5.18-.37c-1.11,1.48-1.85,2.59-1.85,3.7s1.48-1.11,4.81,4.43c3,.37,3.7.37,4.07,3.33l3.69,1.85.37-.37v-1.48l-.37-1.11Zm-48.45-41.79a9.82,9.82,0,0,0-5.18-1.85v.37l1.48,1.48a3.24,3.24,0,0,1-3,3.33c-.74.74-.37,1.48,1.11,2.58l.74.74a8.09,8.09,0,0,0,2.59-2.58,3.79,3.79,0,0,1,2.22-1.85Zm2.59,33.29-4.44,2.22c-.37,1.48,0,2.59,1.85,3h.74l.74-2.59c1.48-1.11,2.22-2.22,2.22-2.59Zm-3.33-4.81c-.74,0-1.11.37-1.11.74a2.22,2.22,0,0,1,.37,1.48c.37-.37.37-.37.74-.37Zm9.25,10.72c-.37-2.21-1.85-3.32-3.7-3-1.11,3.33-1.48,4.43-1.48,3.69a1.48,1.48,0,0,0,1.85-.36,12,12,0,0,1,3.7,1.1l.74-.37c0-.37,0-.37.37-.37A2.88,2.88,0,0,0,162.09,195.83Zm-3.33-10a2.22,2.22,0,0,0,.37,1.48c1.48,0,2.22-.37,2.22-.74a2.81,2.81,0,0,0-.74-1.48C159.5,185.11,158.76,185.48,158.76,185.85Zm8.87-15.17v-2.59c.74-.37.74-1.48.37-2.59-.37-1.85-1.11-2.22-2.21-1.48v3.33a5.7,5.7,0,0,1-2.59,1.11,1.36,1.36,0,0,0-.37,1.11l1.11.74a12.39,12.39,0,0,0,2.95,4.07c.37,0,.74-.37,1.48-.74A8.71,8.71,0,0,0,167.63,170.68Zm-4.43-10c-.37,1.11-.37,1.84,0,2.22a6.35,6.35,0,0,1,2.22-.38C165.42,161.44,164.68,160.7,163.2,160.7Zm.37,29.22V191a1.36,1.36,0,0,0,1.11-.37C164.31,190.29,163.94,189.92,163.57,189.92Zm12.57,5.18c0-1.11,0-1.48-.37-1.85-1.11,0-1.85.37-1.85,1.11a2.83,2.83,0,0,0,1.85.74Zm3.33,1.47-.37-.36a1.38,1.38,0,0,1-1.11.36c0,.37.37.74.74,1.11l.74-.37Zm.74-19.6-.74-.74c.74-1.11,1.48-1.85,2.59-1.85.37,0,.74.37,1.11.74C183.17,176.23,182.06,176.6,180.21,177Zm8.88,30.33c-.37-1.48-2.22-2.59-2.22-3.7h-1.11c-.37.37-.74.74-.74,1.11,0,1.11,1.11,1.85,3,2.59Zm2.59,2.22v-.74c-.37,0-.37,0-.74-.37l-.37.74c.37.37.37.37.74.37Zm1.11-16.64h-.74c-1.11-1.11-1.48-1.48-1.11-1.85h.74Zm.74,11.46c-.37-.37-.37-.37-.37-.74h-1.85a2.22,2.22,0,0,0,.37,1.48c1.11-.37,1.85-.37,1.48-.37Zm2.22-11.46v2.58a5.49,5.49,0,0,0-2.59.37l-1.11-1.1c0-.74.74-1.11,2.59-1.48,0-.37-.37-.37-.74-.37.74-.37,1.48-1.48,2.59-3h1.84a1.34,1.34,0,0,1,.38,1.11A9.28,9.28,0,0,0,195.75,192.88Zm-.74-10h-1.85a2.22,2.22,0,0,0-.37,1.48l.74.74a2.22,2.22,0,0,0,1.48-.37Zm-.74-7-.37.37c0,.37,0,.37.37.74.37-.37.74-.37.74-.74C194.64,175.86,194.64,175.86,194.27,175.86Zm6.28,28.85c-.37,0-.37,0-.73.37q-1.66.55-3.33,4.44l.37.74c1.47-.37,2.59-1.48,3.69-3.33Zm-3-25.15h-.37v.74l.74.74c.36-.37.36-.37.74-.37A1,1,0,0,0,197.6,179.56Zm4.43,50.3v-.37h-.74v.37Zm11.47-12.94M216.09,248v-.37c0,.37,0,.37-.37.37Zm1.11,9.25v.37c.37,0,.37,0,.37-.37Zm15.9-36.62c-1.1-2.22-1.47-2.59-1.47-1.48h-.37v.37l.74,1.11Zm-.73-4.07c0-.37,0-.37-.37-.37v-.37c-.37,0-.37,0-.37.37H232c0,.37,0,.37.37.74Z"/><path class="cls-1" d="M397.54,162.71a20.32,20.32,0,0,0-5.49,5.22c-1.3,0-2.08,1.57-2.61,4.7a18.89,18.89,0,0,0-1,5.48,35.64,35.64,0,0,0-.52,5.22,28.89,28.89,0,0,0,.52,4.7c0,2.35,0,6.53-.26,12.79l-.52.52c0,2.35,0,6,.26,11,.26,4.7.26,8.1.26,10.44-.52,2.61-.78,9.66-.52,21.41l.78,4.69c.26,2.88.78,4.7,1.83,5.22.26.79,1.82,2.61,5.22,5.49,3.39,1.82,5.22,3.39,5.22,4.69a3.88,3.88,0,0,1-.26,1.83c-1.31,1-3.66,1.57-7.05,1.57q-6.66,1.17-8.61,0a13,13,0,0,1-3.92-.26q-5.08,0-15.66.78c.78,0-6,0-20.36.26l-2.08-.52H334.9l-1.83-.79a4.19,4.19,0,0,1-.78-2.34c0-1.83,1.56-3.14,4.43-4.44a8.42,8.42,0,0,0,3.13-4.44c.27,0,.27-.26.53-.52,3.39-4.44,6-15.14,4.95-21.4.79-8.09,1.31-8.62,1.31-10.44a7.59,7.59,0,0,0-.52-2.35c-.79-3.92-1.83-6.79-3.66-8.61A46.11,46.11,0,0,0,332,211c-2.35,0-9.65,0-22.18.26-5-.52-8.88.52-11.75,3.39q-1.56,2-2.34,7v4.18c.26,3.91.26,5.22.26,4.17a1,1,0,0,0-.26.79c-.27,2.87-.53,5.48-.53,7.83a27,27,0,0,0,.53,5.48c.26.26.52,1.56.78,3.65l2.35,4.7c.26.78,3.13,4.17,8.87,9.92H308a3.76,3.76,0,0,1,.52,2.35c-.26,1.3-2.35,2.34-6.52,2.61H291.57c-.78,0-2.35.26-4.18.52-3.91,0-13.05-.52-17-.52-1.83,0-6,.52-7.83.78h-5c-.78-.26-2.09-.26-3.66-.52a58.71,58.71,0,0,1-11-.53,3.59,3.59,0,0,1-1.3-2.34c0-.79,1.3-2.61,3.91-5.49,3.4-3.65,5-5.48,5-5.74a18.22,18.22,0,0,0,2.09-5l.78-4.17a16.89,16.89,0,0,1,.52-2.87c.27-5,.27-12.27.27-21.93v-15.4l.78-7.3a3.92,3.92,0,0,0,.26-1.83,5.13,5.13,0,0,0-.26-1.83c-.26-5-.26-7.83.26-8.87a28.58,28.58,0,0,0,.26-4.44,10.79,10.79,0,0,0-.52-3.65c-.78-4.18-1.31-6.53-2.09-6.79-1.3-2.87-2.87-4.7-5.22-5.22l-3.13-2.61c-2.09-1.83-2.61-3.92-1.31-6.26a9.85,9.85,0,0,1,4.44-1.83c5.48.26,8.61.26,9.14.26.52-.26,2.08-.26,4.69-.26,3.14-.26,5.75-.26,8.09-.26h12.53l.79.26c-1.31,0,1,0,7.3-.26h7.05a96.36,96.36,0,0,1,9.92.78c.26,0,.26,0,.26.26,1.83.26,2.61,1.57,2.61,4.18-2.09,3.39-6,5.74-6.79,5.74a28,28,0,0,0-6,14.09v3.14a40.66,40.66,0,0,0-.26,5.22v8.61c0,.26.26,1.3.52,2.61h.26c.26,1.83,1.83,3.13,4.44,4.18.26.78,2.61,1,7.05,1.3l2.35.52c2.34,0,6.26,0,11.22-.26s8.87-.52,11.22-.52a9.79,9.79,0,0,0,2.61-.26c5.22-.78,8.09-2.35,8.61-5.22a28.58,28.58,0,0,1,1.05-3.66V192a9,9,0,0,0,1-4.18,4.15,4.15,0,0,0-1-3.13,2.21,2.21,0,0,0-.52-1.57V172.63a4.9,4.9,0,0,0-1.83-2.35,53.63,53.63,0,0,0-7.31-7.83c-2.87-2.35-4.17-4.43-4.17-6.26a6.22,6.22,0,0,1,2.61-2.61c9.65,0,16.18.26,20.09.52a4.87,4.87,0,0,0,2.61.52,15.92,15.92,0,0,0,5-1h36c.26.26.52.26,1.31.52v.26c1,.26,1.56,1,1.82,2.35C401.71,158.54,400.41,160.36,397.54,162.71Zm-139.9,96-.52.52c0,.79,1.82,1.31,1.82,1.57,1.05,0,1.57-.26,1.57-1A3.9,3.9,0,0,0,257.64,258.76Zm2.35-4.17c-.78.26-1.31.52-1.31,1,0,.26,0,.26.26.52a3.32,3.32,0,0,0,1.57-.26A4.39,4.39,0,0,0,260,254.59Zm2.87-43.33c-.26,0-.52.26-.78.52l.52.79c.26-.27.26-.27.52-.27V212A1,1,0,0,0,262.86,211.26Zm2.09-8.35c-.79,0-1.05.26-1.05.78a2,2,0,0,0,.52,1.31h1.31a1,1,0,0,1,.26-.79C266,203.43,265.73,203.17,265,202.91Zm0-3.66c-.26,0-.53.27-.79.53.26.26.26.26.26.52.27-.26.27-.26.53-.26Zm2.35,18c0-1-.79-2.08-2.35-3.13-.26-.26-.26-.26-.53-.26a11.84,11.84,0,0,0,1.31,4.44C266.77,218.05,267.3,217.79,267.3,217.26Zm-1.83,21.93a.79.79,0,0,0-1.05-.26l.53.78ZM267,211c-.27.26-.53.52-.53.78a1.4,1.4,0,0,0,.79,1.05,1.13,1.13,0,0,0,.52-1.83ZM289,178.9c1.3-.79,1.3-1.57.26-2.88a20.18,20.18,0,0,0-2.61-3.13h-1c0,.26-.27.53-.53.79.26-.26.79.52,1.57,2.34H284a8.7,8.7,0,0,1-2.35.27c.26-2.35.52-3.66.26-3.92h-1.3a2.42,2.42,0,0,1-1.31.78,7.51,7.51,0,0,0-4.7.79h-2.35a3.7,3.7,0,0,0-1.56-.52,2,2,0,0,0-1.05.52v.26a6.23,6.23,0,0,1,1.57,3.91,12.22,12.22,0,0,0-3.65,3.14,8.52,8.52,0,0,0,1.56,2.08c0,1.31.52,2.35,1.57,2.61v.26c-1.31,1.31-1.57,2.35-1.05,3.66a14.46,14.46,0,0,1,2.61,3.65,1.33,1.33,0,0,1,1.05,1.31,3.34,3.34,0,0,1-1.57.26l.26-1.31a2,2,0,0,1-1-.52h-1a2.66,2.66,0,0,0-1.05,2.61c.52.26.78.26,1.05,0,0-.26.52-.26,1.82-.52,0,1,0,1.57-.26,1.83a1.42,1.42,0,0,1-1.3-.79h-.53v3.4c1.31,1,1.57,2.08,1.05,2.87-1.05.26-1.57.78-1.57,1.3,0,.79,2.09,3.13,2.09,3.92-.78.52-1.3,1-1.3,1.56a1.88,1.88,0,0,0,1,1.57,9.06,9.06,0,0,1-.26,2.35l-.78.78c0,3.92-1.57,3.13-1.57,4.18a4.25,4.25,0,0,0,1,2.61l2.35-.79v.79a5.86,5.86,0,0,1-1.3,1.3c.26.52,1,.79,1.82,1.05a4.42,4.42,0,0,1,.27,1.56c0-.78-.53.52-1.83,3.66a2,2,0,0,0-.52,1.3,1.89,1.89,0,0,0,1,1.57c0,.78-2.35,2.87-1.57,4.17a6.61,6.61,0,0,1,2.61-.26,8,8,0,0,1-1.3,2.61c-1.31.52-1.83,1.05-1.83,1.31l2.09,2.35a8.36,8.36,0,0,1,.26,2.08c-1.3-.26-1.83-.26-1.83,0a10.29,10.29,0,0,0,.53,1.57c.78-.26,1.3-.52,1.56-1.3l.52.78c.27.26.27,1,0,1.83l.27.26c1.82,0,3.91-1.31,6.52-3.66a7.66,7.66,0,0,0,.78-2.61l1.57-.26a5.69,5.69,0,0,0,.78-2.09,11.45,11.45,0,0,1,1.83-1c0-1.57-1.31-2.35-3.65-2.35a3.37,3.37,0,0,1-2.09-.52l-1.05-.78v-.27c.79-.26,1.57-1,2.61-2.87a8.23,8.23,0,0,0,3.14-.78l-1-.52c-2.09-.26-2.61-.52-2.61-2.35a13.52,13.52,0,0,0-1.3-1.83,1.23,1.23,0,0,1,1.3-1.3,1.82,1.82,0,0,1,1.57-2.09l1.3,1.3h3.13l1.31-2.34v-2.35c-.78-2.09-1.57-3.14-2.61-3.4-.26-.26-.52-.52-.52-.78s.52-.78,1.56-1l.53-2.09c.78-1.05,1.3-1.57,1-1.83h-.52l-3.92,1.31c-.26,2.35-.78,3.39-2.09,2.61-.26-1.05.53-2.09,2.09-2.87a2.08,2.08,0,0,1,1.83-2.35,1.59,1.59,0,0,0,.26-1.05,4.39,4.39,0,0,0-.52-1.3c-.78,0-1.57.78-1.83.78-.26-.26-.26-.78-.52-4.18,0-.26,0-.26.26-.26,1.83.26,2.61,0,2.61-.52a9.06,9.06,0,0,1-2.35-.26l1.31-2.61c1.3-.26,2.08-.78,2.08-1.83-.52-.78-1-1-1.82-.78a2.33,2.33,0,0,0-1.57,1.57,1.92,1.92,0,0,1-1-.53l1-1a3.93,3.93,0,0,0-1-2.87c0-.26.26-.26.52-.52l.52,1H284l.26-.26v-2.35l-1.3-.78c0-.78.52-1.57,1.56-2.87a4,4,0,0,1,3.13-2.09,5,5,0,0,1,.27-1.83c1.3-.26,1.82-1,1.82-2.61A2.25,2.25,0,0,1,289,178.9Zm-20.88,17.48-.26.26.26.27c.26-.27.52-.27.52-.53Zm3.39-31.84c.26-.52,0-.78-1-1v.78c.26.26.26.26.52.26Zm.52,75.17v-.52h.53C272.52,239.45,272.25,239.45,272,239.71Zm.26-74.65v1.57h.27c1.3,0,1.82-.78,2.08-2.35A11,11,0,0,0,272.25,165.06Zm.27,6.27c-.27.26.26.78,1,1.82,1-.26,1.57-.78,1.57-1.82Zm1,62.9-.78.78v-.78Zm3.13-64.73a1.35,1.35,0,0,0,.52,1c.79-.26,1.05-.52,1.05-1.3C277.47,169.24,277,169.24,276.69,169.5Zm2.61,5a1,1,0,0,1-.78.26c-.26-.26-.26-.26-.26-.52a1.56,1.56,0,0,0,1-.26Zm0,45.15-.26-.26c0-1.83.52-2.61,1.31-2.61.26,0,.26,0,.52.26A6.92,6.92,0,0,1,279.3,219.61Zm1.31-51.68c-.26.79,0,1.83.26,3.66h.26c.52,0,.78-.26,1-1.05C282.17,170.28,281.65,167.93,280.61,167.93Zm.52,24a2,2,0,0,1-.52-1.31h1.3A1.21,1.21,0,0,1,281.13,192Zm0,23.23a.43.43,0,1,1-.52,0Zm.26,28.71h-.78a1,1,0,0,0,.26.78c.26-.26.26-.26.52-.26Zm1.57-2.35c0,.52,0,.78.26,1,.52,0,.78-.26.78-.52s0-.26-.26-.52Zm1-14.36v-.78a1,1,0,0,0-.78.26v.52H284Zm2.35-32.1v-1.31H285.3a1.18,1.18,0,0,0,0,1.31Zm.26,3.39h-.78a2,2,0,0,0-.53,1.05c0,.26.27.52.53.78.78-.26,1.3-.52,1.3-.78Zm-1.31,35.76a.93.93,0,0,0,.27.78h1a1.16,1.16,0,0,0,0-1.3A4.53,4.53,0,0,0,285.3,234.23ZM289.74,211a2.87,2.87,0,0,0-2.09,0,6.17,6.17,0,0,1-1.56,2.35,2,2,0,0,0,.52,1.3,21.76,21.76,0,0,0,3.13-2.08Zm-2.61-34.19-.52-.79c.78,0,1,.27,1,.53C287.39,176.55,287.39,176.55,287.13,176.81ZM289,202.13v-1h-1c-.27.52,0,1,.26,1.57Zm0-31.85a1,1,0,0,0-.78.26v1.31c1.3,0,2.08-.52,2.08-1.31A2.83,2.83,0,0,0,289,170.28Zm3.39-6.78c-1,0-1.56.52-1.83,1.82l-1.82.53c-.52.52,0,1.3,1.3,2.08.26.79.26,1.31.52,1.57.79-.26,1.05-1.31,1.05-2.61a2,2,0,0,1-.52-1,3,3,0,0,1,1.82-.53A3.76,3.76,0,0,0,292.35,163.5ZM289,206.3v.52c.26,0,.26,0,.26-.26Zm81.69-22.71c0-.26,1.31,0,1.05-3.39l-.79-1.3a.84.84,0,0,0,.26-.53v-1.56a2.15,2.15,0,0,1-1.3-1.31H368.3a3.7,3.7,0,0,0-1.56-.52,7.88,7.88,0,0,0-2.87.78v1.31a21.94,21.94,0,0,0-.53,3.39,5.58,5.58,0,0,0,.53,2.61,28.2,28.2,0,0,0-1.31,3.39,21.45,21.45,0,0,0,.52,2.09,2.87,2.87,0,0,1,0,2.09c.26,1.31,0,1.83-.78,2.09l1.57,1.3a1,1,0,0,0-.26.79,5.09,5.09,0,0,0-2.09.26l1.82,3.13c-.26.26-.26.78-.52,1.31-.78.26-1.3,1.82-1,4.69a9.73,9.73,0,0,0-.26,4.44,3.7,3.7,0,0,1,1.56.52c-.78.79-1,2.61-1,5.22l1,.79a4.44,4.44,0,0,1-2.35,1.56l-.26.52a3.66,3.66,0,0,1,1.83.53,4.23,4.23,0,0,1-1,2.34,4.53,4.53,0,0,1,.52,1.31h.78c.78.26,1.31.78,1.31,1-.26.26-.53.79-1.05,1.05a1.72,1.72,0,0,0,.26,1.56,8.81,8.81,0,0,1-1,3.92c0,2.35.52,3.65,1.57,3.91v.79c-.27,0-.27,0-.53.26v1.56l-1.56,3.4a2,2,0,0,0,.52,1c0,.26-.26.52-.52.78v2.61a2.48,2.48,0,0,0,1.82.53,4.9,4.9,0,0,0,1.83,2.34c0,1.05,0,1.57.26,1.83h1.05a17.66,17.66,0,0,0,4.69-2.87l-1.56-2.35a20.36,20.36,0,0,1,2.09-2.61c-.26-.52-.53-.78-.53-1a1.59,1.59,0,0,1,0-3.13v-.27l-.78-1a10.89,10.89,0,0,1,.52-1.83c-.26-.26-.26-.52-.26-1,.26,0,.26,0,.52-.26a6.17,6.17,0,0,0-.52-2.09l-.26-2.35c.26-.78-.52-1.83-1.83-2.61v-.52a2.21,2.21,0,0,1,1.57.52h1a16.35,16.35,0,0,0-.78-2.87c0-1,1.83-3.13,1.83-4.44l-1.31-1c-.26-1.83,0-2.87.26-3.13a1.59,1.59,0,0,0-.26-1.05v-.78c.26-.26.26-.52.53-1.3a11,11,0,0,0-.27-2.35l1.05-2.87v-1.83c-.78-1.83-1.31-3.13-1.05-3.66v-1.82a2.77,2.77,0,0,0,.27-1.31c0-.78-.79-1.3-1.05-1.56,1.31-.53,1.83-1.05,1.83-1.31s-.52-.78-1.57-1c-.26-1.05,0-1.57.79-1.57.26-.26.26-1,0-2.09-.27-.78,2.08-1.56,2.08-2.87A16.59,16.59,0,0,0,370.65,183.59Zm-5.74,1.83h-.26v-.26h.26Zm-.26,1.57c0-.79,0-1.05.26-1.05C365.17,186.2,364.91,186.46,364.65,187Z"/></svg>