<svg id="Layer_1" data-name="Layer 1" xmlns="http://www.w3.org/2000/svg" viewBox="0 0 500 500"><defs><style>.cls-1{fill:#fff;}</style></defs><title>wreck</title><rect class="cls-1" width="500" height="500"/><polygon points="74.66 21.36 84.28 69.48 110.24 21.36 285.24 21.36 295.81 8.15 301.58 21.36 322.74 64.77 331.39 32.68 349.66 27.96 396.77 21.36 475.62 24.19 441 55.33 481.39 54.39 481.39 208.2 491 216.69 484.27 216.69 494.85 230.84 488.12 240.28 482.35 261.98 480.43 354.46 454.46 381.82 483.31 400.69 484.27 474.3 459.27 474.3 444.85 494.11 432.35 474.3 311.2 475.24 328.5 494.11 284.75 474.3 204.42 482.12 211.71 439.56 166.01 489.4 157.35 472.41 24.66 473.35 65.05 429 20.82 439.38 20.82 349.74 5.43 362.01 20.82 329.92 17.93 195.93 28.51 205.37 16.01 174.23 16.97 149.69 27.55 176.11 16.97 114.78 16.97 20.42 37.16 20.42 34.28 36.46 55.43 3.43 56.39 18.53 74.66 21.36"/><path class="cls-1" d="M182,365.73c-5.49.82-6.81,2-9.1,8.77-1.81,5.33-6.64,19.6-13.53,42.56H155.1c-4.51-12.22-8.85-23.94-13.44-36.41h-.17c-4.18,12.38-8.36,24.6-12.3,36.41h-4.26c-4.51-14.76-8.53-28.54-13.12-43.13-2-6.4-3.36-7.55-8.2-8.2v-2.87H127.8v2.87c-6.15.73-6.23,1.88-5.09,6.06,2.71,9.6,5.5,19.19,8.29,28.21h.16c3.94-11.64,8-24,11.81-36.65h3.93c4.6,12.46,9.27,25,13.78,37h.25c3.11-10.08,6.47-22.88,7.62-27.71s.82-6.32-5.82-6.89v-2.87H182Z"/><path class="cls-1" d="M236.45,416.9c-.49,0-1.4-.09-2.46-.09-10.34-.49-13.45-2.78-16.81-7.95-2.14-3.36-4.35-7.79-6.73-12.14-1.31-2.46-2.79-3.52-5.41-3.52h-1.56v12c0,6.81.74,7.54,7,8.12v2.87H185.69v-2.87c6.15-.58,7.05-1.31,7.05-8.12V373.68c0-6.56-.74-7.38-6.72-7.95v-2.87h23c7.22,0,11.32.82,14.68,3a12.53,12.53,0,0,1,5.49,10.91c0,7.21-4.76,11.15-10.25,13.36,1.23,2.46,4.26,7.88,6.73,11.65a66.58,66.58,0,0,0,6.23,8.94,12.42,12.42,0,0,0,5,3.52Zm-30.83-27c3.44,0,6.23-.58,8-2.13,2.79-2.3,3.94-5.58,3.94-9.76,0-8.78-5.09-11.89-9.68-11.89-2,0-3.2.32-3.69.82s-.74,1.31-.74,3v19.93Z"/><path class="cls-1" d="M283.68,402.54c-.57,3.7-2.22,11.16-2.87,13.62H239v-2.87c7-.58,7.79-1.07,7.79-8V373.76c0-7.13-.82-7.54-6.64-8v-2.87h38.62c.08,1.47.49,7.21.82,12.3l-3,.41c-.73-2.87-1.8-5.58-3.27-7.06s-3.61-2.05-8.21-2.05h-3.93c-3,0-3.36.17-3.36,2.87v17.39h5.49c6.89,0,8-.41,9.1-6.15h2.95v16.48h-2.95c-1.06-5.9-2.13-6.23-9.1-6.23h-5.49v14.27c0,3.93.32,5.9,2,6.72,1.48.66,4.27.82,7.39.82,4.26,0,7.13-.57,9-2.62a27.27,27.27,0,0,0,4.6-8Z"/><path class="cls-1" d="M338.62,402.14A94.78,94.78,0,0,1,334,415.26c-2.14.49-9.68,2.13-15.26,2.13-21.81,0-30.83-14.19-30.83-27.23,0-16.89,12.88-28.53,32.47-28.53a64.15,64.15,0,0,1,14.93,2.21c.74,4.51,1.31,8.28,1.88,13.37l-3,.57c-2.71-9.67-9-12.54-15.33-12.54-11.9,0-18.45,11.15-18.45,23.28,0,15.09,8.11,25,19.27,25,6.8,0,11.89-4.34,16.07-12.62Z"/><path class="cls-1" d="M380.77,416.16c-3.53-4.84-10.34-14.43-16.16-23-1.72-2.46-2.79-2.95-4-2.79v14.76c0,7.05.74,7.54,7.05,8.12v2.87H343.13v-2.87c5.9-.58,6.72-1.07,6.72-8.12V373.84c0-7-.74-7.54-6.89-8.11v-2.87h24.11v2.87c-5.82.57-6.48,1.06-6.48,8.11v14c1.72-.5,3.78-1.81,6.24-4.35a115.92,115.92,0,0,0,11.47-13.28c2-2.55,1.81-3.78-2-4.27l-1.48-.16v-2.87H396.1v2.87c-5.08.49-8.45,1.47-13,5.74-4.84,4.43-8.28,8.36-12,12.13,5.25,7.88,11.32,16.16,17.22,23.62,3.36,4.26,5.58,5.58,8.86,6.07v2.87Z"/><path class="cls-1" d="M254,182.52l-1.48,3.7c-.37.37-.37,1.11-.74,1.85-.37,3.33-2.59,7.76-6.66,13.68,0,2.59-1.48,7-4.43,14.43a20.51,20.51,0,0,1-1.85,4.81,85.87,85.87,0,0,0-4.44,14.42c-.37,2.22-2.22,7.4-5.55,15.17a21.87,21.87,0,0,1-4.44,12.94c-2.59,3.33-3.7,5.92-3.7,7.77-4.07.37-10,.74-18.49.74-4.44-.37-11.84-1.11-14.8-4.07a45.18,45.18,0,0,1-3.33-11.83l-3.33-7.77c-.37-3-2.21-11.47-5.54-25.15a35.43,35.43,0,0,0-1.85-6.29,19.11,19.11,0,0,0-2.59-8.14,61.13,61.13,0,0,0-2.59-7.77c-1.48-3-3.33-4.44-5.55-4.8v-.38a22.88,22.88,0,0,0-5.55.74l-3.7,3h-1.48a3.13,3.13,0,0,1-.74-2.22,15.27,15.27,0,0,1,1.48-5.54c2.59-5.55,1.48-6.29,4.07-11.84.37-1.11.74-3.7,1.85-7a12.66,12.66,0,0,0,.37-4.07,11.51,11.51,0,0,0-.37-4.07l-2.59-14a133,133,0,0,1-6.29-16.65,38.09,38.09,0,0,1-3.33-5.91,11.42,11.42,0,0,0-5.91-4.07v-.37h-.74c-.37-1.11-2.22-1.85-5.18-2.22-7.77,0-11.84.74-11.84,2.22-3.33.37-5.55,2.59-7,6.28a50.68,50.68,0,0,1-.74,5.92l2.22,14.43a108,108,0,0,0,3.7,16.27,5.26,5.26,0,0,0,.74,2.22l1.11,7.77a8.27,8.27,0,0,0,1.11,3.7,29,29,0,0,0,.74,5.18q3.88,8.33,4.44,14.42c.37,2.59,2.22,5.92,5.18,9.25v.37h.74l1.48,1.11H142c0,.37,1.11-.74,3-2.59a10.22,10.22,0,0,1,3-1.85,2,2,0,0,1,1.85,1.11c0,1.11-.74,3.33-2.59,7.4a32.4,32.4,0,0,1-2.59,4.44l-4.43,15.53a49.83,49.83,0,0,0-3,7,102.89,102.89,0,0,1-3.7,11.1,74.13,74.13,0,0,1-3.33,10.35,52.34,52.34,0,0,1-5.18,5.92,1.36,1.36,0,0,1-1.11.37c-.74,1.85-6.29,2.22-16.27,1.48a15.25,15.25,0,0,1-4.44-.37c-2.22,0-5.55,0-10.36-.37a4,4,0,0,0-1.85-1.11,19.34,19.34,0,0,1-5.18-9.24q-1.67-3.33-2.22-11.1c0-1.11-.74-3.7-1.85-7.4L80.18,230.6a80.92,80.92,0,0,0-2.58-8.5c-.37-3.33-.74-6.29-1.85-8.51-1.48-4.44-3.7-13.69-4.81-17-.37-4.43-1.11-7-2.22-8.13,0-1.11,0-2.22-.37-2.59s-1.85-7.4-4.44-20.35a63.94,63.94,0,0,1-3-7c-.37-3.33-1.48-7.77-2.59-14.06l-.37-.37a45.91,45.91,0,0,0-3.33-10.36l-4.81-8.5-.74-.37c-.37-.37-1.48-.37-3.32-.74-3.7-5.92-5.18-10-4.07-11.84s2.59-2.59,5.17-3a9.34,9.34,0,0,1,4.81.37H69.46a4,4,0,0,0,1.85.37H105c.37.74,21.82,1.11,64,1.11l1.48.74a16.27,16.27,0,0,1-.37,3.33c0,1.11.74,1.48,2.22,1.85l1.48,1.85h3a2.86,2.86,0,0,0,.73-1.48c0-1.11-1.1-1.85-3.32-2.59a11.29,11.29,0,0,0-3-2.59c0-.74.74-1.11,2.59-1.11,1.48-.37,3.69,0,6.28.37v.74c-1.11,0-1.47,0-1.84.37-.38,1.48.73,2.22,2.58,2.22v-2.59a4.62,4.62,0,0,1,5.92-.74v2.22h.74l1.11-2.22a28.56,28.56,0,0,1,5.55-.74,18.57,18.57,0,0,1,4.44.74c.74-.37,1.48-.37,1.85-.74h14c.37-.37,1.85-.37,4.81,0l2.59,1.48a6.27,6.27,0,0,1,0,3.7l-7,8.14a3.24,3.24,0,0,0-2.59,2.22c-.37,2.22-.73,3.33-.73,3.69v4.07a33.85,33.85,0,0,0-.37,6.29,4.22,4.22,0,0,1-3,1.11,1.65,1.65,0,0,0,0,1.85c1.11,0,2.21.74,3.33,2.22v3.33h-1.12v.37h1.12q1.65,1.67,3.32,6.66l1.48,3c1.11,2.22,1.48,5.91,1.85,11.46,2.59,5.55,3.7,8.51,3.7,9.25q0,.56-1.11,1.11c-.37.37.37,1.85,1.85,3.7.37,3.33,1.11,5.92,2.59,7.4l3.33,10a8.33,8.33,0,0,0,1.85,1.85l2.59,3a2.22,2.22,0,0,1,1.48.37h1.48c.37-.37,1.11-.37,2.22-.37v-.37a17.76,17.76,0,0,0,5.91-4.81l1.11-4.07,1.48-4.43a16.75,16.75,0,0,1,3-6.66l2.22-3c.74-3.7,1.48-5.55,1.85-5.92a2.81,2.81,0,0,1,1.48.74A12.79,12.79,0,0,1,254,182.52ZM107.56,222.47V221c-.37.37-1.11.74-1.48,1.48l.74.74Zm62.88-99.87h.74a1.89,1.89,0,0,0,1.48-1.85,1.36,1.36,0,0,0-.37-1.11C171.18,120,170.44,120.75,170.44,122.6Zm6.29,1.11L176,122.6l-1.48.74a2.17,2.17,0,0,0,.74,1.85C176.36,125.19,177.09,124.82,176.73,123.71Zm3.32-3.7c-1.11-.37-2.22-.37-2.59,0a3.49,3.49,0,0,0,.75,2.59,5.26,5.26,0,0,0,2.21-.74A2.77,2.77,0,0,0,180.05,120Zm-.74,6.66a1.34,1.34,0,0,0-1.1.37c0,1.11,0,1.85.37,2.21a2,2,0,0,0,2.21-2.21A2.22,2.22,0,0,0,179.31,126.67Zm.74,8.5v-.37l-1.11-.74a1.38,1.38,0,0,1-.36,1.11h1.47Zm1.48-11.09v1.11c0,.37,0,.37.37.37,1.11-.37,1.85-.74,1.85-1.11s0-.37-.37-.74A4,4,0,0,0,181.53,124.08Zm2.59,30v-.74a1.36,1.36,0,0,0-1.11.37V154ZM196,178.45l-4.07-.74a.69.69,0,0,1,0-1.11h2.59v-1.11h-3.33c0-.74.37-1.48,1.48-2.59a3.38,3.38,0,0,0-1.11-1.85,1.65,1.65,0,0,1,0-1.85c-.37-.37-.37-1.11-.37-2.22a8.84,8.84,0,0,1-2.59,1.11c-2.59,0-3.7.37-4.07,1.11,1.48,1.11,1.85,1.85,1.48,2.22-1.48.74-2.22,1.85-1.85,3,0,3.33,3,5.55,4.07,5.55a6.63,6.63,0,0,1,3-1.48v1.48a1.36,1.36,0,0,0-.37,1.11,11.08,11.08,0,0,0,3.7,1.48v-1.11c.37-1.11,1.11-1.85,1.85-1.85A1.36,1.36,0,0,0,196,178.45Zm-9.25-14.06c-.37,0-.74-.37-1.11-.74-.74,0-1.11,1.11-1.11,3l1.11.74c.37-.37.74-.74,1.11-.74Zm-.37-13.31-.37-.37c-.37,0-.37,0-.37.37h.74Zm.74-29.59V120a1.36,1.36,0,0,1-1.11.37v.37c0,.37.37.37.74.74Zm.74,37.73c-1.11,0-1.48.37-1.48.74s.37.74,1.11,1.11h-.37v1.11a33.19,33.19,0,0,0,3.7,2.95c.37,0,.74-.37,1.11-.74C191.89,162.54,189.67,162.54,187.82,159.22Zm0,25.52v-1.48h-.37v1.48Zm1.11-9.25c.37,0,.37,0,.37.37v-.37ZM193,134.43a6.51,6.51,0,0,0,.37,2.22h.37c1.85,0,2.59-.37,2.59-1.11,0-.37-.37-1.11-1.48-1.48A4,4,0,0,0,193,134.43Zm1.48,52.9h-.74a2.22,2.22,0,0,1-.37,1.48h1.11Zm3.33-42.54c0,.37-1.11-.74-3.33-2.59-.37,0-.37,0-.37.37,0,.74.74,1.85,2.59,3C197.44,145.53,197.81,145.16,197.81,144.79Zm-2.59,38.84v-.37c-.37-.37-.37-.37-.74-.37a1.15,1.15,0,0,1,.37.74Zm9.62,72.87v-3a10.89,10.89,0,0,1-5.92-3.7l-2.59-2.59a2.22,2.22,0,0,0-1.48.37v1.85l3,2.59v.74c-.37-.37-1.11-.74-3-.37a28.56,28.56,0,0,0,.74,5.55l2.22,2.59,1.11.74c1.11,0,1.85,0,2.22.36h1.48v-2.21a8.15,8.15,0,0,1,3,.37l.37-.37C206,258,205.58,256.87,204.84,256.5Zm-8.88-71c-.37,0-.37.37-.74.74l.74.37a2.22,2.22,0,0,0,1.48-.37Zm2.22-45.87c.37-.37.37-1.11-.37-1.85a6.25,6.25,0,0,0-.74,1.85Zm3.7,104.68a3,3,0,0,0-3-.37v2.22a4.2,4.2,0,0,0,3-1.11Zm6.66-5.92c0-1.48-2.22-2.59-3.7-4.44-1.85-.37-3,.74-3.33,2.59-.37.37-1.11.37-2.22.74a2.36,2.36,0,0,0,0,2.22c.74.37,1.85,1.48,3,3.7a3.92,3.92,0,0,0,3.33-3.33Zm-5.92-23.67c-2.22.37-3.33.74-3.33,1.85l1.11,1.11c.37,0,.37-.37.74-1.48,1.11,0,1.48,0,1.48-.37Zm-3,8.51a1.36,1.36,0,0,0-.37,1.11c.37.37.37.37.74.37s.74-.37,1.11-.74A2.81,2.81,0,0,0,199.66,223.21Zm1.48,33.66a2.22,2.22,0,0,0-1.48.37c-.37-.37-.37-.37-.37-.74.37-.74,1.11-.74,1.85-.37Zm.37-47a2.22,2.22,0,0,0-1.48.37,2.81,2.81,0,0,0,.74,1.48c.37-.37.37-.37.74-.37Zm1.11-66.58a1.36,1.36,0,0,0,.37-1.11c0-.37-.37-.74-.74-.37a1.36,1.36,0,0,0-1.11.37l.74,1.11Zm-.37-15.16v-.74l-.74.37v.37Zm.37,7.39c-.37-.37-.37-.37-.37-.74h-.74v.74Zm1.11,82.86c-.37,0-.74.37-1.11.74a2.8,2.8,0,0,0,.37,2.59,2.93,2.93,0,0,0,1.85-3A1.36,1.36,0,0,0,203.73,218.4Zm2.59,5.92a4.65,4.65,0,0,0-3.7,2.59c0,.37.74,1.11,1.85,2.22a4.35,4.35,0,0,0,3.33-4.44A2.22,2.22,0,0,0,206.32,224.32Zm-2.22,14.05h-.37L203,238v-.37a1.36,1.36,0,0,1,1.11-.37Zm3.33-93.58a10.24,10.24,0,0,0-3.33-.37,4.52,4.52,0,0,0,1.11,3.33,5.26,5.26,0,0,0,2.22-.74Zm-.74-5.92H206l-.74,1.11c.37.37.37.37.74.37a.83.83,0,0,0,.74-1.48Zm-.37-13.68v-1.11h-.74v1.11Zm2.22,105c-1.11-.37-1.85-.37-2.22.37-.37.37.37.74,1.48,1.11a.8.8,0,0,0,.74-.74Zm-.74-13.68c-.74.37-1.11.74-1.11,1.48a1.36,1.36,0,0,1,1.11-.37ZM211.86,241c0-.74-1.11-1.11-3.69-1.11a3.38,3.38,0,0,0-1.11,1.85q0,.56,1.11,1.11c.37-.37,1.48-.37,3-.37A2.78,2.78,0,0,0,211.86,241Zm-2.21-119.47v-.74h-.74c0,.37,0,.37.37.74Zm.73,105.05a1.15,1.15,0,0,0,0,1.48c1.12,0,1.48-.37,1.12-1.48A.7.7,0,0,0,210.38,226.54Zm1.12-6.29h-.75c-.37.37-.37.37-.37.74h.37c.38,0,.38,0,.75-.37Zm4.43,33.66c.37-2.22,0-3.33-1.85-3.33.37,0-1.11,1.48-3.7,4.07a5.16,5.16,0,0,0,1.85,3.33,16.17,16.17,0,0,0,2.59,3,2.07,2.07,0,0,0,.37-2.22c-1.11,0-1.48-1.11-1.48-3.7Zm0-22.57V231c-.37-.37-.37-.37-.74-.37h-.74a1.36,1.36,0,0,0,.37,1.11Zm3,4.81c0-1.11,0-1.48-.37-1.85a13.81,13.81,0,0,0-2.22,3l-1.85.74c0,.74.37,1.11,1.11,1.48a2.35,2.35,0,0,0,2.22-1.85Zm-3.33-18.49h-.74V218Zm-.74,5.18v1.48c.37.37.37.37.74.37a2.17,2.17,0,0,0,.74-1.85C215.93,222.47,215.56,222.47,214.82,222.84Zm2.22,24V245h-2.22Zm3.33-5.55a4.69,4.69,0,0,0-2.22-.37,33,33,0,0,0-.74,4.07h.37c.37,0,1.11-.74,2.59-2.59Zm-2.59-13.68v1.1c0,.38.37.38.74.74,1.85,0,2.59-.36,3-.74C219.63,227.65,218.15,227.28,217.78,227.65Zm4.07-3.7h-1.48a1.65,1.65,0,0,0,0,1.85,9.41,9.41,0,0,0,2.59-.74ZM269.2,111.13c.74.74-.37,2.59-3,5.55v1.48h1.85c-.37,1.11-1.85,2.22-4.81,2.59-.74.37-1.11,1.48-1.48,3.33a8.21,8.21,0,0,0-3.33-.37,2.22,2.22,0,0,0-.37,1.48,5.9,5.9,0,0,1,3,1.11,2,2,0,0,1-1.48,2.22c-1.11-.37-1.85-1.48-2.59-3.33-1.85-.37-2.59-1.11-2.59-2.22a2,2,0,0,1,1.11-1.48c-1.48-3.33-1.48-4.07-1.85-4.07a2.88,2.88,0,0,0-1.11,2.59h-1.11c-.37-.37-.74-.74-.74-1.11s.37-.74.74-1.11a1.65,1.65,0,0,0-1.85,0,2.79,2.79,0,0,1-1.48-2.59c0-2.59,1.48-3.7,4.07-3.7a2,2,0,0,1,1.48,1.11c0,1.85,0,3.33.37,3.7a2.93,2.93,0,0,0,1.85-3,2,2,0,0,1-1.11-1.48c.37-.37.74-.74,1.11-.74ZM301.75,120a11.62,11.62,0,0,0-4.44,1.48l-7.4,3.7c-1.85,0-3.7,1.48-5.92,4.8l-3.33,2.22a6.58,6.58,0,0,1-2.59,3c-.36,2.22-.74,3.7-1.84,4.81-1.85,1.85-3.7,4.81-5.92,8.51a9.13,9.13,0,0,0-1.48,4.07A8.34,8.34,0,0,0,267,157l-1.85,4.81L262.91,164c0,2.59-.37,3.7-1.11,4.07a58.68,58.68,0,0,0-3,6.66c-.37.74-1.11,1.48-3,2.22a2.78,2.78,0,0,1-1.85-2.59,4.69,4.69,0,0,1,.37-2.22,13.81,13.81,0,0,1,2.22-3v-.74c-.37-.74,0-3,.74-7a15.11,15.11,0,0,1,1.48-5.92,5.35,5.35,0,0,1,.74-2.59c0-1.85.37-4.44.74-8.14a9.21,9.21,0,0,1,2.59-1.85v-.74h-1.85a2.83,2.83,0,0,1-.74-1.85,10.8,10.8,0,0,1,.74-3.33c1.11,0,2.22.74,4.07,1.85a5,5,0,0,1,1.85-.37c.37-.37.37-1.48,0-2.59s-.37-1.85-.74-2.22a1.36,1.36,0,0,0,1.11-.37c1.11.37,1.85.74,2.22,1.85h.37c.74-.74,2.59-1.48,5.55-1.85l.37-3a5.51,5.51,0,0,1,1.47-1.47c0-1.48-.37-2.22-.74-2.22l-2.95-.37v-.74q.56,0,3.32-3.33a8.15,8.15,0,0,0,3-.37,1.36,1.36,0,0,1,.37-1.11h3.33c1.48,1.48,2.59,1.85,3.7,1.11a23,23,0,0,0-3.7-3v-3a20.83,20.83,0,0,0-3.7-.74c-.37-.37-.37-1.11-.37-2.22a2.81,2.81,0,0,1-.74-1.48,21.23,21.23,0,0,0,4.44-.37h17.39V113a18.56,18.56,0,0,0,1.11,5.18Zm-40.32,13.68a2,2,0,0,1-1.11-1.48,1.36,1.36,0,0,1,.37-1.11c1.11,0,1.48,0,1.85.37A2.24,2.24,0,0,1,261.43,133.69Zm6.66-7.39c0,1.48-.37,3-1.85,3a12.94,12.94,0,0,0-4.44-2.58,6.51,6.51,0,0,1,.37-2.22,8.58,8.58,0,0,0,5.92-1.11,1.36,1.36,0,0,0,1.11-.37q2.78,0,2.22,2.22A6,6,0,0,0,268.09,126.3Zm-5.18,30.33h-.37a1.36,1.36,0,0,1,.37,1.11v-1.11Zm16.64-39.21c-.74,0-1.48,0-1.84.37l-.75-.74c0-.37,0-.37.37-.37q1.67-.56,2.22,0Zm5.18-4.07v1.48c0,.37,0,.37.37.37a4.69,4.69,0,0,0,2.22-.37C287.32,113,286.58,112.61,284.73,113.35Z"/><path class="cls-1" d="M455.58,261.89c-1,.27-2.09,2.09-4.18,4.44h-3.13a2.25,2.25,0,0,0-.78-1.56c-.26,0-.26,0-.52.26v1.3c-1.31-.26-3.4.26-6,1.05h-1c-.26-.27-.26-.27-.52-.27a3.76,3.76,0,0,0-1.57.53h-2.09l-.78-1.57c-1.3-.26-2.09-.78-2.09-1.3h2.35c.26-.27,0-1-.52-1.83v-2.09l-6.53-4.7-.78.79.78,1.3a3.48,3.48,0,0,1,1.83,2.09l-1.3-.78a7.8,7.8,0,0,0-5.22,1.56h-1.31L423,264a1.5,1.5,0,0,1,.53,1.83c-.27.78-.53,1.57-1.05,1.83h-2.61c-.26-.26,0-1.05.26-2.09s.26-1.83,0-2.09l-.78-1c-3.13-1.83-3.13-3.4-6-5.22h-1.05l.79,1.3,1.56,2.35v1.31s-4.17.52-4.17,2.87l.78.52a4.59,4.59,0,0,1,1.57-.26c.52,0,.78.26.78.52L411,267.64H408.6l-1.31-.79c-1.82-.26-4.17-2.08-7.3-5.74a5,5,0,0,1,1.3-3.39,16.78,16.78,0,0,0-.52-2.35,6.59,6.59,0,0,0,1-2.09c-.26,0-.78.52-1.56.52a3.45,3.45,0,0,1-1.83-.78c-.52,0-1,.52-1.57,1.31a2.25,2.25,0,0,1-1.82-2.09l-.79-1.31c-2.08-3.39-4.95-8.61-8.35-15.66h-.26a1,1,0,0,0-.26-.78,44.61,44.61,0,0,0-4.7-7.31l-1.56-2.61a42.86,42.86,0,0,0-3.14-5.22,49.67,49.67,0,0,0-5.48-5.74,2,2,0,0,1-1.3-.26,28.87,28.87,0,0,0-6.27.52,8.35,8.35,0,0,0-3.91,4.44c-.26,1.56-.52,4.7-.78,9.65a9.89,9.89,0,0,0-1.57,4.7,8.81,8.81,0,0,0,1.3,4.44,38.67,38.67,0,0,0,1.05,9.4,29.45,29.45,0,0,0,5.74,9.13c3.92,1.83,5.74,3.92,5.74,6.79,0,1.3-1.3,2.87-4.17,4.17H343.61a2,2,0,0,1-1-.26h-24a19.88,19.88,0,0,0-5.48-.78,15.26,15.26,0,0,1-5,0l-1.3-.78H304.2a3.15,3.15,0,0,0-2.35-1.57v-.26a61.38,61.38,0,0,1,6.52-5.48l2.88-1.57c1-.78,2.34-2.61,4.17-5.74l3.13-6.26c0-4.7.26-7.57.79-8.36a50.25,50.25,0,0,1,1.3-9.65c0-8.88.26-13.58.78-13.84q.4-3.12,0-18.79a8.06,8.06,0,0,1,.53-2.87,19.37,19.37,0,0,0,.26-6.53c0-1.82,0-4.17-.26-7.56a11.06,11.06,0,0,1-.53-4.18c-.52-.78-1-2.61-1.3-5.48l-.52-1.31-3.92-4.43A10.81,10.81,0,0,0,311,158l-1.56-1.57c-.78-2.09-.52-3.65,1-4.44a19.59,19.59,0,0,1,5-1.82c3.39-.27,5.48-.27,6,.26A5.61,5.61,0,0,1,324,151a55.63,55.63,0,0,1,7.83.78c2.88,0,6.53.26,11,.52,13.31,0,24.53,0,33.93-.26l6.26-1.3,8.87-1.05c2.35,0,3.92.26,4.18.79,1.05.26,2.61.26,4.44.52s3.39.26,4.17-.52a12.85,12.85,0,0,0,3.4-.79h4.17l1.83.53c0,.26,2.87.78,8.87,1.82,2.09.26,3.4,1.05,3.92,1.83v1a1.53,1.53,0,0,0,1.83-.26c.78,0,1.82.79,2.61,2.35a7.72,7.72,0,0,1,2.08,2.09c1.83,1,3.14,2.87,4.18,5.74l.78,1.57a45.06,45.06,0,0,1,.26,7.31,3.28,3.28,0,0,1,.53,2.08,21.58,21.58,0,0,1-2.35,8.62,3,3,0,0,0-.79,2.08h-.26c-.78,2.35-2.61,4.7-5.48,7.57-.26.79-1.82,1.83-4.7,3.4a59,59,0,0,1-6,4.43c-2.61.53-4.44,1.57-5.22,3.4a21,21,0,0,0,0,5.74,16,16,0,0,0,3.13,4.18c.26.78-.26.78,3.66,5.22l3.39,7.3a12.39,12.39,0,0,1,2.61,2.61l1.31,2.09a61,61,0,0,1,6.26,7v1.3c-.78.53-.78,1.05-.52,1.57a8.13,8.13,0,0,1,1.82-.52c.27-.26.79.26,1.31,1a2.88,2.88,0,0,0,.26,1.31,4,4,0,0,1,1.83,2.61l.78.52.78,1a2.63,2.63,0,0,0,2.35,2.87c.26.26.26,1.05.26,2.87a6,6,0,0,0,1.83.79v1h-1.83a2.74,2.74,0,0,0,1.31,2.35c.78,0,1-.78,1-2.35a5.39,5.39,0,0,1,3.92,1.31l3.39,2.61,2.35,1.56Zm-145.12-.52q0-2-1.56-1.56l-.53.52a2.91,2.91,0,0,0,1.31,1Zm.52,1.05c.27.26.27.26.27.52.26,0,.26,0,.26-.26S311.25,262.42,311,262.42Zm.79-4.44h-.26c.26,0,.26.26.26.52Zm9.92.52a.8.8,0,0,0-1.05,0c0,.26,0,.26.26.52a1,1,0,0,1,.79-.26ZM328,235c-.26,0-.26,0-.52.26a1.54,1.54,0,0,0,.52,1.31,5.15,5.15,0,0,0,1.83-.26C329.78,236.58,329.25,236.06,328,235Zm4.44-6.78q0-3.14-3.92-3.14a4.23,4.23,0,0,0-.78,2.87l.78,3.4c.26,0,.52.26.78.52h1.57Zm-2.87,18v-.52h-.79v.52h.79Zm3.13-3.39a2,2,0,0,0-1-.52c-.26,0-.52.26-.78.52a4.08,4.08,0,0,0,1.57,1l.26-.27Zm0,15.66a.56.56,0,0,0-.52-.52.8.8,0,0,0-1.05,0c0,.26.52.78,1.31,1Zm14.09-47.76c-.26,0-.26-.26-.52-.78-1.3,0-1.83.78-2.09,2.08-1.3.26-2.09,1.05-2.09,1.83a8.65,8.65,0,0,0,1.83,1.57v1.3A5.15,5.15,0,0,0,342,217c0,.79-.78,1.57-2.61,2.61-.26.26-.52.52-.52.79a3.46,3.46,0,0,0,.78,1.82v.52a9.93,9.93,0,0,0-4.69,1.57c-.53.26-1.05,0-1.57-1a1.13,1.13,0,0,0-1.3-.26v1.56q2.34.39,2.34,7.05l1.31,1a7.83,7.83,0,0,1-2.61,2.35c0,.78.52,1.57,1.83,1.83a7.2,7.2,0,0,0,2.35-2.09c.26-.26.78-.26,1.3-.52a3.1,3.1,0,0,1,2.87-2.35l1.05-1c1,.26,2.08,1.3,2.87,1.3s1.3-1.3,1.82-3.91a2,2,0,0,0-.78-1.83v-2.09l-1.56-.78c-2.09-.79-3.14-1.83-3.14-3.66,1.05-.26,2.61-1.82,4.7-4.17.52-.26,1.31-1.31,2.61-3.13C347.52,212,346.74,211.52,346.74,210.74Zm-12.27-7.31V204a.56.56,0,0,0,.53-.52Zm1.83,13c-.26-1-.52-1.57-1.3-1.57h-.53v1.83a3.66,3.66,0,0,0,1.31,2.09C336.3,218.57,336.56,217.79,336.3,216.48Zm-1.83,5.22.53.52c1.3-.26,1.82-.52,1.82-1.3a6.67,6.67,0,0,0-.52-1.83C335,219.35,334.47,220.13,334.47,221.7Zm.53,19.84v-.79c-.26,0-.26,0-.53.26,0,.27,0,.27.27.53Zm5-1.31a5.76,5.76,0,0,0-3.66,4.7c-.78.26-1.3.26-1.56.52v1.05a3.57,3.57,0,0,0,1.56-1.31c3.13-.26,3.13-.26,3.39-2.35a6.22,6.22,0,0,1,1.31-1.3C340.74,240.75,340.48,240.23,340,240.23ZM336,238.67c0,1.3.26,1.82.52,1.82h1.31a6.61,6.61,0,0,0,.52-1.82,2,2,0,0,0-.52-1.31C337.08,237.36,336.56,237.88,336,238.67Zm5,18v-.78l-1.83.78c-1.56.27-2.35.79-2.35,1.57l.53,1c.52,0,1.3-.52,2.08-1.82Zm-3.39-3.13V253h-.26v.52Zm1.82-38.63a3.54,3.54,0,0,0,0,2.35c.79-.26,1.05-1,1.05-2.08C340.22,214.91,340,214.91,339.43,214.91Zm1.05,31.85c.26-.79.26-1,0-1.31-.52,0-.79,0-1.05.26v1.57Zm2.61,1.56c-.52-.52-.79-.52-1-.26a1.18,1.18,0,0,0,0,1.31C343.35,249.11,343.61,248.58,343.09,248.32Zm.26-44.63v-.78H342a2,2,0,0,0,.26,1.3Zm.26,55.59c.26-.52.26-.78,0-1H342v1Zm0-51.15a1,1,0,0,0-1.31-.26,1.53,1.53,0,0,0,.53,1.3C343.61,208.91,343.87,208.65,343.61,208.13Zm-1,25.32c0,.26,0,.26.26.52,0-.26,0-.26.26-.52Zm.78,10.44v-.53h-.78c0,.26,0,.53.26.53Zm4.17-11.23-1,1.57a2.51,2.51,0,0,0-1.83,2.61c.79,0,1.31,0,1.57.26h.52c0-1,2.35-2.35,1.57-4.18A1,1,0,0,0,347.52,232.66Zm-2.6-27.14.78.78c1.3-.26,1.82-1,1.82-1.83C345.7,204,344.92,204.21,344.92,205.52ZM346.48,229l-1,.52a.56.56,0,0,0-.52-.52c0-.26,0-.26.26-.52a3.3,3.3,0,0,1,1.56.26C346.74,229,346.74,229,346.48,229Zm-.78-15.66-.26.26-.26-.52c.26-.26.26-.26.52-.26Zm.26,28.19V241h-.78v.53Zm2.87,7.3v-1.3a15.64,15.64,0,0,0-3.39-1.31,7.66,7.66,0,0,0,2.35,2.61Zm.26-9.65c0-1.05-.78-1.57-2.09-1.83a9.37,9.37,0,0,1-.52,4.44,2.56,2.56,0,0,0,1,2.35h.79c0-.26,0-.26.26-.26a16.8,16.8,0,0,0-.78-2.88Zm-.52-31.32a.69.69,0,0,0-.78.78h.26c.26,0,.26,0,.52-.26S348.83,208.13,348.57,207.87Zm2.61,7.57a3.43,3.43,0,0,0-1.83-.79,3.58,3.58,0,0,0-1.56.53V216l.78.78a22.21,22.21,0,0,0,2.61-.52Zm0-9.66v-.26c-.26-.26-.26-.26-.52-.26v.52Zm.26,44.37c-.26.26-.26.26-.52.26v.78a.58.58,0,1,0,.52-1Zm2.35-42c-.26,0-.26,0-.26-.26,0,.26,0,.26-.26.26.26.26.26.26.26.52,0-.26,0-.26.26-.26Zm.26,50.37h-.52l-.26.26c0,.26,0,.26.26.52.26,0,.26,0,.52-.26Zm40.19-94a51.21,51.21,0,0,0-4.95-4.44,23.05,23.05,0,0,0-8.36-2.08,9.07,9.07,0,0,0-3.65-.79,10.35,10.35,0,0,0-3.92.79,42,42,0,0,0-7.83,2.08c-2.35,2.35-3.91,6.27-4.17,11.75l-.52,3.39-.27,21.67c0,3.39,1.05,5.22,8.1,7.56l4.69,1.05a21.14,21.14,0,0,0,5-.78,28.44,28.44,0,0,1,3.92-1.83,12.88,12.88,0,0,0,8.09-5,18.25,18.25,0,0,0,3.65-4.7h.26l1.57-4.44.78-1a73.6,73.6,0,0,0,.79-12A43.74,43.74,0,0,0,394.24,164.54Zm19.58,82.74c-.26-.52-.78-.52-1.31-.26a1.44,1.44,0,0,0,.79,1.3C414.08,248.06,414.08,247.8,413.82,247.28Zm3.13.26a16.45,16.45,0,0,1-2.61,1v1.31c.26,0,.26,0,.26.26a1.6,1.6,0,0,0,1-.26,8.54,8.54,0,0,0,1.56-2.09ZM415.12,265a1,1,0,0,0-.78-.26v-.53a1.56,1.56,0,0,1,1-.26.94.94,0,0,1,.27.79C415.38,265,415.38,265,415.12,265Zm2.61-96.57v-.79h-.52v.79Zm4.44,92.39c-.78-1-1.3-1.57-1.56-1.3-.27,0-.27,0-.27.26l1.31,1.3Zm1.83-6.79a9.47,9.47,0,0,0-.52-2.87H423c-.52,1.83-.26,3.14.79,3.4Zm-.52-85.34-.27-.53h-.52v.53h.79Zm.26,87.43a3.16,3.16,0,0,0-.79,2.35c1.05,0,1.57-.78,1.57-2.09A1,1,0,0,0,423.74,256.15Zm3.39,7.83h-.52a1.57,1.57,0,0,1-.78-1.56,2.38,2.38,0,0,1,1.3.78Zm1.31-100c.26-.26,0-.78-.27-1h-.78a2,2,0,0,0,.52,1ZM429,265.29c-.26.26-.26.26-.52.26a1.53,1.53,0,0,1-.27-1.05.94.94,0,0,1,.79.27Zm1-96.05a1,1,0,0,0-.26.78,1.44,1.44,0,0,0,.78,1.31c.52,0,.79-.26,1.05-.79A1.66,1.66,0,0,0,430,169.24Zm.26,98.14-.52-.79c.26-.26.52-.52.78-.52a1,1,0,0,1,.79.26C431.31,266.85,431,267.11,430.26,267.38ZM433.66,164a8.89,8.89,0,0,0-3.14,1c0,.79,1.05,1.83,2.87,3.66a6.07,6.07,0,0,1,1.83-2.09c.26-.78,1.31-.52,1.31-1.31A12.29,12.29,0,0,1,433.66,164Zm-2.35,89.52a1,1,0,0,0-.79.26c0,1,0,1.57.26,1.83,1.31-.26,1.83-.78,1.83-1.83A2.83,2.83,0,0,0,431.31,253.54Zm5.74-4.43-2.87-2.35-1.05.52c0,.78.53,1.3,1.57,1.56v1a1,1,0,0,1-.78.26,1.33,1.33,0,0,1-1.31-1h-1.83c-.26.52.26,1.3,1.57,2.34a3.11,3.11,0,0,0,1,2.09l1.57-1.82a4.88,4.88,0,0,1,2.09-1.83Zm-4.7,14.09h-1.57v-.78c.26-.26.79,0,1.57.26Zm6.79-10.44c.52-1,0-1.57-1.83-1.57l-1,.53a2,2,0,0,0,.52,1.3Zm-2.09-8.35-.26.26Zm3.65,17.48,1.83-1.82c0-1.05-.26-1.57-1-1.57s-1.05.78-2.88,2.61c0,.78.53,1.57,1.83,2.87a8.37,8.37,0,0,0,1.57,2.09,2.39,2.39,0,0,0,1-1.57C441.49,263.72,440.7,262.94,440.7,261.89Zm2.61-6.26-.52-1H442a1.56,1.56,0,0,0,.26,1Zm14.62,7.31v.52l-.78,1c-.27,1.05-1,1.57-2.88,1.83-.78-1.3,1.31-3.91,3.14-3.91Z"/></svg>