<svg id="Layer_1" data-name="Layer 1" xmlns="http://www.w3.org/2000/svg" viewBox="0 0 500 500"><defs><style>.cls-1{fill:#fff;}</style></defs><title>scout</title><rect class="cls-1" width="500" height="500"/><polygon points="74.66 21.36 84.28 69.48 110.24 21.36 285.24 21.36 295.81 8.15 301.58 21.36 322.74 64.77 331.39 32.68 349.66 27.96 396.77 21.36 475.62 24.19 441 55.33 481.39 54.39 481.39 208.2 491 216.69 484.27 216.69 494.85 230.84 488.12 240.28 482.35 261.98 480.43 354.46 454.46 381.82 483.31 400.69 484.27 474.3 459.27 474.3 444.85 494.11 432.35 474.3 311.2 475.24 328.5 494.11 284.75 474.3 204.42 482.12 211.71 439.56 166.01 489.4 157.35 472.41 24.66 473.35 65.05 429 20.82 439.38 20.82 349.74 5.43 362.01 20.82 329.92 17.93 195.93 28.51 205.37 16.01 174.23 16.97 149.69 27.55 176.11 16.97 114.78 16.97 20.42 37.16 20.42 34.28 36.46 55.43 3.43 56.39 18.53 74.66 21.36"/><path class="cls-1" d="M146.82,376.22c-1.64-5.16-4.75-11.23-11.4-11.23a7.75,7.75,0,0,0-7.95,8.12c0,4.51,2.95,7.05,10.17,10.74,8.61,4.18,14.51,8.77,14.51,16.89,0,9.35-8,16.65-19.92,16.65a29.17,29.17,0,0,1-8.28-1.15,33.34,33.34,0,0,1-4.92-1.8c-.82-2.05-1.89-8.94-2.47-13.86l2.87-1c1.64,5.25,6.48,14.52,14.36,14.52,5,0,8.19-3.45,8.19-8.69,0-4.84-3.6-7.88-9.75-11.16C123.86,390,118,385.57,118,377.7c0-9,7.13-16.07,18.78-16.07a36.26,36.26,0,0,1,11.39,2.13c.33,3,.91,6.72,1.56,11.81Z"/><path class="cls-1" d="M209,402.14a94.78,94.78,0,0,1-4.59,13.12c-2.14.49-9.68,2.13-15.26,2.13-21.81,0-30.83-14.19-30.83-27.23,0-16.89,12.88-28.53,32.47-28.53a64.15,64.15,0,0,1,14.93,2.21c.74,4.51,1.31,8.28,1.88,13.37l-3,.57c-2.71-9.67-9-12.54-15.33-12.54-11.89,0-18.45,11.15-18.45,23.28,0,15.09,8.11,25,19.27,25,6.8,0,11.89-4.34,16.07-12.62Z"/><path class="cls-1" d="M270.64,388.93c0,17.72-12.71,28.46-28.21,28.46-16.4,0-27.8-12.06-27.8-27.72,0-14.1,10.09-28,28.87-28C258.42,361.71,270.64,372.78,270.64,388.93Zm-43.38-.9c0,14.11,6.15,25.91,16.65,25.91,7.79,0,14.1-7.62,14.1-22.71,0-16.32-6.56-26.08-16.15-26.08C233.66,365.15,227.26,373.84,227.26,388Z"/><path class="cls-1" d="M332.47,365.73c-4.43.24-6.48,2-6.89,4.84a66.79,66.79,0,0,0-.74,11.39v8.94c0,8.69-1.31,15.58-5.9,20.5a20.89,20.89,0,0,1-15.17,6c-5.41,0-10.58-1.15-14.52-4.18-4.59-3.69-6.8-9.76-6.8-19.36V374.5c0-7.71-.82-8.2-6.89-8.77v-2.87h24.68v2.87c-6,.57-6.8,1.06-6.8,8.77v17.88c0,12.3,4.43,19.43,13.28,19.43,9.76,0,14-7.38,14-21.07V382a63.8,63.8,0,0,0-.82-11.39c-.49-2.87-2.38-4.52-7.95-4.84v-2.87h20.5Z"/><path class="cls-1" d="M381.67,376.88c-1-4.26-2.13-7.05-3.61-8.53s-3.53-1.89-8.36-1.89H366v38.79c0,7,.82,7.46,8,8v2.87H347.31v-2.87c6.89-.58,7.71-1.07,7.71-8V366.46h-2.79c-6.81,0-8.28.83-9.43,2.22-1.4,1.39-2.38,4.18-3.44,8.28h-3c.33-6,.82-12,1-16.15h2.06c1.23,1.8,2.29,2.05,4.67,2.05h33a5.37,5.37,0,0,0,4.68-2.05h2.05c.08,3.44.49,10.66.9,15.9Z"/><path class="cls-1" d="M260.8,221a1.36,1.36,0,0,0-1.11.37v.74c.37,0,.37,0,.37.37-.37,3.7-1.48,5.55-2.59,5.92l-.37-.74c-.74,0-1.11-.37-1.11-.74h-3l-2.22,1.48c.37.36.37.74.37,1.47h1.11v.37a1.36,1.36,0,0,1,1.11.37h.37V231a7.94,7.94,0,0,1,1.48,2.59c.37,2.22-1.48,5.92-5.55,10.73a50.87,50.87,0,0,1-6.29,7l-8.14,7.77h-.37a32.17,32.17,0,0,1-5.54,1.85c-.37.37-.74.37-1.85.73-1.11,1.85-3.7,3.7-7.4,5.92l-6.29,1.48c-5.18,0-11.47,1.11-19.23,3h-5.18c-.37-.37-.37-.37-.74-.37H175.35a55.18,55.18,0,0,1-7.77-1.85l-6.65-.74a10.24,10.24,0,0,1-3.33-.37L143.91,268c-.37,0-.37,0-.37-.37-8.5-.37-13.31-.37-14.79.37-4.44,0-7.4-1.11-8.88-3a2.77,2.77,0,0,0-.37-1.85,41.44,41.44,0,0,0-1.11-8.13c-.37-5.55-.37-8.88,0-9.25,0,2.59-.37-4.44-1.11-21.45a57.71,57.71,0,0,0,0-11.47,7.22,7.22,0,0,1-.37-2.59,3.71,3.71,0,0,1,2.22-3.7,6.65,6.65,0,0,1,4.07,1.11c2.22,4.44,4.81,9.62,8.14,15.17A74,74,0,0,1,138,234.67h.37c.74,2.22,3.7,5.55,8.88,10.36,2.59,4.07,5.18,7,8.14,8.14l1.11.74c1.48,1.48,5.55,4.44,17.75,7.4a11.4,11.4,0,0,0,3.7,1.11,11,11,0,0,0,3.7,1.1,13.72,13.72,0,0,0,5.18.74c8.51,0,8.88-2.22,16.27-5.17a19.63,19.63,0,0,0,5.55-5.55L212,251c1.85-2.59,3.33-5.18,3.7-7.77.37-.37.74-2.22.74-6.29,0-1.48-.37-1.85-1.48-7.4q-2.22-1.65-5.55-6.65a101.67,101.67,0,0,0-8.88-6.29c-1.1-1.11-4.06-1.85-8.87-3a27.73,27.73,0,0,1-5.92-1.85H185c-.74-.74-3.33-1.85-7.77-3.7a47,47,0,0,1-12.2-3.7c-4.81-2.22-8.51-3.7-11.1-4.07-2.22-.74-5.92-2.59-11.47-5.17a11.16,11.16,0,0,0-5.55-3.33l-2.21-1.48c-1.85-2.59-4.81-6.66-8.51-12.95l-3-5.55-2.22-7c0-.37,0-.37-.37-.37V145.16c1.11-3,2.22-7.4,4.07-13.69l8.88-13.31,7-5.92,3.33-2.59a23.3,23.3,0,0,1,10-3.7l6.29-2.22,3-1.85,3.7-1.11h16.27a29.91,29.91,0,0,1,5.92-.37c3,0,6.29.37,10,.74,2.59.37,5.91.74,10.72,1.85a2.77,2.77,0,0,0,1.85.37l7.77,1.11c1.85-.37,4.07,0,6.66.37,15.16,1.48,13.31-1.85,15.16,14.06,1.11,1.85,1.48,5.18,1.48,10a5.22,5.22,0,0,0-.74,2.21,25.92,25.92,0,0,0,1.11,5.18,60.06,60.06,0,0,1,.37,7.77c.37,3.33-.37,5.18-2.22,6.29h-1.85a28.93,28.93,0,0,1-4.44-7,50.16,50.16,0,0,0-4.43-6.29,21.66,21.66,0,0,0-4.07-5.18,24.67,24.67,0,0,1-2.59-6.28l-1.11-1.48-5.55-3.7c-6.29-7.4-13-11.47-20-11.84-1.11-.37-3-.37-4.81-.74H180.53c-2.59.37-5.55,2.22-8.51,4.81a53.24,53.24,0,0,0-7.76,5.92l-1.85,6.29a5.49,5.49,0,0,0-.37,2.59,24.87,24.87,0,0,0,1.11,6.65c.37,0,.37.37.74,1.11l3.32,3c1.48,2.59,6.29,5.92,14.43,10.73l1.85.37,13.69,4.44,1.11.37,3.69,1.48c1.11,1.11,4.81,2.59,11.47,3.7a52.69,52.69,0,0,1,5.92,1.85l9.25,4.8,6.65,3.33a40.11,40.11,0,0,0,9.62,7,25.77,25.77,0,0,1,8.14,9.62c.37,1.48.37,2.22.74,2.59a62.29,62.29,0,0,1,4.44,7c1.85,12.21,2.59,17.39,2.59,15.91ZM137.62,135.54v-.74c0-.37,0-.37-.37-.37l-3.69,7.4v2.22l.36.37,3-3.7a8.11,8.11,0,0,0-1.11-3Zm4.07,37.36a1,1,0,0,0-1.11-1.11c-.37.37,0,.74.37,1.11Zm2.22,8.88a1.92,1.92,0,0,0,.74,1.48,1.36,1.36,0,0,1,1.11-.37A4,4,0,0,0,143.91,181.78Zm1.11-5.55h-.74V177H145Zm11.84-33.29c-2.22-1.85-3.7-3-4.81-2.59v.37c2.59,2.22,3.7,4.44,3.7,6.29-.37,0-.37,0-.74.37-3.33.37-5.18,1.85-5.18,4.44a2.22,2.22,0,0,0,1.48.37c.37-.74,1.11-.74,2.22-.37,0,.74-.74,1.11-1.85,1.48a7.39,7.39,0,0,0,.74,3.33,32.4,32.4,0,0,0,4.44-2.59c.37-.37,1.48.37,2.59,1.48H162a23.17,23.17,0,0,0,1.48-5.18A90.75,90.75,0,0,1,156.86,142.94Zm-3.33,24.78h-.37c-1.48.74-2.22,1.48-1.85,1.85a7.22,7.22,0,0,0,2.59-.37A2.22,2.22,0,0,1,153.53,167.72Zm-.74,6.66q-1.11.56-1.11,1.11a2.81,2.81,0,0,0,.74,1.48q2.22,0,2.22-1.11a2.81,2.81,0,0,0-.74-1.48Zm7.4-11.1a1.34,1.34,0,0,0,.37-1.1c0-.74-.74-1.48-1.85-2.22a5.26,5.26,0,0,0-.74-2.22h-1.85a10.4,10.4,0,0,1-4.07,1.85v3.33l2.22,2.21c.37.37,1.11.37,1.85.74a4.66,4.66,0,0,1,1.48-2.59Zm-3,16.28v-.37c-.37,0-.37,0-.74.37h.74Zm64,18.86A6.36,6.36,0,0,0,219,194v-1.48a6,6,0,0,0,1.48-3.33,2.83,2.83,0,0,0-.74-1.85,24.46,24.46,0,0,1-.37-4.07c-.37-.37-1.48.74-3.7,2.59a9.76,9.76,0,0,0-.37,2.59,9.2,9.2,0,0,1-3-.37l-3.7-4.44c-.37-.74,0-1.48.74-2.59,0-1.85-.37-3-1.48-3.7-.37-.74-.37-1.85.74-3.33a11.9,11.9,0,0,0,3-.37l.74-1.48h3a4.52,4.52,0,0,0,3.33,1.48v-.74c-2.59-2.22-7-3.7-13.32-4.07h-3.69c-.37-1.11-1.49-1.48-3-1.48,0,.37-.74,1.48-.74,1.85.37.37.37.74.74.74,0,.74-.74,1.48-1.85,1.85l-3,.74c-.37,1.48-1.85,2.22-4.44,1.85a4,4,0,0,0-1.48,1.85,8.69,8.69,0,0,1-7.4-4.44,24.16,24.16,0,0,1-4.07-.74V169.2a3.38,3.38,0,0,0-1.85-1.11,2,2,0,0,0-1.85,1.11,5.9,5.9,0,0,1-3,1.11,15.92,15.92,0,0,1,2.59-2.59c.37-2.22,0-3.33-.37-3.7s-1.48,0-2.59,1.11c0,.37-.37.74-1.1,1.48h-2.59L165,165.5a1.08,1.08,0,0,0-1.11,1.85c.37-.37.74-.37,1.48-.37v2.22l2.21,2.22-.73,1.48a5.19,5.19,0,0,1-1.48-2.59,5.69,5.69,0,0,1-2.22-1.48,5,5,0,0,0-3.33,0c-.37.74-.37,1.85,0,3.7,0,.37-2.22,1.85-2.22,3l1.11,1.11a7.22,7.22,0,0,0,2.59-.37,6.51,6.51,0,0,1,.37-2.22h1.48c1.85,1.48,2.59,2.59,1.85,3.7-1.11.37-1.85.74-1.85,1.85,1.48,1.11,4.06-1.48,5.18-1.11a2.27,2.27,0,0,1,.36,1.48,5.7,5.7,0,0,0,4.07.74l1.85,1.48c.37,2.59,1.48,3.33,2.59,2.22,0-1.85.37-2.59,1.11-2.59l1.48,2.59a3.13,3.13,0,0,1,2.22.74h3c1.11,1.85,2.59,2.59,5.18,1.85a5.19,5.19,0,0,1,1.48,2.59c4.81,1.11,6.66,1.48,5.55,1.48a2.22,2.22,0,0,1,1.48.37,14.19,14.19,0,0,1,2.22-.74c-.38,1.11,0,3,.74,4.8,1.1-.36,1.47-1.47,1.47-3.32L202,190.66c.37-.37,1.11-.37,1.48.74a19.66,19.66,0,0,1,5.18-.37c-1.11,1.48-1.85,2.59-1.85,3.7s1.48-1.11,4.81,4.43c3,.37,3.7.37,4.07,3.33l3.7,1.85.37-.37v-1.48l-.37-1.11Zm-48.46-41.79a9.82,9.82,0,0,0-5.18-1.85v.37l1.48,1.48a3.23,3.23,0,0,1-2.95,3.33c-.74.74-.37,1.48,1.1,2.58l.75.74a8.19,8.19,0,0,0,2.58-2.58,3.79,3.79,0,0,1,2.22-1.85Zm2.59,33.29-4.44,2.22c-.37,1.48,0,2.59,1.85,3h.74l.74-2.59c1.48-1.11,2.22-2.22,2.22-2.59ZM172,185.11c-.74,0-1.11.37-1.11.74a2.22,2.22,0,0,1,.37,1.48c.37-.37.37-.37.74-.37Zm9.25,10.72c-.37-2.21-1.85-3.32-3.7-3-1.11,3.33-1.48,4.43-1.48,3.69a1.48,1.48,0,0,0,1.85-.36,12,12,0,0,1,3.7,1.1l.74-.37c0-.37,0-.37.37-.37A2.88,2.88,0,0,0,181.27,195.83Zm-3.33-10a2.22,2.22,0,0,0,.37,1.48c1.48,0,2.22-.37,2.22-.74a2.81,2.81,0,0,0-.74-1.48C178.68,185.11,177.94,185.48,177.94,185.85Zm8.88-15.17v-2.59c.74-.37.74-1.48.37-2.59-.37-1.85-1.11-2.22-2.22-1.48v3.33a5.7,5.7,0,0,1-2.59,1.11,1.36,1.36,0,0,0-.37,1.11l1.11.74a12.3,12.3,0,0,0,3,4.07c.37,0,.74-.37,1.48-.74A8.71,8.71,0,0,0,186.82,170.68Zm-4.44-10c-.37,1.11-.37,1.84,0,2.22a6.35,6.35,0,0,1,2.22-.38C184.6,161.44,183.86,160.7,182.38,160.7Zm.37,29.22V191a1.36,1.36,0,0,0,1.11-.37C183.49,190.29,183.12,189.92,182.75,189.92Zm12.58,5.18c0-1.11,0-1.48-.37-1.85-1.11,0-1.85.37-1.85,1.11a2.83,2.83,0,0,0,1.85.74Zm3.33,1.47-.37-.36a1.38,1.38,0,0,1-1.11.36c0,.37.37.74.74,1.11l.74-.37Zm.74-19.6-.74-.74c.74-1.11,1.47-1.85,2.59-1.85.37,0,.73.37,1.1.74C202.35,176.23,201.25,176.6,199.4,177Zm8.87,30.33c-.37-1.48-2.22-2.59-2.22-3.7h-1.11c-.37.37-.74.74-.74,1.11,0,1.11,1.11,1.85,3,2.59Zm2.59,2.22v-.74c-.37,0-.37,0-.74-.37l-.37.74c.37.37.37.37.74.37ZM212,192.88h-.74c-1.11-1.11-1.48-1.48-1.11-1.85h.74Zm.74,11.46c-.37-.37-.37-.37-.37-.74h-1.85a2.22,2.22,0,0,0,.37,1.48c1.11-.37,1.85-.37,1.48-.37Zm2.22-11.46v2.58a5.49,5.49,0,0,0-2.59.37l-1.11-1.1c0-.74.74-1.11,2.59-1.48,0-.37-.37-.37-.74-.37.74-.37,1.48-1.48,2.59-3h1.85a1.36,1.36,0,0,1,.37,1.11A9.28,9.28,0,0,0,214.93,192.88Zm-.74-10h-1.85a2.22,2.22,0,0,0-.37,1.48l.74.74a2.22,2.22,0,0,0,1.48-.37Zm-.74-7-.37.37c0,.37,0,.37.37.74.37-.37.74-.37.74-.74C213.82,175.86,213.82,175.86,213.45,175.86Zm6.29,28.85c-.37,0-.37,0-.74.37q-1.67.55-3.33,4.44l.37.74c1.48-.37,2.59-1.48,3.7-3.33Zm-3-25.15h-.37v.74l.74.74c.37-.37.37-.37.74-.37A1,1,0,0,0,216.78,179.56Zm4.44,50.3v-.37h-.74v.37Zm11.47-12.94M235.27,248v-.37c0,.37,0,.37-.37.37Zm1.11,9.25v.37c.37,0,.37,0,.37-.37Zm15.91-36.62c-1.11-2.22-1.48-2.59-1.48-1.48h-.37v.37l.74,1.11Zm-.74-4.07c0-.37,0-.37-.37-.37v-.37c-.37,0-.37,0-.37.37h.37c0,.37,0,.37.37.74Z"/><path class="cls-1" d="M380.7,192.21q-2.34.39-4.7-4.7c-1.82-2.09-3.65-5.74-5.48-9.92a4,4,0,0,1-1-1.57c-.52-.26-1.57-1.56-2.87-3.65a29.79,29.79,0,0,1-5.22-5.74L358.78,164a38.5,38.5,0,0,1-4.7-3.66,80.49,80.49,0,0,0-7.83-2.08c-4.44-.26-7.31-.53-8.87-.26l-6.79,1.3-4.7,1.57-7.57,6c-1,1.83-2.61,4.44-4.43,8.09l-.27.26a73.28,73.28,0,0,1-2.87,9.92A3.51,3.51,0,0,1,310,187a45.23,45.23,0,0,0-1.57,7l-1,3.92-.26,9.92c0,2.09.52,6.52.52,8.61a21.89,21.89,0,0,0-.52,3.39,7.7,7.7,0,0,0,.52,2.61v4.44a37.75,37.75,0,0,0,1.31,5c.26,3.39.78,6,1.82,7.57.26,3.39,2.35,8.09,6.27,14.35l6.26,5.75a9.09,9.09,0,0,0,2.87,1.3l6,1.57h9.91c.79-.26,2.09-.26,3.66-.53A19.34,19.34,0,0,0,359,252.5l5-5.74a10.41,10.41,0,0,0,2.35-2.35c.26-1,1.82-3.4,4.17-7.57h.26l2.35-3.39,1.57-3.14,2.61-2.35a3.7,3.7,0,0,1,3.65,1.83,2,2,0,0,0,.26,1.31,58.43,58.43,0,0,1-.78,8.35c-.52.52-.78,2.61-1,6-1,1.05.26,5.74-2.61,17.49a10.83,10.83,0,0,1-2.61,2.87l-1.57.78c-1.3,0-5.22,0-12.27.26a107.21,107.21,0,0,1-11.48,1.31c-.52.26-2.35.26-5.22.26l-1.83.78a54.47,54.47,0,0,0-9.39,1.83h-8.36c-.78-.26-3.65-.26-8.35,0a49.38,49.38,0,0,1-5.74-1.57,3.78,3.78,0,0,1-2.35-.52c-2.35-.26-5.22-.78-8.87-1.56a35.65,35.65,0,0,1-7.83-3.92c-.26-.26-.79-.26-1.57-.52a14.5,14.5,0,0,1-6.78-3.92l-5-3.91-2.35-3.39a38.44,38.44,0,0,1-5.48-5,14.16,14.16,0,0,1-3.4-6.27,6.18,6.18,0,0,1-1.56-2.87,70.26,70.26,0,0,1-2.09-7.31,39.74,39.74,0,0,0-.78-6.26,3.55,3.55,0,0,0-.26-1.31v-1.56l-.79-14.36a1.56,1.56,0,0,0,.26-1c.26-1.57.26-4.18.53-7.57a32.34,32.34,0,0,1,4.17-12.27l1.83-5,.52-1a118.78,118.78,0,0,1,10.44-13.31l6-5.22,1.05-.78a21.65,21.65,0,0,1,5-1.57,10.23,10.23,0,0,1,3.39-1,20.9,20.9,0,0,0,3.13-2.61,20.54,20.54,0,0,1,8.61-2.09,46.63,46.63,0,0,0,5-1.31c.79,0,3.4-.26,7.57-.52h6.53c1.82-1,6.26-1.3,12.79-1a3.86,3.86,0,0,1,1.82-.26l.26.52V152c.27-.26.27-.26.53-.26a5.15,5.15,0,0,0-.26-1.83,29.54,29.54,0,0,1,10.44,2.35,12.88,12.88,0,0,1,2.87.26h11.22a29.16,29.16,0,0,0,6-.78,5.91,5.91,0,0,0,1.83-.26h4.18l.26.26c2.35.78,3.65,3.13,3.91,6.79l.52,2.87c.26,3.39.26,8.61.53,15.4a32.66,32.66,0,0,1,1,9.13C382.79,187.51,382,189.6,380.7,192.21ZM275,219.87c-1.83-.52-2.87-1.3-2.87-2.61-1.31-1.3-2.35-1.56-2.88-1.3a13.69,13.69,0,0,0,.53,2.35l.52,1c0,.52-.26.78-.78,1.05a2,2,0,0,0,1.3,1.82,1.89,1.89,0,0,0-1,1.57c0,.52,0,.78.26,1h2.09a6.43,6.43,0,0,0,1.82,1.31h.79c0-.79,2.08-3.4,2.08-4.44Zm-5-13.57v1.31c.26.26.26.26.52.26h.78c1.05-2.61,1.57-3.4,1.57-2.61C272.13,205.26,270.3,206.3,270,206.3Zm3.39,23.75c-.78-.26-1.3-1-1.3-2.35h-1.31a2,2,0,0,0-.52,1.05,3.84,3.84,0,0,0,1.3,2.09c.79,0,1.57,0,1.83-.27ZM293,224.57v-2.35c-.78,0-1-.78-.78-2.35-.26-.52-.26-1,.52-1.56-.78-.26-1-1.31-1-2.61V212c.52-.78,1.57-1,3.13-1,.26-.26.26-.78,0-1.57l-1.3-1a4.05,4.05,0,0,0-1.83-3.13c0-.79,1.57-2.09,1.3-3.13a11.73,11.73,0,0,1-.78-2.09c.78-1.83.78-3.13.52-3.4h-.52c-.26,0-.26,0-.26-.26h-.52l-.26-2.35c.78-.78,1-1.3,1-1.56l-.78-.78a3.72,3.72,0,0,1-3.13-1.57,6.67,6.67,0,0,0-1.83.52,1.56,1.56,0,0,1,.26-1v-.26a3.71,3.71,0,0,0-1.57-.53,3.32,3.32,0,0,0-1,1.83c-1.83,1.31-2.61,1.83-2.87,1.83H281c0,.78.26,2.35,0,2.61-.26.78-1.31,1.56-3.13,2.61,0,1.83.52,2.61,1.3,2.87.26.52.26.78,0,1-.26,0-.26-.26-.26-.52-.78,0-1,.52-.78,1.83a3.47,3.47,0,0,0,.26,2.87c.26.78-.52,1.3-1.83,1.57v.52l.52.52c.26,1.3-2.34,1.83-2.34,3.13a4.19,4.19,0,0,1,2.34,1,6.61,6.61,0,0,1-.52,1.82c-.26.26-.26.26,0,.52a1,1,0,0,1,.26.79c-1.3,1-1.56,2.09-1.3,2.87a4,4,0,0,1,1.82,3.65,6.49,6.49,0,0,1,.53,1.83,3.73,3.73,0,0,1-.53,1.83l.53.52c1,.26,1.56.78,1.56,1.3s-.78,1.05-2.35,1.57v.78c.26.26,2.88,1.57,2.88,1.83,0,1.57,0,2.35.26,2.61h1.56l1.57-1.57a4.71,4.71,0,0,1,2.09,1.31,11.41,11.41,0,0,0-2.61.52c0,1.31-.53,1.83-1.57,1.83a3.76,3.76,0,0,0-.52,2.35l.78.26c1.05,0,1.57-.52,1.83-1.83l2.35-2.09h1.82l3.66,3.66a1.56,1.56,0,0,0,1.56-.79,5.64,5.64,0,0,1,.53-3.91,23,23,0,0,0-.53-3.39,9.24,9.24,0,0,1,.53-1.57c-.27-2.09-.53-3.39-.27-3.65a2.42,2.42,0,0,0,1.31.78,1.56,1.56,0,0,0,1-.26C295.35,225.09,294.57,224.57,293,224.57Zm-16.44,12.79-.52-.52h-1v.26l1,.52Zm.52-11.22c-.78,0-1,.26-1,.78ZM279.43,240h-.52v.78c.26,0,.26,0,.52-.26Zm5-.26a1,1,0,0,0-.78.26v1.31a.93.93,0,0,0,.78-.27Zm2.61,3.65c0-.78-.26-1-1-1-.26.26-.26.78.26,1.57Zm.79-6.26a1,1,0,0,0-.79-.26,1.09,1.09,0,0,0-1,1c0,.26.26.52.52.79.78,0,1,0,1.31-.27ZM286.48,188a1,1,0,0,1,.26.78,2,2,0,0,0,1.31-1.82Zm2.35,51.68c0,.78.52,1.3,1.83,2.09a4,4,0,0,0,1,1.56c.78-.26,1.3-.52,1.3-.78a2,2,0,0,0-.52-1A6.56,6.56,0,0,0,288.83,239.71Zm7.57-19.84a8.53,8.53,0,0,0,1.83-1.56,3.14,3.14,0,0,0-2.09-2.35l-1.83-1.05,1,2.09a3.46,3.46,0,0,1-2.08,1.83v.78l3.13,3.92h.26v.26c1.3,0,1.83-.52,1.83-1.57A2.28,2.28,0,0,1,296.4,219.87Zm-1.57-25.31h-.78c-.26.78-.52,1-.26,1.3a2,2,0,0,1,1.3-.26C295.09,195.08,295.09,194.82,294.83,194.56Zm-.78,4.69c0,.79,0,1.05.26,1.31.52,0,.78,0,1-.26C295.35,199.25,294.83,199,294.05,199.25Zm8.87,49.07a3.32,3.32,0,0,0,1.05-2.61,9.49,9.49,0,0,0-1.31-4.17H301.1v2.08c-.53.27-1.31-.26-2.61-1.3a2.39,2.39,0,0,1-1.31-.78c.26-.53,1.05-.79,2.87-.79l1.83-1.56c0-1.83-.52-2.61-1.83-2.35a20.26,20.26,0,0,0-2.87,1,6.67,6.67,0,0,1-.52,1.83h-1a2.88,2.88,0,0,0-1.31-.26,2,2,0,0,0-.26,1.3c1.3.53,1.83,1.05,1.83,1.83s-1.31,1.57-1.31,2.61c0,.26.26.26.52.26a4.53,4.53,0,0,1,1.31-.52c.52,0,.78.26,1,.78a5.26,5.26,0,0,0-.26,3.13,9.21,9.21,0,0,0,2.61,1.83c.26-.26.78-.26,1.31-.52v-1a1.45,1.45,0,0,1-.79-1.31,2,2,0,0,1,.52-1l1.31,1.56Zm-6.26-41v1c.26.26.78.26,1.57.52a2.78,2.78,0,0,0,.78-1.3c.26-.53.26-1.05-.26-1.31A3.73,3.73,0,0,1,296.66,207.35Zm.26-5c0,.26,0,.52.26.52.78,0,1.05-.26.78-.52ZM299,214.13a3.09,3.09,0,0,0-.52-1.83c-.79,0-1.05,0-1.31.27v.26a6.93,6.93,0,0,1,1.57,1.3ZM298,253.54c0-.26,0-.26-.26-.52h-.52v.52H298Zm.53-56.9c-.53-.26-.79-.26-1.05.27s-.26.78.52,1h.53Zm-.26-3.39V193h-.53l-.26.26c0,.26,0,.26.26.26Zm2.87,41.24-.53-.26-.78.78a2,2,0,0,0,.52,1.05,1,1,0,0,0,.79-.27A1.16,1.16,0,0,0,301.1,234.49Zm2.08,19c0-.26,0-.26-.26-.52h-.26v.52Zm2.61,7.31v-.78a.49.49,0,0,0-.78,0v.78Zm4.44,0c0-.78-.26-1-1-1-.26.26,0,.78.26,1Zm2.87-105.7a3.17,3.17,0,0,0-.52-.79h-.52v.79Zm1.57,107.27h-.52v.26l.26.26c0-.26,0-.26.26-.26Zm47.76-96.31v-.26h-.52l.26.26Zm.78-8.09v-.27H363V158Zm2.62,7.83h-.53v.26h.53Zm1.3,3.13h-.26v.26ZM371,152.53a3.31,3.31,0,0,0-2.61,1.83l2.09,1.57a5.64,5.64,0,0,0,1.05-1.83A2.21,2.21,0,0,1,371,152.53Z"/></svg>