<svg id="Layer_1" data-name="Layer 1" xmlns="http://www.w3.org/2000/svg" viewBox="0 0 500 500"><defs><style>.cls-1{fill:#fff;}</style></defs><title>research</title><rect class="cls-1" width="500" height="500"/><polygon points="74.66 21.36 84.28 69.48 110.24 21.36 285.24 21.36 295.81 8.15 301.58 21.36 322.74 64.77 331.39 32.68 349.66 27.96 396.77 21.36 475.62 24.19 441 55.33 481.39 54.39 481.39 208.2 491 216.69 484.27 216.69 494.85 230.84 488.12 240.28 482.35 261.98 480.43 406.91 489.94 416.01 483.31 423.74 484.27 474.3 459.27 474.3 444.85 494.11 432.35 474.3 311.2 475.24 328.5 494.11 284.75 474.3 204.42 482.12 211.71 439.56 166.01 489.4 157.35 472.41 24.66 473.35 65.05 429 20.82 439.38 20.82 349.74 5.43 362.01 20.82 329.92 17.93 195.93 28.51 205.37 16.01 174.23 16.97 149.69 27.55 176.11 16.97 114.78 16.97 20.42 37.16 20.42 34.28 36.46 55.43 3.43 56.39 18.53 74.66 21.36"/><path class="cls-1" d="M93.69,416.9c-.5,0-1.4-.09-2.46-.09-10.34-.49-13.45-2.78-16.81-7.95-2.14-3.36-4.35-7.79-6.73-12.14-1.31-2.46-2.79-3.52-5.41-3.52H60.72v12c0,6.81.74,7.54,7,8.12v2.87H42.93v-2.87c6.15-.58,7-1.31,7-8.12V373.68c0-6.56-.74-7.38-6.72-7.95v-2.87h23c7.21,0,11.31.82,14.68,3a12.53,12.53,0,0,1,5.49,10.91c0,7.21-4.76,11.15-10.25,13.36,1.23,2.46,4.26,7.88,6.72,11.65a67.33,67.33,0,0,0,6.24,8.94,12.42,12.42,0,0,0,5,3.52Zm-30.84-27c3.45,0,6.24-.58,8-2.13,2.79-2.3,3.94-5.58,3.94-9.76,0-8.78-5.09-11.89-9.68-11.89-2.05,0-3.2.32-3.69.82s-.74,1.31-.74,3v19.93Z"/><path class="cls-1" d="M140.92,402.54c-.58,3.7-2.22,11.16-2.87,13.62H96.23v-2.87c7-.58,7.79-1.07,7.79-8V373.76c0-7.13-.82-7.54-6.64-8v-2.87H136c.08,1.47.49,7.21.82,12.3l-3,.41c-.74-2.87-1.8-5.58-3.28-7.06s-3.6-2.05-8.2-2.05h-3.93c-3,0-3.36.17-3.36,2.87v17.39h5.49c6.89,0,8-.41,9.1-6.15h3v16.48h-3c-1.06-5.9-2.13-6.23-9.1-6.23H115v14.27c0,3.93.32,5.9,2,6.72,1.48.66,4.27.82,7.38.82,4.27,0,7.14-.57,9-2.62a27.49,27.49,0,0,0,4.6-8Z"/><path class="cls-1" d="M175.11,376.22c-1.64-5.16-4.75-11.23-11.4-11.23a7.75,7.75,0,0,0-8,8.12c0,4.51,3,7.05,10.17,10.74,8.61,4.18,14.51,8.77,14.51,16.89,0,9.35-7.95,16.65-19.92,16.65a29.24,29.24,0,0,1-8.29-1.15,34.26,34.26,0,0,1-4.92-1.8c-.82-2.05-1.88-8.94-2.46-13.86l2.87-1c1.64,5.25,6.48,14.52,14.35,14.52,5,0,8.2-3.45,8.2-8.69,0-4.84-3.6-7.88-9.75-11.16-8.37-4.26-14.27-8.69-14.27-16.56,0-9,7.13-16.07,18.78-16.07a36.26,36.26,0,0,1,11.39,2.13c.33,3,.91,6.72,1.56,11.81Z"/><path class="cls-1" d="M228.9,402.54c-.57,3.7-2.21,11.16-2.87,13.62H184.21v-2.87c7-.58,7.79-1.07,7.79-8V373.76c0-7.13-.82-7.54-6.64-8v-2.87H224c.09,1.47.5,7.21.82,12.3l-3,.41c-.74-2.87-1.81-5.58-3.28-7.06s-3.61-2.05-8.2-2.05h-3.94c-3,0-3.36.17-3.36,2.87v17.39h5.5c6.88,0,8-.41,9.1-6.15h2.95v16.48h-2.95c-1.07-5.9-2.13-6.23-9.1-6.23H203v14.27c0,3.93.33,5.9,2,6.72,1.48.66,4.26.82,7.38.82,4.26,0,7.13-.57,9-2.62a27.28,27.28,0,0,0,4.59-8Z"/><path class="cls-1" d="M262.61,416.16v-2.87c4.83-.74,5.24-1.72,3.93-5.33-.82-2.46-2.05-6-3.28-9.27H247.52c-.9,2.54-2,5.5-3,8.78-1.23,3.93-1,5.08,5,5.82v2.87H231.2v-2.87c5.41-.66,6.48-1.56,9.18-8.45l16.81-42.15,4.19-1.06c5.24,14.35,10.33,28.62,15.66,42.72,2.78,7.22,3.77,8.28,9,8.94v2.87Zm-7-39.61h-.24c-2.3,6-4.35,12-6.48,17.8H261.7Z"/><path class="cls-1" d="M341.24,416.9c-.49,0-1.39-.09-2.46-.09-10.33-.49-13.44-2.78-16.81-7.95-2.13-3.36-4.34-7.79-6.72-12.14-1.31-2.46-2.79-3.52-5.41-3.52h-1.56v12c0,6.81.74,7.54,7,8.12v2.87H290.48v-2.87c6.15-.58,7.06-1.31,7.06-8.12V373.68c0-6.56-.74-7.38-6.73-7.95v-2.87h23.05c7.21,0,11.31.82,14.67,3A12.53,12.53,0,0,1,334,376.8c0,7.21-4.76,11.15-10.25,13.36,1.23,2.46,4.26,7.88,6.72,11.65a68.52,68.52,0,0,0,6.23,8.94,12.56,12.56,0,0,0,5,3.52Zm-30.83-27c3.45,0,6.23-.58,8-2.13,2.78-2.3,3.93-5.58,3.93-9.76,0-8.78-5.08-11.89-9.67-11.89-2,0-3.2.32-3.69.82s-.74,1.31-.74,3v19.93Z"/><path class="cls-1" d="M394.54,402.14A92.23,92.23,0,0,1,390,415.26c-2.13.49-9.67,2.13-15.25,2.13-21.81,0-30.83-14.19-30.83-27.23,0-16.89,12.87-28.53,32.47-28.53a64,64,0,0,1,14.92,2.21c.74,4.51,1.31,8.28,1.89,13.37l-3,.57c-2.71-9.67-9-12.54-15.34-12.54-11.89,0-18.45,11.15-18.45,23.28,0,15.09,8.12,25,19.27,25,6.81,0,11.89-4.34,16.07-12.62Z"/><path class="cls-1" d="M457,365.73c-6.4.57-6.89,1.06-6.89,8v31.57c0,6.89.65,7.38,6.89,8v2.87H432v-2.87c6.47-.58,7.13-1.07,7.13-8V390H416.76v15.25c0,7,.66,7.46,6.73,8v2.87H399.05v-2.87c6-.58,6.73-1.07,6.73-8V373.76c0-7-.74-7.46-7.06-8v-2.87h24.6v2.87c-5.9.57-6.56,1.06-6.56,8v12.06h22.39V373.76c0-7-.66-7.46-6.81-8v-2.87H457Z"/><path class="cls-1" d="M306.3,259.83c-1.48.37-3,3-5.92,6.28h-4.44a3.2,3.2,0,0,0-1.11-2.22c-.37,0-.37,0-.74.37v1.85c-1.84-.37-4.8.37-8.5,1.48h-1.48c-.37-.37-.37-.37-.74-.37a5.26,5.26,0,0,0-2.22.74h-3l-1.11-2.22c-1.85-.37-3-1.11-3-1.85h3.33c.37-.37,0-1.47-.74-2.58v-3l-9.25-6.66-1.11,1.11,1.11,1.85a5,5,0,0,1,2.59,3l-1.85-1.11c-3.33,0-5.55.74-7.4,2.22H259l1.1,4.07a2.1,2.1,0,0,1,.74,2.58c-.37,1.11-.74,2.22-1.47,2.59h-3.7c-.37-.37,0-1.48.37-3s.37-2.58,0-3l-1.11-1.47c-4.44-2.59-4.44-4.81-8.51-7.4H244.9L246,255l2.22,3.33v1.85s-5.92.74-5.92,4.06l1.11.74a6.51,6.51,0,0,1,2.22-.37c.74,0,1.11.37,1.11.74l-3.7,2.59h-3.33l-1.85-1.11c-2.59-.37-5.92-3-10.36-8.13a7,7,0,0,1,1.85-4.81,23.59,23.59,0,0,0-.74-3.33c1.11-1.85,1.48-2.59,1.48-3-.37,0-1.11.74-2.22.74a4.89,4.89,0,0,1-2.58-1.11c-.74,0-1.48.74-2.22,1.85-1.48-.37-2.22-1.11-2.59-3l-1.11-1.85c-3-4.81-7-12.21-11.84-22.19h-.37a1.36,1.36,0,0,0-.37-1.11,63,63,0,0,0-6.66-10.36l-2.22-3.7c-.37-1.11-1.85-3.33-4.43-7.4a70.32,70.32,0,0,0-7.77-8.13,2.77,2.77,0,0,1-1.85-.37,40.6,40.6,0,0,0-8.88.74,11.86,11.86,0,0,0-5.55,6.28c-.37,2.22-.74,6.66-1.11,13.69a14,14,0,0,0-2.22,6.66,12.45,12.45,0,0,0,1.85,6.29A54.39,54.39,0,0,0,169.44,238c1.11,3.33,3.7,7.77,8.14,12.95,5.55,2.59,8.14,5.55,8.14,9.62,0,1.85-1.85,4.06-5.92,5.91H147.62a2.8,2.8,0,0,1-1.48-.37h-34a28.17,28.17,0,0,0-7.77-1.11,21.54,21.54,0,0,1-7,0l-1.85-1.11H91.77c-1.11-1.47-2.22-2.22-3.33-2.22v-.36a89.12,89.12,0,0,1,9.24-7.77l4.07-2.22c1.48-1.11,3.33-3.7,5.92-8.14l4.44-8.88c0-6.65.37-10.72,1.11-11.83a71.11,71.11,0,0,1,1.85-13.69c0-12.57.37-19.23,1.11-19.6q.55-4.44,0-26.64a11.41,11.41,0,0,1,.74-4.06c.74-4.44.74-7.4.37-9.25,0-2.59,0-5.92-.37-10.73-.37-.74-.74-2.59-.74-5.92-.74-1.11-1.48-3.69-1.85-7.76l-.74-1.85L108,116.68a15.48,15.48,0,0,0-6.66-4.07l-2.22-2.22c-1.11-3-.74-5.18,1.48-6.29.37-.37,3-1.48,7-2.59,4.81-.37,7.77-.37,8.51.37a8,8,0,0,1,3.7.74A78.44,78.44,0,0,1,131,103.73c4.07,0,9.25.37,15.54.74,18.86,0,34.77,0,48.08-.37l8.88-1.85,12.58-1.48c3.33,0,5.55.37,5.92,1.11,1.48.37,3.7.37,6.28.74s4.81.37,5.92-.74a18.15,18.15,0,0,0,4.81-1.11h5.92l2.59.74c0,.37,4.07,1.11,12.57,2.59,3,.37,4.81,1.48,5.55,2.59v1.48a2.19,2.19,0,0,0,2.59-.37c1.11,0,2.59,1.11,3.7,3.33a10.88,10.88,0,0,1,3,3c2.59,1.48,4.44,4.07,5.92,8.14l1.11,2.22c.37,1.48.37,4.8.37,10.35a4.78,4.78,0,0,1,.74,3q0,5-3.33,12.21a4.2,4.2,0,0,0-1.11,3h-.37c-1.11,3.33-3.7,6.66-7.77,10.72-.37,1.11-2.59,2.59-6.66,4.81a84.49,84.49,0,0,1-8.5,6.29c-3.7.74-6.29,2.22-7.4,4.81a29.68,29.68,0,0,0,0,8.14,22.57,22.57,0,0,0,4.44,5.92c.37,1.11-.37,1.11,5.18,7.39l4.8,10.36a17.15,17.15,0,0,1,3.7,3.7l1.85,3a86.38,86.38,0,0,1,8.88,10v1.84c-1.11.74-1.11,1.48-.74,2.22a11.56,11.56,0,0,1,2.59-.74c.37-.37,1.11.37,1.85,1.48a4,4,0,0,0,.37,1.85,5.67,5.67,0,0,1,2.59,3.7l1.11.74,1.11,1.48a3.73,3.73,0,0,0,3.33,4.07c.37.37.37,1.48.37,4.07a8.84,8.84,0,0,0,2.59,1.11v1.48h-2.59a3.89,3.89,0,0,0,1.85,3.33c1.11,0,1.48-1.11,1.48-3.33a7.65,7.65,0,0,1,5.54,1.85l4.81,3.7,3.33,2.22Zm-205.66-.74q0-2.77-2.22-2.22l-.74.74a4,4,0,0,0,1.85,1.48Zm.74,1.48c.37.37.37.37.37.74.37,0,.37,0,.37-.37S101.75,260.57,101.38,260.57Zm1.11-6.29h-.37c.37,0,.37.37.37.74Zm14.06.74a1.13,1.13,0,0,0-1.48,0c0,.37,0,.37.37.74a1.36,1.36,0,0,1,1.11-.37Zm8.88-33.29c-.37,0-.37,0-.74.37a2.17,2.17,0,0,0,.74,1.85,7.15,7.15,0,0,0,2.58-.37C128,224,127.28,223.21,125.43,221.73Zm6.28-9.62q0-4.44-5.54-4.44c-.74.74-1.11,2.22-1.11,4.07l1.11,4.81c.37,0,.74.37,1.11.74h2.21Zm-4.07,25.52v-.74h-1.1v.74h1.1Zm4.44-4.81a2.81,2.81,0,0,0-1.48-.74c-.37,0-.74.37-1.11.74a5.69,5.69,0,0,0,2.22,1.48l.37-.37Zm0,22.2a.8.8,0,0,0-.74-.74,1.13,1.13,0,0,0-1.48,0c0,.37.74,1.11,1.85,1.48Zm20-67.69c-.37,0-.37-.37-.74-1.11-1.85,0-2.59,1.11-3,3-1.85.37-3,1.48-3,2.59A11.81,11.81,0,0,0,148,194v1.84a7,7,0,0,0-2.59.38c0,1.1-1.11,2.21-3.7,3.69-.37.37-.74.74-.74,1.11a4.92,4.92,0,0,0,1.11,2.59v.74a14,14,0,0,0-6.66,2.22c-.74.37-1.48,0-2.22-1.48a1.63,1.63,0,0,0-1.85-.37v2.22q3.33.56,3.33,10l1.85,1.48c-.37.74-1.48,1.85-3.7,3.33,0,1.11.74,2.22,2.59,2.59a10.18,10.18,0,0,0,3.33-3c.37-.37,1.11-.37,1.85-.74.37-1.85,1.85-3,4.07-3.33l1.48-1.48c1.48.37,3,1.85,4.07,1.85s1.85-1.85,2.59-5.55a2.88,2.88,0,0,0-1.11-2.59v-3l-2.22-1.11c-3-1.11-4.44-2.59-4.44-5.18,1.48-.37,3.7-2.59,6.66-5.91.74-.37,1.85-1.85,3.7-4.44C153.17,189.18,152.06,188.44,152.06,187.33ZM134.67,177v.74a.8.8,0,0,0,.74-.74Zm2.59,18.49c-.37-1.47-.74-2.21-1.85-2.21h-.74v2.58a5.08,5.08,0,0,0,1.85,3C137.26,198.42,137.63,197.31,137.26,195.46Zm-2.59,7.4.74.74c1.85-.37,2.59-.74,2.59-1.85a9.41,9.41,0,0,0-.74-2.59C135.41,199.53,134.67,200.64,134.67,202.86Zm.74,28.11v-1.11c-.37,0-.37,0-.74.37,0,.37,0,.37.37.74Zm7-1.84a8.15,8.15,0,0,0-5.18,6.65c-1.11.37-1.85.37-2.22.74V238a4.93,4.93,0,0,0,2.22-1.85c4.44-.37,4.44-.37,4.81-3.33a8.33,8.33,0,0,1,1.85-1.85C143.55,229.86,143.18,229.13,142.44,229.13Zm-5.55-2.22c0,1.84.37,2.58.74,2.58h1.85a9.27,9.27,0,0,0,.74-2.58,2.83,2.83,0,0,0-.74-1.85C138.37,225.06,137.63,225.8,136.89,226.91Zm7,25.52v-1.11l-2.59,1.11Q138,253,138,254.65l.74,1.48c.74,0,1.85-.74,3-2.59ZM139.11,248v-.74h-.37V248Zm2.59-54.74a5,5,0,0,0,0,3.32c1.11-.36,1.48-1.47,1.48-2.95C142.81,193.25,142.44,193.25,141.7,193.25Zm1.48,45.12c.37-1.11.37-1.48,0-1.85-.74,0-1.11,0-1.48.37v2.22Zm3.7,2.22c-.74-.74-1.11-.74-1.48-.37a1.65,1.65,0,0,0,0,1.85C147.25,241.7,147.62,241,146.88,240.59Zm.37-63.25v-1.11H145.4a2.77,2.77,0,0,0,.37,1.85Zm.37,78.79c.37-.74.37-1.11,0-1.48H145.4v1.48Zm0-72.5a1.47,1.47,0,0,0-1.85-.37,2.17,2.17,0,0,0,.74,1.85C147.62,184.74,148,184.37,147.62,183.63Zm-1.48,35.88c0,.37,0,.37.37.74,0-.37,0-.37.37-.74Zm1.11,14.79v-.74h-1.11c0,.37,0,.74.37.74Zm5.92-15.9-1.48,2.22a3.56,3.56,0,0,0-2.59,3.7c1.11,0,1.85,0,2.22.37h.74c0-1.48,3.33-3.33,2.22-5.92A1.36,1.36,0,0,0,153.17,218.4Zm-3.7-38.47,1.11,1.11c1.85-.37,2.59-1.48,2.59-2.59C150.58,177.71,149.47,178.08,149.47,179.93Zm2.22,33.29-1.48.74a.8.8,0,0,0-.74-.74c0-.37,0-.37.37-.74a4.69,4.69,0,0,1,2.22.37C152.06,213.22,152.06,213.22,151.69,213.22ZM150.58,191l-.37.37-.37-.74c.37-.37.37-.37.74-.37ZM151,231v-.74h-1.11V231ZM155,241.33v-1.85c-2.59-1.11-4.07-1.85-4.81-1.85a11.09,11.09,0,0,0,3.33,3.7Zm.37-13.68c0-1.48-1.11-2.22-3-2.59.37,1.85,0,3.69-.74,6.28a3.61,3.61,0,0,0,1.48,3.33h1.11c0-.37,0-.37.37-.37-.74-3-1.11-4.44-1.11-4.07Zm-.74-44.39a1,1,0,0,0-1.11,1.11h.37c.37,0,.37,0,.74-.37S155,183.63,154.65,183.26Zm3.7,10.73a4.92,4.92,0,0,0-2.59-1.11,5.26,5.26,0,0,0-2.22.74v1.11l1.11,1.1a32.48,32.48,0,0,0,3.7-.73Zm0-13.69v-.37c-.37-.37-.37-.37-.74-.37v.74Zm.37,62.88c-.37.37-.37.37-.74.37v1.11a1.35,1.35,0,0,1,1.1-.37A1.38,1.38,0,0,1,158.72,243.18ZM162,183.63c-.37,0-.37,0-.37-.37,0,.37,0,.37-.37.37.37.37.37.37.37.74,0-.37,0-.37.37-.37Zm.37,71.39h-.74l-.37.37c0,.37,0,.37.37.74.37,0,.37,0,.74-.37Zm57-133.16a71,71,0,0,0-7-6.29,32.55,32.55,0,0,0-11.84-3,13.06,13.06,0,0,0-5.18-1.11,14.84,14.84,0,0,0-5.54,1.11,59.23,59.23,0,0,0-11.1,3c-3.33,3.33-5.55,8.88-5.92,16.64L172,137l-.37,30.7c0,4.81,1.48,7.4,11.47,10.73l6.66,1.48a29.81,29.81,0,0,0,7-1.11,42.9,42.9,0,0,1,5.55-2.59c4.44-.74,8.14-3,11.47-7,1.85-1.48,3.33-3.7,5.18-6.66h.37l2.22-6.28,1.11-1.48a105.76,105.76,0,0,0,1.11-17C223.45,133.69,222,128.52,219.38,121.86Zm27.74,117.25c-.37-.74-1.11-.74-1.85-.37a2,2,0,0,0,1.11,1.85C247.49,240.22,247.49,239.85,247.12,239.11Zm4.44.37a23.65,23.65,0,0,1-3.7,1.48v1.85c.37,0,.37,0,.37.37a2.22,2.22,0,0,0,1.48-.37,12.13,12.13,0,0,0,2.22-3ZM249,264.26a1.36,1.36,0,0,0-1.11-.37v-.74a2.27,2.27,0,0,1,1.48-.36,1.33,1.33,0,0,1,.37,1.1C249.34,264.26,249.34,264.26,249,264.26Zm3.7-136.85V126.3h-.74v1.11ZM259,258.35c-1.11-1.48-1.85-2.22-2.22-1.85-.37,0-.37,0-.37.37l1.85,1.85Zm2.58-9.62a13.3,13.3,0,0,0-.74-4.07h-.74c-.73,2.59-.36,4.44,1.11,4.81Zm-.74-120.95-.37-.74h-.73v.74h1.1Zm.37,123.91a4.52,4.52,0,0,0-1.11,3.33c1.48,0,2.22-1.11,2.22-3A1.36,1.36,0,0,0,261.17,251.69Zm4.81,11.1h-.74a2.25,2.25,0,0,1-1.11-2.22,3.41,3.41,0,0,1,1.85,1.1Zm1.85-141.67c.37-.37,0-1.11-.37-1.48h-1.11a2.81,2.81,0,0,0,.74,1.48Zm.74,143.51c-.37.37-.37.37-.74.37a2.22,2.22,0,0,1-.37-1.48,1.36,1.36,0,0,1,1.11.37Zm1.48-136.11a1.35,1.35,0,0,0-.37,1.11,2,2,0,0,0,1.11,1.84c.74,0,1.11-.37,1.48-1.11A2.34,2.34,0,0,0,270.05,128.52Zm.37,139.07-.74-1.11c.37-.37.74-.74,1.11-.74a1.36,1.36,0,0,1,1.11.37C271.9,266.85,271.53,267.22,270.42,267.59Zm4.81-146.47a12.48,12.48,0,0,0-4.44,1.48c0,1.11,1.48,2.59,4.07,5.18a8.51,8.51,0,0,1,2.59-3c.37-1.11,1.85-.74,1.85-1.85A17.71,17.71,0,0,1,275.23,121.12ZM271.9,248a1.36,1.36,0,0,0-1.11.37c0,1.48,0,2.22.37,2.59,1.85-.37,2.59-1.11,2.59-2.59A4,4,0,0,0,271.9,248ZM280,241.7,276,238.37l-1.48.74q0,1.66,2.22,2.22v1.48a1.36,1.36,0,0,1-1.11.37,1.89,1.89,0,0,1-1.85-1.48h-2.59q-.56,1.11,2.22,3.33a4.42,4.42,0,0,0,1.48,3l2.22-2.59c.37-.74,1.11-1.48,3-2.59Zm-6.66,20h-2.22v-1.1c.37-.37,1.11,0,2.22.37ZM283,246.88c.74-1.48,0-2.22-2.59-2.22l-1.48.74a2.83,2.83,0,0,0,.74,1.85ZM280,235l-.37.37Zm5.18,24.79,2.59-2.59c0-1.48-.37-2.22-1.48-2.22s-1.48,1.11-4.07,3.7c0,1.11.74,2.22,2.59,4.07a12.31,12.31,0,0,0,2.22,2.95,3.4,3.4,0,0,0,1.48-2.22C286.33,262.42,285.22,261.31,285.22,259.83Zm3.7-8.88-.74-1.48h-1.11a2.22,2.22,0,0,0,.37,1.48Zm20.71,10.36V262l-1.11,1.48c-.37,1.48-1.48,2.22-4.07,2.59-1.11-1.85,1.85-5.54,4.44-5.54Z"/><path class="cls-1" d="M411.26,234.49a1,1,0,0,0-.78.26v.52c.26,0,.26,0,.26.26-.26,2.61-1,3.92-1.82,4.18l-.27-.52c-.52,0-.78-.26-.78-.52h-2.09l-1.56,1c.26.26.26.52.26,1h.78V241a.93.93,0,0,1,.78.27h.26v.26a5.39,5.39,0,0,1,1.05,1.82c.26,1.57-1.05,4.18-3.92,7.57a35.93,35.93,0,0,1-4.43,5l-5.75,5.48H393a23,23,0,0,1-3.91,1.31c-.26.26-.52.26-1.31.52-.78,1.3-2.61,2.61-5.22,4.18l-4.43,1a61.36,61.36,0,0,0-13.58,2.09h-3.65c-.26-.26-.26-.26-.52-.26H351a39.56,39.56,0,0,1-5.48-1.31l-4.7-.52a7.29,7.29,0,0,1-2.35-.26l-9.65-.52c-.26,0-.26,0-.26-.26-6-.27-9.4-.27-10.44.26-3.14,0-5.22-.79-6.27-2.09a2,2,0,0,0-.26-1.31,29.37,29.37,0,0,0-.78-5.74c-.26-3.91-.26-6.26,0-6.52,0,1.82-.26-3.14-.78-15.14a40.86,40.86,0,0,0,0-8.09,5,5,0,0,1-.27-1.83,2.63,2.63,0,0,1,1.57-2.61,4.68,4.68,0,0,1,2.87.78c1.57,3.14,3.39,6.79,5.74,10.7a52.4,52.4,0,0,1,4.7,8.36h.26c.52,1.56,2.61,3.91,6.27,7.3,1.82,2.88,3.65,5,5.74,5.75l.78.52c1,1,3.92,3.13,12.53,5.22a146123601141128.2,146123601141128.2,0,0,0,5.22,1.56,9.44,9.44,0,0,0,3.65.53c6,0,6.27-1.57,11.49-3.66a13.86,13.86,0,0,0,3.91-3.91l2.35-1.83a13.09,13.09,0,0,0,2.61-5.48c.26-.26.52-1.57.52-4.44,0-1-.26-1.3-1-5.22a20.23,20.23,0,0,1-3.92-4.7,70.52,70.52,0,0,0-6.26-4.43c-.78-.79-2.87-1.31-6.26-2.09a19,19,0,0,1-4.18-1.31h-.52c-.52-.52-2.35-1.3-5.48-2.61a33.17,33.17,0,0,1-8.62-2.61,33,33,0,0,0-7.83-2.87c-1.56-.52-4.17-1.82-8.09-3.65a7.82,7.82,0,0,0-3.91-2.35l-1.57-1c-1.3-1.83-3.39-4.7-6-9.14l-2.09-3.91-1.56-5c0-.26,0-.26-.27-.26V181c.79-2.08,1.57-5.22,2.87-9.65l6.27-9.4,5-4.18,2.35-1.82a16.34,16.34,0,0,1,7-2.61l4.44-1.57,2.09-1.3,2.61-.79h11.48a21.22,21.22,0,0,1,4.18-.26c2.09,0,4.44.26,7.05.52,1.82.27,4.17.53,7.57,1.31a2,2,0,0,0,1.3.26l5.48.78a15,15,0,0,1,4.7.26c10.7,1.05,9.4-1.3,10.7,9.92.78,1.31,1,3.66,1,7.05a3.69,3.69,0,0,0-.52,1.57,17.66,17.66,0,0,0,.79,3.65,42.5,42.5,0,0,1,.26,5.48c.26,2.35-.26,3.65-1.57,4.44h-1.3a20.46,20.46,0,0,1-3.14-5,34.59,34.59,0,0,0-3.13-4.44,15.26,15.26,0,0,0-2.87-3.65,17.92,17.92,0,0,1-1.83-4.44l-.78-1-3.91-2.61c-4.44-5.22-9.14-8.09-14.1-8.35-.78-.27-2.09-.27-3.39-.53h-8.35c-1.83.26-3.92,1.57-6,3.4a37.73,37.73,0,0,0-5.48,4.17l-1.3,4.44a3.88,3.88,0,0,0-.26,1.83,17.54,17.54,0,0,0,.78,4.69c.26,0,.26.27.52.79l2.35,2.08c1,1.83,4.44,4.18,10.18,7.57l1.3.26,9.66,3.14.78.26,2.61,1c.79.79,3.4,1.83,8.1,2.61a37.35,37.35,0,0,1,4.17,1.31l6.53,3.39,4.69,2.35a28.73,28.73,0,0,0,6.79,5,18.13,18.13,0,0,1,5.74,6.78c.26,1.05.26,1.57.52,1.83a43.53,43.53,0,0,1,3.14,5c1.3,8.61,1.82,12.27,1.82,11.22ZM324.35,174.2v-.52c0-.26,0-.26-.26-.26l-2.61,5.21v1.57l.26.26,2.09-2.61a5.73,5.73,0,0,0-.79-2.09Zm2.87,26.36a.69.69,0,0,0-.78-.78c-.26.26,0,.52.26.78Zm1.57,6.26a1.36,1.36,0,0,0,.52,1.05,1,1,0,0,1,.78-.26A2.77,2.77,0,0,0,328.79,206.82Zm.78-3.91h-.52v.52h.52Zm8.35-23.49c-1.56-1.31-2.61-2.09-3.39-1.83v.26c1.83,1.57,2.61,3.13,2.61,4.44-.26,0-.26,0-.52.26-2.35.26-3.66,1.3-3.66,3.13a1.59,1.59,0,0,0,1.05.26c.26-.52.78-.52,1.56-.26,0,.52-.52.78-1.3,1a5.27,5.27,0,0,0,.52,2.35,24.15,24.15,0,0,0,3.13-1.83c.26-.26,1.05.26,1.83,1h1.83a16.43,16.43,0,0,0,1-3.65A66.11,66.11,0,0,1,337.92,179.42Zm-2.35,17.49h-.26c-1,.52-1.56,1-1.3,1.3a5.08,5.08,0,0,0,1.82-.26A1.56,1.56,0,0,1,335.57,196.91Zm-.52,4.69c-.52.26-.78.53-.78.79a2,2,0,0,0,.52,1c1,0,1.57-.26,1.57-.78a2,2,0,0,0-.53-1.05Zm5.22-7.83a1,1,0,0,0,.26-.78c0-.52-.52-1-1.3-1.57a3.7,3.7,0,0,0-.52-1.56H337.4a7.36,7.36,0,0,1-2.87,1.3v2.35l1.57,1.57c.26.26.78.26,1.3.52a3.32,3.32,0,0,1,1-1.83Zm-2.09,11.49V205c-.26,0-.26,0-.52.26h.52Zm45.16,13.31a4.51,4.51,0,0,0-1.57-3.13v-1.05a4.22,4.22,0,0,0,1-2.35,2,2,0,0,0-.52-1.3,17.35,17.35,0,0,1-.26-2.87c-.26-.26-1,.52-2.61,1.82a7,7,0,0,0-.26,1.83,6.55,6.55,0,0,1-2.09-.26l-2.61-3.13c-.26-.52,0-1,.52-1.83,0-1.3-.26-2.09-1-2.61-.26-.52-.26-1.3.52-2.35a8.43,8.43,0,0,0,2.09-.26l.52-1h2.09a3.2,3.2,0,0,0,2.35,1v-.52c-1.83-1.57-5-2.61-9.4-2.87H369.5c-.26-.78-1-1.05-2.08-1.05,0,.27-.53,1.05-.53,1.31.26.26.26.52.53.52,0,.52-.53,1.05-1.31,1.31l-2.09.52c-.26,1-1.3,1.56-3.13,1.3a2.85,2.85,0,0,0-1,1.31,6.14,6.14,0,0,1-5.22-3.13,16.13,16.13,0,0,1-2.87-.53V198a2.42,2.42,0,0,0-1.31-.78,1.43,1.43,0,0,0-1.3.78,4.21,4.21,0,0,1-2.09.78,11.19,11.19,0,0,1,1.82-1.82c.27-1.57,0-2.35-.26-2.62s-1,0-1.82.79c0,.26-.26.52-.79,1h-1.82l-.53-.78a.76.76,0,1,0-.78,1.3c.26-.26.52-.26,1.05-.26V198l1.56,1.57-.52,1a3.64,3.64,0,0,1-1-1.83,4,4,0,0,1-1.57-1,3.55,3.55,0,0,0-2.35,0,4.25,4.25,0,0,0,0,2.61c0,.26-1.57,1.3-1.57,2.09l.79.78a5.08,5.08,0,0,0,1.82-.26,4.49,4.49,0,0,1,.27-1.57h1c1.3,1,1.83,1.83,1.3,2.61-.78.26-1.3.52-1.3,1.31,1,.78,2.87-1,3.65-.79a1.6,1.6,0,0,1,.26,1.05,4.06,4.06,0,0,0,2.88.52l1.3,1c.26,1.83,1,2.35,1.83,1.57,0-1.3.26-1.83.78-1.83l1,1.83a2.21,2.21,0,0,1,1.57.52h2.09c.78,1.31,1.82,1.83,3.65,1.31a3.64,3.64,0,0,1,1,1.82c3.39.79,4.69,1,3.91,1a1.6,1.6,0,0,1,1.05.26,10.22,10.22,0,0,1,1.56-.52,5.69,5.69,0,0,0,.52,3.39c.79-.26,1.05-1,1.05-2.35l-.79-1c.27-.26.79-.26,1.05.52a13.9,13.9,0,0,1,3.65-.26,4.87,4.87,0,0,0-1.3,2.61c0,.78,1-.78,3.39,3.13,2.09.26,2.61.26,2.87,2.35l2.61,1.3.26-.26v-1l-.26-.78Zm-34.19-29.49a6.89,6.89,0,0,0-3.66-1.31V188l1.05,1.05a2.28,2.28,0,0,1-2.09,2.34c-.52.53-.26,1.05.78,1.83l.52.52a5.81,5.81,0,0,0,1.83-1.82,2.63,2.63,0,0,1,1.57-1.31ZM351,212.57l-3.13,1.56a1.49,1.49,0,0,0,1.31,2.09h.52l.52-1.83a3.92,3.92,0,0,0,1.57-1.82Zm-2.35-3.4c-.52,0-.78.26-.78.52a1.6,1.6,0,0,1,.26,1.05c.26-.26.26-.26.52-.26Zm6.53,7.57c-.26-1.56-1.31-2.35-2.61-2.09-.78,2.35-1.05,3.14-1.05,2.61a1,1,0,0,0,1.31-.26,8.41,8.41,0,0,1,2.61.79l.52-.27c0-.26,0-.26.26-.26A2,2,0,0,0,355.15,216.74Zm-2.35-7.05a1.58,1.58,0,0,0,.26,1.05c1,0,1.57-.26,1.57-.52a2,2,0,0,0-.53-1.05C353.32,209.17,352.8,209.43,352.8,209.69Zm6.26-10.7v-1.82c.52-.26.52-1,.26-1.83-.26-1.31-.78-1.57-1.56-1.05v2.35a3.88,3.88,0,0,1-1.83.79,1,1,0,0,0-.26.78l.78.52a8.62,8.62,0,0,0,2.09,2.87c.26,0,.52-.26,1-.52A6.23,6.23,0,0,0,359.06,199Zm-3.13-7q-.39,1.17,0,1.56a4.62,4.62,0,0,1,1.57-.26C357.5,192.47,357,192,355.93,192Zm.26,20.62v.78a1,1,0,0,0,.79-.26C356.71,212.83,356.45,212.57,356.19,212.57Zm8.88,3.65c0-.78,0-1-.26-1.31-.79,0-1.31.27-1.31.79a2,2,0,0,0,1.31.52Zm2.35,1-.27-.26a1,1,0,0,1-.78.26c0,.26.26.53.52.79l.53-.26Zm.52-13.83-.52-.52c.52-.78,1-1.31,1.82-1.31.26,0,.52.26.79.53C370,202.91,369.24,203.17,367.94,203.43Zm6.26,21.4c-.26-1-1.56-1.82-1.56-2.61h-.79c-.26.26-.52.52-.52.79,0,.78.78,1.3,2.09,1.82ZM376,226.4v-.52c-.26,0-.26,0-.52-.26l-.26.52c.26.26.26.26.52.26Zm.78-11.75h-.52c-.78-.78-1-1-.78-1.3H376Zm.52,8.09c-.26-.26-.26-.26-.26-.52h-1.3a1.59,1.59,0,0,0,.26,1.05c.78-.26,1.3-.26,1-.26Zm1.57-8.09v1.83a3.9,3.9,0,0,0-1.83.26l-.78-.78c0-.52.52-.78,1.83-1.05,0-.26-.26-.26-.53-.26a7.56,7.56,0,0,0,1.83-2.08h1.31a1,1,0,0,1,.26.78A6.55,6.55,0,0,0,378.9,214.65Zm-.52-7h-1.31a1.56,1.56,0,0,0-.26,1l.52.52a1.59,1.59,0,0,0,1.05-.26Zm-.52-5-.27.26c0,.26,0,.26.27.52.26-.26.52-.26.52-.52C378.12,202.65,378.12,202.65,377.86,202.65ZM382.29,223c-.26,0-.26,0-.52.26-.78.26-1.57,1.3-2.35,3.13l.26.52a4.41,4.41,0,0,0,2.61-2.35Zm-2.09-17.75h-.26v.52l.53.52c.26-.26.26-.26.52-.26A.69.69,0,0,0,380.2,205.26Zm3.14,35.49v-.26h-.53v.26Zm8.09-9.13,1.82,21.92v-.26c0,.26,0,.26-.26.26Zm.79,6.53v.26c.26,0,.26,0,.26-.26Zm11.22-25.84c-.78-1.57-1-1.83-1-1H404v.27l.52.78Zm-.52-2.87c0-.26,0-.26-.26-.26v-.26c-.26,0-.26,0-.26.26h.26c0,.26,0,.26.26.52Z"/></svg>