<svg id="Layer_1" data-name="Layer 1" xmlns="http://www.w3.org/2000/svg" viewBox="0 0 500 500"><defs><style>.cls-1{fill:#fff;}</style></defs><title>marshal</title><rect class="cls-1" width="500" height="500"/><polygon points="74.66 21.36 84.28 69.48 110.24 21.36 285.24 21.36 295.81 8.15 301.58 21.36 322.74 64.77 331.39 32.68 349.66 27.96 396.77 21.36 475.62 24.19 441 55.33 481.39 54.39 481.39 208.2 491 216.69 484.27 216.69 494.85 230.84 488.12 240.28 482.35 261.98 480.43 354.46 454.46 381.82 483.31 400.69 484.27 474.3 459.27 474.3 444.85 494.11 432.35 474.3 311.2 475.24 328.5 494.11 284.75 474.3 204.42 482.12 211.71 439.56 166.01 489.4 157.35 472.41 24.66 473.35 65.05 429 20.82 439.38 20.82 349.74 5.43 362.01 20.82 329.92 17.93 195.93 28.51 205.37 16.01 174.23 16.97 149.69 27.55 176.11 16.97 114.78 16.97 20.42 37.16 20.42 34.28 36.46 55.43 3.43 56.39 18.53 74.66 21.36"/><path class="cls-1" d="M101.68,416.16v-2.87c6.15-.66,6.56-1.23,6.56-8.78l-.16-31.57h-.41L89.54,415.58H87.25L70.52,373.76h-.33l-1,21.41c-.41,6.8-.33,10.66,0,13.2.33,3.69,1.88,4.43,7.38,4.92v2.87H56.83v-2.87c4.67-.41,6.15-1.81,6.72-4.76A145.49,145.49,0,0,0,65.27,393l1.31-16.23c.66-9.27.09-10.42-7-11.07v-2.87h17l15.74,35.91,16.08-35.91H125v2.87c-6.56.65-6.89,1.31-6.72,8.11l.73,30.67c.17,7.55.58,8.12,7,8.78v2.87Z"/><path class="cls-1" d="M161.13,416.16v-2.87c4.84-.74,5.25-1.72,3.94-5.33-.82-2.46-2-6-3.28-9.27H146c-.9,2.54-2,5.5-2.95,8.78-1.23,3.93-1,5.08,5,5.82v2.87H129.72v-2.87c5.42-.66,6.48-1.56,9.19-8.45l16.81-42.15,4.18-1.06c5.25,14.35,10.33,28.62,15.66,42.72,2.79,7.22,3.77,8.28,9,8.94v2.87Zm-7-39.61h-.25c-2.29,6-4.34,12-6.47,17.8h12.79Z"/><path class="cls-1" d="M239.77,416.9c-.49,0-1.4-.09-2.46-.09-10.34-.49-13.45-2.78-16.81-7.95-2.13-3.36-4.35-7.79-6.73-12.14-1.31-2.46-2.79-3.52-5.41-3.52H206.8v12c0,6.81.74,7.54,7,8.12v2.87H189v-2.87c6.15-.58,7.05-1.31,7.05-8.12V373.68c0-6.56-.74-7.38-6.72-7.95v-2.87h23c7.22,0,11.32.82,14.68,3a12.53,12.53,0,0,1,5.49,10.91c0,7.21-4.76,11.15-10.25,13.36,1.23,2.46,4.26,7.88,6.73,11.65a66.58,66.58,0,0,0,6.23,8.94,12.49,12.49,0,0,0,5,3.52Zm-30.83-27c3.44,0,6.23-.58,8-2.13,2.79-2.3,3.94-5.58,3.94-9.76,0-8.78-5.09-11.89-9.68-11.89-2,0-3.2.32-3.69.82s-.74,1.31-.74,3v19.93Z"/><path class="cls-1" d="M273.55,376.22c-1.64-5.16-4.76-11.23-11.4-11.23a7.75,7.75,0,0,0-7.95,8.12c0,4.51,2.95,7.05,10.17,10.74,8.61,4.18,14.51,8.77,14.51,16.89,0,9.35-7.95,16.65-19.92,16.65a29.24,29.24,0,0,1-8.29-1.15,34.26,34.26,0,0,1-4.92-1.8c-.82-2.05-1.88-8.94-2.46-13.86l2.87-1c1.64,5.25,6.48,14.52,14.35,14.52,5,0,8.2-3.45,8.2-8.69,0-4.84-3.6-7.88-9.75-11.16-8.37-4.26-14.27-8.69-14.27-16.56,0-9,7.13-16.07,18.77-16.07a36.28,36.28,0,0,1,11.4,2.13c.33,3,.91,6.72,1.56,11.81Z"/><path class="cls-1" d="M341.69,365.73c-6.39.57-6.89,1.06-6.89,8v31.57c0,6.89.66,7.38,6.89,8v2.87h-25v-2.87c6.48-.58,7.14-1.07,7.14-8V390H301.43v15.25c0,7,.66,7.46,6.72,8v2.87H283.72v-2.87c6-.58,6.72-1.07,6.72-8V373.76c0-7-.73-7.46-7.05-8v-2.87H308v2.87c-5.9.57-6.56,1.06-6.56,8v12.06h22.39V373.76c0-7-.66-7.46-6.81-8v-2.87h24.68Z"/><path class="cls-1" d="M374.49,416.16v-2.87c4.84-.74,5.25-1.72,3.94-5.33-.82-2.46-2.05-6-3.28-9.27H359.4c-.9,2.54-2,5.5-2.95,8.78-1.23,3.93-1,5.08,5,5.82v2.87H343.09v-2.87c5.41-.66,6.47-1.56,9.18-8.45l16.81-42.15,4.18-1.06c5.25,14.35,10.34,28.62,15.67,42.72,2.78,7.22,3.77,8.28,9,8.94v2.87Zm-7-39.61h-.24c-2.3,6-4.35,12-6.48,17.8h12.79Z"/><path class="cls-1" d="M444.44,402.3c-.66,3.53-2.38,11.64-3,13.86H401.47v-2.87c7.14-.58,7.95-1.07,7.95-8V373.84c0-7-.81-7.54-7.05-8.11v-2.87h25v2.87c-6.23.57-7,1.06-7,8.11v32.07c0,3.85.33,5.25,2,6a18.08,18.08,0,0,0,6.15.74c3.53,0,6.48-.57,8.45-2.79a25.13,25.13,0,0,0,4.51-8.44Z"/><path class="cls-1" d="M122.81,266.85a16.28,16.28,0,0,0-3.7.74L81.75,268a8.27,8.27,0,0,1-3.7-1.11c-1.1,0-2.22-.74-3.69-2.22v-3l1.11-1.47L79.16,258,84,252.8q6.11-3.33,7.77-8.88c1.48-.74,2.59-4.07,3.33-9.62,1.11-4.44,1.85-6.28,1.85-5.17a46.85,46.85,0,0,0,2.22-10.36A43.89,43.89,0,0,1,101,208.41l.74-3.33c.37-4.44,0-12.57,2.59-28.85a16.27,16.27,0,0,0-.37-3.33,4.09,4.09,0,0,1,0-3,3.4,3.4,0,0,1,2.22-1.48c.37.37.74,3,.37,7.77.37,2.59.74,4.44.74,5.18a70.49,70.49,0,0,0-1.48,15.9,86.89,86.89,0,0,0,.37,9.62c.37.37.37,1.11.74,2.59a115.68,115.68,0,0,0,.37,12.58c0,.37,0,3.33.37,8.87a26,26,0,0,1,1.48,4.81,29.73,29.73,0,0,1,1.47,7,33.07,33.07,0,0,0,3.33,5.92,8.51,8.51,0,0,0,2.59,3c1.48,2.22,4.07,5.18,7.4,9.25.37.37.37.37.37.73C124.66,263.89,124.29,265.74,122.81,266.85Zm200.85-6.65-.37,3.32-2.22,3.33c-1.48,0-2.59-.37-3-1.48a2.77,2.77,0,0,1-1.85.37l-2.59-3.32v-1.11h-1.11l-3,3.69c0,1.48,0,2.22-.37,2.59a12.18,12.18,0,0,1-5.17,0l-1.48-2.22h-.74l-1.11,1.85c-.37.74-3,1.11-8.51,1.11l-8.88-1.11c-.37,0-.74-.37-1.11-.74a6,6,0,0,1,1.11-3.33v-2.21A10.93,10.93,0,0,0,278.9,255c-.37-.37-.37-.74-.74-.74s-.74.37-1.11.74l-1.84,6.65c-.38.75.37,1.85,1.47,3.33v1.85a4.67,4.67,0,0,1-2.22.37c-1.47,0-2.58-1.48-4.06-1.85a2.83,2.83,0,0,1-1.85.74,8.27,8.27,0,0,1-3.7-1.11h-.74c.37,0,.37.74.37,2.22a8.84,8.84,0,0,1-2.59,1.11h-7.4c-1.85,0-4.81-.37-8.14-.74H239c-4.07.37-7,.37-8.14,0-3,0-4.81-1.11-5.55-3.7,0-2.95,3.7-5.91,11.47-9.24l1.85-2.22a1.74,1.74,0,0,1,2.22-.37h1.11c.37-.74.37-1.48-.74-2.59v-1.85a30.06,30.06,0,0,1,3.69-6.29c.37-.37.37-.74.74-.74l-1.48-1.85V235a2,2,0,0,0,1.11-1.85,5.26,5.26,0,0,0-.74-2.22,6.63,6.63,0,0,1,1.11-4.06c0-6.66.37-10.36,1.48-10.73,0-22.93-.37-35.14-.74-37,0-3.33,0-7.77-.37-13.69-1.11-5.54-1.85-7.76-6.65-8.13a18.74,18.74,0,0,0-5.55,2.59L229,168.83a49.91,49.91,0,0,1-5.18,12.95L221.2,184q0,1.11-3.33,2.22a7.74,7.74,0,0,0,1.48,2.22c0,1.48-.37,2.59-1.11,3l-1.85,5.17c-1.48.37-1.85,1.11-1.48,2.22V201a30,30,0,0,0-2.22,4.81L209.37,208c.36,3.33.36,4.44.36,3.7a62.06,62.06,0,0,0-3.32,11.84c-.74.37-1.11,1.48-1.48,4.07h-.37l-6.66,17-1.11,4.07c-.37.37-.74,2.22-1.48,5.55-.74.37-1.48,1.85-2.22,4.07l-2.59,5.17L189.39,265c-1.48.37-2.59.74-3,1.48a32.39,32.39,0,0,0-7.4.74c-2.58.37-8.5.37-17,0-4.07,0-5.18-1.85-6.66-3a22.34,22.34,0,0,1-3-7.76l-5.55-16.65a48.45,48.45,0,0,1-2.22-10L138,211.37a27.69,27.69,0,0,1-1.85-5.92c-.37-.37-.74-2.22-1.11-4.81a8.21,8.21,0,0,1-.37-3.33l-3.33-7.76-.74-4.07a15,15,0,0,0-2.22-4.07H128a2.17,2.17,0,0,0-.74-1.85l-4.44-11.47c-.37-1.48-3-4.81-3.33-6.28a6.66,6.66,0,0,0-5.55-2.59,13.56,13.56,0,0,0-5.91,1.85h-1.48l-1.11-2.22c-.37-3.33-.37-8.14-.37-14.43a58.19,58.19,0,0,0-1.11-10c0-1.85-.74-4.07-1.85-7.39h-.37v-.74A14,14,0,0,1,98,123a82.35,82.35,0,0,1-12.21-9.62c-.37-.37-.37-1.11-.74-2.22a7.11,7.11,0,0,1,5.55-4.07h.74l32.92-.37a21.3,21.3,0,0,1,5.55-.37l5.92-1.48h4.44a8.54,8.54,0,0,1,2.59,1.85c.37,0,.37,0,.73-.37H145v.37h1.85a1.92,1.92,0,0,0-1.48-.74v-.74c1.48,0,4.44,0,8.88-.37a9.6,9.6,0,0,1,6.66,1.48c.74,1.11,2.59,6.29,5.92,15.17a63,63,0,0,0,4.07,10.72,1.36,1.36,0,0,1-1.11.37c0,2.22.74,3.7,2.22,4.07a11.51,11.51,0,0,1,.37,4.07h-.74l-.74,1.11.74,1.11c1.85.74,3,2.59,3,5.92h-.37c0,.74,0,1.11-.37,1.48l1.85,1.85,1.1.74a132.6,132.6,0,0,0,5.55,12.94,67.67,67.67,0,0,0,3.33,11.84l3.33,8.14a28.55,28.55,0,0,0,2.22,5.55c1.11,3.7,3,5.91,5.55,6.28,1.11.74,3,1.11,6.29.74a17.71,17.71,0,0,0,4.07-1.85c1.48,0,2.95-.74,4.8-2.21a2.82,2.82,0,0,1,2.59-3c.37-.37.37-1.11,0-2.59a3.36,3.36,0,0,1,1.11-2.59l1.11-3,1.85-3,4.44-9.25a19.92,19.92,0,0,0,3-8.13c1.11-1.48,2.59-5.92,5.92-11.47a39.66,39.66,0,0,0,2.22-6.29,9.54,9.54,0,0,0,3-4.81c1.11-6.29,1.85-10,2.59-10.36.37-2.58,1.84-5.17,4.06-8.13l.37-.74c.37-.37,1.11-2.59,2.22-5.92a16.79,16.79,0,0,1,1.85-3.33c2.22-3,4.44-4.44,6.29-4.44v-.37c2.59,0,13.69-.74,20-.74H309.6c0,.37,0,.37.37.37h-.37a2.22,2.22,0,0,0-.37,1.48l1.85,2.22a1.36,1.36,0,0,1,1.11.37l1.48-1.11a4.31,4.31,0,0,0-.74-2.59v-.74c3.7.37,6.29,1.11,7.4,2.59V113l-.74,1.11-7.4,7.77a47.88,47.88,0,0,0-4.44,9.61c-1.47,4.44-2.58,13.32-4.06,22.57,0-1.85.37.37.74,5.92L303,166.61c.37,1.48-.37,5.18-1.85,12.58a8,8,0,0,0,.74,3.7v3a1.92,1.92,0,0,0-.74,1.48,6.25,6.25,0,0,0,.74,1.85,11.9,11.9,0,0,1-.37,3v2.59c.37.37.37,1.84.37,4.06L300,200.27l-3,3c0,.74.74,1.85,2.59,3.7l1.48,3q1.11.56,1.11,5.55a13.15,13.15,0,0,1,.74,3.7c0,1.85-.74,3-.74,10l-1.11,3.32h-3.33c-.37.37-.37.74,0,1.48l2.59,1.11v1.48a5.05,5.05,0,0,0-2.22,3.7c2.59,0,3.7,0,3.33-.37V245a8.45,8.45,0,0,0,4.44,3,22.65,22.65,0,0,1,3.32,4.44l2.59,2.59a10.27,10.27,0,0,0,7.4,3.7c.37.37,1.48.37,3.33.37ZM93.22,114.83v-.37H92.11l.37.37Zm3-5.55-2.59.37c0,1.85.37,3.33,1.11,4.07h4.07c0-.37.37-.74.74-1.11Zm1.11,8.51H95.07c0,.37-.37.37-.74.74l2.59,2.22c1.85-.37,2.59-.37,1.48-.37A4.92,4.92,0,0,0,97.29,117.79Zm35.51,26.26h-.37v.37h.74a11.9,11.9,0,0,0,.37,3,2.24,2.24,0,0,0,1.11-2.22A4,4,0,0,1,132.8,144.05Zm12.57-2.59c0-.37,0-.37.37-.37a2.81,2.81,0,0,0-.74-1.48h-.74a1.35,1.35,0,0,1-1.1.37,2.8,2.8,0,0,0-.37-1.48l-2.59-.74v-1.11l.74-.74a1.15,1.15,0,0,0,.37-.74c0-1.11-1.48-1.48-4.81-1.11q-1.67,1.11-1.11,4.44c-.37.37-.37,1.11-.74,2.22l5.55,5.18a4.88,4.88,0,0,1,1.84.37l1.85,2.22c.37-.37.74-.37,1.48-.37a5.61,5.61,0,0,0,1.11-4.81A3.38,3.38,0,0,1,145.37,141.46Zm-6.28-30q0-.56-1.11-1.11a1.36,1.36,0,0,0,.37,1.11Zm-.37,2.59v-.37h-.37v.37Zm1.85,48.09h-.37l.37.36Zm5.91-10a1.65,1.65,0,0,0,0-1.85c-.37-.37-.74-.74-1.48-.37v2.22Zm5.18-41.06h-1.48v1.11h1.11l.37.37Zm11.47,20v-1.85c-.37-.73-1.48-1.47-3.33-2.58,0-.37,0-.37-.37-.37h-3c-.37.37-.74.74-.74,1.11l.74.74v1.1a2.71,2.71,0,0,0,1.85.38v.73H158l.37.37c.37,0,.37,0,.74-.37h.74a8.84,8.84,0,0,0,2.59,1.11Zm11.47,85.08a14.13,14.13,0,0,0-3.33-3.33,6.84,6.84,0,0,1-3.33-2.59h-.74a4.69,4.69,0,0,0-.37-2.22h-1.11l-.37,1.48c-.37.37-.37.74-.74.74v2.22l4.44.37a4.93,4.93,0,0,0,1.85,2.22c0,1.11,0,1.85-.37,2.22h-1.11a7.22,7.22,0,0,0-.37,2.59c0,.37,0,.74.37.74,1.11,0,1.85-.74,1.85-2.22h.37l1.48,1.11c-.37-1.11.37-1.85,1.48-2.59Zm-9.25-48.83v0Zm1.11-11.83h-.37v.37Zm.74,61v.37c0-.37,0-.37.37-.37Zm1.85.37v-.74a1.36,1.36,0,0,0-1.11.37c.37,0,.37,0,.74.37Zm0-78.79v-.74h-.37v.74Zm1.11,29.22V167h-.74v.37Zm.74,56.6v-.37h-.37V224Zm1.48-51.79v-.74H172v.74Zm4.8,51.79a3.73,3.73,0,0,0-4.06-3.33,2.5,2.5,0,0,0-.74,3c.37.37.74.37,1.85.37Zm69.54,29.59a5.13,5.13,0,0,0-3.33,0c0,1.85.37,2.59,1.48,3a6.25,6.25,0,0,0,1.85-.74ZM246,249.1a1.13,1.13,0,0,0,0-1.48,6.25,6.25,0,0,0-1.85.74l.74.74Zm1.48,1.11a2.36,2.36,0,0,0,0,2.22,9.41,9.41,0,0,0,2.59-.74A4.66,4.66,0,0,0,247.46,250.21Zm1.48-20v-.74h-.74c0,.37,0,.37.37.74Zm2.59,9.25,1.11,1.85a1.36,1.36,0,0,1,1.11-.37C253.75,239.85,253,239.11,251.53,239.48ZM252.64,255c-.37.37-.37.74,0,1.48a8.27,8.27,0,0,0,1.11,3.7c.37,0,.74-.74,1.85-1.85C255.6,256.87,254.49,255.76,252.64,255Zm4.07-3.33c0-.74,0-1.11-.37-1.48a1,1,0,0,0-1.11,1.11,1.36,1.36,0,0,0,.37,1.11Zm34.4-49.57c-3.33-1.48-5.92-3.33-7-5.91a3.05,3.05,0,0,0-2.59,0c-.37,1.1,0,2.21,1.11,4.06h-5.92l-1.47,1.11a2,2,0,0,1-1.11-1.48,11.84,11.84,0,0,0,2.95-.37l.74-1.85c0-1.85,0-3,.37-3.32a7.14,7.14,0,0,0-1.48-5.92c-1.1-.37-2.22.37-4.06,1.85-2.22,0-3.33.74-3.33,1.85q1.66.56,2.22,0c1.11-.74,1.48-1.11,1.85-1.11.37.37.37,1.85.37,3.7-1.11.37-1.85,1.1-1.85,1.84,1.48,0,1.85.74,1.11,2.59-1.85.74-2.59,1.85-2.22,3.7,2.22,1.85,3,3,2.59,4.07l-2.22-2.59-4.07-1.85c-1.85-3.7-4.07-5.55-7.4-5.55a8.74,8.74,0,0,0,2.22,3.33L263,203.6c0,1.48-3,1.48-4.81,3-2.22,1.85-1.85,3,.74,3.7a2.24,2.24,0,0,1,2.22-1.11v1.11H259.3c-.37,1.85,0,3.33,1.11,3.7a2.77,2.77,0,0,1,1.85-.37,4.42,4.42,0,0,1,3-1.48,1.89,1.89,0,0,1,1.85,1.48c1.85.37,3,.74,3,1.48a45.62,45.62,0,0,1,4.8-.74c0,1.48-2.58,3-2.58,4.07a1.36,1.36,0,0,0,.37,1.11c1.84.74,3,1.48,3.32,2.59a3.8,3.8,0,0,1-1.11,1.85s-1.84-1.85-2.95-1.48a1.74,1.74,0,0,0-.37,2.22c.37.37.74.37.74.74v.74c-.37,0-.74,0-.74-.37l-3,1.48v1.47a9.4,9.4,0,0,1,3,5.18,3.2,3.2,0,0,0-1.11,2.22c0,.74.37,1.11,1.11,1.48a2.77,2.77,0,0,0,1.85-.37v-3a8.84,8.84,0,0,0,4.43,0,14.55,14.55,0,0,1,.74-2.22c2.22-.37,3.33-1.48,3.7-3.33,1.48-1.1,1.85-1.84,1.11-2.95a2.1,2.1,0,0,0-2.59,1.48,5.22,5.22,0,0,1-3.33.37c-.37-.37.74-1.48,2.59-3V221l-1.48-.74c-.37-.74.74-2.22,2.59-4.07.37-1.48,1.85-2.59,4.07-3v-3h1.48q1.66,3.33,3.33,3.33a6.25,6.25,0,0,0,1.85-.74,11.9,11.9,0,0,0,.37-3c-.37-.37-1.48-.37-2.59-.74a1.36,1.36,0,0,1-.37-1.11,7.21,7.21,0,0,0,3-.37,1.36,1.36,0,0,1,.37-1.11ZM263,255.76a2.83,2.83,0,0,0-1.85.74c-.37,1.11-.37,2.22-.74,2.59h-2.22c-.37,1.48,0,2.58,1.48,3a2,2,0,0,0,1.48-1.1c3.33-.37,4.81-1.85,4.81-4.07A4.92,4.92,0,0,0,263,255.76Zm3-38.1v-3.33l-5.92,3a2.22,2.22,0,0,0-.37,1.48c0,1.11.74,2.22,2.59,2.59l2.59-.74q4.44-.56,4.44-2.22A18.77,18.77,0,0,1,266,217.66Zm-4.07,14.42q-.56-.56-2.22,0a3.13,3.13,0,0,0,.74,2.22c.37-.37.74-.37,1.48-.37Zm.74-47.71c0-.37-.37-.74-1.11-1.48-1.11,0-1.11.37-.74,1.48h1.85Zm0,.37a5.49,5.49,0,0,0,.37,2.59l.74.37c-.37.37,4.07-2.59,4.07-4.81A49.42,49.42,0,0,0,262.63,184.74Zm18.86-36.25a5.14,5.14,0,0,1-.74-4.07,5.35,5.35,0,0,0,.74-2.59c.74-2.59-.37-4.07-3.7-4.07a7.74,7.74,0,0,0-1.48-2.22l-.37-.37a2.11,2.11,0,0,0-2.58-.74,2.81,2.81,0,0,1-1.48.74,5.26,5.26,0,0,1-2.22-.74c-1.11,0-1.85,1.48-1.85,4.07a18.77,18.77,0,0,1-3.33.74,6.63,6.63,0,0,0,1.48,3,13.13,13.13,0,0,0-.37,5.55l1.48,1.11a2.88,2.88,0,0,1-1.11,2.59.69.69,0,0,0,0,1.11l.37.74,1.85,3v2.59a5.05,5.05,0,0,1,2.22,3.69,10,10,0,0,0-3.33.38l1.48.73a3.47,3.47,0,0,0,3,2.22c0,1.11,1.11,1.85,2.95,3,.37,2.59-.36,3.7-2.58,3.7.37,0,1.11.74,2.22,2.59.36,0,.73-.37,1.11-.74,2.58-.74,4.06-1.48,4.06-1.85-1.85-1.48-3.33-4.07-3.33-5.92s2.59-3.33,2.59-4.8l1.11-3c-.74-.37-1.48-1.48-1.85-3.33h1.11l.37.37c1.85,0,2.59-.74,2.59-2.22a4.69,4.69,0,0,0-.37-2.22Zm-17,46.24.37.37.37-.37C264.85,194.36,264.85,194.36,264.48,194.73Zm.37,42.53v-.37h-.37v.37Zm3-5.92c-1.11,0-1.85.37-1.85,1.48,0,.37,1.48,1.11,1.48,1.48,1.11,0,1.48-.74,1.48-2.22C268.55,231.71,268.18,231.34,267.81,231.34Zm.37-42.53v.37c.37,0,.37,0,.37-.37C268.18,188.44,268.18,188.44,268.18,188.81Zm4.07,62.51c0-1.11-.74-1.48-2.22-1.48,0,.37.37,1.11,1.48,1.48Zm-1.11,7h-.37c0,.37,0,.37.37.37l.37-.37Zm.37-45.87c-.37-.37-.37-1.48.37-3.33,1.85,0,2.22,1.11,1.85,3C273.36,212.48,272.62,212.48,271.51,212.48Zm3.32,17.38v0Zm.75-109.48V120h-.37v.37ZM283,247.25s-1.48.74-4.07,2.22c-.74.37-.74,1.48-.37,3.33,1.11,0,2.59-1.48,4.81-4.44.37-.37.37-.37.37-.74Zm-4.44-4.44a2.77,2.77,0,0,0,.37,1.85c.37-.37.74-.74.74-1.11a1.36,1.36,0,0,0-.37-1.11C278.9,242.44,278.53,242.44,278.53,242.81Zm1.11-6.29v-.37h-.37v.37Zm1.85-44.75h.37c.37-1.85.37-2.22.37-1.85C281.86,190.66,281.86,191.4,281.49,191.77Zm.37,40.68q-.56,1.67,0,2.22c1.48-.37,2.22-.74,2.22-1.85A2.45,2.45,0,0,0,281.86,232.45Zm8.51,21.83-1.48-1.11-1.11-3h-2.59c-.37,1.11-2.22,3-2.22,4.07,0,.37,0,.74.37.74a5.79,5.79,0,0,1,3.7-1.48,3.2,3.2,0,0,1,2.22,1.11h1.11Zm-1.85-61.77h-3c-.37.37-.37,1.11-.37,2.22.37.37.37.37.74.37a8.84,8.84,0,0,0,2.59-1.11Zm-1.85,43.64h-1.48c0,1.11,0,1.48.37,1.85a1.36,1.36,0,0,0,1.11-.37Zm8.51-48.82c.37-1.11-.37-1.85-1.85-1.85-1.85-1.85-3-2.59-4.07-2.59a4.31,4.31,0,0,0-.74,2.59c-1.48.37-2.59.74-3,.74v1.48a14.81,14.81,0,0,1,3.7,4.44c1.85-.37,2.59-1.48,3-3.7Zm-8.14,57-.37-.37-.37.37Zm.37-39.21-.37.74c0-.37,0-.37-.37-.74Zm0,24.78h-.74v.74c.37-.37.37-.37.74-.37Zm7-14.05a2.22,2.22,0,0,0-.37-1.48h-1.48c0,.74-.74,1.85-2.59,3a2.08,2.08,0,0,0,0,3.33,6.51,6.51,0,0,1,2.22-.37v-2.59c0-.37.74-.37,1.85-.37A2.22,2.22,0,0,0,294.44,215.81Zm-3.33-28.48h-.74c-.37,0-.37,0-.74-.37,0-.74.37-1.11,1.48-1.11l.37.37A1.36,1.36,0,0,1,291.11,187.33Zm.37,39.58-.74-1.11c-.37,0-.37.37-.74.74.37,0,.37,0,.74.37Zm.74-52.53a6.25,6.25,0,0,0-1.85.74,1.36,1.36,0,0,0,.37,1.11,2.81,2.81,0,0,0,1.48-.74Zm3,61.77c0-1.85-1.48-2.59-4.44-2.59l-.37.37a9,9,0,0,1,3,3.33A4,4,0,0,0,295.18,236.15Zm0-12.2c-.37-1.85-1.11-2.59-2.22-2.59a7.62,7.62,0,0,1-1.11,5.55,9.14,9.14,0,0,0,.37,3h.37v.37a1.36,1.36,0,0,1,1.11.37c.37-.37.37-.37.74-.37a31.8,31.8,0,0,1-1.11-4.8Zm-.74-34.4c-.37,1.11,0,1.48,1.11,1.85,1.85,0,3-.37,2.59-1.48A4.48,4.48,0,0,0,294.44,189.55Zm3.7,22.93c0-.37,0-.37-.37-.74v.74Zm2.59-87.66h-.37c0,.37,0,.37.37.37Zm.74-11.1v.37c.37,0,.37,0,.37-.37Zm1.11,121v.74h-1.11V234.3h1.11Zm3.33-109.48v-.37H304.8v.37Zm1.48,4.44v-.38H307v.38Zm5.54,136.48a1.36,1.36,0,0,1-.37-1.11c.37,0,.37,0,.37-.37a1,1,0,0,1,1.11,1.11A1.36,1.36,0,0,0,312.93,266.11Zm5.92-4.8a.79.79,0,0,0,.74.73l.37-.37C319.59,260.94,319.22,260.94,318.85,261.31Z"/><path class="cls-1" d="M425.29,234.49a1,1,0,0,0-.78.26v.52c.26,0,.26,0,.26.26-.26,2.61-1,3.92-1.82,4.18l-.27-.52c-.52,0-.78-.26-.78-.52h-2.09l-1.56,1c.26.26.26.52.26,1h.78V241a1,1,0,0,1,.79.27h.26v.26a5.58,5.58,0,0,1,1,1.82c.26,1.57-1,4.18-3.92,7.57a35.93,35.93,0,0,1-4.43,5l-5.74,5.48H407a22.74,22.74,0,0,1-3.91,1.31c-.26.26-.52.26-1.31.52-.78,1.3-2.61,2.61-5.22,4.18l-4.43,1a61.21,61.21,0,0,0-13.57,2.09h-3.66c-.26-.26-.26-.26-.52-.26H365a39.56,39.56,0,0,1-5.48-1.31l-4.7-.52a7.2,7.2,0,0,1-2.34-.26l-9.66-.52c-.26,0-.26,0-.26-.26-6-.27-9.4-.27-10.44.26-3.13,0-5.22-.79-6.27-2.09a2,2,0,0,0-.26-1.31,29.37,29.37,0,0,0-.78-5.74c-.26-3.91-.26-6.26,0-6.52,0,1.82-.26-3.14-.78-15.14a40.86,40.86,0,0,0,0-8.09,5.15,5.15,0,0,1-.26-1.83,2.62,2.62,0,0,1,1.56-2.61,4.68,4.68,0,0,1,2.87.78c1.57,3.14,3.4,6.79,5.74,10.7a51.62,51.62,0,0,1,4.7,8.36h.26c.53,1.56,2.61,3.91,6.27,7.3,1.82,2.88,3.65,5,5.74,5.75l.78.52c1.05,1,3.92,3.13,12.53,5.22a73061800570130,73061800570130,0,0,0,5.22,1.56,9.44,9.44,0,0,0,3.65.53c6,0,6.27-1.57,11.49-3.66a13.73,13.73,0,0,0,3.91-3.91l2.35-1.83a13.09,13.09,0,0,0,2.61-5.48c.26-.26.52-1.57.52-4.44,0-1-.26-1.3-1-5.22a20,20,0,0,1-3.91-4.7,72.59,72.59,0,0,0-6.27-4.43c-.78-.79-2.87-1.31-6.26-2.09a19.12,19.12,0,0,1-4.18-1.31h-.52c-.52-.52-2.35-1.3-5.48-2.61a33,33,0,0,1-8.61-2.61,33.35,33.35,0,0,0-7.83-2.87c-1.57-.52-4.18-1.82-8.1-3.65a7.82,7.82,0,0,0-3.91-2.35l-1.57-1c-1.3-1.83-3.39-4.7-6-9.14l-2.09-3.91-1.56-5c0-.26,0-.26-.26-.26V181c.78-2.08,1.56-5.22,2.87-9.65l6.26-9.4,5-4.18,2.35-1.82a16.38,16.38,0,0,1,7.05-2.61l4.43-1.57,2.09-1.3,2.61-.79h11.48a21.22,21.22,0,0,1,4.18-.26c2.09,0,4.44.26,7,.52,1.83.27,4.17.53,7.57,1.31a2,2,0,0,0,1.3.26l5.48.78a15,15,0,0,1,4.7.26c10.7,1.05,9.4-1.3,10.7,9.92.79,1.31,1.05,3.66,1.05,7.05a3.71,3.71,0,0,0-.53,1.57,18.34,18.34,0,0,0,.79,3.65,42.5,42.5,0,0,1,.26,5.48c.26,2.35-.26,3.65-1.57,4.44h-1.3a20.46,20.46,0,0,1-3.14-5,34.59,34.59,0,0,0-3.13-4.44,15.26,15.26,0,0,0-2.87-3.65,17.92,17.92,0,0,1-1.83-4.44l-.78-1-3.91-2.61c-4.44-5.22-9.14-8.09-14.1-8.35-.78-.27-2.09-.27-3.39-.53h-8.35c-1.83.26-3.92,1.57-6,3.4a37.73,37.73,0,0,0-5.48,4.17l-1.3,4.44a3.88,3.88,0,0,0-.26,1.83,17.54,17.54,0,0,0,.78,4.69c.26,0,.26.27.52.79l2.35,2.08c1.05,1.83,4.44,4.18,10.18,7.57l1.31.26L380.4,187l.79.26,2.61,1c.78.79,3.39,1.83,8.09,2.61a37.35,37.35,0,0,1,4.17,1.31l6.53,3.39,4.7,2.35a28.41,28.41,0,0,0,6.78,5,18.13,18.13,0,0,1,5.74,6.78c.27,1.05.27,1.57.53,1.83a45.28,45.28,0,0,1,3.13,5c1.3,8.61,1.82,12.27,1.82,11.22ZM338.38,174.2v-.52c0-.26,0-.26-.26-.26l-2.61,5.21v1.57l.26.26,2.09-2.61a5.77,5.77,0,0,0-.78-2.09Zm2.87,26.36a.69.69,0,0,0-.78-.78c-.26.26,0,.52.26.78Zm1.57,6.26a1.36,1.36,0,0,0,.52,1.05,1,1,0,0,1,.78-.26A2.77,2.77,0,0,0,342.82,206.82Zm.78-3.91h-.52v.52h.52ZM352,179.42c-1.56-1.31-2.61-2.09-3.39-1.83v.26c1.83,1.57,2.61,3.13,2.61,4.44-.26,0-.26,0-.52.26-2.35.26-3.66,1.3-3.66,3.13a1.6,1.6,0,0,0,1.05.26c.26-.52.78-.52,1.56-.26,0,.52-.52.78-1.3,1a5.27,5.27,0,0,0,.52,2.35,24.15,24.15,0,0,0,3.13-1.83c.26-.26,1.05.26,1.83,1h1.83a16.43,16.43,0,0,0,1-3.65A66.11,66.11,0,0,1,352,179.42Zm-2.35,17.49h-.26c-1,.52-1.56,1-1.3,1.3a5.15,5.15,0,0,0,1.83-.26A1.52,1.52,0,0,1,349.6,196.91Zm-.52,4.69c-.52.26-.78.53-.78.79a2,2,0,0,0,.52,1c1.05,0,1.57-.26,1.57-.78a2,2,0,0,0-.52-1.05Zm5.22-7.83a1,1,0,0,0,.26-.78c0-.52-.52-1-1.3-1.57a3.7,3.7,0,0,0-.52-1.56h-1.31a7.29,7.29,0,0,1-2.87,1.3v2.35l1.57,1.57c.26.26.78.26,1.3.52a3.29,3.29,0,0,1,1.05-1.83Zm-2.09,11.49V205c-.26,0-.26,0-.52.26h.52Zm45.16,13.31a4.47,4.47,0,0,0-1.57-3.13v-1.05a4.26,4.26,0,0,0,1.05-2.35,2,2,0,0,0-.53-1.3,17.35,17.35,0,0,1-.26-2.87c-.26-.26-1,.52-2.61,1.82a7,7,0,0,0-.26,1.83,6.55,6.55,0,0,1-2.09-.26l-2.61-3.13c-.26-.52,0-1,.53-1.83a2.76,2.76,0,0,0-1-2.61c-.26-.52-.26-1.3.52-2.35a8.43,8.43,0,0,0,2.09-.26l.52-1h2.09a3.2,3.2,0,0,0,2.35,1v-.52c-1.83-1.57-5-2.61-9.4-2.87h-2.6c-.27-.78-1.05-1.05-2.09-1.05,0,.27-.53,1.05-.53,1.31.27.26.27.52.53.52,0,.52-.53,1.05-1.31,1.31l-2.09.52c-.26,1-1.3,1.56-3.13,1.3a2.85,2.85,0,0,0-1,1.31,6.14,6.14,0,0,1-5.22-3.13,16.29,16.29,0,0,1-2.87-.53V198a2.42,2.42,0,0,0-1.31-.78,1.43,1.43,0,0,0-1.3.78,4.21,4.21,0,0,1-2.09.78,11,11,0,0,1,1.83-1.82c.26-1.57,0-2.35-.27-2.62s-1,0-1.82.79c0,.26-.26.52-.79,1h-1.82l-.52-.78a.76.76,0,1,0-.79,1.3c.26-.26.52-.26,1-.26V198l1.56,1.57-.52,1a3.64,3.64,0,0,1-1-1.83,4,4,0,0,1-1.57-1,3.54,3.54,0,0,0-2.35,0,4.25,4.25,0,0,0,0,2.61c0,.26-1.56,1.3-1.56,2.09l.78.78a5.15,5.15,0,0,0,1.83-.26,4.65,4.65,0,0,1,.26-1.57h1c1.31,1,1.83,1.83,1.31,2.61-.79.26-1.31.52-1.31,1.31,1,.78,2.87-1,3.65-.79a1.56,1.56,0,0,1,.27,1.05,4,4,0,0,0,2.87.52l1.3,1c.26,1.83,1,2.35,1.83,1.57,0-1.3.26-1.83.78-1.83l1.05,1.83a2.2,2.2,0,0,1,1.56.52h2.09c.78,1.31,1.83,1.83,3.65,1.31a3.57,3.57,0,0,1,1.05,1.82c3.39.79,4.7,1,3.91,1a1.59,1.59,0,0,1,1.05.26,10.22,10.22,0,0,1,1.56-.52,5.63,5.63,0,0,0,.53,3.39c.78-.26,1-1,1-2.35l-.78-1c.26-.26.78-.26,1,.52a13.9,13.9,0,0,1,3.65-.26,4.87,4.87,0,0,0-1.3,2.61c0,.78,1-.78,3.39,3.13,2.09.26,2.61.26,2.87,2.35l2.61,1.3.26-.26v-1l-.26-.78Zm-34.19-29.49a6.89,6.89,0,0,0-3.66-1.31V188l1.05,1.05a2.28,2.28,0,0,1-2.09,2.34c-.52.53-.26,1.05.78,1.83l.52.52a5.71,5.71,0,0,0,1.83-1.82,2.63,2.63,0,0,1,1.57-1.31ZM365,212.57l-3.13,1.56a1.49,1.49,0,0,0,1.31,2.09h.52l.52-1.83a3.92,3.92,0,0,0,1.57-1.82Zm-2.35-3.4c-.52,0-.78.26-.78.52a1.6,1.6,0,0,1,.26,1.05c.26-.26.26-.26.52-.26Zm6.53,7.57c-.26-1.56-1.3-2.35-2.61-2.09-.78,2.35-1,3.14-1,2.61a1,1,0,0,0,1.3-.26,8.33,8.33,0,0,1,2.61.79l.52-.27c0-.26,0-.26.26-.26A2,2,0,0,0,369.18,216.74Zm-2.35-7.05a1.58,1.58,0,0,0,.26,1.05c1.05,0,1.57-.26,1.57-.52a2,2,0,0,0-.52-1.05C367.35,209.17,366.83,209.43,366.83,209.69Zm6.26-10.7v-1.82c.53-.26.53-1,.27-1.83-.27-1.31-.79-1.57-1.57-1.05v2.35a3.88,3.88,0,0,1-1.83.79,1,1,0,0,0-.26.78l.78.52a8.76,8.76,0,0,0,2.09,2.87c.26,0,.52-.26,1.05-.52A6,6,0,0,0,373.09,199ZM370,192q-.39,1.17,0,1.56a4.65,4.65,0,0,1,1.57-.26C371.53,192.47,371,192,370,192Zm.26,20.62v.78a1,1,0,0,0,.79-.26C370.75,212.83,370.48,212.57,370.22,212.57Zm8.88,3.65c0-.78,0-1-.26-1.31-.79,0-1.31.27-1.31.79a2,2,0,0,0,1.31.52Zm2.35,1-.26-.26a1,1,0,0,1-.79.26c0,.26.26.53.52.79l.53-.26Zm.52-13.83-.52-.52c.52-.78,1-1.31,1.82-1.31.27,0,.53.26.79.53C384.06,202.91,383.27,203.17,382,203.43Zm6.26,21.4c-.26-1-1.56-1.82-1.56-2.61h-.79c-.26.26-.52.52-.52.79,0,.78.78,1.3,2.09,1.82Zm1.83,1.57v-.52c-.26,0-.26,0-.52-.26l-.26.52c.26.26.26.26.52.26Zm.78-11.75h-.52c-.78-.78-1-1-.78-1.3h.52Zm.53,8.09c-.27-.26-.27-.26-.27-.52h-1.3a1.59,1.59,0,0,0,.26,1.05c.78-.26,1.31-.26,1-.26Zm1.56-8.09v1.83a3.92,3.92,0,0,0-1.83.26l-.78-.78c0-.52.52-.78,1.83-1.05,0-.26-.26-.26-.52-.26a7.73,7.73,0,0,0,1.82-2.08h1.31a1,1,0,0,1,.26.78A6.55,6.55,0,0,0,392.93,214.65Zm-.52-7H391.1a1.56,1.56,0,0,0-.26,1l.53.52a1.56,1.56,0,0,0,1-.26Zm-.52-5-.26.26c0,.26,0,.26.26.52.26-.26.52-.26.52-.52C392.15,202.65,392.15,202.65,391.89,202.65ZM396.32,223c-.26,0-.26,0-.52.26-.78.26-1.56,1.3-2.35,3.13l.26.52a4.41,4.41,0,0,0,2.61-2.35Zm-2.08-17.75H394v.52l.53.52c.26-.26.26-.26.52-.26A.69.69,0,0,0,394.24,205.26Zm3.13,35.49v-.26h-.52v.26Zm8.09-9.13,1.83,21.92v-.26c0,.26,0,.26-.27.26Zm.78,6.53v.26c.26,0,.26,0,.26-.26Zm11.22-25.84c-.78-1.57-1-1.83-1-1H418v.27l.52.78Zm-.52-2.87c0-.26,0-.26-.26-.26v-.26c-.26,0-.26,0-.26.26h.26c0,.26,0,.26.26.52Z"/></svg>