<svg id="Layer_1" data-name="Layer 1" xmlns="http://www.w3.org/2000/svg" viewBox="0 0 500 500"><defs><style>.cls-1{fill:#fff;}</style></defs><title>maneuver</title><rect class="cls-1" width="500" height="500"/><polygon points="74.66 21.36 84.28 69.48 110.24 21.36 285.24 21.36 295.81 8.15 301.58 21.36 322.74 64.77 331.39 32.68 349.66 27.96 396.77 21.36 475.62 24.19 441 55.33 481.39 54.39 481.39 208.2 491 216.69 484.27 216.69 494.85 230.84 488.12 240.28 482.35 261.98 480.43 328.01 487.3 327.61 483.31 342.64 484.27 474.3 459.27 474.3 444.85 494.11 432.35 474.3 311.2 475.24 328.5 494.11 284.75 474.3 204.42 482.12 211.71 439.56 166.01 489.4 157.35 472.41 24.66 473.35 65.05 429 20.82 439.38 20.82 349.74 5.43 362.01 20.82 329.92 17.93 195.93 28.51 205.37 16.01 174.23 16.97 149.69 27.55 176.11 16.97 114.78 16.97 20.42 37.16 20.42 34.28 36.46 55.43 3.43 56.39 18.53 74.66 21.36"/><path class="cls-1" d="M66.91,416.16v-2.87c6.15-.66,6.56-1.23,6.56-8.78l-.16-31.57H72.9L54.78,415.58h-2.3L35.75,373.76h-.32l-1,21.41c-.41,6.8-.33,10.66,0,13.2.33,3.69,1.89,4.43,7.38,4.92v2.87H22.06v-2.87c4.67-.41,6.15-1.81,6.72-4.76A144.42,144.42,0,0,0,30.51,393l1.31-16.23c.65-9.27.08-10.42-7-11.07v-2.87h17l15.75,35.91,16.07-35.91H90.2v2.87c-6.56.65-6.89,1.31-6.72,8.11l.74,30.67c.16,7.55.57,8.12,7,8.78v2.87Z"/><path class="cls-1" d="M126.36,416.16v-2.87c4.84-.74,5.25-1.72,3.94-5.33-.82-2.46-2.05-6-3.28-9.27H111.27c-.9,2.54-2,5.5-3,8.78-1.23,3.93-1,5.08,5,5.82v2.87H95v-2.87c5.41-.66,6.47-1.56,9.18-8.45L121,362.69l4.18-1.06c5.25,14.35,10.33,28.62,15.66,42.72,2.79,7.22,3.78,8.28,9,8.94v2.87Zm-7-39.61h-.24c-2.3,6-4.35,12-6.48,17.8h12.79Z"/><path class="cls-1" d="M210.74,365.64c-4.43.25-6.15,1.4-6.56,5.09a115.64,115.64,0,0,0-.74,13.69V417h-3.93l-34.12-40.84h-.24v18.37a118,118,0,0,0,.65,13.37c.41,3.6,1.81,5.16,7.88,5.41v2.87H153.59v-2.87c4.59-.33,6.47-1.64,6.8-5.17a96.9,96.9,0,0,0,.82-13.61V377.45c0-5.41-.08-6.88-1.64-8.85s-3.36-2.63-6.89-3v-2.78h15.17l31.41,36h.25V384.42a116,116,0,0,0-.66-13.53c-.41-3.52-2-4.92-8.12-5.25v-2.78h20Z"/><path class="cls-1" d="M258.87,402.54c-.57,3.7-2.21,11.16-2.87,13.62H214.18v-2.87c7-.58,7.79-1.07,7.79-8V373.76c0-7.13-.82-7.54-6.64-8v-2.87H254c.09,1.47.5,7.21.82,12.3l-3,.41c-.74-2.87-1.8-5.58-3.28-7.06s-3.61-2.05-8.2-2.05h-3.94c-3,0-3.36.17-3.36,2.87v17.39h5.5c6.88,0,8-.41,9.1-6.15h2.95v16.48h-2.95c-1.07-5.9-2.13-6.23-9.1-6.23H233v14.27c0,3.93.33,5.9,2,6.72,1.47.66,4.26.82,7.38.82,4.26,0,7.13-.57,9-2.62a27.28,27.28,0,0,0,4.59-8Z"/><path class="cls-1" d="M319,365.73c-4.43.24-6.48,2-6.89,4.84a66.79,66.79,0,0,0-.74,11.39v8.94c0,8.69-1.31,15.58-5.9,20.5a20.89,20.89,0,0,1-15.17,6c-5.41,0-10.58-1.15-14.51-4.18-4.6-3.69-6.81-9.76-6.81-19.36V374.5c0-7.71-.82-8.2-6.89-8.77v-2.87h24.68v2.87c-6,.57-6.8,1.06-6.8,8.77v17.88c0,12.3,4.43,19.43,13.28,19.43,9.76,0,14-7.38,14-21.07V382a63.8,63.8,0,0,0-.82-11.39c-.49-2.87-2.38-4.52-7.95-4.84v-2.87H319Z"/><path class="cls-1" d="M377,365.81c-5.33.57-6.8,1.56-10.08,9.35-2.71,6.39-10.17,25-16.57,41.9h-4.1c-5.57-15-13.28-34.77-16.64-43.3-2.54-6.31-3.86-7.46-8.94-7.95v-2.95h24.43v2.95c-6,.9-6,1.8-4.75,5.33,2.38,6.56,8.86,23.21,11.81,30.91h.24c4.51-12,8-21.48,10.25-28.61,1.89-5.66,1.89-6.81-4.83-7.63v-2.95H377Z"/><path class="cls-1" d="M424.59,402.54c-.57,3.7-2.21,11.16-2.87,13.62H379.9v-2.87c7-.58,7.79-1.07,7.79-8V373.76c0-7.13-.82-7.54-6.64-8v-2.87h38.62c.09,1.47.5,7.21.82,12.3l-3,.41c-.74-2.87-1.8-5.58-3.28-7.06s-3.61-2.05-8.2-2.05H402c-3,0-3.36.17-3.36,2.87v17.39h5.5c6.88,0,8-.41,9.1-6.15h3v16.48h-3c-1.07-5.9-2.14-6.23-9.1-6.23h-5.5v14.27c0,3.93.33,5.9,2,6.72,1.48.66,4.26.82,7.38.82,4.26,0,7.13-.57,9-2.62a27.28,27.28,0,0,0,4.59-8Z"/><path class="cls-1" d="M479,416.9c-.49,0-1.39-.09-2.46-.09-10.33-.49-13.45-2.78-16.81-7.95-2.13-3.36-4.34-7.79-6.72-12.14-1.32-2.46-2.79-3.52-5.42-3.52h-1.55v12c0,6.81.73,7.54,7,8.12v2.87H428.28v-2.87c6.15-.58,7.05-1.31,7.05-8.12V373.68c0-6.56-.73-7.38-6.72-7.95v-2.87h23c7.22,0,11.32.82,14.68,3a12.53,12.53,0,0,1,5.49,10.91c0,7.21-4.75,11.15-10.25,13.36,1.23,2.46,4.27,7.88,6.73,11.65a67.54,67.54,0,0,0,6.23,8.94,12.56,12.56,0,0,0,5,3.52Zm-30.83-27c3.44,0,6.23-.58,8-2.13,2.79-2.3,3.94-5.58,3.94-9.76,0-8.78-5.08-11.89-9.68-11.89-2,0-3.19.32-3.69.82s-.73,1.31-.73,3v19.93Z"/><path class="cls-1" d="M97.26,266.85a16.28,16.28,0,0,0-3.7.74L56.2,268a8.27,8.27,0,0,1-3.7-1.11c-1.11,0-2.22-.74-3.7-2.22v-3l1.11-1.47,3.7-2.22,4.81-5.18q6.11-3.33,7.77-8.88c1.48-.74,2.59-4.07,3.33-9.62,1.11-4.44,1.85-6.28,1.85-5.17a47.42,47.42,0,0,0,2.21-10.36,43.89,43.89,0,0,1,1.85-10.36l.74-3.33c.37-4.44,0-12.57,2.59-28.85a16.27,16.27,0,0,0-.37-3.33,4.09,4.09,0,0,1,0-3,3.4,3.4,0,0,1,2.22-1.48c.37.37.74,3,.37,7.77.37,2.59.74,4.44.74,5.18a70.49,70.49,0,0,0-1.48,15.9,86.89,86.89,0,0,0,.37,9.62c.37.37.37,1.11.74,2.59a115.68,115.68,0,0,0,.37,12.58c0,.37,0,3.33.37,8.87a25.28,25.28,0,0,1,1.48,4.81,30.1,30.1,0,0,1,1.48,7,33.07,33.07,0,0,0,3.33,5.92,8.51,8.51,0,0,0,2.59,3c1.48,2.22,4.07,5.18,7.4,9.25.37.37.37.37.37.73C99.11,263.89,98.74,265.74,97.26,266.85Zm200.85-6.65-.37,3.32-2.22,3.33c-1.48,0-2.59-.37-3-1.48a2.77,2.77,0,0,1-1.85.37l-2.59-3.32v-1.11H287l-3,3.69c0,1.48,0,2.22-.37,2.59a12.23,12.23,0,0,1-5.18,0L277,265.37h-.74l-1.11,1.85c-.37.74-3,1.11-8.5,1.11l-8.88-1.11c-.37,0-.74-.37-1.11-.74a6,6,0,0,1,1.11-3.33v-2.21a10.93,10.93,0,0,0-4.44-5.92c-.37-.37-.37-.74-.74-.74s-.74.37-1.11.74l-1.85,6.65c-.37.75.37,1.85,1.48,3.33v1.85a4.69,4.69,0,0,1-2.22.37c-1.48,0-2.59-1.48-4.07-1.85a2.83,2.83,0,0,1-1.85.74,8.27,8.27,0,0,1-3.7-1.11h-.74c.37,0,.37.74.37,2.22a8.72,8.72,0,0,1-2.59,1.11h-7.39c-1.85,0-4.81-.37-8.14-.74h-7.4c-4.07.37-7,.37-8.14,0-2.95,0-4.8-1.11-5.54-3.7,0-2.95,3.7-5.91,11.46-9.24l1.85-2.22a1.74,1.74,0,0,1,2.22-.37h1.11c.37-.74.37-1.48-.74-2.59v-1.85a30.17,30.17,0,0,1,3.7-6.29c.37-.37.37-.74.74-.74l-1.48-1.85V235a2,2,0,0,0,1.11-1.85A5.26,5.26,0,0,0,219,231a6.63,6.63,0,0,1,1.11-4.06c0-6.66.37-10.36,1.48-10.73,0-22.93-.37-35.14-.74-37,0-3.33,0-7.77-.37-13.69-1.11-5.54-1.85-7.76-6.66-8.13a18.74,18.74,0,0,0-5.55,2.59l-4.8,8.87a49.91,49.91,0,0,1-5.18,12.95L195.65,184q0,1.11-3.33,2.22a7.74,7.74,0,0,0,1.48,2.22c0,1.48-.37,2.59-1.11,3l-1.85,5.17c-1.48.37-1.85,1.11-1.48,2.22V201a30,30,0,0,0-2.22,4.81L183.81,208c.37,3.33.37,4.44.37,3.7a61.18,61.18,0,0,0-3.33,11.84c-.74.37-1.11,1.48-1.48,4.07H179l-6.66,17-1.1,4.07c-.37.37-.74,2.22-1.48,5.55-.74.37-1.48,1.85-2.22,4.07L165,263.52,163.84,265c-1.48.37-2.59.74-3,1.48a32.39,32.39,0,0,0-7.4.74c-2.59.37-8.51.37-17,0-4.07,0-5.18-1.85-6.66-3a22.34,22.34,0,0,1-3-7.76l-5.55-16.65a48.45,48.45,0,0,1-2.22-10l-6.66-18.49a27.69,27.69,0,0,1-1.85-5.92c-.37-.37-.74-2.22-1.11-4.81a8.21,8.21,0,0,1-.37-3.33l-3.33-7.76-.73-4.07a15,15,0,0,0-2.22-4.07h-.37a2.17,2.17,0,0,0-.74-1.85l-4.44-11.47c-.37-1.48-3-4.81-3.33-6.28a6.66,6.66,0,0,0-5.55-2.59,13.6,13.6,0,0,0-5.92,1.85H81l-1.11-2.22c-.37-3.33-.37-8.14-.37-14.43a58.19,58.19,0,0,0-1.11-10c0-1.85-.74-4.07-1.85-7.39h-.37v-.74a14,14,0,0,1-3.7-3.33,82.91,82.91,0,0,1-12.2-9.62c-.37-.37-.37-1.11-.74-2.22a7.11,7.11,0,0,1,5.55-4.07h.74l32.92-.37a21.3,21.3,0,0,1,5.55-.37l5.91-1.48h4.44a8.54,8.54,0,0,1,2.59,1.85c.37,0,.37,0,.74-.37h1.48v.37h1.85a1.92,1.92,0,0,0-1.48-.74v-.74c1.48,0,4.44,0,8.88-.37a9.6,9.6,0,0,1,6.66,1.48c.74,1.11,2.59,6.29,5.91,15.17a63,63,0,0,0,4.07,10.72,1.36,1.36,0,0,1-1.11.37c0,2.22.74,3.7,2.22,4.07a11.51,11.51,0,0,1,.37,4.07h-.74l-.74,1.11.74,1.11c1.85.74,3,2.59,3,5.92h-.37c0,.74,0,1.11-.37,1.48l1.85,1.85,1.11.74a132.6,132.6,0,0,0,5.55,12.94,67.67,67.67,0,0,0,3.33,11.84l3.33,8.14a28.55,28.55,0,0,0,2.22,5.55c1.11,3.7,3,5.91,5.55,6.28,1.1.74,2.95,1.11,6.28.74a17.71,17.71,0,0,0,4.07-1.85c1.48,0,3-.74,4.81-2.21a2.82,2.82,0,0,1,2.59-3c.37-.37.37-1.11,0-2.59a3.36,3.36,0,0,1,1.11-2.59l1.11-3,1.85-3,4.44-9.25a19.92,19.92,0,0,0,3-8.13c1.11-1.48,2.58-5.92,5.91-11.47a39.66,39.66,0,0,0,2.22-6.29,9.54,9.54,0,0,0,3-4.81c1.11-6.29,1.85-10,2.59-10.36.37-2.58,1.85-5.17,4.07-8.13l.37-.74c.37-.37,1.11-2.59,2.22-5.92a16.79,16.79,0,0,1,1.85-3.33c2.22-3,4.44-4.44,6.29-4.44v-.37c2.59,0,13.68-.74,20-.74h35.14c0,.37,0,.37.37.37h-.37a2.22,2.22,0,0,0-.37,1.48l1.85,2.22a1.36,1.36,0,0,1,1.11.37l1.48-1.11a4.31,4.31,0,0,0-.74-2.59v-.74c3.7.37,6.29,1.11,7.4,2.59V113l-.74,1.11-7.4,7.77a47.88,47.88,0,0,0-4.44,9.61c-1.48,4.44-2.59,13.32-4.07,22.57,0-1.85.37.37.74,5.92l-1.48,6.65c.37,1.48-.37,5.18-1.85,12.58a8,8,0,0,0,.74,3.7v3a1.92,1.92,0,0,0-.74,1.48,6.25,6.25,0,0,0,.74,1.85,11.9,11.9,0,0,1-.37,3v2.59c.37.37.37,1.84.37,4.06l-1.85,1.48-3,3c0,.74.74,1.85,2.59,3.7l1.48,3q1.11.56,1.11,5.55a13.15,13.15,0,0,1,.74,3.7c0,1.85-.74,3-.74,10l-1.11,3.32h-3.33c-.37.37-.37.74,0,1.48L274.8,235v1.48a5.05,5.05,0,0,0-2.22,3.7c2.59,0,3.7,0,3.33-.37V245a8.45,8.45,0,0,0,4.44,3,23.06,23.06,0,0,1,3.33,4.44l2.59,2.59a10.27,10.27,0,0,0,7.4,3.7c.37.37,1.48.37,3.33.37ZM67.67,114.83v-.37H66.56l.37.37Zm3-5.55-2.59.37c0,1.85.37,3.33,1.11,4.07h4.06c0-.37.37-.74.74-1.11Zm1.11,8.51H69.52c0,.37-.37.37-.74.74l2.59,2.22c1.84-.37,2.58-.37,1.47-.37A5,5,0,0,0,71.74,117.79Zm35.5,26.26h-.37v.37h.74a11.9,11.9,0,0,0,.37,3,2.24,2.24,0,0,0,1.11-2.22A4,4,0,0,1,107.24,144.05Zm12.58-2.59c0-.37,0-.37.37-.37a2.81,2.81,0,0,0-.74-1.48h-.74a1.36,1.36,0,0,1-1.11.37,2.8,2.8,0,0,0-.37-1.48l-2.59-.74v-1.11l.74-.74a1.15,1.15,0,0,0,.37-.74c0-1.11-1.48-1.48-4.81-1.11q-1.66,1.11-1.11,4.44c-.37.37-.37,1.11-.74,2.22l5.55,5.18a5,5,0,0,1,1.85.37l1.85,2.22c.37-.37.74-.37,1.48-.37a5.61,5.61,0,0,0,1.11-4.81A3.38,3.38,0,0,1,119.82,141.46Zm-6.29-30q0-.56-1.11-1.11a1.36,1.36,0,0,0,.37,1.11Zm-.37,2.59v-.37h-.37v.37ZM115,162.18h-.37l.37.36Zm5.92-10a1.65,1.65,0,0,0,0-1.85c-.37-.37-.74-.74-1.48-.37v2.22Zm5.18-41.06h-1.48v1.11h1.11l.37.37Zm11.47,20v-1.85c-.37-.73-1.48-1.47-3.33-2.58,0-.37,0-.37-.37-.37h-3c-.37.37-.74.74-.74,1.11l.74.74v1.1a2.71,2.71,0,0,0,1.85.38v.73h-.37l.37.37c.37,0,.37,0,.74-.37h.74a8.88,8.88,0,0,0,2.58,1.11ZM149,216.18a14.13,14.13,0,0,0-3.33-3.33,6.84,6.84,0,0,1-3.33-2.59h-.74a4.69,4.69,0,0,0-.37-2.22h-1.11l-.37,1.48c-.37.37-.37.74-.74.74v2.22l4.44.37a4.93,4.93,0,0,0,1.85,2.22c0,1.11,0,1.85-.37,2.22h-1.11a7.22,7.22,0,0,0-.37,2.59c0,.37,0,.74.37.74,1.11,0,1.85-.74,1.85-2.22h.37l1.48,1.11c-.37-1.11.37-1.85,1.48-2.59Zm-9.25-48.83v0Zm1.11-11.83h-.37v.37Zm.74,61v.37c0-.37,0-.37.37-.37Zm1.85.37v-.74a1.36,1.36,0,0,0-1.11.37c.37,0,.37,0,.74.37Zm0-78.79v-.74h-.37v.74Zm1.11,29.22V167h-.74v.37Zm.74,56.6v-.37H145V224Zm1.48-51.79v-.74h-.37v.74ZM151.63,224a3.73,3.73,0,0,0-4.07-3.33,2.5,2.5,0,0,0-.74,3c.37.37.74.37,1.85.37Zm69.54,29.59a5.13,5.13,0,0,0-3.33,0c0,1.85.37,2.59,1.48,3a6.25,6.25,0,0,0,1.85-.74Zm-.74-4.44a1.13,1.13,0,0,0,0-1.48,6.25,6.25,0,0,0-1.85.74l.74.74Zm1.48,1.11a2.36,2.36,0,0,0,0,2.22,9.41,9.41,0,0,0,2.59-.74A4.66,4.66,0,0,0,221.91,250.21Zm1.48-20v-.74h-.74c0,.37,0,.37.37.74Zm2.59,9.25,1.11,1.85a1.36,1.36,0,0,1,1.11-.37C228.2,239.85,227.46,239.11,226,239.48ZM227.09,255c-.37.37-.37.74,0,1.48a8.27,8.27,0,0,0,1.11,3.7c.37,0,.74-.74,1.85-1.85C230.05,256.87,228.94,255.76,227.09,255Zm4.07-3.33c0-.74,0-1.11-.37-1.48a1,1,0,0,0-1.11,1.11,1.36,1.36,0,0,0,.37,1.11Zm34.4-49.57c-3.33-1.48-5.92-3.33-7-5.91a3.05,3.05,0,0,0-2.59,0c-.37,1.1,0,2.21,1.11,4.06h-5.92l-1.48,1.11a2,2,0,0,1-1.11-1.48,11.9,11.9,0,0,0,3-.37l.74-1.85c0-1.85,0-3,.37-3.32a7.14,7.14,0,0,0-1.48-5.92c-1.11-.37-2.22.37-4.07,1.85-2.22,0-3.33.74-3.33,1.85q1.67.56,2.22,0c1.11-.74,1.48-1.11,1.85-1.11.37.37.37,1.85.37,3.7-1.11.37-1.85,1.1-1.85,1.84,1.48,0,1.85.74,1.11,2.59-1.85.74-2.59,1.85-2.22,3.7,2.22,1.85,3,3,2.59,4.07l-2.22-2.59-4.07-1.85c-1.85-3.7-4.06-5.55-7.39-5.55a8.82,8.82,0,0,0,2.21,3.33l1.12,3.33c0,1.48-3,1.48-4.81,3-2.22,1.85-1.85,3,.74,3.7a2.24,2.24,0,0,1,2.22-1.11v1.11h-1.85c-.37,1.85,0,3.33,1.11,3.7a2.77,2.77,0,0,1,1.85-.37,4.39,4.39,0,0,1,2.95-1.48,1.89,1.89,0,0,1,1.85,1.48c1.85.37,3,.74,3,1.48a45.47,45.47,0,0,1,4.81-.74c0,1.48-2.59,3-2.59,4.07a1.36,1.36,0,0,0,.37,1.11c1.85.74,3,1.48,3.33,2.59a4,4,0,0,1-1.11,1.85s-1.85-1.85-3-1.48a1.74,1.74,0,0,0-.37,2.22c.37.37.74.37.74.74v.74c-.37,0-.74,0-.74-.37l-3,1.48v1.47a9.4,9.4,0,0,1,3,5.18,3.2,3.2,0,0,0-1.11,2.22c0,.74.37,1.11,1.11,1.48a2.77,2.77,0,0,0,1.85-.37v-3a8.88,8.88,0,0,0,4.44,0,14.55,14.55,0,0,1,.74-2.22c2.22-.37,3.33-1.48,3.7-3.33,1.48-1.1,1.85-1.84,1.11-2.95a2.1,2.1,0,0,0-2.59,1.48,5.22,5.22,0,0,1-3.33.37c-.37-.37.74-1.48,2.59-3V221l-1.48-.74c-.37-.74.74-2.22,2.59-4.07.37-1.48,1.85-2.59,4.07-3v-3h1.48q1.67,3.33,3.33,3.33a6.25,6.25,0,0,0,1.85-.74,11.9,11.9,0,0,0,.37-3c-.37-.37-1.48-.37-2.59-.74a1.36,1.36,0,0,1-.37-1.11,7.21,7.21,0,0,0,3-.37,1.36,1.36,0,0,1,.37-1.11Zm-28.11,53.64a2.83,2.83,0,0,0-1.85.74c-.37,1.11-.37,2.22-.74,2.59h-2.22c-.37,1.48,0,2.58,1.48,3a2,2,0,0,0,1.48-1.1c3.32-.37,4.8-1.85,4.8-4.07A4.92,4.92,0,0,0,237.45,255.76Zm3-38.1v-3.33l-5.91,3a2.22,2.22,0,0,0-.37,1.48c0,1.11.74,2.22,2.59,2.59l2.58-.74q4.44-.56,4.44-2.22A18.77,18.77,0,0,1,240.4,217.66Zm-4.07,14.42c-.36-.37-1.1-.37-2.21,0a3.13,3.13,0,0,0,.74,2.22c.37-.37.74-.37,1.47-.37Zm.75-47.71c0-.37-.37-.74-1.11-1.48-1.11,0-1.11.37-.74,1.48h1.85Zm0,.37a5.49,5.49,0,0,0,.37,2.59l.73.37c-.37.37,4.07-2.59,4.07-4.81A48.81,48.81,0,0,0,237.08,184.74Zm18.86-36.25a5.14,5.14,0,0,1-.74-4.07,5.35,5.35,0,0,0,.74-2.59c.74-2.59-.37-4.07-3.7-4.07a7.74,7.74,0,0,0-1.48-2.22l-.37-.37a2.12,2.12,0,0,0-2.59-.74,2.81,2.81,0,0,1-1.48.74,5.26,5.26,0,0,1-2.22-.74c-1.11,0-1.85,1.48-1.85,4.07a18.77,18.77,0,0,1-3.33.74,6.63,6.63,0,0,0,1.48,3,13.13,13.13,0,0,0-.37,5.55l1.48,1.11a2.88,2.88,0,0,1-1.11,2.59.69.69,0,0,0,0,1.11l.37.74,1.85,3v2.59a5.05,5.05,0,0,1,2.22,3.69,10,10,0,0,0-3.33.38l1.48.73a3.47,3.47,0,0,0,3,2.22c0,1.11,1.11,1.85,3,3,.37,2.59-.37,3.7-2.59,3.7.37,0,1.11.74,2.22,2.59.37,0,.74-.37,1.11-.74,2.59-.74,4.07-1.48,4.07-1.85-1.85-1.48-3.33-4.07-3.33-5.92s2.59-3.33,2.59-4.8l1.11-3c-.74-.37-1.48-1.48-1.85-3.33h1.11l.37.37c1.85,0,2.59-.74,2.59-2.22a4.69,4.69,0,0,0-.37-2.22Zm-17,46.24.37.37.37-.37C239.29,194.36,239.29,194.36,238.92,194.73Zm.37,42.53v-.37h-.37v.37Zm3-5.92c-1.11,0-1.85.37-1.85,1.48,0,.37,1.48,1.11,1.48,1.48,1.11,0,1.48-.74,1.48-2.22C243,231.71,242.62,231.34,242.25,231.34Zm.37-42.53v.37c.37,0,.37,0,.37-.37C242.62,188.44,242.62,188.44,242.62,188.81Zm4.07,62.51c0-1.11-.74-1.48-2.22-1.48,0,.37.37,1.11,1.48,1.48Zm-1.11,7h-.37c0,.37,0,.37.37.37l.37-.37Zm.37-45.87c-.37-.37-.37-1.48.37-3.33,1.85,0,2.22,1.11,1.85,3C247.8,212.48,247.06,212.48,246,212.48Zm3.33,17.38v0ZM250,120.38V120h-.37v.37Zm7.4,126.87s-1.48.74-4.07,2.22c-.74.37-.74,1.48-.37,3.33,1.11,0,2.59-1.48,4.81-4.44.37-.37.37-.37.37-.74ZM253,242.81a2.77,2.77,0,0,0,.37,1.85c.37-.37.74-.74.74-1.11a1.36,1.36,0,0,0-.37-1.11C253.35,242.44,253,242.44,253,242.81Zm1.11-6.29v-.37h-.37v.37Zm1.85-44.75h.37c.37-1.85.37-2.22.37-1.85C256.31,190.66,256.31,191.4,255.94,191.77Zm.37,40.68q-.56,1.67,0,2.22c1.48-.37,2.22-.74,2.22-1.85A2.45,2.45,0,0,0,256.31,232.45Zm8.51,21.83-1.48-1.11-1.11-3h-2.59c-.37,1.11-2.22,3-2.22,4.07,0,.37,0,.74.37.74a5.79,5.79,0,0,1,3.7-1.48,3.2,3.2,0,0,1,2.22,1.11h1.11ZM263,192.51h-3c-.37.37-.37,1.11-.37,2.22.37.37.37.37.74.37A8.84,8.84,0,0,0,263,194Zm-1.85,43.64h-1.48c0,1.11,0,1.48.37,1.85a1.36,1.36,0,0,0,1.11-.37Zm8.51-48.82c.37-1.11-.37-1.85-1.85-1.85-1.85-1.85-3-2.59-4.07-2.59a4.31,4.31,0,0,0-.74,2.59c-1.48.37-2.59.74-3,.74v1.48a14.81,14.81,0,0,1,3.7,4.44c1.85-.37,2.59-1.48,3-3.7Zm-8.14,57-.37-.37-.37.37Zm.37-39.21-.37.74c0-.37,0-.37-.37-.74Zm0,24.78h-.74v.74c.37-.37.37-.37.74-.37Zm7-14.05a2.22,2.22,0,0,0-.37-1.48H267c0,.74-.74,1.85-2.59,3a2.08,2.08,0,0,0,0,3.33,6.51,6.51,0,0,1,2.22-.37v-2.59c0-.37.74-.37,1.85-.37A2.22,2.22,0,0,0,268.89,215.81Zm-3.33-28.48h-.74c-.37,0-.37,0-.74-.37,0-.74.37-1.11,1.48-1.11l.37.37A1.36,1.36,0,0,1,265.56,187.33Zm.37,39.58-.74-1.11c-.37,0-.37.37-.74.74.37,0,.37,0,.74.37Zm.74-52.53a6.25,6.25,0,0,0-1.85.74,1.36,1.36,0,0,0,.37,1.11,2.81,2.81,0,0,0,1.48-.74Zm3,61.77c0-1.85-1.48-2.59-4.44-2.59l-.37.37a9,9,0,0,1,3,3.33A4,4,0,0,0,269.63,236.15Zm0-12.2c-.37-1.85-1.11-2.59-2.22-2.59a7.62,7.62,0,0,1-1.11,5.55,9.14,9.14,0,0,0,.37,3H267v.37a1.36,1.36,0,0,1,1.11.37c.37-.37.37-.37.74-.37a31.8,31.8,0,0,1-1.11-4.8Zm-.74-34.4c-.37,1.11,0,1.48,1.11,1.85,1.84,0,2.95-.37,2.58-1.48A4.46,4.46,0,0,0,268.89,189.55Zm3.69,22.93c0-.37,0-.37-.37-.74v.74Zm2.59-87.66h-.37c0,.37,0,.37.37.37Zm.74-11.1v.37c.37,0,.37,0,.37-.37Zm1.11,121v.74h-1.11V234.3H277Zm3.33-109.48v-.37h-1.11v.37Zm1.48,4.44v-.38h-.37v.38Zm5.55,136.48A1.36,1.36,0,0,1,287,265c.37,0,.37,0,.37-.37a1,1,0,0,1,1.11,1.11A1.36,1.36,0,0,0,287.38,266.11Zm5.92-4.8a.79.79,0,0,0,.74.73l.37-.37C294,260.94,293.67,260.94,293.3,261.31Z"/><path class="cls-1" d="M336.84,267.9c-.26.26-2.09.26-5.48.26a25.19,25.19,0,0,1-5.22-.78H320.4c-5.22.26-7.31.26-6,.26a71.7,71.7,0,0,1-8.61-.79h-7.57V264c.79-.52,1.05-1.3,1.31-2.61l3.91-1c1.31-.26,3.13-1.31,5.48-3.66a22.18,22.18,0,0,0,3.13-1.82,20.63,20.63,0,0,0,4.7-8.35l2.35-3.92c0,1.57.52-2.35,1.83-11.74-.26-3.4.52-8.1,1.83-14.1v-8.09a10.67,10.67,0,0,0,1-2.35c.26-1.83.78-3.13,1.57-3.39,0,.26,0,.26.26.26.26,6,.52,12.53,1,19.57v12.53l1,3.92a69.2,69.2,0,0,0,3.39,10.44,40.4,40.4,0,0,1,2.87,3.91l2.09,2.09,9.39,5.48a5,5,0,0,1,1.05,3.13,3.32,3.32,0,0,1-.26,1.57C345.19,266.85,342.06,267.64,336.84,267.9ZM447,161.67a47.69,47.69,0,0,1-6.52,3.13,18.58,18.58,0,0,0-2.35,3.39v3.92c-.78,1-1.83,2.61-3.39,4.44a9.25,9.25,0,0,0-1.05,5c-.52,2.87-1.3,7-2.61,12.26,0,1.57-.26,4.44-.78,8.88a16.45,16.45,0,0,1-1.31,4.17c-.26.26-.26.79-.52,1.57,0,1,.26,2.61.52,4.7,0,8.09-.26,13.83-1,17.22V241.8c.26.52.26,2.87.26,7a8.66,8.66,0,0,1,.52,4.18,14.84,14.84,0,0,0-.52,4.18v4.69a8.5,8.5,0,0,1-2.35,4.18l-.78.78a6.52,6.52,0,0,1-2.09.26l-20.62.27-2.61-1.31c-1.83-1.57-3.13-3.13-3.39-4.44a18.67,18.67,0,0,1-2.09-3.13c-1.3-.78-2.61-2.35-4.44-4.44a62.88,62.88,0,0,0-5.48-7.3l-.78-1c-.78-.78-1.83-2.35-3.65-4.17.78.26,2.08-.79,4.43-2.87a4.08,4.08,0,0,0,.26-2.88,2,2,0,0,1-.26-1.3c-.26,0-.26,0-.26-.26l-1.56-.52.26-1.57a14.57,14.57,0,0,0-1.31,1.57,4.09,4.09,0,0,0-1.83-1.05l-.26.52-2.61,1.57v.52H377v.52h-.52v-.52h-.26a24.14,24.14,0,0,1-3.91-4.43h.26V229h-.52a2,2,0,0,1-.53,1l-.52-.78c-2.09-1.83-5.74-6.26-11-13.05a2.17,2.17,0,0,1-1.31-1.31l-3.91-4.69-.78-.53a99.63,99.63,0,0,0-8.36-9.39c-.26-.78-2.61-3.39-7.3-7.83a20.94,20.94,0,0,1-2.61-1.31c-3.4,0-5.75.79-7.05,2.09a19.85,19.85,0,0,1-2.61,3.39c-.78-.26-1.31-.78-1.57-2.08-.52-17-2.09-25.58-4.69-25.58a13.57,13.57,0,0,0-9.14-6.53l-5.48-2.87a4.94,4.94,0,0,1-2.09-3.91,18.74,18.74,0,0,1,2.87-1.83c.26-.26.78-.26,1.83-.52h11.22l.79.26q21.92.78,23.49-.78c2.87-.27,5.48-.27,7.83-.27a33.32,33.32,0,0,1,8.35.79,12.14,12.14,0,0,1,2.61,2.61l.78,1.3a52.45,52.45,0,0,1,4.7,5.22L370,164.8l2.35,3.92a58.16,58.16,0,0,1,8.09,9.13l4.17,4.7c.53.26,1.31,1.3,2.61,3.65a6,6,0,0,1,2.09,2.88c1.83,1.56,4.18,3.91,7.31,7,.78,1.83,3.39,4.7,7.57,8.62a16.48,16.48,0,0,0,3.39,3.65,19.36,19.36,0,0,0,5.74,5.48,8.49,8.49,0,0,0,4.18,2.35l.26.26h4.18c0-.26,0-.26.26-.26q3.13-.78,3.91-4.7a14.78,14.78,0,0,0,1-3.13c0-1.31-1-5.22-1-6.53a26.47,26.47,0,0,1,0-6.52c0-1.05,0-3.39-.26-7.05l-1.56-9.92-.79-1.56a35.26,35.26,0,0,0-2.87-7.57,16.56,16.56,0,0,0-5.48-6,29.29,29.29,0,0,0-6-3.92l-.79-.52a5.17,5.17,0,0,1-1.3-3.65c.26-.79,1.83-1.57,4.7-2.62h14.09a39.64,39.64,0,0,0,6.79.27c1.3.78,8.35.78,16.7,1.82a3.61,3.61,0,0,1,1.57,2.87C450.64,158.28,449.33,159.58,447,161.67ZM323.79,216.22V216h-.26v.26Zm1.3,21.66v.26c.27,0,.27,0,.27-.26Zm1.05,6.79v0Zm3.13,13.83c0-.78-.52-1-1.56-1-.27.26-.27.26-.27.52h-.78v.52a5.7,5.7,0,0,1,1.57,1.83C329,259.55,329.27,259,329.27,258.5Zm7.05,2.09a4.68,4.68,0,0,0-2.87.78,5.37,5.37,0,0,0,1.3,2.35c1.31-.26,2.09-1,2.09-1.83C336.58,261.63,336.58,261.11,336.32,260.59ZM344.93,175v-.26c-.26-.26-.26-.26-.52,0V175Zm4.18,2.09v-.78l-1.57-.27c0,.27,0,.27-.26.27a1.39,1.39,0,0,0,.78,1Zm1.56,2.09v-.26l-.26.26Zm4.7,0c0-1-1-2.09-2.09-2.87h-1a10.86,10.86,0,0,0-1.31,2.61c0,.26,0,.26.27.26l2.87-.79c.26.53.78.79,1,1C355.37,179.42,355.37,179.42,355.37,179.16ZM371,224.05v-.52h-1c0,.78,0,1.3.26,1.56Zm10.18-1.83.26.26c0-.26,0-.26.26-.26Zm6.53,7.83h-.27v.26Zm3.39,19.58h-1.05l.53.78c0-.26.26-.26.52-.26Zm.26-27.67a10.59,10.59,0,0,0,.52,1.57h.52a3.9,3.9,0,0,0,.26-1.83C392.17,221.44,391.65,221.44,391.39,222Zm19.05,17.75a37.08,37.08,0,0,0-.26-5,11.54,11.54,0,0,1-2.87-3.13,3.34,3.34,0,0,0,.26-1.57c-.26-.26-1,0-1.83.52-.52-.26-1-.26-1.3-.52v-1.56c-.26-.26-.52-.26-1.31-.53l-1.3-.78c-.78-1-5.22-.78-5.48-1.83-.26,0-.26,0-.52-.26v-.26l-.53-.26v1.05c0,1.3,0,2.08.27,2.08a1.94,1.94,0,0,1-.27,1.05c-.78.26-1,.52-1,1,0,.78.26,1.83,3.13,2.09a15.36,15.36,0,0,0,3.66,6,6.52,6.52,0,0,0,.26,2.09l1,.78.78.79h-.78l1.57,1c1.82-.26,2.35-.52,1.82-1.3.26-.27.26-.27.53-.27l.78.53.52-1h1.05c.26.52,0,.79-.27,1a1,1,0,0,1-.78-.26c-.26.52,0,.78.78,1,.79,0,1-.52,1-1.31Zm-13.31,6.52V246l-.78-.52h-1.57v.26l.79.52Zm0-18h-.52a1,1,0,0,1-.26-.79h.78c0,.26,0,.26.26.26C397.13,228,397.13,228,397.13,228.23Zm15.14-5.75v.26l.26-.26Z"/></svg>