<svg id="Layer_1" data-name="Layer 1" xmlns="http://www.w3.org/2000/svg" viewBox="0 0 500 500"><defs><style>.cls-1{fill:#fff;}</style></defs><title>prowess</title><rect class="cls-1" width="500" height="500"/><polygon points="74.66 21.36 84.28 69.48 110.24 21.36 285.24 21.36 295.81 8.15 301.58 21.36 322.74 64.77 331.39 32.68 349.66 27.96 396.77 21.36 475.62 24.19 441 55.33 481.39 54.39 481.39 208.2 491 216.69 484.27 216.69 494.85 230.84 488.12 240.28 482.35 261.98 480.43 354.46 454.46 381.82 483.31 400.69 484.27 474.3 459.27 474.3 444.85 494.11 432.35 474.3 311.2 475.24 328.5 494.11 284.75 474.3 204.42 482.12 211.71 439.56 166.01 489.4 157.35 472.41 24.66 473.35 65.05 429 20.82 439.38 20.82 349.74 5.43 362.01 20.82 329.92 17.93 195.93 28.51 205.37 16.01 174.23 16.97 149.69 27.55 176.11 16.97 114.78 16.97 20.42 37.16 20.42 34.28 36.46 55.43 3.43 56.39 18.53 74.66 21.36"/><path class="cls-1" d="M89.26,362.86c6.48,0,11.07.9,14.35,3.19a13.92,13.92,0,0,1,6.07,12.06c0,11-8.12,16-16.81,17.06a26.12,26.12,0,0,1-3.37.16l-5.57-1.39v11.31c0,7,.74,7.55,7.71,8.12v2.79H66.22v-2.79c6.15-.57,6.88-1.15,6.88-8.12V373.84c0-7-.73-7.54-6.47-8.11v-2.87Zm-5.33,27.88a12.49,12.49,0,0,0,4.43.82c3,0,9.51-2.14,9.51-13.2,0-9.27-5.17-12.31-10.17-12.31a4.69,4.69,0,0,0-3,.83c-.58.49-.74,1.31-.74,2.54Z"/><path class="cls-1" d="M165.52,416.9c-.49,0-1.39-.09-2.46-.09-10.33-.49-13.45-2.78-16.81-7.95-2.13-3.36-4.35-7.79-6.73-12.14-1.31-2.46-2.78-3.52-5.41-3.52h-1.56v12c0,6.81.74,7.54,7,8.12v2.87H114.76v-2.87c6.15-.58,7-1.31,7-8.12V373.68c0-6.56-.74-7.38-6.72-7.95v-2.87h23c7.22,0,11.32.82,14.68,3a12.53,12.53,0,0,1,5.49,10.91c0,7.21-4.75,11.15-10.25,13.36,1.23,2.46,4.27,7.88,6.73,11.65a67.54,67.54,0,0,0,6.23,8.94,12.49,12.49,0,0,0,5,3.52Zm-30.83-27c3.44,0,6.23-.58,8-2.13,2.79-2.3,3.94-5.58,3.94-9.76,0-8.78-5.09-11.89-9.68-11.89-2,0-3.2.32-3.69.82s-.74,1.31-.74,3v19.93Z"/><path class="cls-1" d="M224.15,388.93c0,17.72-12.71,28.46-28.21,28.46-16.4,0-27.8-12.06-27.8-27.72,0-14.1,10.09-28,28.87-28C211.93,361.71,224.15,372.78,224.15,388.93Zm-43.38-.9c0,14.11,6.15,25.91,16.65,25.91,7.79,0,14.1-7.62,14.1-22.71,0-16.32-6.56-26.08-16.15-26.08C187.17,365.15,180.77,373.84,180.77,388Z"/><path class="cls-1" d="M305.66,365.73c-5.5.82-6.81,2-9.11,8.77-1.8,5.33-6.64,19.6-13.53,42.56h-4.26c-4.51-12.22-8.86-23.94-13.45-36.41h-.16c-4.18,12.38-8.37,24.6-12.3,36.41h-4.27c-4.51-14.76-8.52-28.54-13.12-43.13-2-6.4-3.36-7.55-8.2-8.2v-2.87h24.19v2.87c-6.15.73-6.23,1.88-5.08,6.06,2.71,9.6,5.49,19.19,8.28,28.21h.17c3.93-11.64,8-24,11.8-36.65h3.94c4.59,12.46,9.27,25,13.78,37h.24c3.12-10.08,6.48-22.88,7.63-27.71s.82-6.32-5.82-6.89v-2.87h19.27Z"/><path class="cls-1" d="M353.3,402.54c-.58,3.7-2.22,11.16-2.87,13.62H308.61v-2.87c7-.58,7.79-1.07,7.79-8V373.76c0-7.13-.82-7.54-6.65-8v-2.87h38.63c.08,1.47.49,7.21.82,12.3l-3,.41c-.74-2.87-1.8-5.58-3.28-7.06s-3.6-2.05-8.2-2.05h-3.93c-3,0-3.37.17-3.37,2.87v17.39h5.5c6.89,0,8-.41,9.1-6.15h2.95v16.48H342c-1.06-5.9-2.13-6.23-9.1-6.23h-5.5v14.27c0,3.93.33,5.9,2,6.72,1.48.66,4.27.82,7.38.82,4.27,0,7.14-.57,9-2.62a27.28,27.28,0,0,0,4.59-8Z"/><path class="cls-1" d="M387.49,376.22c-1.64-5.16-4.76-11.23-11.4-11.23a7.75,7.75,0,0,0-7.95,8.12c0,4.51,2.95,7.05,10.17,10.74,8.61,4.18,14.51,8.77,14.51,16.89,0,9.35-7.95,16.65-19.93,16.65a29.22,29.22,0,0,1-8.28-1.15,34.26,34.26,0,0,1-4.92-1.8c-.82-2.05-1.88-8.94-2.46-13.86l2.87-1c1.64,5.25,6.48,14.52,14.35,14.52,5,0,8.2-3.45,8.2-8.69,0-4.84-3.61-7.88-9.76-11.16-8.36-4.26-14.26-8.69-14.26-16.56,0-9,7.13-16.07,18.77-16.07a36.28,36.28,0,0,1,11.4,2.13c.33,3,.9,6.72,1.56,11.81Z"/><path class="cls-1" d="M428.9,376.22c-1.64-5.16-4.76-11.23-11.4-11.23a7.75,7.75,0,0,0-7.95,8.12c0,4.51,2.95,7.05,10.17,10.74,8.61,4.18,14.51,8.77,14.51,16.89,0,9.35-8,16.65-19.93,16.65a29.22,29.22,0,0,1-8.28-1.15,34.26,34.26,0,0,1-4.92-1.8c-.82-2.05-1.88-8.94-2.46-13.86l2.87-1c1.64,5.25,6.48,14.52,14.35,14.52,5,0,8.2-3.45,8.2-8.69,0-4.84-3.61-7.88-9.76-11.16C405.94,390,400,385.57,400,377.7c0-9,7.13-16.07,18.77-16.07a36.28,36.28,0,0,1,11.4,2.13c.33,3,.9,6.72,1.56,11.81Z"/><path class="cls-1" d="M264.05,149.6a8.84,8.84,0,0,0-1.11,2.59,44.49,44.49,0,0,1-3.33,11.09l-2.22,4.44q-.56,3.89-4.43,7.77a13.85,13.85,0,0,0-2.22,3.7c-4.44,3-14.06,11.47-19.61,11.84-.37,1.11-3.7,1.85-9.25,1.85l-.37.37-10.72,1.85a24.51,24.51,0,0,0-6.29,1.11,31.05,31.05,0,0,0-5.18.36H183.05c-1.48-.36-5.18.37-8.14-2.95v-1.85c1.11-1.85,4.44-3.7,10.73-4.81a30.79,30.79,0,0,0,4.43-3c2.59-1.11,5.18-3.33,8.51-6.66l3-3.7c1.48-.37,2.22-1.85,4.44-15.16.74-1.85,1.11-7,.74-16.28l-.37-.37-2.59-10.36-.74-1.11h-.37c0-1.47-.74-3-2.59-4.43-2.59-4.07-5.18-6.29-8.14-6.66-3.33-1.48-8.5-4.07-12.57-4.07a16.7,16.7,0,0,0-9.25,2.59,18.5,18.5,0,0,0-2.59,1.85q-5.55,1.67-6.66,6.66a12.25,12.25,0,0,0-1.85,5.91l-.37.74-1.11,16.65L156,154.78c0,3.33,0,8.87.37,16.27l-.74,3c-.37,5.92-.37,9.25-.37,10.36a45.19,45.19,0,0,1,.37,10c-.37.74-.37,3.69-.37,8.5a9,9,0,0,0-1.47,4.81,7.12,7.12,0,0,0,.73,3c0,4.44,0,6.66-.36,7V231c-.37.37-.74,1.11-.37,3,0,3.33,1.47,3.7,1.84,8.14a77,77,0,0,1,3.7,7c.37.37,1.11.74,1.48,1.48l7.77,7.4,3,2.59c.37,2.58,2.22,3.32,2.22,3.69,0,1.85-1.48,3.33-4.81,3.7a57,57,0,0,0-7,.74h-6.29c-1.84-1.11-2.95-1.48-3.32-1.11h-2.59l-1.11-1.11h-1.11a7.74,7.74,0,0,1-2.22,1.48c-9.62-.37-13.69-.74-11.84-.74-2.22-.37-3.33-.74-3-.74a6.25,6.25,0,0,0-1.85.74c-2.59,0-4.07-.74-4.44-1.85a4.1,4.1,0,0,0-4.06-1.48v.37a4.92,4.92,0,0,1,1.11,2.59q-.56,1.11-6.66,1.11c-4.07,0-6.66,0-7-.37-5.18,0-13.32,0-24-.37-.37-.37-1.11-.37-2.22-.37a4.73,4.73,0,0,1-1.85-5.54,69,69,0,0,1,7-5.18l7.39-7.77A41,41,0,0,0,98,241V234.3l1.11-3.7a15,15,0,0,0,1.85-6.65,18.75,18.75,0,0,0-.74-4.81,97.34,97.34,0,0,1,.74-12.21,11.92,11.92,0,0,1,0-5.18v-9.61c.37-4.07.37-7.4.37-9.25a21.3,21.3,0,0,1-.37-5.55,139.21,139.21,0,0,0,.37-21.45c-.37-.37-.37-2.22-.37-4.81.74-1.48,1.11-2.22.74-2.59a10.24,10.24,0,0,1,1.11-4.81c.37-2.59,1.48-4.07,3.33-4.81v-.74a1.36,1.36,0,0,1-1.11-.37c-2.59-.37-4.07-3-4.07-8.51l.37-.36-1.11-.74c-1.48-4.81-3.7-4.07-3.7-6.66a3.82,3.82,0,0,1,1.48-3c0-.37,0-.37-.37-.74H93.9c-2.59-1.11-3.7.37-5.18,0a2.8,2.8,0,0,1-1.47-2.59,5,5,0,0,1,1.1-2.59,12.48,12.48,0,0,0,4.44-1.48c0-.37,0-.37.37-.74,0-1.48-2.59-2.22-2.59-3.33,1.11-.37,4.44-.37,10.36,0a11.44,11.44,0,0,1,3,.74v1.48c-.37.37-1.11,2.22-1.85,5.55l2.22,3c.37,0,.37,0,.37.37a9.41,9.41,0,0,0,2.59.74c1.11,0,1.48-.74,1.85-1.85a3.13,3.13,0,0,0,.74-2.22c0-1.48-.74-3.7-1.85-6.66q0-.56,3.33-1.11a30.19,30.19,0,0,1,6.66-.74,25.08,25.08,0,0,1,7,1.11c4.44,0,6.66,0,6.66.37,5.55,0,8.14,0,7.4-.37h2.22l.37-.37h3.7c1.11,0,2.59.74,4.81,2.22a4.31,4.31,0,0,0,.74,2.59c1.48.37,2.21.37,2.59,0l2.21-4.44,10.36-.37s5.18-.37,15.17-.74c2.59,0,7.76-.37,15.53-.74a32.38,32.38,0,0,0,5.92-.74h21.82L230,106a50.68,50.68,0,0,1,5.92.74c3.7.37,6.66,1.48,8.88,3.7l5.18,3c3,1.85,6.28,7.4,10.72,13.32,0,.74,0,1.11.37,1.48,0,1.84.74,4.8,1.85,8.5a19.85,19.85,0,0,0,1.48,7A26.33,26.33,0,0,1,264.05,149.6ZM84.29,111.13a2.22,2.22,0,0,1-.37-1.48c0-1.48,1.48-2.22,4.07-2.22C88,111.5,88.35,111.13,84.29,111.13ZM98,110.76v-.37c0,.37,0,.37-.37.37Zm12.58,24c-.37-.37-.37-.37-.74-.37l-1.11.74c0,.37,0,.37.37.74.74,0,1.11,0,1.48-.37ZM115.73,191a4.42,4.42,0,0,0-3,1.48,8.33,8.33,0,0,0,1.85,1.85l1.48-1.11V191c1.11-.37,2.22-.37,2.59-.74.37-1.11.37-1.48,0-1.85C117.58,188.44,116.47,189.18,115.73,191Zm-3,7.76a4.78,4.78,0,0,0,.74,3c1.11-.37,1.85-.74,1.85-1.11a2.83,2.83,0,0,0-.74-1.85Zm1.48-14h-.74c-.37.37-.37.37-.37.74s.37.74.74,1.11c.37,0,.74,0,.74-.37A2.22,2.22,0,0,0,114.25,184.74Zm1.11,23.67c.74-1.11.74-1.85.37-2.22a2.19,2.19,0,0,0-2.59-.37c0,1.11,0,2.22.37,2.59ZM115,155.89c-.74,0-1.11,0-1.48.37s-.37,1.11.74,1.48a1.36,1.36,0,0,1,1.11-.37A2.22,2.22,0,0,0,115,155.89Zm0,22.56v-1.11h-1.48v1.48c.37,0,.37,0,.74.37ZM114.62,214c0-.37,0-.74-.37-.74-.37.37-.37.37-.37.74h.74Zm0-42.17c-.37-.37-.37-.37-.37-.74v.74Zm3.7,31.07h-1.48c-.37.37-.74.37-.74.74s.37.74.74,1.11a2.77,2.77,0,0,0,1.85-.37A2.22,2.22,0,0,1,118.32,202.86Zm-1.48-67.69v.37c.37,0,.74,0,.74-.37C117.21,134.8,117.21,134.8,116.84,135.17Zm2.59,40V174l-.74-.74c-1.11.37-1.85.74-1.85,1.48l.74,1.48ZM117.21,167a2.22,2.22,0,0,0,.37,1.48,11,11,0,0,1,1.11-1.48Zm1.11-37.73v-1.1H118a.68.68,0,0,0,0,1.1Zm7.39,60.67c0-1.85-3.33-6.29-4.07-6.29a2.87,2.87,0,0,0-1.85.74,4,4,0,0,0,2.59,4.07,2.17,2.17,0,0,1,.74,1.85c-1.48.74-2.21,1.48-2.21,2.22a1.36,1.36,0,0,1,.37,1.11,3.24,3.24,0,0,0,2.58-2.22Zm-5.54-27.38c-.38.38-.38,1.48.37,3,.37.37.37.37.74.37.73,0,1.1,0,1.47-.37C123.49,163.65,122.75,162.92,120.17,162.54Zm4.43-32.91v-.38c-2.22,0-3.69.38-4.06.74,0,.74,0,1.11.37,1.48Zm-1.11,42.9q.56-.56,0-2.22h-.37a2.76,2.76,0,0,0-1.84-.37,2.81,2.81,0,0,0-.74,1.48c0,.37.37.74.74,1.11ZM122,200.64c.37-.37.74-.37.74-.74l-.74-.74a1.11,1.11,0,0,0-1.47,0,1.92,1.92,0,0,0,.74,1.48Zm-.37-62.14c.37-.37.37-.74,0-.74-.36-.37-.36-.37-.73-.37v1.11Zm-.73,7v1.11c0,.37,0,.37.37.37h.36a2.77,2.77,0,0,1,.37-1.85A1.34,1.34,0,0,0,120.91,145.53Zm1.47,34c0-1.48-.37-2.22-1.47-2.22,0,1.11,0,1.85.37,2.22Zm.37,62.14c0,.37,0,.37-.37.37l1.48,2.59c.74-.37,1.11-1.11,1.11-2.59A4.69,4.69,0,0,0,122.75,241.7Zm.74,17.39v-.74h-.74v.74Zm10.73-76.2V181c-1.11-1.11-1.48-1.85-1.48-2.59a2.24,2.24,0,0,1,1.11-2.22c0-1.85-.37-3-1.11-3.7h-2.59c-.37-1.48-1.11-2.22-2.22-1.85l-.37.74,1.48,1.11h-3c-1.48.74-2.22,1.48-2.22,2.59a29.61,29.61,0,0,1,4.07,1.85,12.72,12.72,0,0,0,.37,5.18A11.42,11.42,0,0,1,132,184Zm-7.77-41.06h-2.22v1.85a4.66,4.66,0,0,0,2.59-1.48Zm3.7,23.67c0-1.11-.37-1.85-1.11-1.85l-3.7,2.22a2,2,0,0,0-1.11,1.85l.74,1.11h2.22Zm-3.33,32.18c.37-1.11-.37-1.85-1.85-2.22l-.37.37a6.15,6.15,0,0,0,.74,1.85Zm-.74-14.79v-.37c-.37-.37-.74,0-1.11.37h1.11Zm1.85,78.78h-1.48V262c.37,0,.37,0,.37.38a1.34,1.34,0,0,1,1.11-.38Zm.37-137.22v-.74h-.74c0,.37,0,.37.37.74Zm3,89.14a2.83,2.83,0,0,0-1.85-.74,6.25,6.25,0,0,0-1.85.74,10.8,10.8,0,0,0,.74,3.33l3-1.85Zm-1.48-95.8H128.3l.74,1.11c0-.37.37-.37.74-.37Zm0,66.21a2.81,2.81,0,0,0-1.48.74,1.17,1.17,0,0,0,2.22.74C130.52,184.37,130.15,184,129.78,184Zm-1.48,8.51v.74h.37c.37,0,.37,0,.74-.37A1.36,1.36,0,0,0,128.3,192.51Zm1.85,15.16c.37-.37,0-1.11-.37-1.48H128.3v1.11c.37,0,.37,0,.74.37Zm4.44,9.25c-1.11-.74-2.22-.37-3.33.74-.37.37-1.11.37-2.22.37a11.44,11.44,0,0,1-.74,3,21.56,21.56,0,0,0,2.59,4.07,2.77,2.77,0,0,0,1.85-.37c.37-.74-.37-1.85-2.22-3,0-1.85,3-3.33,4.07-3.33ZM129,175.12c1.11-.37,1.85-.74,2.22-.37a.69.69,0,0,1,0,1.11c-.37.37-.74.37-1.85.37A1.36,1.36,0,0,0,129,175.12Zm4.44-33.29a3.13,3.13,0,0,0-2.59,0v1.48l.74,1.11c1.85-.37,2.59-.74,2.59-1.85A.8.8,0,0,0,133.48,141.83Zm.74-5.92c0-.74,0-1.11-.37-1.48a2.83,2.83,0,0,0-1.85.74l.74.74ZM133.11,204v-.74H132c0,.37,0,.74.37.74Zm-.37,6.29.37.37a.8.8,0,0,0,.74-.74A1.36,1.36,0,0,0,132.74,210.26Zm1.11-20.34v-.37l-.74-.37c0,.37-.37.74,0,1.11Zm4.44-27.38c-1.11.38-3.33-1.84-3.33-1.84a2,2,0,0,0-1.85,1.11c0,1.47,1.85,4.43,1.85,5.91a5.12,5.12,0,0,0,1.11,4.44,2.22,2.22,0,0,1,1.48-.37c1.85-1.85,3-3.33,3-4.81-.74-1.11-1.11-1.85-.74-2.59,1.11-1.11,1.48-1.85,1.48-2.21a.8.8,0,0,0-.74-.74ZM135,131.47v1.85h.37c1.48-.37,2.22-.74,2.22-1.85A3.13,3.13,0,0,0,135,131.47Zm2.59,7.4a1.85,1.85,0,0,0-2.22,0l.74,1.11a2.8,2.8,0,0,0,1.48-.37Zm-.74,18.5c-.74,0-1.11.37-1.48,1.48a2.8,2.8,0,0,1,1.48-.37Zm1.11,63.25c-1.11-.37-1.48-.37-1.85,0a1.65,1.65,0,0,0,0,1.85h.74c.74,0,1.11,0,1.48-.37C138.29,221.36,138.29,221,137.92,220.62Zm-.37-94.69c0-.74-.37-1.11-1.48-1.48,0,.74,0,1.11.37,1.48Zm-.74,79.89a1.92,1.92,0,0,0-.74,1.48c0,.37,0,.37.37.37a11,11,0,0,0,1.48-1.11C137.55,206.19,137.18,205.82,136.81,205.82Zm.74,7.4a2.22,2.22,0,0,0-1.48.37v1.48c.37,0,.37,0,.74.37a1.36,1.36,0,0,0,1.11-.37A4,4,0,0,0,137.55,213.22Zm4.81-96.17a2.79,2.79,0,0,0-1.48-2.59v-1.11H139.4l-2.59,3.33v1.85a7.76,7.76,0,0,0,2.22,3c1.85,0,2.59-.74,3-2.59A4,4,0,0,0,142.36,117.05Zm-2.59,16.64-1.11.74a14.55,14.55,0,0,0,.74,2.22,2.35,2.35,0,0,0,1.85-2.22A2.81,2.81,0,0,0,139.77,133.69ZM142,223.58a1.92,1.92,0,0,0-1.48-.74,6.25,6.25,0,0,0-1.85.74,6,6,0,0,0,1.11,3.33,5.26,5.26,0,0,0,2.22-.74Zm-2.22-95.43h0Zm.37-10.73h-.37c.37,0,.37,0,.37.37Zm1.48,85.81c0-.37,0-.37-.37-.37a2.22,2.22,0,0,0-1.48.37c0,.37.37.74.74,1.11.37,0,.74-.37,1.11-.74Zm0,14.06a2.77,2.77,0,0,0-1.85.37,3.13,3.13,0,0,0,.74,2.22c.74,0,1.11,0,1.48-.37A6.51,6.51,0,0,0,141.62,217.29Zm2.59-85.08v-.74h-.74c0,.37,0,.37.37.74Zm1.11-13.31v-1.11a1.36,1.36,0,0,0-.37,1.11Zm1.85-4.81a1.92,1.92,0,0,0-1.48-.74,1.36,1.36,0,0,0,.37,1.11Zm2.59,30.33a3.54,3.54,0,0,0-.74-2.59h-1.85a1.65,1.65,0,0,0,0,1.85l1.11.74Zm.37-26.63v1.11a1.36,1.36,0,0,1,1.11.37,3.37,3.37,0,0,0,3-3.7C153.08,115.57,152,116.31,150.13,117.79Zm.74,27.37.37,1.11c0-.37,0-.37.37-.74C151.24,145.53,151.24,145.53,150.87,145.16Zm.74-5.92v0Zm65.84,35.88a2.81,2.81,0,0,0-1.48-.74c-.74,0-1.48.74-1.85,2.22-1.85,1.85-2.22,3-1.85,3.7,2.59,0,5.18-4.07,5.18-4.07Zm4.06-14.05a6.44,6.44,0,0,0-2.22,4.06H220a4,4,0,0,0,1.84-.37,13.08,13.08,0,0,0,.74-3.69Zm-.37,16.27c-.73-.37-1.47-.74-1.85-.37v2.22c.38-.37,1.12-.37,1.85-.74Zm-1.47-6.66c-.38.37,0,1.11.37,1.48.37-.37.73-.37.73-.74s0-.37-.36-.74Zm1.47-14.42a2.2,2.2,0,0,0-1.47.37,1.71,1.71,0,0,0,1.1,1.85c.37,0,.37,0,.37-.37ZM238.9,169.2c-2.59,0-4.44.37-5.18,1.11a15,15,0,0,0,3,3.7l3.7-1.85c.37-.37.37-1.11.37-2.22,2.59-1.11,4.07-1.85,4.07-2.59a2.22,2.22,0,0,0-.37-1.48Q241.12,165.87,238.9,169.2Zm1.48-4.07v-.74q-1.11-1.11-4.44,1.11a1.36,1.36,0,0,0-.37,1.11.8.8,0,0,0,.74.74l2.59-1.48ZM235.94,154v0Zm1.85-6.66c-1.11,1.11-1.48,1.85-1.48,2.59l.74,1.48v1.85c-.37,0-.37,0-.37.37a1.36,1.36,0,0,0,1.11.37h1.48a5.13,5.13,0,0,0,0-3.33l1.85.37c0-1.11,0-1.48.37-1.85C241.12,148.12,240,147.38,237.79,147.38Z"/><path class="cls-1" d="M418.26,261.89c-1.05.27-2.09,2.09-4.18,4.44H411a2.25,2.25,0,0,0-.78-1.56c-.27,0-.27,0-.53.26v1.3c-1.3-.26-3.39.26-6,1.05h-1c-.27-.27-.27-.27-.53-.27a3.72,3.72,0,0,0-1.56.53h-2.09l-.78-1.57c-1.31-.26-2.09-.78-2.09-1.3h2.35c.26-.27,0-1-.52-1.83v-2.09l-6.53-4.7-.78.79.78,1.3a3.51,3.51,0,0,1,1.83,2.09l-1.31-.78a7.82,7.82,0,0,0-5.22,1.56h-1.3l.78,2.87a1.51,1.51,0,0,1,.52,1.83c-.26.78-.52,1.57-1,1.83H382.5c-.26-.26,0-1.05.26-2.09s.26-1.83,0-2.09l-.78-1c-3.14-1.83-3.14-3.4-6-5.22h-1l.78,1.3,1.57,2.35v1.31s-4.18.52-4.18,2.87l.79.52a4.57,4.57,0,0,1,1.56-.26c.52,0,.78.26.78.52l-2.6,1.83h-2.35l-1.31-.79c-1.83-.26-4.18-2.08-7.31-5.74a4.93,4.93,0,0,1,1.31-3.39,16.78,16.78,0,0,0-.52-2.35,6.59,6.59,0,0,0,1-2.09c-.26,0-.78.52-1.57.52a3.46,3.46,0,0,1-1.82-.78c-.53,0-1.05.52-1.57,1.31a2.26,2.26,0,0,1-1.83-2.09l-.78-1.31c-2.09-3.39-5-8.61-8.35-15.66h-.26a1,1,0,0,0-.26-.78,44.61,44.61,0,0,0-4.7-7.31l-1.57-2.61a40.85,40.85,0,0,0-3.13-5.22,49.67,49.67,0,0,0-5.48-5.74,2,2,0,0,1-1.31-.26,28.69,28.69,0,0,0-6.26.52,8.31,8.31,0,0,0-3.91,4.44c-.27,1.56-.53,4.7-.79,9.65a10,10,0,0,0-1.56,4.7,8.81,8.81,0,0,0,1.3,4.44,38.18,38.18,0,0,0,1.05,9.4,29.45,29.45,0,0,0,5.74,9.13c3.91,1.83,5.74,3.92,5.74,6.79,0,1.3-1.31,2.87-4.18,4.17h-22.7a2,2,0,0,1-1.05-.26h-24a19.93,19.93,0,0,0-5.48-.78,15.26,15.26,0,0,1-5,0l-1.3-.78h-2.61a3.16,3.16,0,0,0-2.35-1.57v-.26a61.38,61.38,0,0,1,6.52-5.48l2.87-1.57c1.05-.78,2.35-2.61,4.18-5.74l3.13-6.26c0-4.7.26-7.57.78-8.36a50.05,50.05,0,0,1,1.31-9.65c0-8.88.26-13.58.78-13.84q.39-3.12,0-18.79a8.09,8.09,0,0,1,.52-2.87,18.85,18.85,0,0,0,.26-6.53c0-1.82,0-4.17-.26-7.56a11.14,11.14,0,0,1-.52-4.18c-.52-.78-1-2.61-1.3-5.48l-.53-1.31-3.91-4.43a10.87,10.87,0,0,0-4.7-2.87l-1.57-1.57c-.78-2.09-.52-3.65,1.05-4.44a19.59,19.59,0,0,1,5-1.82c3.39-.27,5.48-.27,6,.26a5.61,5.61,0,0,1,2.61.52,55.63,55.63,0,0,1,7.83.78c2.87,0,6.53.26,11,.52,13.31,0,24.54,0,33.93-.26l6.27-1.3,8.87-1.05c2.35,0,3.92.26,4.18.79,1,.26,2.61.26,4.43.52s3.4.26,4.18-.52a12.62,12.62,0,0,0,3.39-.79h4.18l1.83.53c0,.26,2.87.78,8.87,1.82,2.09.26,3.39,1.05,3.92,1.83v1a1.51,1.51,0,0,0,1.82-.26c.79,0,1.83.79,2.61,2.35a7.72,7.72,0,0,1,2.09,2.09c1.83,1,3.13,2.87,4.18,5.74l.78,1.57a45.06,45.06,0,0,1,.26,7.31,3.36,3.36,0,0,1,.52,2.08,21.42,21.42,0,0,1-2.35,8.62,3,3,0,0,0-.78,2.08h-.26c-.78,2.35-2.61,4.7-5.48,7.57-.26.79-1.83,1.83-4.7,3.4a59,59,0,0,1-6,4.43c-2.61.53-4.44,1.57-5.22,3.4a21,21,0,0,0,0,5.74,15.77,15.77,0,0,0,3.13,4.18c.26.78-.26.78,3.65,5.22l3.4,7.3a12.63,12.63,0,0,1,2.61,2.61l1.3,2.09a61.32,61.32,0,0,1,6.27,7v1.3c-.79.53-.79,1.05-.53,1.57a8.39,8.39,0,0,1,1.83-.52c.26-.26.78.26,1.31,1a2.88,2.88,0,0,0,.26,1.31,4,4,0,0,1,1.82,2.61l.79.52.78,1a2.63,2.63,0,0,0,2.35,2.87c.26.26.26,1.05.26,2.87a5.89,5.89,0,0,0,1.83.79v1h-1.83a2.73,2.73,0,0,0,1.3,2.35c.79,0,1.05-.78,1.05-2.35a5.35,5.35,0,0,1,3.91,1.31l3.4,2.61,2.35,1.56Zm-145.12-.52c0-1.3-.52-1.82-1.57-1.56l-.52.52a2.8,2.8,0,0,0,1.31,1Zm.52,1.05c.26.26.26.26.26.52.26,0,.26,0,.26-.26S273.92,262.42,273.66,262.42Zm.78-4.44h-.26c.26,0,.26.26.26.52Zm9.92.52a.79.79,0,0,0-1,0c0,.26,0,.26.26.52a1,1,0,0,1,.78-.26ZM290.63,235c-.26,0-.26,0-.53.26a1.54,1.54,0,0,0,.53,1.31,5.08,5.08,0,0,0,1.82-.26C292.45,236.58,291.93,236.06,290.63,235Zm4.43-6.78q0-3.14-3.91-3.14a4.23,4.23,0,0,0-.78,2.87l.78,3.4c.26,0,.52.26.78.52h1.57Zm-2.87,18v-.52h-.78v.52h.78Zm3.13-3.39a2,2,0,0,0-1-.52c-.26,0-.52.26-.78.52a4.11,4.11,0,0,0,1.56,1l.26-.27Zm0,15.66a.56.56,0,0,0-.52-.52.79.79,0,0,0-1,0c0,.26.52.78,1.3,1Zm14.1-47.76c-.26,0-.26-.26-.52-.78-1.31,0-1.83.78-2.09,2.08-1.31.26-2.09,1.05-2.09,1.83a8.4,8.4,0,0,0,1.83,1.57v1.3a5.13,5.13,0,0,0-1.83.26c0,.79-.78,1.57-2.61,2.61-.26.26-.52.52-.52.79a3.46,3.46,0,0,0,.78,1.82v.52a10,10,0,0,0-4.7,1.57c-.52.26-1,0-1.56-1a1.14,1.14,0,0,0-1.31-.26v1.56q2.35.39,2.35,7.05l1.31,1a7.94,7.94,0,0,1-2.61,2.35c0,.78.52,1.57,1.82,1.83a7,7,0,0,0,2.35-2.09c.26-.26.79-.26,1.31-.52a3.09,3.09,0,0,1,2.87-2.35l1-1c1.05.26,2.09,1.3,2.87,1.3s1.31-1.3,1.83-3.91a2,2,0,0,0-.78-1.83v-2.09l-1.57-.78c-2.09-.79-3.13-1.83-3.13-3.66,1-.26,2.61-1.82,4.7-4.17.52-.26,1.3-1.31,2.61-3.13C310.2,212,309.42,211.52,309.42,210.74Zm-12.27-7.31V204a.56.56,0,0,0,.52-.52Zm1.83,13c-.26-1-.52-1.57-1.31-1.57h-.52v1.83a3.56,3.56,0,0,0,1.31,2.09C299,218.57,299.24,217.79,299,216.48Zm-1.83,5.22.52.52c1.31-.26,1.83-.52,1.83-1.3a6.67,6.67,0,0,0-.52-1.83C297.67,219.35,297.15,220.13,297.15,221.7Zm.52,19.84v-.79c-.26,0-.26,0-.52.26,0,.27,0,.27.26.53Zm5-1.31a5.75,5.75,0,0,0-3.65,4.7c-.78.26-1.31.26-1.57.52v1.05a3.58,3.58,0,0,0,1.57-1.31c3.13-.26,3.13-.26,3.39-2.35a5.74,5.74,0,0,1,1.31-1.3C303.42,240.75,303.15,240.23,302.63,240.23Zm-3.91-1.56c0,1.3.26,1.82.52,1.82h1.3a6.35,6.35,0,0,0,.53-1.82,2,2,0,0,0-.53-1.31C299.76,237.36,299.24,237.88,298.72,238.67Zm5,18v-.78l-1.83.78c-1.57.27-2.35.79-2.35,1.57l.52,1c.52,0,1.31-.52,2.09-1.82Zm-3.4-3.13V253H300v.52Zm1.83-38.63a3.54,3.54,0,0,0,0,2.35c.78-.26,1-1,1-2.08C302.89,214.91,302.63,214.91,302.11,214.91Zm1,31.85c.27-.79.27-1,0-1.31-.52,0-.78,0-1,.26v1.57Zm2.61,1.56c-.52-.52-.78-.52-1-.26a1.18,1.18,0,0,0,0,1.31C306,249.11,306.29,248.58,305.76,248.32Zm.27-44.63v-.78h-1.31a2,2,0,0,0,.26,1.3Zm.26,55.59c.26-.52.26-.78,0-1h-1.57v1Zm0-51.15a1,1,0,0,0-1.31-.26,1.53,1.53,0,0,0,.52,1.3C306.29,208.91,306.55,208.65,306.29,208.13Zm-1.05,25.32c0,.26,0,.26.26.52,0-.26,0-.26.26-.52Zm.79,10.44v-.53h-.79c0,.26,0,.53.26.53Zm4.17-11.23-1,1.57a2.5,2.5,0,0,0-1.83,2.61c.78,0,1.31,0,1.57.26h.52c0-1,2.35-2.35,1.56-4.18A1,1,0,0,0,310.2,232.66Zm-2.61-27.14.78.78c1.31-.26,1.83-1,1.83-1.83C308.37,204,307.59,204.21,307.59,205.52ZM309.16,229l-1.05.52a.56.56,0,0,0-.52-.52c0-.26,0-.26.26-.52a3.34,3.34,0,0,1,1.57.26C309.42,229,309.42,229,309.16,229Zm-.79-15.66-.26.26-.26-.52c.26-.26.26-.26.52-.26Zm.27,28.19V241h-.79v.53Zm2.87,7.3v-1.3a15.44,15.44,0,0,0-3.4-1.31,7.86,7.86,0,0,0,2.35,2.61Zm.26-9.65c0-1.05-.79-1.57-2.09-1.83a9.37,9.37,0,0,1-.52,4.44,2.56,2.56,0,0,0,1,2.35H311c0-.26,0-.26.27-.26a17.12,17.12,0,0,0-.79-2.88Zm-.52-31.32a.69.69,0,0,0-.79.78h.26c.26,0,.26,0,.53-.26S311.51,208.13,311.25,207.87Zm2.61,7.57a3.46,3.46,0,0,0-1.83-.79,3.62,3.62,0,0,0-1.57.53V216l.79.78a22.21,22.21,0,0,0,2.61-.52Zm0-9.66v-.26c-.27-.26-.27-.26-.53-.26v.52Zm.26,44.37c-.26.26-.26.26-.53.26v.78a1,1,0,0,1,.79-.26A1,1,0,0,1,314.12,250.15Zm2.35-42c-.27,0-.27,0-.27-.26,0,.26,0,.26-.26.26.26.26.26.26.26.52,0-.26,0-.26.27-.26Zm.26,50.37h-.53l-.26.26c0,.26,0,.26.26.52.27,0,.27,0,.53-.26Zm40.19-94a50.38,50.38,0,0,0-5-4.44,23,23,0,0,0-8.35-2.08,9.1,9.1,0,0,0-3.65-.79A10.35,10.35,0,0,0,336,158a42,42,0,0,0-7.83,2.08c-2.35,2.35-3.91,6.27-4.18,11.75l-.52,3.39-.26,21.67c0,3.39,1.05,5.22,8.09,7.56l4.7,1.05a21.14,21.14,0,0,0,5-.78,28.44,28.44,0,0,1,3.92-1.83,12.88,12.88,0,0,0,8.09-5,18.47,18.47,0,0,0,3.65-4.7h.26l1.57-4.44.78-1a74.91,74.91,0,0,0,.78-12A43.64,43.64,0,0,0,356.92,164.54Zm19.58,82.74c-.27-.52-.79-.52-1.31-.26a1.43,1.43,0,0,0,.78,1.3C376.76,248.06,376.76,247.8,376.5,247.28Zm3.13.26a16.9,16.9,0,0,1-2.61,1v1.31c.26,0,.26,0,.26.26a1.56,1.56,0,0,0,1-.26,8.37,8.37,0,0,0,1.57-2.09ZM377.8,265a1,1,0,0,0-.78-.26v-.53a1.56,1.56,0,0,1,1-.26,1,1,0,0,1,.26.79C378.06,265,378.06,265,377.8,265Zm2.61-96.57v-.79h-.52v.79Zm4.44,92.39c-.79-1-1.31-1.57-1.57-1.3-.26,0-.26,0-.26.26l1.31,1.3Zm1.82-6.79a9.47,9.47,0,0,0-.52-2.87h-.52c-.52,1.83-.26,3.14.78,3.4Zm-.52-85.34-.26-.53h-.52v.53h.78Zm.26,87.43a3.2,3.2,0,0,0-.78,2.35c1,0,1.57-.78,1.57-2.09A1,1,0,0,0,386.41,256.15Zm3.4,7.83h-.52a1.56,1.56,0,0,1-.79-1.56,2.39,2.39,0,0,1,1.31.78Zm1.3-100c.26-.26,0-.78-.26-1h-.78a2,2,0,0,0,.52,1Zm.52,101.27c-.26.26-.26.26-.52.26a1.58,1.58,0,0,1-.26-1.05.93.93,0,0,1,.78.27Zm1.05-96.05a1,1,0,0,0-.26.78,1.44,1.44,0,0,0,.78,1.31c.52,0,.78-.26,1-.79A1.65,1.65,0,0,0,392.68,169.24Zm.26,98.14-.52-.79c.26-.26.52-.52.78-.52a1,1,0,0,1,.78.26C394,266.85,393.72,267.11,392.94,267.38ZM396.33,164a8.83,8.83,0,0,0-3.13,1c0,.79,1,1.83,2.87,3.66a5.85,5.85,0,0,1,1.83-2.09c.26-.78,1.3-.52,1.3-1.31A12.67,12.67,0,0,1,396.33,164ZM394,253.54a1,1,0,0,0-.78.26c0,1,0,1.57.26,1.83,1.31-.26,1.83-.78,1.83-1.83A2.86,2.86,0,0,0,394,253.54Zm5.74-4.43-2.87-2.35-1,.52c0,.78.52,1.3,1.57,1.56v1a1,1,0,0,1-.79.26,1.33,1.33,0,0,1-1.3-1h-1.83c-.26.52.26,1.3,1.57,2.34a3.11,3.11,0,0,0,1,2.09l1.57-1.82a4.89,4.89,0,0,1,2.08-1.83ZM395,263.2h-1.57v-.78c.26-.26.78,0,1.57.26Zm6.78-10.44c.52-1,0-1.57-1.82-1.57l-1.05.53a2,2,0,0,0,.52,1.3Zm-2.09-8.35-.26.26Zm3.66,17.48,1.83-1.82c0-1.05-.26-1.57-1-1.57s-1,.78-2.87,2.61c0,.78.52,1.57,1.83,2.87a8.54,8.54,0,0,0,1.56,2.09,2.36,2.36,0,0,0,1.05-1.57C404.16,263.72,403.38,262.94,403.38,261.89Zm2.61-6.26-.52-1h-.79a1.52,1.52,0,0,0,.27,1Zm14.62,7.31v.52l-.79,1c-.26,1.05-1,1.57-2.87,1.83-.78-1.3,1.31-3.91,3.13-3.91Z"/></svg>