<svg id="Layer_1" data-name="Layer 1" xmlns="http://www.w3.org/2000/svg" viewBox="0 0 500 500"><defs><style>.cls-1{fill:#fff;}</style></defs><title>consort</title><rect class="cls-1" width="500" height="500"/><polygon points="74.66 21.36 84.28 69.48 110.24 21.36 285.24 21.36 295.81 8.15 301.58 21.36 322.74 64.77 331.39 32.68 349.66 27.96 396.77 21.36 475.62 24.19 441 55.33 481.39 54.39 481.39 208.2 491 216.69 484.27 216.69 494.85 230.84 488.12 240.28 482.35 261.98 480.43 354.46 454.46 381.82 483.31 400.69 484.27 474.3 459.27 474.3 444.85 494.11 432.35 474.3 311.2 475.24 328.5 494.11 284.75 474.3 204.42 482.12 211.71 439.56 166.01 489.4 157.35 472.41 24.66 473.35 65.05 429 20.82 439.38 20.82 349.74 5.43 362.01 20.82 329.92 17.93 195.93 28.51 205.37 16.01 174.23 16.97 149.69 27.55 176.11 16.97 114.78 16.97 20.42 37.16 20.42 34.28 36.46 55.43 3.43 56.39 18.53 74.66 21.36"/><path class="cls-1" d="M111.23,402.14a92.23,92.23,0,0,1-4.59,13.12c-2.13.49-9.67,2.13-15.25,2.13-21.81,0-30.83-14.19-30.83-27.23,0-16.89,12.87-28.53,32.47-28.53A64,64,0,0,1,108,363.84c.74,4.51,1.32,8.28,1.89,13.37l-3,.57c-2.71-9.67-9-12.54-15.34-12.54C79.58,365.24,73,376.39,73,388.52c0,15.09,8.12,25,19.27,25,6.81,0,11.89-4.34,16.07-12.62Z"/><path class="cls-1" d="M172.9,388.93c0,17.72-12.71,28.46-28.21,28.46-16.4,0-27.8-12.06-27.8-27.72,0-14.1,10.09-28,28.86-28C160.68,361.71,172.9,372.78,172.9,388.93Zm-43.38-.9c0,14.11,6.15,25.91,16.64,25.91,7.79,0,14.11-7.62,14.11-22.71,0-16.32-6.56-26.08-16.16-26.08C135.91,365.15,129.52,373.84,129.52,388Z"/><path class="cls-1" d="M234.56,365.64c-4.43.25-6.15,1.4-6.56,5.09a115.64,115.64,0,0,0-.74,13.69V417h-3.93l-34.12-40.84H189v18.37a114.71,114.71,0,0,0,.66,13.37c.41,3.6,1.8,5.16,7.87,5.41v2.87H177.41v-2.87c4.59-.33,6.47-1.64,6.8-5.17a96.9,96.9,0,0,0,.82-13.61V377.45c0-5.41-.08-6.88-1.64-8.85s-3.36-2.63-6.89-3v-2.78h15.17l31.41,36h.25V384.42a116,116,0,0,0-.66-13.53c-.41-3.52-2-4.92-8.12-5.25v-2.78h20Z"/><path class="cls-1" d="M269.25,376.22c-1.64-5.16-4.76-11.23-11.4-11.23a7.76,7.76,0,0,0-8,8.12c0,4.51,3,7.05,10.17,10.74,8.61,4.18,14.52,8.77,14.52,16.89,0,9.35-8,16.65-19.93,16.65a29.22,29.22,0,0,1-8.28-1.15,33.34,33.34,0,0,1-4.92-1.8c-.82-2.05-1.89-8.94-2.46-13.86l2.87-1c1.64,5.25,6.48,14.52,14.35,14.52,5,0,8.2-3.45,8.2-8.69,0-4.84-3.61-7.88-9.76-11.16-8.36-4.26-14.27-8.69-14.27-16.56,0-9,7.14-16.07,18.78-16.07a36.34,36.34,0,0,1,11.4,2.13c.33,3,.9,6.72,1.56,11.81Z"/><path class="cls-1" d="M336.73,388.93c0,17.72-12.71,28.46-28.21,28.46-16.4,0-27.8-12.06-27.8-27.72,0-14.1,10.09-28,28.87-28C324.51,361.71,336.73,372.78,336.73,388.93Zm-43.38-.9c0,14.11,6.15,25.91,16.65,25.91,7.79,0,14.1-7.62,14.1-22.71,0-16.32-6.56-26.08-16.15-26.08C299.75,365.15,293.35,373.84,293.35,388Z"/><path class="cls-1" d="M392.66,416.9c-.5,0-1.4-.09-2.46-.09-10.34-.49-13.45-2.78-16.81-7.95-2.14-3.36-4.35-7.79-6.73-12.14-1.31-2.46-2.79-3.52-5.41-3.52h-1.56v12c0,6.81.74,7.54,7,8.12v2.87H341.9v-2.87c6.15-.58,7.05-1.31,7.05-8.12V373.68c0-6.56-.74-7.38-6.72-7.95v-2.87h23c7.21,0,11.31.82,14.68,3a12.53,12.53,0,0,1,5.49,10.91c0,7.21-4.76,11.15-10.25,13.36,1.23,2.46,4.26,7.88,6.72,11.65a67.33,67.33,0,0,0,6.24,8.94,12.42,12.42,0,0,0,5,3.52Zm-30.84-27c3.45,0,6.24-.58,8-2.13,2.79-2.3,3.94-5.58,3.94-9.76,0-8.78-5.09-11.89-9.68-11.89-2.05,0-3.2.32-3.69.82s-.74,1.31-.74,3v19.93Z"/><path class="cls-1" d="M438,376.88c-1-4.26-2.13-7.05-3.61-8.53s-3.52-1.89-8.36-1.89h-3.69v38.79c0,7,.82,7.46,8,8v2.87H403.64v-2.87c6.89-.58,7.71-1.07,7.71-8V366.46h-2.79c-6.8,0-8.28.83-9.43,2.22-1.39,1.39-2.37,4.18-3.44,8.28h-3c.32-6,.82-12,1-16.15h2.05c1.23,1.8,2.3,2.05,4.67,2.05h33a5.35,5.35,0,0,0,4.67-2.05h2.05c.08,3.44.49,10.66.9,15.9Z"/><path class="cls-1" d="M282.44,161.07q-3.33.56-6.66-6.66c-2.58-3-5.17-8.14-7.76-14.06a5.69,5.69,0,0,1-1.48-2.22c-.74-.37-2.22-2.22-4.07-5.18a42.41,42.41,0,0,1-7.4-8.13l-3.7-3.7a55.62,55.62,0,0,1-6.66-5.18c-5.54-1.48-4.07-1.48-11.09-3-6.29-.37-10.36-.74-12.58-.37l-9.62,1.85-6.65,2.22L194,125.19c-1.48,2.59-3.7,6.28-6.29,11.46l-.37.37c-.37,2.59-1.85,7.4-4.07,14.06a4.92,4.92,0,0,1-1.11,2.59,62.11,62.11,0,0,0-2.22,10l-1.48,5.55-.37,14.06c0,3,.74,9.25.74,12.2a30.77,30.77,0,0,0-.74,4.81,11,11,0,0,0,.74,3.7v6.29a54.32,54.32,0,0,0,1.85,7c.37,4.81,1.11,8.51,2.59,10.73.37,4.8,3.33,11.46,8.88,20.34l8.88,8.14a12.75,12.75,0,0,0,4.07,1.85l8.5,2.22H227.7c1.11-.37,3-.37,5.18-.74q12.75-2.77,18.86-13.32l7-8.14A14.13,14.13,0,0,0,262.1,235c.37-1.48,2.59-4.81,5.92-10.72h.37l3.32-4.81,2.22-4.44,3.7-3.33c2.59,0,4.07.74,5.18,2.59a2.77,2.77,0,0,0,.37,1.85A82.46,82.46,0,0,1,282.07,228c-.74.73-1.11,3.69-1.48,8.5-1.48,1.48.37,8.14-3.7,24.79a15.31,15.31,0,0,1-3.69,4.06L271,266.48c-1.85,0-7.4,0-17.39.37a153.56,153.56,0,0,1-16.27,1.85c-.74.37-3.33.37-7.4.37l-2.59,1.11A77.09,77.09,0,0,0,214,272.77H202.18c-1.11-.37-5.18-.37-11.84,0a71.67,71.67,0,0,1-8.14-2.22c-1.85,0-3-.37-3.33-.74-3.33-.37-7.39-1.11-12.57-2.22q-3.88-1.11-11.1-5.55c-.37-.37-1.11-.37-2.22-.73a20.69,20.69,0,0,1-9.62-5.55l-7-5.55L133,245.4c-1.85-1.11-4.44-3.7-7.77-7a20,20,0,0,1-4.81-8.88,8.74,8.74,0,0,1-2.22-4.06,105.3,105.3,0,0,1-3-10.36,56.11,56.11,0,0,0-1.11-8.88,5,5,0,0,0-.37-1.85v-2.22l-1.11-20.34a2.22,2.22,0,0,0,.37-1.48c.37-2.22.37-5.92.74-10.73,1.11-7,3-12.57,5.92-17.38l2.59-7,.74-1.48a168.49,168.49,0,0,1,14.8-18.86l8.5-7.4,1.48-1.11a31.58,31.58,0,0,1,7-2.22,14.56,14.56,0,0,1,4.81-1.48,28.65,28.65,0,0,0,4.44-3.7c2.59-1.48,6.66-2.59,12.2-3a69,69,0,0,0,7-1.85c1.11,0,4.81-.37,10.73-.74h9.25c2.59-1.48,8.87-1.85,18.12-1.48a5.49,5.49,0,0,1,2.59-.37l.37.74v1.85c.37-.37.37-.37.74-.37a7.22,7.22,0,0,0-.37-2.59,41.64,41.64,0,0,1,14.8,3.33,18.12,18.12,0,0,1,4.06.37h15.91a41.25,41.25,0,0,0,8.51-1.11,8.33,8.33,0,0,0,2.59-.37h5.91l.37.37c3.33,1.11,5.18,4.44,5.55,9.62l.74,4.07c.37,4.81.37,12.21.74,21.82a46.17,46.17,0,0,1,1.48,12.95C285.4,154.41,284.29,157.37,282.44,161.07Zm-149.8,39.2c-2.59-.74-4.07-1.85-4.07-3.7-1.85-1.84-3.33-2.21-4.07-1.84a18.9,18.9,0,0,0,.74,3.32l.74,1.48c0,.74-.37,1.11-1.11,1.48a2.78,2.78,0,0,0,1.85,2.59,2.68,2.68,0,0,0-1.48,2.22c0,.74,0,1.11.37,1.48h3a9.21,9.21,0,0,0,2.59,1.85h1.11c0-1.11,3-4.81,3-6.29Zm-7-19.23v1.85c.37.37.37.37.74.37h1.11c1.48-3.7,2.22-4.81,2.22-3.7C128.57,179.56,126,181,125.61,181Zm4.81,33.66c-1.11-.37-1.85-1.48-1.85-3.33h-1.85a2.81,2.81,0,0,0-.74,1.48,5.4,5.4,0,0,0,1.85,3c1.11,0,2.22,0,2.59-.37Zm27.74-7.77V203.6q-1.66,0-1.11-3.33c-.37-.74-.37-1.48.74-2.22-1.11-.37-1.48-1.84-1.48-3.69v-5.18c.74-1.11,2.22-1.48,4.44-1.48q.56-.55,0-2.22L158.9,184c0-1.48-.74-3-2.59-4.44,0-1.11,2.22-3,1.85-4.44a16.34,16.34,0,0,1-1.11-3c1.11-2.59,1.11-4.44.74-4.81h-.74c-.37,0-.37,0-.37-.37h-.74l-.37-3.33c1.11-1.11,1.48-1.84,1.48-2.21l-1.11-1.11a5.27,5.27,0,0,1-4.44-2.22,9.41,9.41,0,0,0-2.59.74,2.22,2.22,0,0,1,.37-1.48V157a5.26,5.26,0,0,0-2.22-.74,4.66,4.66,0,0,0-1.48,2.59c-2.59,1.85-3.7,2.59-4.07,2.59h-.37c0,1.1.37,3.32,0,3.69-.37,1.11-1.85,2.22-4.43,3.7,0,2.59.74,3.7,1.85,4.07.37.74.37,1.11,0,1.48-.37,0-.37-.37-.37-.74-1.11,0-1.48.74-1.11,2.59-.37,1.85-.37,3,.37,4.07.37,1.11-.74,1.85-2.59,2.22v.74l.74.74c.37,1.85-3.33,2.59-3.33,4.44a6,6,0,0,1,3.33,1.48,9.41,9.41,0,0,1-.74,2.59c-.37.37-.37.37,0,.74a1.36,1.36,0,0,1,.37,1.11c-1.85,1.47-2.22,2.95-1.85,4.06A5.6,5.6,0,0,1,136,203.6a9.41,9.41,0,0,1,.74,2.59,5.35,5.35,0,0,1-.74,2.59l.74.74c1.48.37,2.22,1.11,2.22,1.85s-1.11,1.48-3.33,2.22v1.11c.37.37,4.07,2.22,4.07,2.59,0,2.22,0,3.33.37,3.7h2.21l2.22-2.22a6.55,6.55,0,0,1,3,1.85,16.28,16.28,0,0,0-3.7.74c0,1.85-.74,2.59-2.22,2.59-.37.37-.74,1.48-.74,3.33l1.11.37c1.48,0,2.22-.74,2.59-2.59l3.33-3h2.59l5.18,5.18a2.24,2.24,0,0,0,2.22-1.11c-.37-2.59,0-4.44.74-5.55,0-2.59-.74-3.7-.74-4.81a14.55,14.55,0,0,1,.74-2.22c-.37-3-.74-4.81-.37-5.18a3.38,3.38,0,0,0,1.85,1.11,2.22,2.22,0,0,0,1.48-.37Q161.49,206.93,158.16,206.93Zm-23.3,18.13-.74-.74h-1.48v.37l1.48.74Zm.74-15.91c-1.11,0-1.48.37-1.48,1.11Zm3.33,19.6h-.74v1.11c.37,0,.37,0,.74-.37Zm7-.36a1.38,1.38,0,0,0-1.11.36v1.85a1.36,1.36,0,0,0,1.11-.37Zm3.7,5.17c0-1.11-.37-1.48-1.48-1.48-.37.37-.37,1.11.37,2.22Zm1.11-8.87a1.36,1.36,0,0,0-1.11-.37,1.55,1.55,0,0,0-1.48,1.48c0,.37.37.74.74,1.11,1.11,0,1.48,0,1.85-.37Zm-1.85-69.54a1.36,1.36,0,0,1,.37,1.11,2.78,2.78,0,0,0,1.85-2.59Zm3.33,73.24c0,1.1.74,1.84,2.59,3a5.69,5.69,0,0,0,1.48,2.22c1.11-.37,1.85-.74,1.85-1.11a2.81,2.81,0,0,0-.74-1.48C155.2,229.13,153.35,228.39,152.24,228.39ZM163,200.27a11.81,11.81,0,0,0,2.59-2.22,4.39,4.39,0,0,0-3-3.32L160,193.25l1.48,3a5,5,0,0,1-3,2.58v1.11l4.44,5.55h.37v.37c1.85,0,2.59-.74,2.59-2.22A3.24,3.24,0,0,1,163,200.27Zm-2.22-35.88h-1.11c-.37,1.11-.74,1.48-.37,1.85a2.77,2.77,0,0,1,1.85-.37C161.12,165.13,161.12,164.76,160.75,164.39Zm-1.11,6.66c0,1.11,0,1.48.37,1.85.74,0,1.11,0,1.48-.37C161.49,171.05,160.75,170.68,159.64,171.05Zm12.57,69.54a4.73,4.73,0,0,0,1.49-3.7,13.6,13.6,0,0,0-1.85-5.92h-2.22v3c-.74.37-1.85-.37-3.7-1.85a3.38,3.38,0,0,1-1.85-1.11c.37-.74,1.48-1.11,4.07-1.11l2.59-2.21c0-2.59-.74-3.7-2.59-3.33a28.1,28.1,0,0,0-4.07,1.48,9.41,9.41,0,0,1-.74,2.59h-1.48A4,4,0,0,0,160,228a2.76,2.76,0,0,0-.37,1.84c1.85.74,2.59,1.48,2.59,2.59s-1.85,2.22-1.85,3.7c0,.37.37.37.74.37a6.25,6.25,0,0,1,1.85-.74c.74,0,1.11.37,1.48,1.11a7.44,7.44,0,0,0-.37,4.44,13.29,13.29,0,0,0,3.7,2.59c.37-.37,1.11-.37,1.85-.74V241.7a2,2,0,0,1-1.11-1.85,2.81,2.81,0,0,1,.74-1.48l1.85,2.22Zm-8.87-58.07V184c.37.37,1.11.37,2.22.74a4,4,0,0,0,1.11-1.85c.37-.74.37-1.48-.37-1.85A5.17,5.17,0,0,1,163.34,182.52Zm.37-7c0,.37,0,.74.37.74,1.11,0,1.48-.37,1.11-.74Zm3,16.65a4.31,4.31,0,0,0-.74-2.59c-1.11,0-1.48,0-1.85.37v.37a9.81,9.81,0,0,1,2.22,1.85ZM165.19,248c0-.37,0-.37-.37-.74h-.74V248h1.11Zm.74-80.64c-.74-.37-1.11-.37-1.48.37s-.37,1.11.74,1.48h.74Zm-.37-4.81v-.36h-.74l-.37.36c0,.38,0,.38.37.38ZM169.63,221l-.74-.37-1.11,1.11a2.81,2.81,0,0,0,.74,1.48,1.36,1.36,0,0,0,1.11-.37A1.65,1.65,0,0,0,169.63,221Zm3,27c0-.37,0-.37-.37-.74h-.36V248Zm3.7,10.36v-1.11a.69.69,0,0,0-1.11,0v1.11Zm6.29,0c0-1.11-.37-1.48-1.48-1.48-.37.37,0,1.11.37,1.48Zm4.07-149.81a4.58,4.58,0,0,0-.74-1.11h-.74v1.11Zm2.22,152h-.74v.37l.37.37c0-.37,0-.37.37-.37Zm67.69-136.49v-.37h-.74l.37.37Zm1.11-11.47v-.37h-.37v.37Zm3.7,11.1h-.74v.37h.74Zm1.85,4.44h-.37v.37Zm5.55-23.31a4.65,4.65,0,0,0-3.7,2.59l3,2.22a7.94,7.94,0,0,0,1.48-2.59A3.13,3.13,0,0,1,268.76,104.84Z"/><path class="cls-1" d="M387,234.49a1,1,0,0,0-.79.26v.52c.26,0,.26,0,.26.26-.26,2.61-1,3.92-1.82,4.18l-.26-.52c-.53,0-.79-.26-.79-.52h-2.09l-1.56,1c.26.26.26.52.26,1H381V241a1,1,0,0,1,.79.27h.26v.26a5.58,5.58,0,0,1,1,1.82c.26,1.57-1,4.18-3.91,7.57a36.07,36.07,0,0,1-4.44,5L369,261.37h-.26a23.13,23.13,0,0,1-3.92,1.31c-.26.26-.52.26-1.3.52-.79,1.3-2.61,2.61-5.22,4.18l-4.44,1a61.29,61.29,0,0,0-13.57,2.09h-3.66c-.26-.26-.26-.26-.52-.26h-9.39a39.3,39.3,0,0,1-5.49-1.31l-4.69-.52a7.23,7.23,0,0,1-2.35-.26l-9.66-.52c-.26,0-.26,0-.26-.26-6-.27-9.4-.27-10.44.26-3.13,0-5.22-.79-6.27-2.09a2,2,0,0,0-.26-1.31,29.37,29.37,0,0,0-.78-5.74c-.26-3.91-.26-6.26,0-6.52,0,1.82-.26-3.14-.78-15.14a40.86,40.86,0,0,0,0-8.09,5.15,5.15,0,0,1-.26-1.83,2.62,2.62,0,0,1,1.56-2.61,4.68,4.68,0,0,1,2.87.78c1.57,3.14,3.4,6.79,5.75,10.7a52.51,52.51,0,0,1,4.69,8.36h.26c.53,1.56,2.61,3.91,6.27,7.3,1.83,2.88,3.65,5,5.74,5.75l.78.52c1.05,1,3.92,3.13,12.53,5.22a146123601141123.84,146123601141123.84,0,0,0,5.22,1.56,9.47,9.47,0,0,0,3.66.53c6,0,6.26-1.57,11.48-3.66a13.91,13.91,0,0,0,3.92-3.91l2.34-1.83a13.09,13.09,0,0,0,2.61-5.48c.27-.26.53-1.57.53-4.44,0-1-.26-1.3-1.05-5.22a20,20,0,0,1-3.91-4.7,72.59,72.59,0,0,0-6.27-4.43c-.78-.79-2.87-1.31-6.26-2.09a19.12,19.12,0,0,1-4.18-1.31h-.52c-.52-.52-2.35-1.3-5.48-2.61a33,33,0,0,1-8.61-2.61,33.35,33.35,0,0,0-7.83-2.87c-1.57-.52-4.18-1.82-8.09-3.65a7.84,7.84,0,0,0-3.92-2.35l-1.57-1c-1.3-1.83-3.39-4.7-6-9.14l-2.09-3.91-1.56-5c0-.26,0-.26-.26-.26V181c.78-2.08,1.56-5.22,2.87-9.65l6.26-9.4,5-4.18,2.35-1.82a16.38,16.38,0,0,1,7.05-2.61l4.43-1.57,2.09-1.3,2.61-.79h11.49a21.12,21.12,0,0,1,4.17-.26c2.09,0,4.44.26,7.05.52,1.83.27,4.18.53,7.57,1.31a2,2,0,0,0,1.3.26l5.48.78a15,15,0,0,1,4.7.26c10.7,1.05,9.4-1.3,10.7,9.92.79,1.31,1.05,3.66,1.05,7.05a3.69,3.69,0,0,0-.52,1.57,18.31,18.31,0,0,0,.78,3.65,42.5,42.5,0,0,1,.26,5.48c.26,2.35-.26,3.65-1.57,4.44h-1.3a20.52,20.52,0,0,1-3.13-5,35.79,35.79,0,0,0-3.14-4.44,15.26,15.26,0,0,0-2.87-3.65,17.55,17.55,0,0,1-1.82-4.44l-.79-1-3.91-2.61c-4.44-5.22-9.14-8.09-14.1-8.35-.78-.27-2.08-.27-3.39-.53H330.4c-1.83.26-3.92,1.57-6,3.4a36.66,36.66,0,0,0-5.48,4.17l-1.31,4.44a3.88,3.88,0,0,0-.26,1.83,17.54,17.54,0,0,0,.78,4.69c.26,0,.26.27.52.79L321,176c1.05,1.83,4.44,4.18,10.18,7.57l1.31.26,9.65,3.14.79.26,2.61,1c.78.79,3.39,1.83,8.09,2.61a37.35,37.35,0,0,1,4.17,1.31l6.53,3.39L369,198a28.41,28.41,0,0,0,6.78,5,18.13,18.13,0,0,1,5.74,6.78c.27,1.05.27,1.57.53,1.83a45.28,45.28,0,0,1,3.13,5c1.3,8.61,1.83,12.27,1.83,11.22ZM300.12,174.2v-.52c0-.26,0-.26-.26-.26l-2.61,5.21v1.57l.26.26,2.09-2.61a5.77,5.77,0,0,0-.78-2.09ZM303,200.56a.69.69,0,0,0-.78-.78c-.26.26,0,.52.26.78Zm1.57,6.26a1.36,1.36,0,0,0,.52,1.05,1,1,0,0,1,.78-.26A2.77,2.77,0,0,0,304.56,206.82Zm.78-3.91h-.52v.52h.52Zm8.35-23.49c-1.56-1.31-2.61-2.09-3.39-1.83v.26c1.83,1.57,2.61,3.13,2.61,4.44-.26,0-.26,0-.52.26-2.35.26-3.65,1.3-3.65,3.13a1.56,1.56,0,0,0,1,.26c.26-.52.78-.52,1.57-.26,0,.52-.53.78-1.31,1a5.27,5.27,0,0,0,.52,2.35,23.5,23.5,0,0,0,3.13-1.83c.27-.26,1.05.26,1.83,1h1.83a16.43,16.43,0,0,0,1-3.65A66.11,66.11,0,0,1,313.69,179.42Zm-2.34,17.49h-.27c-1,.52-1.56,1-1.3,1.3a5.15,5.15,0,0,0,1.83-.26A1.56,1.56,0,0,1,311.35,196.91Zm-.53,4.69c-.52.26-.78.53-.78.79a2,2,0,0,0,.52,1c1.05,0,1.57-.26,1.57-.78a2,2,0,0,0-.52-1.05Zm5.22-7.83a1,1,0,0,0,.26-.78c0-.52-.52-1-1.3-1.57a3.7,3.7,0,0,0-.52-1.56h-1.31a7.29,7.29,0,0,1-2.87,1.3v2.35l1.57,1.57c.26.26.78.26,1.3.52a3.29,3.29,0,0,1,1.05-1.83ZM314,205.26V205c-.27,0-.27,0-.53.26H314Zm45.15,13.31a4.47,4.47,0,0,0-1.57-3.13v-1.05a4.18,4.18,0,0,0,1-2.35,2,2,0,0,0-.52-1.3,16.72,16.72,0,0,1-.27-2.87c-.26-.26-1,.52-2.61,1.82a7,7,0,0,0-.26,1.83,6.55,6.55,0,0,1-2.09-.26l-2.6-3.13c-.27-.52,0-1,.52-1.83,0-1.3-.26-2.09-1.05-2.61-.26-.52-.26-1.3.53-2.35a8.36,8.36,0,0,0,2.08-.26l.52-1h2.09a3.21,3.21,0,0,0,2.35,1v-.52c-1.82-1.57-5-2.61-9.39-2.87h-2.61c-.27-.78-1-1.05-2.09-1.05,0,.27-.52,1.05-.52,1.31.26.26.26.52.52.52,0,.52-.52,1.05-1.31,1.31l-2.09.52c-.26,1-1.3,1.56-3.13,1.3a2.85,2.85,0,0,0-1,1.31,6.14,6.14,0,0,1-5.22-3.13,16.29,16.29,0,0,1-2.87-.53V198a2.39,2.39,0,0,0-1.31-.78,1.43,1.43,0,0,0-1.3.78,4.21,4.21,0,0,1-2.09.78,11,11,0,0,1,1.83-1.82c.26-1.57,0-2.35-.26-2.62s-1,0-1.83.79c0,.26-.26.52-.78,1H320l-.52-.78a1.59,1.59,0,0,0-1.05.26,1.56,1.56,0,0,0,.26,1c.27-.26.53-.26,1.05-.26V198l1.56,1.57-.52,1a3.64,3.64,0,0,1-1-1.83,4.05,4.05,0,0,1-1.57-1,3.54,3.54,0,0,0-2.35,0,4.25,4.25,0,0,0,0,2.61c0,.26-1.56,1.3-1.56,2.09l.78.78a5.15,5.15,0,0,0,1.83-.26,4.65,4.65,0,0,1,.26-1.57h1c1.31,1,1.83,1.83,1.31,2.61-.79.26-1.31.52-1.31,1.31,1.05.78,2.87-1,3.66-.79a1.6,1.6,0,0,1,.26,1.05,4,4,0,0,0,2.87.52l1.3,1c.26,1.83,1,2.35,1.83,1.57,0-1.3.26-1.83.78-1.83l1.05,1.83a2.2,2.2,0,0,1,1.56.52h2.09c.78,1.31,1.83,1.83,3.65,1.31a3.57,3.57,0,0,1,1.05,1.82c3.39.79,4.7,1,3.91,1a1.58,1.58,0,0,1,1.05.26,10.22,10.22,0,0,1,1.56-.52,5.63,5.63,0,0,0,.53,3.39c.78-.26,1-1,1-2.35l-.78-1c.26-.26.78-.26,1,.52a13.94,13.94,0,0,1,3.66-.26,4.83,4.83,0,0,0-1.31,2.61c0,.78,1-.78,3.39,3.13,2.09.26,2.61.26,2.87,2.35l2.61,1.3.27-.26v-1l-.27-.78Zm-34.19-29.49a6.89,6.89,0,0,0-3.66-1.31V188l1.05,1.05a2.28,2.28,0,0,1-2.09,2.34c-.52.53-.26,1.05.78,1.83l.52.52a5.71,5.71,0,0,0,1.83-1.82,2.63,2.63,0,0,1,1.57-1.31Zm1.83,23.49-3.14,1.56a1.49,1.49,0,0,0,1.31,2.09h.52l.52-1.83a3.86,3.86,0,0,0,1.57-1.82Zm-2.35-3.4c-.53,0-.79.26-.79.52a1.6,1.6,0,0,1,.26,1.05c.26-.26.26-.26.53-.26Zm6.52,7.57c-.26-1.56-1.3-2.35-2.61-2.09-.78,2.35-1,3.14-1,2.61a1,1,0,0,0,1.3-.26,8.33,8.33,0,0,1,2.61.79l.52-.27c0-.26,0-.26.26-.26A2,2,0,0,0,330.92,216.74Zm-2.35-7.05a1.58,1.58,0,0,0,.26,1.05c1.05,0,1.57-.26,1.57-.52a2,2,0,0,0-.52-1.05C329.09,209.17,328.57,209.43,328.57,209.69Zm6.27-10.7v-1.82c.52-.26.52-1,.26-1.83-.26-1.31-.79-1.57-1.57-1.05v2.35a3.88,3.88,0,0,1-1.83.79,1,1,0,0,0-.26.78l.79.52a8.56,8.56,0,0,0,2.08,2.87c.27,0,.53-.26,1.05-.52A6.23,6.23,0,0,0,334.84,199Zm-3.14-7q-.39,1.17,0,1.56a4.65,4.65,0,0,1,1.57-.26C333.27,192.47,332.75,192,331.7,192Zm.26,20.62v.78a1,1,0,0,0,.79-.26C332.49,212.83,332.23,212.57,332,212.57Zm8.88,3.65c0-.78,0-1-.26-1.31-.79,0-1.31.27-1.31.79a2,2,0,0,0,1.31.52Zm2.35,1-.26-.26a1,1,0,0,1-.79.26c0,.26.27.53.53.79l.52-.26Zm.52-13.83-.52-.52c.52-.78,1-1.31,1.82-1.31.27,0,.53.26.79.53C345.8,202.91,345,203.17,343.71,203.43Zm6.26,21.4c-.26-1-1.56-1.82-1.56-2.61h-.78c-.27.26-.53.52-.53.79,0,.78.79,1.3,2.09,1.82Zm1.83,1.57v-.52c-.26,0-.26,0-.52-.26l-.26.52c.26.26.26.26.52.26Zm.78-11.75h-.52c-.78-.78-1-1-.78-1.3h.52Zm.53,8.09c-.27-.26-.27-.26-.27-.52h-1.3a1.59,1.59,0,0,0,.26,1.05c.78-.26,1.31-.26,1-.26Zm1.56-8.09v1.83a3.92,3.92,0,0,0-1.83.26l-.78-.78c0-.52.52-.78,1.83-1.05,0-.26-.26-.26-.52-.26a7.73,7.73,0,0,0,1.82-2.08h1.31a1,1,0,0,1,.26.78A6.65,6.65,0,0,0,354.67,214.65Zm-.52-7h-1.31a1.56,1.56,0,0,0-.26,1l.53.52a1.56,1.56,0,0,0,1-.26Zm-.52-5-.26.26c0,.26,0,.26.26.52.26-.26.52-.26.52-.52C353.89,202.65,353.89,202.65,353.63,202.65ZM358.07,223c-.27,0-.27,0-.53.26-.78.26-1.56,1.3-2.35,3.13l.27.52a4.47,4.47,0,0,0,2.61-2.35ZM356,205.26h-.26v.52l.52.52c.26-.26.26-.26.52-.26A.69.69,0,0,0,356,205.26Zm3.13,35.49v-.26h-.52v.26Zm8.09-9.13M369,253.54v-.26c0,.26,0,.26-.26.26Zm.78,6.53v.26c.26,0,.26,0,.26-.26ZM381,234.23c-.78-1.57-1-1.83-1-1h-.26v.27l.52.78Zm-.52-2.87c0-.26,0-.26-.26-.26v-.26c-.26,0-.26,0-.26.26h.26c0,.26,0,.26.26.52Z"/></svg>