<svg id="Layer_1" data-name="Layer 1" xmlns="http://www.w3.org/2000/svg" viewBox="0 0 500 500"><defs><style>.cls-1{fill:#fff;}</style></defs><title>skirmish</title><rect class="cls-1" width="500" height="500"/><polygon points="74.66 21.36 84.28 69.48 110.24 21.36 285.24 21.36 295.81 8.15 301.58 21.36 322.74 64.77 331.39 32.68 349.66 27.96 396.77 21.36 475.62 24.19 441 55.33 481.39 54.39 481.39 208.2 491 216.69 484.27 216.69 494.85 230.84 488.12 240.28 482.35 261.98 480.43 300.51 454.46 327.87 483.31 323.05 484.27 474.3 459.27 474.3 444.85 494.11 432.35 474.3 311.2 475.24 328.5 494.11 284.75 474.3 204.42 482.12 211.71 439.56 166.01 489.4 157.35 472.41 24.66 473.35 65.05 429 20.82 439.38 20.82 349.74 5.43 362.01 20.82 329.92 17.93 195.93 28.51 205.37 16.01 174.23 16.97 149.69 27.55 176.11 16.97 114.78 16.97 20.42 37.16 20.42 34.28 36.46 55.43 3.43 56.39 18.53 74.66 21.36"/><path class="cls-1" d="M87.74,376.22C86.1,371.06,83,365,76.34,365a7.75,7.75,0,0,0-8,8.12c0,4.51,3,7.05,10.17,10.74,8.61,4.18,14.51,8.77,14.51,16.89,0,9.35-7.95,16.65-19.92,16.65a29.24,29.24,0,0,1-8.29-1.15,34.26,34.26,0,0,1-4.92-1.8c-.82-2.05-1.88-8.94-2.46-13.86l2.87-1c1.64,5.25,6.48,14.52,14.35,14.52,5,0,8.2-3.45,8.2-8.69,0-4.84-3.61-7.88-9.75-11.16-8.37-4.26-14.27-8.69-14.27-16.56,0-9,7.13-16.07,18.78-16.07a36.26,36.26,0,0,1,11.39,2.13c.33,3,.91,6.72,1.56,11.81Z"/><path class="cls-1" d="M135.55,416.16c-3.53-4.84-10.33-14.43-16.16-23-1.72-2.46-2.78-2.95-4-2.79v14.76c0,7.05.73,7.54,7.05,8.12v2.87H97.91v-2.87c5.9-.58,6.72-1.07,6.72-8.12V373.84c0-7-.73-7.54-6.88-8.11v-2.87h24.1v2.87c-5.82.57-6.47,1.06-6.47,8.11v14c1.72-.5,3.77-1.81,6.23-4.35a117.22,117.22,0,0,0,11.48-13.28c2-2.55,1.8-3.78-2.05-4.27l-1.48-.16v-2.87h21.32v2.87c-5.08.49-8.44,1.47-12.95,5.74-4.84,4.43-8.29,8.36-12,12.13,5.25,7.88,11.32,16.16,17.22,23.62,3.37,4.26,5.58,5.58,8.86,6.07v2.87Z"/><path class="cls-1" d="M155.39,416.16v-2.87c6.15-.58,6.89-1.15,6.89-8V373.84c0-7-.74-7.54-6.89-8.11v-2.87h24.68v2.87c-6.15.57-6.8,1.06-6.8,8.11v31.41c0,6.89.65,7.46,6.8,8v2.87Z"/><path class="cls-1" d="M237,416.9c-.49,0-1.39-.09-2.46-.09-10.33-.49-13.45-2.78-16.81-7.95-2.13-3.36-4.35-7.79-6.72-12.14-1.32-2.46-2.79-3.52-5.42-3.52H204v12c0,6.81.73,7.54,7,8.12v2.87H186.22v-2.87c6.15-.58,7.05-1.31,7.05-8.12V373.68c0-6.56-.73-7.38-6.72-7.95v-2.87h23c7.22,0,11.32.82,14.68,3a12.53,12.53,0,0,1,5.49,10.91c0,7.21-4.75,11.15-10.25,13.36,1.23,2.46,4.27,7.88,6.73,11.65a67.54,67.54,0,0,0,6.23,8.94,12.49,12.49,0,0,0,5,3.52Zm-30.83-27c3.44,0,6.23-.58,8-2.13,2.79-2.3,3.94-5.58,3.94-9.76,0-8.78-5.08-11.89-9.68-11.89-2.05,0-3.19.32-3.69.82s-.73,1.31-.73,3v19.93Z"/><path class="cls-1" d="M283.64,416.16v-2.87c6.15-.66,6.56-1.23,6.56-8.78L290,372.94h-.4L271.5,415.58h-2.29l-16.73-41.82h-.33l-1,21.41c-.41,6.8-.33,10.66,0,13.2.32,3.69,1.88,4.43,7.37,4.92v2.87H238.78v-2.87c4.68-.41,6.15-1.81,6.73-4.76a148.37,148.37,0,0,0,1.72-15.5l1.31-16.23c.66-9.27.08-10.42-7-11.07v-2.87h17l15.75,35.91,16.07-35.91h16.57v2.87c-6.56.65-6.89,1.31-6.73,8.11l.74,30.67c.16,7.55.57,8.12,7,8.78v2.87Z"/><path class="cls-1" d="M313.24,416.16v-2.87c6.15-.58,6.89-1.15,6.89-8V373.84c0-7-.74-7.54-6.89-8.11v-2.87h24.68v2.87c-6.15.57-6.8,1.06-6.8,8.11v31.41c0,6.89.65,7.46,6.8,8v2.87Z"/><path class="cls-1" d="M374.57,376.22c-1.64-5.16-4.75-11.23-11.39-11.23a7.75,7.75,0,0,0-8,8.12c0,4.51,2.95,7.05,10.17,10.74,8.61,4.18,14.51,8.77,14.51,16.89,0,9.35-7.95,16.65-19.92,16.65a29.22,29.22,0,0,1-8.28-1.15,33.34,33.34,0,0,1-4.92-1.8c-.82-2.05-1.89-8.94-2.46-13.86l2.87-1c1.64,5.25,6.47,14.52,14.35,14.52,5,0,8.2-3.45,8.2-8.69,0-4.84-3.61-7.88-9.76-11.16-8.37-4.26-14.27-8.69-14.27-16.56,0-9,7.13-16.07,18.78-16.07a36.34,36.34,0,0,1,11.4,2.13c.32,3,.9,6.72,1.55,11.81Z"/><path class="cls-1" d="M442.72,365.73c-6.4.57-6.89,1.06-6.89,8v31.57c0,6.89.65,7.38,6.89,8v2.87h-25v-2.87c6.47-.58,7.13-1.07,7.13-8V390H402.45v15.25c0,7,.66,7.46,6.73,8v2.87H384.74v-2.87c6-.58,6.72-1.07,6.72-8V373.76c0-7-.73-7.46-7-8v-2.87H409v2.87c-5.9.57-6.56,1.06-6.56,8v12.06h22.39V373.76c0-7-.66-7.46-6.81-8v-2.87h24.69Z"/><path class="cls-1" d="M243.05,221a1.36,1.36,0,0,0-1.11.37v.74c.37,0,.37,0,.37.37-.37,3.7-1.48,5.55-2.59,5.92l-.37-.74c-.74,0-1.11-.37-1.11-.74h-3l-2.22,1.48c.37.36.37.74.37,1.47h1.11v.37a1.36,1.36,0,0,1,1.11.37H236V231a7.94,7.94,0,0,1,1.48,2.59c.37,2.22-1.48,5.92-5.55,10.73a50.87,50.87,0,0,1-6.29,7l-8.13,7.77h-.37a32.56,32.56,0,0,1-5.55,1.85c-.37.37-.74.37-1.85.73-1.11,1.85-3.7,3.7-7.4,5.92l-6.29,1.48c-5.18,0-11.46,1.11-19.23,3h-5.18c-.37-.37-.37-.37-.74-.37H157.6a55.11,55.11,0,0,1-7.76-1.85l-6.66-.74a10.24,10.24,0,0,1-3.33-.37L126.16,268c-.37,0-.37,0-.37-.37-8.5-.37-13.31-.37-14.79.37-4.44,0-7.4-1.11-8.88-3a2.77,2.77,0,0,0-.37-1.85,41.44,41.44,0,0,0-1.11-8.13c-.37-5.55-.37-8.88,0-9.25,0,2.59-.37-4.44-1.11-21.45a57.71,57.71,0,0,0,0-11.47,7.22,7.22,0,0,1-.37-2.59,3.71,3.71,0,0,1,2.22-3.7,6.65,6.65,0,0,1,4.07,1.11c2.22,4.44,4.81,9.62,8.14,15.17a74.71,74.71,0,0,1,6.66,11.83h.37c.73,2.22,3.69,5.55,8.87,10.36,2.59,4.07,5.18,7,8.14,8.14l1.11.74c1.48,1.48,5.55,4.44,17.75,7.4a11.4,11.4,0,0,0,3.7,1.11,11,11,0,0,0,3.7,1.1,13.72,13.72,0,0,0,5.18.74c8.51,0,8.88-2.22,16.28-5.17a19.71,19.71,0,0,0,5.54-5.55l3.33-2.59c1.85-2.59,3.33-5.18,3.7-7.77.37-.37.74-2.22.74-6.29,0-1.48-.37-1.85-1.48-7.4q-2.22-1.65-5.55-6.65a101.17,101.17,0,0,0-8.87-6.29c-1.11-1.11-4.07-1.85-8.88-3a27.73,27.73,0,0,1-5.92-1.85h-.74c-.74-.74-3.33-1.85-7.77-3.7a47,47,0,0,1-12.2-3.7c-4.81-2.22-8.51-3.7-11.1-4.07-2.22-.74-5.92-2.59-11.47-5.17a11.18,11.18,0,0,0-5.54-3.33l-2.22-1.48c-1.85-2.59-4.81-6.66-8.51-12.95l-3-5.55-2.22-7c0-.37,0-.37-.37-.37V145.16c1.11-3,2.22-7.4,4.07-13.69l8.88-13.31,7-5.92,3.33-2.59a23.3,23.3,0,0,1,10-3.7l6.29-2.22,3-1.85,3.7-1.11h16.27a29.91,29.91,0,0,1,5.92-.37c3,0,6.29.37,10,.74,2.59.37,5.91.74,10.72,1.85a2.77,2.77,0,0,0,1.85.37l7.77,1.11c1.85-.37,4.07,0,6.66.37,15.16,1.48,13.31-1.85,15.16,14.06,1.11,1.85,1.48,5.18,1.48,10a5.22,5.22,0,0,0-.74,2.21,25.92,25.92,0,0,0,1.11,5.18,60.06,60.06,0,0,1,.37,7.77c.37,3.33-.37,5.18-2.22,6.29h-1.85a28.68,28.68,0,0,1-4.43-7,50.33,50.33,0,0,0-4.44-6.29,21.66,21.66,0,0,0-4.07-5.18,24.67,24.67,0,0,1-2.59-6.28L205,124.08l-5.55-3.7c-6.29-7.4-12.94-11.47-20-11.84-1.11-.37-3-.37-4.81-.74H162.78c-2.59.37-5.55,2.22-8.51,4.81a53.79,53.79,0,0,0-7.76,5.92l-1.85,6.29a5.49,5.49,0,0,0-.37,2.59,24.87,24.87,0,0,0,1.11,6.65c.37,0,.37.37.74,1.11l3.33,3c1.48,2.59,6.28,5.92,14.42,10.73l1.85.37,13.69,4.44,1.11.37,3.7,1.48c1.11,1.11,4.8,2.59,11.46,3.7a52.69,52.69,0,0,1,5.92,1.85l9.25,4.8,6.66,3.33a40,40,0,0,0,9.61,7,25.77,25.77,0,0,1,8.14,9.62c.37,1.48.37,2.22.74,2.59a62.29,62.29,0,0,1,4.44,7c1.85,12.21,2.59,17.39,2.59,15.91ZM119.88,135.54v-.74c0-.37,0-.37-.38-.37l-3.69,7.4v2.22l.37.37,3-3.7a8.11,8.11,0,0,0-1.11-3Zm4.06,37.36a1,1,0,0,0-1.11-1.11c-.37.37,0,.74.37,1.11Zm2.22,8.88a1.92,1.92,0,0,0,.74,1.48,1.36,1.36,0,0,1,1.11-.37A4,4,0,0,0,126.16,181.78Zm1.11-5.55h-.74V177h.74Zm11.84-33.29c-2.22-1.85-3.7-3-4.81-2.59v.37c2.59,2.22,3.7,4.44,3.7,6.29-.37,0-.37,0-.74.37-3.33.37-5.18,1.85-5.18,4.44a2.22,2.22,0,0,0,1.48.37c.37-.74,1.11-.74,2.22-.37,0,.74-.74,1.11-1.85,1.48a7.39,7.39,0,0,0,.74,3.33,32.4,32.4,0,0,0,4.44-2.59c.37-.37,1.48.37,2.59,1.48h2.59a23.17,23.17,0,0,0,1.48-5.18A90.75,90.75,0,0,1,139.11,142.94Zm-3.33,24.78h-.37c-1.48.74-2.22,1.48-1.85,1.85a7.22,7.22,0,0,0,2.59-.37A2.22,2.22,0,0,1,135.78,167.72Zm-.74,6.66q-1.11.56-1.11,1.11a2.81,2.81,0,0,0,.74,1.48q2.22,0,2.22-1.11a2.81,2.81,0,0,0-.74-1.48Zm7.4-11.1a1.34,1.34,0,0,0,.37-1.1c0-.74-.74-1.48-1.85-2.22a5.26,5.26,0,0,0-.74-2.22h-1.85a10.4,10.4,0,0,1-4.07,1.85v3.33l2.22,2.21c.37.37,1.11.37,1.85.74a4.66,4.66,0,0,1,1.48-2.59Zm-3,16.28v-.37c-.37,0-.37,0-.74.37h.74Zm64,18.86a6.36,6.36,0,0,0-2.22-4.43v-1.48a6,6,0,0,0,1.48-3.33,2.83,2.83,0,0,0-.74-1.85,24.46,24.46,0,0,1-.37-4.07c-.37-.37-1.48.74-3.7,2.59a9.76,9.76,0,0,0-.37,2.59,9.2,9.2,0,0,1-3-.37l-3.7-4.44c-.37-.74,0-1.48.74-2.59,0-1.85-.37-3-1.48-3.7-.37-.74-.37-1.85.74-3.33a11.9,11.9,0,0,0,3-.37l.74-1.48h3a4.52,4.52,0,0,0,3.33,1.48v-.74c-2.59-2.22-7-3.7-13.32-4.07h-3.69c-.37-1.11-1.48-1.48-3-1.48,0,.37-.74,1.48-.74,1.85.37.37.37.74.74.74,0,.74-.74,1.48-1.85,1.85l-3,.74c-.37,1.48-1.85,2.22-4.44,1.85a4,4,0,0,0-1.48,1.85,8.69,8.69,0,0,1-7.4-4.44,24.16,24.16,0,0,1-4.07-.74V169.2a3.38,3.38,0,0,0-1.85-1.11A2,2,0,0,0,155,169.2a5.88,5.88,0,0,1-2.95,1.11,15.71,15.71,0,0,1,2.58-2.59c.37-2.22,0-3.33-.37-3.7s-1.48,0-2.58,1.11c0,.37-.37.74-1.11,1.48H148l-.74-1.11a1.08,1.08,0,0,0-1.11,1.85c.37-.37.74-.37,1.48-.37v2.22l2.22,2.22-.74,1.48a5.19,5.19,0,0,1-1.48-2.59,5.69,5.69,0,0,1-2.22-1.48,5,5,0,0,0-3.33,0c-.37.74-.37,1.85,0,3.7,0,.37-2.22,1.85-2.22,3L141,176.6a7.22,7.22,0,0,0,2.59-.37,6.51,6.51,0,0,1,.37-2.22h1.48c1.85,1.48,2.59,2.59,1.85,3.7-1.11.37-1.85.74-1.85,1.85,1.48,1.11,4.07-1.48,5.18-1.11a2.22,2.22,0,0,1,.37,1.48,5.67,5.67,0,0,0,4.06.74l1.85,1.48c.37,2.59,1.48,3.33,2.59,2.22,0-1.85.37-2.59,1.11-2.59l1.48,2.59a3.13,3.13,0,0,1,2.22.74h3c1.11,1.85,2.59,2.59,5.18,1.85a5.19,5.19,0,0,1,1.48,2.59c4.81,1.11,6.66,1.48,5.55,1.48a2.22,2.22,0,0,1,1.48.37,14.55,14.55,0,0,1,2.22-.74c-.37,1.11,0,3,.74,4.8,1.11-.36,1.48-1.47,1.48-3.32l-1.11-1.48c.37-.37,1.11-.37,1.47.74a19.7,19.7,0,0,1,5.18-.37c-1.11,1.48-1.85,2.59-1.85,3.7s1.48-1.11,4.81,4.43c3,.37,3.7.37,4.07,3.33l3.7,1.85L202,204v-1.48l-.37-1.11ZM155,156.63a9.76,9.76,0,0,0-5.17-1.85v.37l1.48,1.48a3.24,3.24,0,0,1-3,3.33c-.74.74-.37,1.48,1.11,2.58l.74.74a8,8,0,0,0,2.58-2.58,3.85,3.85,0,0,1,2.22-1.85Zm2.59,33.29-4.43,2.22c-.38,1.48,0,2.59,1.84,3h.74l.74-2.59c1.48-1.11,2.22-2.22,2.22-2.59Zm-3.33-4.81c-.73,0-1.1.37-1.1.74a2.22,2.22,0,0,1,.37,1.48c.37-.37.37-.37.73-.37Zm9.25,10.72c-.37-2.21-1.85-3.32-3.7-3-1.11,3.33-1.48,4.43-1.48,3.69a1.48,1.48,0,0,0,1.85-.36,12,12,0,0,1,3.7,1.1l.74-.37c0-.37,0-.37.37-.37A2.88,2.88,0,0,0,163.52,195.83Zm-3.33-10a2.22,2.22,0,0,0,.37,1.48c1.48,0,2.22-.37,2.22-.74a2.81,2.81,0,0,0-.74-1.48C160.93,185.11,160.19,185.48,160.19,185.85Zm8.88-15.17v-2.59c.74-.37.74-1.48.37-2.59-.37-1.85-1.11-2.22-2.22-1.48v3.33a5.7,5.7,0,0,1-2.59,1.11,1.36,1.36,0,0,0-.37,1.11l1.11.74a12.3,12.3,0,0,0,3,4.07c.37,0,.74-.37,1.48-.74A8.71,8.71,0,0,0,169.07,170.68Zm-4.44-10c-.37,1.11-.37,1.84,0,2.22a6.35,6.35,0,0,1,2.22-.38C166.85,161.44,166.11,160.7,164.63,160.7Zm.37,29.22V191a1.36,1.36,0,0,0,1.11-.37C165.74,190.29,165.37,189.92,165,189.92Zm12.58,5.18c0-1.11,0-1.48-.37-1.85-1.11,0-1.85.37-1.85,1.11a2.83,2.83,0,0,0,1.85.74Zm3.33,1.47-.37-.36a1.38,1.38,0,0,1-1.11.36c0,.37.37.74.74,1.11l.74-.37Zm.74-19.6-.74-.74c.74-1.11,1.48-1.85,2.59-1.85.37,0,.74.37,1.11.74C184.61,176.23,183.5,176.6,181.65,177Zm8.87,30.33c-.37-1.48-2.22-2.59-2.22-3.7h-1.11c-.36.37-.73.74-.73,1.11,0,1.11,1.1,1.85,2.95,2.59Zm2.59,2.22v-.74c-.37,0-.37,0-.74-.37l-.37.74c.37.37.37.37.74.37Zm1.11-16.64h-.74c-1.11-1.11-1.48-1.48-1.11-1.85h.74Zm.74,11.46c-.37-.37-.37-.37-.37-.74h-1.85a2.22,2.22,0,0,0,.37,1.48c1.11-.37,1.85-.37,1.48-.37Zm2.22-11.46v2.58a5.49,5.49,0,0,0-2.59.37l-1.11-1.1c0-.74.74-1.11,2.59-1.48,0-.37-.37-.37-.74-.37.74-.37,1.48-1.48,2.59-3h1.85a1.36,1.36,0,0,1,.37,1.11A9.28,9.28,0,0,0,197.18,192.88Zm-.74-10h-1.85a2.22,2.22,0,0,0-.37,1.48l.74.74a2.22,2.22,0,0,0,1.48-.37Zm-.74-7-.37.37c0,.37,0,.37.37.74.37-.37.74-.37.74-.74C196.07,175.86,196.07,175.86,195.7,175.86ZM202,204.71c-.37,0-.37,0-.74.37q-1.67.55-3.33,4.44l.37.74c1.48-.37,2.59-1.48,3.7-3.33Zm-3-25.15h-.37v.74l.74.74c.37-.37.37-.37.74-.37A1,1,0,0,0,199,179.56Zm4.44,50.3v-.37h-.74v.37Zm11.47-12.94M217.53,248v-.37c0,.37,0,.37-.37.37Zm1.11,9.25v.37c.36,0,.36,0,.36-.37Zm15.9-36.62c-1.11-2.22-1.48-2.59-1.48-1.48h-.37v.37l.74,1.11Zm-.74-4.07c0-.37,0-.37-.37-.37v-.37c-.37,0-.37,0-.37.37h.37c0,.37,0,.37.37.74Z"/><path class="cls-1" d="M400.54,267.11a49.7,49.7,0,0,0-7.57.79h-4.7a16.36,16.36,0,0,1-4.7-.52h-5.74l-9.92.78H353.56l-8.35-1.05c-3.92-.78-4.7-2.87-6.79-5.74l-3.66-5.48h-.26l-.52-1.83c-.52-.26-1.3-1-2.09-2.87h-.26c-.26-1.3-2.09-3.65-5.22-7.57l-3.13-6v-.52H323a28.24,28.24,0,0,1-5-6.79,35.6,35.6,0,0,0-4.44-6.52l-1.82-2.87-.79-1a7.94,7.94,0,0,0-6-2.61,7.39,7.39,0,0,0-3.65,2.61h-.26l-.79,1.57c-.78,9.4-1.3,15.4-1.3,17.75.52,4.7,1,8.35,1.56,10.7a25.32,25.32,0,0,0,6.79,8.87,12.21,12.21,0,0,0,4.44,1.83,4.1,4.1,0,0,0,2.08.78,5.41,5.41,0,0,1,1.31,3.13,2.08,2.08,0,0,1-1.83,2.35c-.26.26-3.13.53-8.09.79-3.39,0-6.78,0-9.92-.26v-.53h-.26c0,.53-.26.79-1,.79l-.26-.79H292v.79a1.56,1.56,0,0,1-1-.26,1.66,1.66,0,0,0-1.57-1.31l-1,1h-2.09l-.78-1.56h-1.31l-.26-.52h-.52a1,1,0,0,1-.26-.79h-2.35l-1.31,1.31h.26v1a24.23,24.23,0,0,0-5,.52H266.9a25.12,25.12,0,0,0-6.26,0H246.29a6.3,6.3,0,0,1-3.14-1.82V263.2a2.8,2.8,0,0,1,.79-1.31c1.3-1.3,3.39-2.87,6.26-5.22a9.32,9.32,0,0,0,3.65-2.87l1.57-3.65c.78-2.35,1.57-6,2.61-11,0,1.82.26-6,.52-23.75.26-.79.26-3.4.52-8.36a61.48,61.48,0,0,1,0-9.91,27.77,27.77,0,0,0,.53-5.48c-.53-5.23-.79-11.23-.79-17.75a63.47,63.47,0,0,0-5.48-8.88l-1.56-1.3-5-3.66a5.53,5.53,0,0,1-2.09-5.22,15.06,15.06,0,0,1,3.65-2.35h17.75c1.31.53,1.57,1.57,1.05,2.88,1.3,0,2.34-.79,3.13-2.35a10.25,10.25,0,0,1,3.91-.53,8.53,8.53,0,0,1,4.18,0h15.66c1,.27,1.83.27,2.09,0,2.08,0,3.39.79,3.65,2.35.26.27.26,0,.52-.26l-.26-.26c.78,0,1.31-.52,1.83-1.3l.78-.53a3.56,3.56,0,0,1,3.13,1.31c.79,0,2.61-1,3.66-1,1.82-.53,3.39,0,5.22,1.82l.52.53V158c-.26,0-.26.26-.52.78a27.08,27.08,0,0,1-4.7,4.44c-1,.52-3.39,2.87-7.31,7.3a3.78,3.78,0,0,0-.52,2.35c-1.31,1.83-.78,7.31-1.57,8.62a10.82,10.82,0,0,1-.26,3.13c-.26,4.7,0,9.92.26,15.4l.79,1.56,1.56,1.57a27.26,27.26,0,0,0,3.92.52c2.35,0,3.65-.78,8.09-2.61l1.3-.78,1.83-2.09A44.34,44.34,0,0,0,323.8,193c2.87-2.35,6.79-6,11.75-10.44l3.39-3.92a16.92,16.92,0,0,1,2.35-4.17l1-1c1.31-5.23,1.83-7.84,1.83-7.57a3.43,3.43,0,0,0-.78-2.35c-2.87-2.87-4.44-5-4.44-6.79a3.36,3.36,0,0,1,1-2.61l.79-.52a33.78,33.78,0,0,0,6.52-.78h8.62v1.3l2.34,1.57.79-.52a13.07,13.07,0,0,0-.52-2.35,11.39,11.39,0,0,0,3.39-.27h5.74a22.77,22.77,0,0,1,3.92,1.05c-1.31,0,.52,0,4.95-.26h5.23c1.3,0,3.13.78,5.48,2.09v2.08a7.23,7.23,0,0,1-3.92,2.09c-.26.52-1,.78-1.83,1-1.56,1-3.65,1.56-6.52,1.82a23.45,23.45,0,0,1-4.7,1.57,17.53,17.53,0,0,0-4.44,1.83l-1.56,1.56-6.53,4.44A31.61,31.61,0,0,1,351,176l-2.61,2.35c-4.18,4.44-6.27,7.57-6.27,9.66a53.82,53.82,0,0,0,5.74,9.4l6.53,13a15.13,15.13,0,0,0,1.83,2.87c.52.26,1.3,1.56,2.61,3.91a6.49,6.49,0,0,1,2.09,2.35l1.56,2.61,1,1.57,3.92,5.74a27.1,27.1,0,0,0,5.48,7.57,9.24,9.24,0,0,0,2.35,2.87,24.49,24.49,0,0,0,3.65,5l2.35,3.91,3.4,2.35a32.26,32.26,0,0,0,6,6,15.33,15.33,0,0,0,7.83,3.65c.26.26,1,.26,2.09.52ZM258,266.33v.26c.26,0,.26,0,.26-.26Zm6-13.57v1c.26-.26.26-.26.53-.26C264.56,253,264.29,252.76,264,252.76Zm.79-3.92h0Zm1.56-17h-.26c-.52.78-.52,1.3-.26,1.57.26,0,.26-.27.52-.53Zm-.26-7.31c-.26.26-.26,1.31-.26,2.87.78,0,1.31-.26,1.31-1a3.51,3.51,0,0,0-.79-1.83Zm.52,32.63v-.26h-.26v.26Zm1.31-94-.26.26v.78h1v-.52Zm3.39,8.61a2,2,0,0,0,.52-1q0-.39-.78-.78h-.26v-.26H270a1.75,1.75,0,0,0,.78,2.09Zm-.26-10.7-.78-.79c0,.27,0,.27-.26.27,0,.26.26.26.52.52Zm4.18,4.17-1.31-1a7,7,0,0,0-3.39,1.3,11.3,11.3,0,0,0,2.87,3.92,2.31,2.31,0,0,0,1.57-1.83,5.58,5.58,0,0,1,1.82-1C276.82,165.85,276.3,165.58,275.26,165.32Zm-1.57,8.36c-.26.26-.26.26,0,.52a2,2,0,0,0,1.31-.26C274.73,173.42,274.21,173.42,273.69,173.68Zm12,32.36v-1c-.53-.26-1.05-1.57-1.57-3.66-.26-.26-.52-.52-.52-.78l1.3-.78v-.53c-.78-.26-1-.78-1-2.08-.52-2.35-.78-3.66-.52-3.92a1.56,1.56,0,0,1,1-.26v-.78h-.78c-.26.26-.26.26-.52.26a3.44,3.44,0,0,1-.79-2.09,10,10,0,0,0,1.57-4.44,3.76,3.76,0,0,0-.52-1.82c.26-.79.52-1.05.26-1.31a3.77,3.77,0,0,1-.52-1.83,8,8,0,0,1,.52-2.08,4.58,4.58,0,0,0-1.05-2.09c.27-.52.53-1.05.27-1.31a5.1,5.1,0,0,1-1.83-.26,2.36,2.36,0,0,1,.52-2.35l1-.52a6.76,6.76,0,0,0-.52-1.83h-1a8,8,0,0,1-2.09,1.83c-2.09,1.83-.78,2.61-2.09,3.65a16.11,16.11,0,0,1-.78,2.88,6.61,6.61,0,0,1,.52,1.82,4.84,4.84,0,0,1-1,2.87v.53a10.22,10.22,0,0,1,1.56.52,1.43,1.43,0,0,1-1,1.56,5.88,5.88,0,0,0-.78,2.61,3.18,3.18,0,0,0,1,2.35v3.13c-.26.79,0,1.31.78,2.09l-1.3,1.57c.26.26.26.52.26,1a2.86,2.86,0,0,1-.26,1.31,2,2,0,0,0,.26,1.3c.52-.26.78-.26,1,0a21.67,21.67,0,0,0-2.08,6,1.35,1.35,0,0,1,.52,1,6.76,6.76,0,0,1-.52,1.83v1.82l.78.27v.52a4.53,4.53,0,0,0-1.31.52c-.26.52.26,1.3,1.57,2.35a2.88,2.88,0,0,1,0,2.09,12,12,0,0,0-1.83,2.35A1.58,1.58,0,0,1,275,222a3.23,3.23,0,0,1-.27,1.57v.52a1.6,1.6,0,0,0,1,.26v2.87a3.74,3.74,0,0,1,.52,1.57,1,1,0,0,1-.26.78c-.78-.26-1,0-1.31.78,0,.26,0,.26.27.53.52,0,.78,0,1-.27v.53a6.39,6.39,0,0,0-1,2.61c-.27,0-1.31.52-1.31,1.3s.52,1.31,1.31,1.83a7.87,7.87,0,0,1,1,3.39c-.78.26-1.31.78-1.31,1.31.27.26.79.26,1.57,0,0-.26,0-.26-.26-.26a.48.48,0,0,1,.78,0v.26c-.52,0-.52.78-.26,2.08h.52v-.52c0,.26,0,.26.26.26a5.92,5.92,0,0,1,2.61-.26,2.67,2.67,0,0,1-2.08,1.05,1.59,1.59,0,0,1-1.05-.26l-.52.78.52.26,2.09,1.3a4.92,4.92,0,0,0,2.61-3.39h-.78v-.52l1-.78c0-1.31.52-2.35,1.57-2.61v-.53c-1.05-1-1.31-1.82-1.05-2.61l1.05-.78-.79-1.3a3.12,3.12,0,0,0,1.05-2.09c0-.78-.78-1.05-2.09-1.31a2.25,2.25,0,0,1-.78-1.56q.39-.39,1.56,0c.26,0,.53-.52,1.05-1.83a1.56,1.56,0,0,0,.26-1c0-.53-.26-.79-1.05-1-.26-2.35,0-3.65.79-3.91v-.79c.78-.78,1-1.3,1-1.82s-.26-.79-1-1.05a1.43,1.43,0,0,1,1-1.56c.26-.26.26-1,.26-2.61a1,1,0,0,0,.26-.79c0-.52-.52-1-1.3-1.3-.26,0-.26,0-.26-.26v-.26l.78.52a2.42,2.42,0,0,0,1.31-.78v-.79a6.46,6.46,0,0,1-.27-3.39ZM276,235.53l-.26.26c-.26-.26-.26-.78-.26-1.56H276Zm1-64.46a2,2,0,0,0-1.3.26v.78l.52.52a1.7,1.7,0,0,0,1.31-1.3C277.34,171.07,277.34,171.07,277.08,171.07Zm-.26,11.22c.52-.78,1.05-1.31,1.57-1.31C278.13,181.77,277.61,182,276.82,182.29Zm1.57,41.24v.26l-.26.26h-.26v-.52Zm0-60.29v1h1.3c.26-.52.26-.78,0-1Zm.78,95.78h-.26l1,1.31c0-.26.26-.26.53-.26C280.48,259.81,279.17,259.28,279.17,259Zm.78-1.82v-.26h-.26v-.27h-.26v.27h.26v.26Zm0-89h-.26c0,.27,0,.27.26.27Zm.79,24V192c.26,0,.52,0,.52.26Zm3.39-28.71c-.26.26-.26.26,0,.52.26-.26.26-.26.26-.52Zm1.57,9.92-1.31.78h1.31Zm2.08,88.74h-.26v-.27a1,1,0,0,0-.78-.26v-.26c-.26,0-.52-.26-1-.78l-.26.26,1.3,1.31h.78l.26.26Zm-.26-90.57v-.26h-1l.52.52h.52Zm1.05-11.49v-.26H287v1.31Zm-.79,6v-.53a1,1,0,0,0-.78-.26v.79h.78Zm0,88.22c-.26,0-.26.26,0,.52ZM290.13,169h-.52v.26a1,1,0,0,0,.78-.26Zm5.22-.26h-.26l-.26.26c0,.26,0,.26.26.26s.26,0,.26-.26Zm.53-5.22c0-.26,0-.26-.27-.26V164l.27-.26Zm1.82-2.87-.78.78a2,2,0,0,0,.52,1,1.43,1.43,0,0,0,1.05-1.56A1,1,0,0,1,297.7,160.63Zm.79-3.66v-.78h-.79V157Zm-.79,98.66v0Zm2.61,5.74a5.86,5.86,0,0,0-.26-1.82,3.48,3.48,0,0,1-1.3.26,1.43,1.43,0,0,0,1,1.56Zm.52-97.09c.27-.52.27-.78,0-1-1,0-1.3.26-.78,1Zm-.52-9.4v.27c.26,0,.26,0,.26-.27Zm13.05,109.89a2.83,2.83,0,0,1-.26,1.3c.78-.26,1-.52,1-1.3Zm28.71-35v-.26h-.52l.26.26Zm1.31,9.4a1,1,0,0,1-.79.26.93.93,0,0,0,.27.78c0-.26.78-.52.78-.78Zm.26,14.61c.52,0,.78,0,.78-.26a2.78,2.78,0,0,0-1.3-2.35C343.12,252.76,343.38,253.54,343.64,253.8Zm2.87-19.57c0-.26-.26-.52-.52-.78-.26.26-.26.26-.52.26-.26.26,0,.78.26,1Zm-.52,5.48v0Zm7.57,20.88-2.87-2.87a8,8,0,0,0-2.09-1.83c-.52,0-.79.26-.79.52,0,1,.79,2.09,2.35,2.87l1,1.31Zm-3.66-94.74v0ZM351,238.93a.57.57,0,0,0-.53.52c0,.26.27.26.53.52a1,1,0,0,0,.78-.26Q351.73,238.54,351,238.93ZM351,158v-.27h-.26V158Zm6.78,92.65a6.23,6.23,0,0,0-.52-2.09,5,5,0,0,1-2.35-2.35,2,2,0,0,0-1-.26c-1.31,1.05-1.83,2.87-3.13,2.87,0,1,1.82,2.35,2.08,4.44-1.3,0-2.08.52-2.08,1.83H351a2,2,0,0,0,2.09-1.83,4.9,4.9,0,0,0,2.6-2.61.5.5,0,0,1,.79,0c0,.26,0,.26-.26.52V252a7.17,7.17,0,0,0,3.39.52A2.21,2.21,0,0,0,357.73,250.67ZM352,245.19v-1.3h-1v1.3Zm1.31-79.08v-.26H353v.26Zm0,75.17.52,1,1.3-.26c.79-.52,1.05-1.05.52-1.83A2.52,2.52,0,0,0,353.3,241.28Zm1.56-72.3h0Zm.78,95-.26-.26h-.26l.26.26Zm1.57-20.36c-.52,0-.78,0-1,.27a.79.79,0,0,0,0,1q1.56-.39,1.56-.78Zm1.83-2.08v.26l.26-.26Zm1.56,17a5.34,5.34,0,0,0-1.3,2.35l.26.26a14.46,14.46,0,0,0,3.39-1.3A2.72,2.72,0,0,0,360.6,258.5ZM365,248.06a2.2,2.2,0,0,0-.52-1.56H364L363,248.58l-1.56.53a5.44,5.44,0,0,0,1,1.56c.78-.26,1-.78,1.31-1.83Zm-2.61-3.39v-.78h-.78a1,1,0,0,0,.26.78Zm5.48,10.18c0-.26-.52-.79-1.56-1.31-.27-1.56-.79-2.35-1.57-2.35s-1.31,1.05-1.31,2.87a3.71,3.71,0,0,1,1.57.53v.52a1,1,0,0,1-.78.26c-.26,0-1.57-1.57-1.57-1.57l-1,.53a1,1,0,0,1,.26.78c.78,0,1.56.52,1.83,1.83.26.26.52.78,1,1h1a6.52,6.52,0,0,1,.26-2.09Zm-5.48-16.18c-.26,0-.26,0-.26.26-.26.26,0,.26.26.52l.52-.52C362.69,238.67,362.69,238.67,362.43,238.67ZM365,241.8c-.78-.26-1.3,0-1.3.78l.78.78a4.57,4.57,0,0,0,1.56-.26C366.08,242.32,365.82,242.06,365,241.8Zm3.13,7.57c0-.53-.26-.79-1-.53v.27l.78.78Zm-.52,9.65h-.26c-.26.26-.26.26,0,.53l.26-.27Zm2.61-2.35v0Zm2.61-2.61h-1v1.05h.52c.26,0,.26,0,.52-.26Zm4.7,4.7v1.05c.52,0,.78,0,.78-.26a1,1,0,0,0-.26-.79Z"/></svg>