<svg id="Layer_1" data-name="Layer 1" xmlns="http://www.w3.org/2000/svg" viewBox="0 0 500 500"><defs><style>.cls-1{fill:#fff;}</style></defs><title>resolve</title><rect class="cls-1" width="500" height="500"/><polygon points="74.66 21.36 84.28 69.48 110.24 21.36 285.24 21.36 295.81 8.15 301.58 21.36 322.74 64.77 331.39 32.68 349.66 27.96 396.77 21.36 475.62 24.19 441 55.33 481.39 54.39 481.39 208.2 491 216.69 484.27 216.69 494.85 230.84 488.12 240.28 482.35 261.98 480.43 354.46 454.46 381.82 483.31 400.69 484.27 474.3 459.27 474.3 444.85 494.11 432.35 474.3 311.2 475.24 328.5 494.11 284.75 474.3 204.42 482.12 211.71 439.56 166.01 489.4 157.35 472.41 24.66 473.35 65.05 429 20.82 439.38 20.82 349.74 5.43 362.01 20.82 329.92 17.93 195.93 28.51 205.37 16.01 174.23 16.97 149.69 27.55 176.11 16.97 114.78 16.97 20.42 37.16 20.42 34.28 36.46 55.43 3.43 56.39 18.53 74.66 21.36"/><path class="cls-1" d="M128.45,416.9c-.49,0-1.39-.09-2.46-.09-10.33-.49-13.45-2.78-16.81-7.95-2.13-3.36-4.34-7.79-6.72-12.14-1.31-2.46-2.79-3.52-5.41-3.52H95.49v12c0,6.81.74,7.54,7,8.12v2.87H77.69v-2.87c6.15-.58,7.06-1.31,7.06-8.12V373.68c0-6.56-.74-7.38-6.73-7.95v-2.87h23c7.22,0,11.32.82,14.68,3a12.53,12.53,0,0,1,5.5,10.91c0,7.21-4.76,11.15-10.25,13.36,1.23,2.46,4.26,7.88,6.72,11.65a67.54,67.54,0,0,0,6.23,8.94,12.52,12.52,0,0,0,5,3.52Zm-30.83-27c3.44,0,6.23-.58,8-2.13,2.78-2.3,3.93-5.58,3.93-9.76,0-8.78-5.08-11.89-9.67-11.89-2,0-3.2.32-3.69.82s-.74,1.31-.74,3v19.93Z"/><path class="cls-1" d="M175.68,402.54c-.57,3.7-2.21,11.16-2.87,13.62H131v-2.87c7-.58,7.79-1.07,7.79-8V373.76c0-7.13-.82-7.54-6.64-8v-2.87h38.62c.09,1.47.5,7.21.82,12.3l-3,.41c-.74-2.87-1.8-5.58-3.28-7.06s-3.61-2.05-8.2-2.05h-3.94c-3,0-3.36.17-3.36,2.87v17.39h5.5c6.88,0,8-.41,9.1-6.15h2.95v16.48h-2.95c-1.07-5.9-2.13-6.23-9.1-6.23h-5.5v14.27c0,3.93.33,5.9,2,6.72,1.48.66,4.26.82,7.38.82,4.26,0,7.13-.57,9-2.62a27.28,27.28,0,0,0,4.59-8Z"/><path class="cls-1" d="M209.88,376.22c-1.64-5.16-4.76-11.23-11.4-11.23a7.75,7.75,0,0,0-7.95,8.12c0,4.51,2.95,7.05,10.16,10.74,8.61,4.18,14.52,8.77,14.52,16.89,0,9.35-8,16.65-19.93,16.65a29.22,29.22,0,0,1-8.28-1.15,33.79,33.79,0,0,1-4.92-1.8c-.82-2.05-1.89-8.94-2.46-13.86l2.87-1c1.64,5.25,6.48,14.52,14.35,14.52,5,0,8.2-3.45,8.2-8.69,0-4.84-3.61-7.88-9.76-11.16C186.92,390,181,385.57,181,377.7c0-9,7.14-16.07,18.78-16.07a36.34,36.34,0,0,1,11.4,2.13c.33,3,.9,6.72,1.56,11.81Z"/><path class="cls-1" d="M277.36,388.93c0,17.72-12.71,28.46-28.2,28.46-16.41,0-27.8-12.06-27.8-27.72,0-14.1,10.08-28,28.86-28C265.14,361.71,277.36,372.78,277.36,388.93ZM234,388c0,14.11,6.14,25.91,16.64,25.91,7.79,0,14.11-7.62,14.11-22.71,0-16.32-6.57-26.08-16.16-26.08C240.38,365.15,234,373.84,234,388Z"/><path class="cls-1" d="M324.6,402.3c-.66,3.53-2.38,11.64-3,13.86H281.63v-2.87c7.13-.58,7.95-1.07,7.95-8V373.84c0-7-.82-7.54-7.05-8.11v-2.87h25v2.87c-6.23.57-7,1.06-7,8.11v32.07c0,3.85.33,5.25,2,6a18,18,0,0,0,6.15.74c3.52,0,6.48-.57,8.44-2.79a24.78,24.78,0,0,0,4.51-8.44Z"/><path class="cls-1" d="M376.91,365.81c-5.33.57-6.8,1.56-10.08,9.35-2.71,6.39-10.17,25-16.57,41.9h-4.1c-5.57-15-13.28-34.77-16.64-43.3-2.55-6.31-3.86-7.46-8.94-7.95v-2.95H345v2.95c-6,.9-6,1.8-4.75,5.33,2.38,6.56,8.85,23.21,11.81,30.91h.24c4.51-12,8-21.48,10.25-28.61,1.89-5.66,1.89-6.81-4.84-7.63v-2.95h19.19Z"/><path class="cls-1" d="M424.47,402.54c-.57,3.7-2.21,11.16-2.87,13.62H379.78v-2.87c7-.58,7.79-1.07,7.79-8V373.76c0-7.13-.82-7.54-6.64-8v-2.87h38.62c.08,1.47.49,7.21.82,12.3l-3,.41c-.74-2.87-1.81-5.58-3.28-7.06s-3.61-2.05-8.2-2.05h-3.94c-3,0-3.36.17-3.36,2.87v17.39h5.49c6.89,0,8-.41,9.11-6.15h2.95v16.48h-2.95c-1.07-5.9-2.14-6.23-9.11-6.23h-5.49v14.27c0,3.93.33,5.9,2,6.72,1.47.66,4.26.82,7.38.82,4.26,0,7.13-.57,9-2.62a27.5,27.5,0,0,0,4.59-8Z"/><path class="cls-1" d="M293.38,259.83c-1.48.37-3,3-5.92,6.28H283a3.2,3.2,0,0,0-1.11-2.22c-.37,0-.37,0-.74.37v1.85c-1.84-.37-4.8.37-8.5,1.48h-1.48c-.37-.37-.37-.37-.74-.37a5.26,5.26,0,0,0-2.22.74h-3l-1.11-2.22c-1.85-.37-3-1.11-3-1.85h3.33c.37-.37,0-1.47-.74-2.58v-3l-9.25-6.66-1.11,1.11,1.11,1.85a5,5,0,0,1,2.59,3l-1.85-1.11c-3.33,0-5.55.74-7.4,2.22H246l1.1,4.07a2.1,2.1,0,0,1,.74,2.58c-.37,1.11-.74,2.22-1.47,2.59h-3.7c-.37-.37,0-1.48.37-3s.37-2.58,0-3L242,260.57c-4.44-2.59-4.44-4.81-8.51-7.4H232l1.11,1.85,2.22,3.33v1.85s-5.92.74-5.92,4.06l1.11.74a6.51,6.51,0,0,1,2.22-.37c.74,0,1.11.37,1.11.74l-3.7,2.59H226.8L225,266.85c-2.59-.37-5.92-3-10.36-8.13a7,7,0,0,1,1.85-4.81,23.59,23.59,0,0,0-.74-3.33c1.11-1.85,1.48-2.59,1.48-3-.37,0-1.11.74-2.22.74a4.89,4.89,0,0,1-2.58-1.11c-.74,0-1.48.74-2.22,1.85-1.48-.37-2.22-1.11-2.59-3l-1.11-1.85c-3-4.81-7-12.21-11.84-22.19h-.37a1.36,1.36,0,0,0-.37-1.11,63,63,0,0,0-6.66-10.36l-2.22-3.7c-.37-1.11-1.85-3.33-4.43-7.4a70.32,70.32,0,0,0-7.77-8.13A2.77,2.77,0,0,1,171,191a40.6,40.6,0,0,0-8.88.74,11.86,11.86,0,0,0-5.55,6.28c-.37,2.22-.74,6.66-1.11,13.69a14,14,0,0,0-2.22,6.66,12.45,12.45,0,0,0,1.85,6.29A54.39,54.39,0,0,0,156.52,238c1.11,3.33,3.7,7.77,8.14,12.95,5.55,2.59,8.14,5.55,8.14,9.62,0,1.85-1.85,4.06-5.92,5.91H134.7a2.8,2.8,0,0,1-1.48-.37h-34A28.17,28.17,0,0,0,91.42,265a21.54,21.54,0,0,1-7,0l-1.85-1.11H78.85c-1.11-1.47-2.22-2.22-3.33-2.22v-.36a89.12,89.12,0,0,1,9.24-7.77l4.07-2.22c1.48-1.11,3.33-3.7,5.92-8.14l4.44-8.88c0-6.65.37-10.72,1.11-11.83a71.11,71.11,0,0,1,1.85-13.69c0-12.57.37-19.23,1.11-19.6q.55-4.44,0-26.64a11.41,11.41,0,0,1,.74-4.06c.74-4.44.74-7.4.37-9.25,0-2.59,0-5.92-.37-10.73-.37-.74-.74-2.59-.74-5.92-.74-1.11-1.48-3.69-1.85-7.76l-.74-1.85-5.55-6.29a15.48,15.48,0,0,0-6.66-4.07l-2.22-2.22c-1.11-3-.74-5.18,1.48-6.29.37-.37,3-1.48,7-2.59,4.81-.37,7.77-.37,8.51.37a8,8,0,0,1,3.7.74,78.44,78.44,0,0,1,11.09,1.11c4.07,0,9.25.37,15.54.74,18.86,0,34.77,0,48.08-.37l8.88-1.85,12.58-1.48c3.33,0,5.55.37,5.92,1.11,1.48.37,3.7.37,6.28.74s4.81.37,5.92-.74a18.15,18.15,0,0,0,4.81-1.11H232l2.59.74c0,.37,4.07,1.11,12.57,2.59,3,.37,4.81,1.48,5.55,2.59v1.48a2.19,2.19,0,0,0,2.59-.37c1.11,0,2.59,1.11,3.7,3.33a10.88,10.88,0,0,1,3,3c2.59,1.48,4.44,4.07,5.92,8.14l1.11,2.22c.37,1.48.37,4.8.37,10.35a4.78,4.78,0,0,1,.74,3q0,5-3.33,12.21a4.2,4.2,0,0,0-1.11,3h-.37c-1.11,3.33-3.7,6.66-7.77,10.72-.37,1.11-2.59,2.59-6.66,4.81a84.49,84.49,0,0,1-8.5,6.29c-3.7.74-6.29,2.22-7.4,4.81a29.68,29.68,0,0,0,0,8.14,22.57,22.57,0,0,0,4.44,5.92c.37,1.11-.37,1.11,5.18,7.39l4.8,10.36a17.15,17.15,0,0,1,3.7,3.7l1.85,3a86.38,86.38,0,0,1,8.88,10v1.84c-1.11.74-1.11,1.48-.74,2.22a11.56,11.56,0,0,1,2.59-.74c.37-.37,1.11.37,1.85,1.48a4,4,0,0,0,.37,1.85,5.67,5.67,0,0,1,2.59,3.7l1.11.74,1.11,1.48a3.73,3.73,0,0,0,3.33,4.07c.37.37.37,1.48.37,4.07a8.84,8.84,0,0,0,2.59,1.11v1.48h-2.59a3.89,3.89,0,0,0,1.85,3.33c1.11,0,1.48-1.11,1.48-3.33a7.65,7.65,0,0,1,5.54,1.85l4.81,3.7,3.33,2.22Zm-205.66-.74q0-2.77-2.22-2.22l-.74.74a4,4,0,0,0,1.85,1.48Zm.74,1.48c.37.37.37.37.37.74.37,0,.37,0,.37-.37S88.83,260.57,88.46,260.57Zm1.11-6.29H89.2c.37,0,.37.37.37.74Zm14.06.74a1.13,1.13,0,0,0-1.48,0c0,.37,0,.37.37.74a1.36,1.36,0,0,1,1.11-.37Zm8.88-33.29c-.37,0-.37,0-.74.37a2.17,2.17,0,0,0,.74,1.85,7.15,7.15,0,0,0,2.58-.37C115.09,224,114.36,223.21,112.51,221.73Zm6.28-9.62q0-4.44-5.54-4.44c-.74.74-1.11,2.22-1.11,4.07l1.11,4.81c.37,0,.74.37,1.11.74h2.21Zm-4.07,25.52v-.74h-1.1v.74h1.1Zm4.44-4.81a2.81,2.81,0,0,0-1.48-.74c-.37,0-.74.37-1.11.74a5.69,5.69,0,0,0,2.22,1.48l.37-.37Zm0,22.2a.8.8,0,0,0-.74-.74,1.13,1.13,0,0,0-1.48,0c0,.37.74,1.11,1.85,1.48Zm20-67.69c-.37,0-.37-.37-.74-1.11-1.85,0-2.59,1.11-3,3-1.85.37-3,1.48-3,2.59a11.81,11.81,0,0,0,2.59,2.22v1.84a7,7,0,0,0-2.59.38c0,1.1-1.11,2.21-3.7,3.69-.37.37-.74.74-.74,1.11a4.92,4.92,0,0,0,1.11,2.59v.74a14,14,0,0,0-6.66,2.22c-.74.37-1.48,0-2.22-1.48a1.63,1.63,0,0,0-1.85-.37v2.22q3.33.56,3.33,10l1.85,1.48c-.37.74-1.48,1.85-3.7,3.33,0,1.11.74,2.22,2.59,2.59a10.18,10.18,0,0,0,3.33-3c.37-.37,1.11-.37,1.85-.74.37-1.85,1.85-3,4.07-3.33l1.48-1.48c1.48.37,3,1.85,4.07,1.85s1.85-1.85,2.59-5.55a2.88,2.88,0,0,0-1.11-2.59v-3l-2.22-1.11c-3-1.11-4.44-2.59-4.44-5.18,1.48-.37,3.7-2.59,6.66-5.91.74-.37,1.85-1.85,3.7-4.44C140.25,189.18,139.14,188.44,139.14,187.33ZM121.75,177v.74a.8.8,0,0,0,.74-.74Zm2.59,18.49c-.37-1.47-.74-2.21-1.85-2.21h-.74v2.58a5.08,5.08,0,0,0,1.85,3C124.34,198.42,124.71,197.31,124.34,195.46Zm-2.59,7.4.74.74c1.85-.37,2.59-.74,2.59-1.85a9.41,9.41,0,0,0-.74-2.59C122.49,199.53,121.75,200.64,121.75,202.86Zm.74,28.11v-1.11c-.37,0-.37,0-.74.37,0,.37,0,.37.37.74Zm7-1.84a8.15,8.15,0,0,0-5.18,6.65c-1.11.37-1.85.37-2.22.74V238a4.93,4.93,0,0,0,2.22-1.85c4.44-.37,4.44-.37,4.81-3.33A8.33,8.33,0,0,1,131,231C130.63,229.86,130.26,229.13,129.52,229.13ZM124,226.91c0,1.84.37,2.58.74,2.58h1.85a9.27,9.27,0,0,0,.74-2.58,2.83,2.83,0,0,0-.74-1.85C125.45,225.06,124.71,225.8,124,226.91Zm7,25.52v-1.11l-2.59,1.11q-3.33.56-3.33,2.22l.74,1.48c.74,0,1.85-.74,3-2.59ZM126.19,248v-.74h-.37V248Zm2.59-54.74a5,5,0,0,0,0,3.32c1.11-.36,1.48-1.47,1.48-2.95C129.89,193.25,129.52,193.25,128.78,193.25Zm1.48,45.12c.37-1.11.37-1.48,0-1.85-.74,0-1.11,0-1.48.37v2.22Zm3.7,2.22c-.74-.74-1.11-.74-1.48-.37a1.65,1.65,0,0,0,0,1.85C134.33,241.7,134.7,241,134,240.59Zm.37-63.25v-1.11h-1.85a2.77,2.77,0,0,0,.37,1.85Zm.37,78.79c.37-.74.37-1.11,0-1.48h-2.22v1.48Zm0-72.5a1.47,1.47,0,0,0-1.85-.37,2.17,2.17,0,0,0,.74,1.85C134.7,184.74,135.07,184.37,134.7,183.63Zm-1.48,35.88c0,.37,0,.37.37.74,0-.37,0-.37.37-.74Zm1.11,14.79v-.74h-1.11c0,.37,0,.74.37.74Zm5.92-15.9-1.48,2.22a3.56,3.56,0,0,0-2.59,3.7c1.11,0,1.85,0,2.22.37h.74c0-1.48,3.33-3.33,2.22-5.92A1.36,1.36,0,0,0,140.25,218.4Zm-3.7-38.47,1.11,1.11c1.85-.37,2.59-1.48,2.59-2.59C137.66,177.71,136.55,178.08,136.55,179.93Zm2.22,33.29-1.48.74a.8.8,0,0,0-.74-.74c0-.37,0-.37.37-.74a4.69,4.69,0,0,1,2.22.37C139.14,213.22,139.14,213.22,138.77,213.22ZM137.66,191l-.37.37-.37-.74c.37-.37.37-.37.74-.37ZM138,231v-.74h-1.11V231Zm4.07,10.36v-1.85c-2.59-1.11-4.07-1.85-4.81-1.85a11.09,11.09,0,0,0,3.33,3.7Zm.37-13.68c0-1.48-1.11-2.22-3-2.59.37,1.85,0,3.69-.74,6.28a3.61,3.61,0,0,0,1.48,3.33h1.11c0-.37,0-.37.37-.37-.74-3-1.11-4.44-1.11-4.07Zm-.74-44.39a1,1,0,0,0-1.11,1.11H141c.37,0,.37,0,.74-.37S142.1,183.63,141.73,183.26Zm3.7,10.73a4.92,4.92,0,0,0-2.59-1.11,5.26,5.26,0,0,0-2.22.74v1.11l1.11,1.1a32.48,32.48,0,0,0,3.7-.73Zm0-13.69v-.37c-.37-.37-.37-.37-.74-.37v.74Zm.37,62.88c-.37.37-.37.37-.74.37v1.11a.83.83,0,1,0,.74-1.48Zm3.33-59.55c-.38,0-.38,0-.38-.37,0,.37,0,.37-.37.37.37.37.37.37.37.74,0-.37,0-.37.38-.37Zm.36,71.39h-.74l-.37.37c0,.37,0,.37.37.74.38,0,.38,0,.74-.37Zm57-133.16a71,71,0,0,0-7-6.29,32.55,32.55,0,0,0-11.84-3,13.06,13.06,0,0,0-5.18-1.11,14.84,14.84,0,0,0-5.54,1.11,59.23,59.23,0,0,0-11.1,3c-3.33,3.33-5.55,8.88-5.92,16.64l-.74,4.81-.37,30.7c0,4.81,1.48,7.4,11.47,10.73l6.66,1.48a29.81,29.81,0,0,0,7-1.11,42.9,42.9,0,0,1,5.55-2.59c4.44-.74,8.14-3,11.47-7,1.85-1.48,3.33-3.7,5.18-6.66h.37l2.22-6.28,1.11-1.48a105.76,105.76,0,0,0,1.11-17C210.53,133.69,209.05,128.52,206.46,121.86ZM234.2,239.11c-.37-.74-1.11-.74-1.85-.37a2,2,0,0,0,1.11,1.85C234.57,240.22,234.57,239.85,234.2,239.11Zm4.44.37a23.65,23.65,0,0,1-3.7,1.48v1.85c.37,0,.37,0,.37.37a2.22,2.22,0,0,0,1.48-.37,12.13,12.13,0,0,0,2.22-3Zm-2.59,24.78a1.36,1.36,0,0,0-1.11-.37v-.74a2.27,2.27,0,0,1,1.48-.36,1.33,1.33,0,0,1,.37,1.1C236.42,264.26,236.42,264.26,236.05,264.26Zm3.7-136.85V126.3H239v1.11ZM246,258.35c-1.11-1.48-1.85-2.22-2.22-1.85-.37,0-.37,0-.37.37l1.85,1.85Zm2.59-9.62a13.29,13.29,0,0,0-.75-4.07h-.74c-.73,2.59-.36,4.44,1.11,4.81Zm-.75-120.95-.37-.74h-.73v.74h1.1Zm.37,123.91a4.52,4.52,0,0,0-1.11,3.33c1.49,0,2.22-1.11,2.22-3A1.35,1.35,0,0,0,248.25,251.69Zm4.81,11.1h-.74a2.25,2.25,0,0,1-1.11-2.22,3.41,3.41,0,0,1,1.85,1.1Zm1.85-141.67c.37-.37,0-1.11-.37-1.48h-1.11a2.81,2.81,0,0,0,.74,1.48Zm.74,143.51c-.37.37-.37.37-.74.37a2.22,2.22,0,0,1-.37-1.48,1.36,1.36,0,0,1,1.11.37Zm1.48-136.11a1.35,1.35,0,0,0-.37,1.11,2,2,0,0,0,1.11,1.84c.74,0,1.11-.37,1.48-1.11A2.34,2.34,0,0,0,257.13,128.52Zm.37,139.07-.74-1.11c.37-.37.74-.74,1.11-.74a1.36,1.36,0,0,1,1.11.37C259,266.85,258.61,267.22,257.5,267.59Zm4.81-146.47a12.48,12.48,0,0,0-4.44,1.48c0,1.11,1.48,2.59,4.07,5.18a8.51,8.51,0,0,1,2.59-3c.37-1.11,1.85-.74,1.85-1.85A17.71,17.71,0,0,1,262.31,121.12ZM259,248a1.36,1.36,0,0,0-1.11.37c0,1.48,0,2.22.37,2.59,1.85-.37,2.59-1.11,2.59-2.59A4,4,0,0,0,259,248Zm8.14-6.29-4.07-3.33-1.48.74q0,1.66,2.22,2.22v1.48a1.36,1.36,0,0,1-1.11.37,1.89,1.89,0,0,1-1.85-1.48h-2.59q-.56,1.11,2.22,3.33a4.42,4.42,0,0,0,1.48,3l2.22-2.59c.37-.74,1.11-1.48,3-2.59Zm-6.66,20h-2.22v-1.1c.37-.37,1.11,0,2.22.37Zm9.62-14.79c.74-1.48,0-2.22-2.59-2.22l-1.48.74a2.83,2.83,0,0,0,.74,1.85Zm-3-11.84-.37.37Zm5.18,24.79,2.59-2.59c0-1.48-.37-2.22-1.48-2.22s-1.48,1.11-4.07,3.7c0,1.11.74,2.22,2.59,4.07a12.31,12.31,0,0,0,2.22,2.95,3.4,3.4,0,0,0,1.48-2.22C273.41,262.42,272.3,261.31,272.3,259.83ZM276,251l-.74-1.48h-1.11a2.22,2.22,0,0,0,.37,1.48Zm20.71,10.36V262l-1.11,1.48c-.37,1.48-1.48,2.22-4.07,2.59-1.11-1.85,1.85-5.54,4.44-5.54Z"/><path class="cls-1" d="M424.18,229.27c-.78,1.83-1,4.18-1.3,7.31a39.52,39.52,0,0,1-.52,5.22l-3.14,15.14c-.26,1.3-.78,3.91-2.08,8.35l-.53.52a6.89,6.89,0,0,1-4.17,1.83,7.79,7.79,0,0,1-2.87-.79c-2.87,0-8.62,0-17.23-.26a21.21,21.21,0,0,1-5-.78c-3.91-.26-7.83-.26-11.48-.26a10.57,10.57,0,0,1-4.18-1.05c-1.83,0-3.13.27-3.39,1.05a17.28,17.28,0,0,0-2.87.26h-4.18c-.52-.26-2.35-.26-5.22-.26a12.08,12.08,0,0,0-4.43,0h-14.1a5.75,5.75,0,0,0-2.09-.26,3.86,3.86,0,0,0-1.82.26l-9.14.26a5.25,5.25,0,0,1-3.39,1,7.59,7.59,0,0,1-2.35-.52H312a1,1,0,0,0-.78.26H300.73a4.87,4.87,0,0,0-2.35-1,5.66,5.66,0,0,1-1.57-3.39,13.44,13.44,0,0,1,6.79-6.27c3.39-3.39,5.74-6.52,6.79-9.66a12.88,12.88,0,0,1,.26-2.87c.52-3.13.78-8.87,1-17.22a2,2,0,0,1,.26-1q.39-13.31,0-18a9.94,9.94,0,0,1-1-4.43,7.4,7.4,0,0,1,1-3.92,33.57,33.57,0,0,0-.26-5.74l.52-4.44a52.89,52.89,0,0,0-.26-7.3c-.26-.27-.52-2.09-.52-6a7.72,7.72,0,0,0-.52-2.35c-.78-3.39-3.66-7.31-8.88-12.26-.52,0-1.56-.53-3.39-1.83-2.35-2.61-1.83-4.7,1.57-6.53l25.58-.26c.26.26.78.26,1.56.26,4.44,0,11,.26,19.58.53a18,18,0,0,0,3.39.52,7.65,7.65,0,0,0,2.35-.52,11,11,0,0,0,2.61-.53h13.05c.26-.26,5-.26,13.57-.26a61.91,61.91,0,0,1,7.57-1.56l.26-.26c.78,0,2.87-.27,6.27-.53,2.87-.26,6.52-1,11-1.82-1,0,.26,0,3.91-.26h4.18c1.83.78,3.13,4.43,3.65,10.44l.52,2.08a3.74,3.74,0,0,1,1.31,2.88,10.3,10.3,0,0,1-.78,3.65v12.53c0,2.87-.79,4.43-2.09,4.43l-4.18-3.91c-.26-1.05-1.56-2.87-3.91-5.74a40.31,40.31,0,0,0-6.79-8.36c-2.09-1.3-5-3.39-8.87-5.74l-4.18-1h-12a68.89,68.89,0,0,0-16.44,2.35l-1,1a78.07,78.07,0,0,0-5,8.35c0,3.4,0,5.48-.26,5.75v11.22c.26.78.26,3.13.26,7.57a8.86,8.86,0,0,0,8.09,5.48c.26,1,3.13,1.3,8.61,1a36.91,36.91,0,0,1,6-.52c7.83-.26,15.13-.26,21.66-.26a6.09,6.09,0,0,1,2.61,2.09c.26,2.35,0,3.91-1.31,5.22a13.13,13.13,0,0,0-3.39,1.3h-5.48a88.86,88.86,0,0,0-12-.52c-.78-.26-4.69-.26-11.48,0a5.89,5.89,0,0,1-2.61.26c-.78.26-1.83-.52-7.83,3.4-2.35.52-3.65,3.13-3.92,7.83.27,2.08,0,4.95-.26,8.87v3.65a90.41,90.41,0,0,1,.53,11.49,12.89,12.89,0,0,0,.78,3.91,5.91,5.91,0,0,0,.26,1.83l.26.26a9.6,9.6,0,0,0,4.18,5c.78.26,1.3.26,1.56.52a19.88,19.88,0,0,1,3.92.26c2.09.26,5.48.26,10.18.52.26.27,2.08.27,6,0l3.13-.78c5,0,8.88-3.39,13.05-5.74l1.31-1,5.74-5.75,2.61-5.22a11.11,11.11,0,0,1,1.83-2.08c3.91-3.4,5.74-8.88,11.22-14.36a4.06,4.06,0,0,1,3.39,2.09,3.92,3.92,0,0,0,.26,1.83ZM322.39,182c-.52,0-1.3.52-2.61,1.56v4.7H320a3.13,3.13,0,0,0,1.57-2.35c-.52-.78-.26-1.82.78-2.61ZM320,223.79h-.26v.78H320Zm.26,2.35c0,.52.53,1.3,1.57,2.09a1.44,1.44,0,0,0,1.57-1,1.62,1.62,0,0,0-.53-1.83A3.49,3.49,0,0,0,320.3,226.14Zm1.31-14.62a1.6,1.6,0,0,0,.26,1,1.22,1.22,0,0,0,.78-1.31C322.39,211,322.13,211.26,321.61,211.52Zm1.3,11.49c.27-.27.27-.27.27-.53a1.41,1.41,0,0,0-.79-1l-.78.52v.78c0,.27.26.27.52.53.26,0,.26,0,.26-.26Zm-1-6.27V217c.26,0,.26,0,.52-.26Zm24.27-28.19c-.78,0-1.3.53-2.08,1.57H343l-1.3-1.83c-.26-.26-.79-.26-2.09,0-.78.26-1.05,0-1.05-1.3a1.4,1.4,0,0,0,.79-1.05,2,2,0,0,0-.26-1.3,9.44,9.44,0,0,1,1.82-2.35v-1a4.42,4.42,0,0,1-1.56-.27,7.83,7.83,0,0,0-.79-2.87c0-1.3-2.08-4.43-2.61-6.78a1.35,1.35,0,0,0-1,.52h-.52c-.78-.78-1.31-1-1.83-1s-1,.79-1.83,2.62a6.61,6.61,0,0,1-1.82.52v-.79h-.26v1a4.28,4.28,0,0,0-1.31,3.13h1c.52.78.26,1.83-1,3.13v1.83a21.34,21.34,0,0,0,.26,3.65,1.91,1.91,0,0,1,1.57,1.83,7,7,0,0,0-3.39,1v.27l.52-.27a1.13,1.13,0,0,1,1.3.27v1a10.63,10.63,0,0,0-.52,1.83,8.47,8.47,0,0,1,2.09.26c0,1.82-1.05,2.35-2.09,3.13-.52.52-.26,1.3.78,2.61.53,1.83.26,3.13-.78,3.39-.52.26-.52.79,0,1.57.26,1,.52,1.83.26,2.09l-.78.52c0-.26.26,1.3,1,4.7l-1.3,1.3v1.31c.78.52,1,.78,1.3.52l1.57-.78a1,1,0,0,1,.26.78c0,1-1.57,1.56-3.65,1.83,0,2.08.78,3.13,2.61,3.13v1.82a3.48,3.48,0,0,0-2.09.79v1a4.2,4.2,0,0,1,1.3,2.87h-1a3.72,3.72,0,0,0-3.13-1.56v2.08a4.9,4.9,0,0,1,1.82.27c1.31.78,1.83,1.56,1.83,2.34a1.39,1.39,0,0,1-.78,1c-.79-.52-1.31-.52-1.57-.26v.78a3.07,3.07,0,0,0,1.83.52c.52.52.78,1.83.78,4.18.78.78,1,2.87.78,5.74a1.43,1.43,0,0,0-.78,1.31,3.13,3.13,0,0,0,1.57,2.34l.52,1.83c.26,0,1,.26,2.35.52-.26.26,0,.79.26,1.57,1.3-.26,2.09-.78,2.35-1.57,2.09-2.08,3.13-3.13,3.13-3.13a2.66,2.66,0,0,0,1.31,1.57c1.3,0,1.82,0,2.08-.26a2.27,2.27,0,0,0-1.82-1.57,5.65,5.65,0,0,0-1.83-1H337c0-.79.78-1.57,2.09-2.61,1.3-2.35,1.82-3.66,1.82-4.18,0-.26,0-.52-.26-.52a2.76,2.76,0,0,1-2.09-2.61l-1-.78a2.87,2.87,0,0,1,1-2.61,2.79,2.79,0,0,0,.27-1.31l-.53-.26a1.67,1.67,0,0,1-1.3-1.31c.26-.26,1.56-.52,4.44-.78.26-.52,0-1-1.31-1.83a16.59,16.59,0,0,1-2.09-2.87l1.31-1.82a3.62,3.62,0,0,1-1.57-.53,6.53,6.53,0,0,1,3.13-2.61,2,2,0,0,0,.53-1,.93.93,0,0,0-.27-.78c-.78-.26-1.3-.52-1.56-1.31,0-1.3.52-1.82,1.56-1.82.27-1.31-.26-2.88-1.82-4.44.26-.26.78-.52,2.09-.52V204a1.91,1.91,0,0,1-.27-1c-.78-.78-1-1.31-1-1.57a.49.49,0,0,1,.78,0,2.8,2.8,0,0,1,1.05,1.31,6.36,6.36,0,0,0,3.65-2.35l1.31-.78a17.67,17.67,0,0,0,.78-4.7c0-1.31-1-1-1-2.87.52-.26.78-1,.78-2.87A2,2,0,0,0,346.14,188.55Zm-21.92,19.84-.52.52c0,.52.26.78.78,1.05.78,0,1-.53.78-1.31A1.56,1.56,0,0,1,324.22,208.39Zm3.13,43.33v0Zm1.83-77.78h-.26v.26h.26Zm3.13,77.51c-.26.27-.26.27-.26.53s.26.52.52.78c.26,0,.26,0,.52-.26C333.09,251.72,332.83,251.19,332.31,251.45Zm3.39-2.61c0-.26,0-.26-.26-.26h-.52v.79h.52Zm2.61-1a1,1,0,0,0,.26-.78,1.44,1.44,0,0,0-.78-1.31H337l-.78,1.31.78.78Zm0-75.69v-.78h-1v.78Zm2.61,57.68a.49.49,0,0,0,0-.78,1.46,1.46,0,0,0-1.56-.26,1,1,0,0,0-.26.78,1.56,1.56,0,0,0,.26,1Zm.26,23.75a1.64,1.64,0,0,0-1.82-.26,3.8,3.8,0,0,0,.52,1.83,2,2,0,0,0,1.3-.52Zm5-3.91c.26-.79-.26-1-1.56-1.31-.52-.26-.79-.52-.79-.78a5.68,5.68,0,0,0-4.17,1.3c.26.79,1.3,1.83,2.87,3.4h1.3a3.23,3.23,0,0,0,.27-1.57ZM344.06,200c-2.35.26-3.66.52-3.66.52l-.26-.26c0-.78,1.31-2.35,1.31-2.61l-.79-1.05v-1a8.1,8.1,0,0,0,.52-2.09,2.2,2.2,0,0,0-.52-1.56v-1.31h1c.78.78,1,2.87,1,6.53,1,.78,1.57,1.3,1.57,2.08A1,1,0,0,0,344.06,200Zm-3.66,39.15c-.26.26,0,.52.52.78l.26-.26C341.18,239.45,340.92,239.19,340.4,239.19Zm1.83-52.46c0,.52,0,.78.26,1h.26c1.31-.26,1.83-1,1.83-2.61C343.53,184.9,342.75,185.42,342.23,186.73Zm2.09,40.19a5.92,5.92,0,0,1-2.09,5.22v.52l2.87,2.61c1,0,1.57-2.35,1.57-6.78Q345.88,225.75,344.32,226.92Zm0-43.33a7.32,7.32,0,0,0-.53-3.13c-.52-.26-.78,0-1,.52-.26.27-.26.79,0,1.57l.78,1Zm-1.05,23.49v-.78h-.52a.49.49,0,0,0,0,.78Zm-.52,4.7a1,1,0,0,0,.26.79c1.05-.27,1.57-.79,1.57-1s-.26-.52-.52-.78C343.27,211,342.75,211.26,342.75,211.78Zm0,30v.52a1.56,1.56,0,0,0,1-.26A1.56,1.56,0,0,0,342.75,241.8Zm3.39-38.63c-.26.26-.78.26-1.3.52v1.83c.26,0,.26,0,.52.26a1.24,1.24,0,0,0,1.31-1.31A2,2,0,0,0,346.14,203.17Zm-.52,5a4.39,4.39,0,0,0-.52,1.3,2,2,0,0,0,.52,1,2.29,2.29,0,0,0,1.83-1.57C347.45,208.39,346.93,208.13,345.62,208.13Zm1.05,16.7c0-1,0-1.56-.27-1.82h-.78a4.39,4.39,0,0,0-.52,1.3c0,.52.26.78.78,1Zm-.53-5.74v-.78h-.26v1Zm-.26,35.5v.26l.26-.26Zm2.61-48.29c-.26,0-.26,0-.52.26-.26.52-.26.79,0,1.05.52,0,.78-.26.78-1.05Z"/></svg>