<svg id="Layer_1" data-name="Layer 1" xmlns="http://www.w3.org/2000/svg" viewBox="0 0 500 500"><defs><style>.cls-1{fill:#fff;}</style></defs><title>insight</title><rect class="cls-1" width="500" height="500"/><polygon points="74.66 21.36 84.28 69.48 110.24 21.36 285.24 21.36 295.81 8.15 301.58 21.36 322.74 64.77 331.39 32.68 349.66 27.96 396.77 21.36 475.62 24.19 441 55.33 481.39 54.39 481.39 208.2 491 216.69 484.27 216.69 494.85 230.84 488.12 240.28 482.35 261.98 480.43 354.46 454.46 381.82 483.31 400.69 484.27 474.3 459.27 474.3 444.85 494.11 432.35 474.3 311.2 475.24 328.5 494.11 284.75 474.3 204.42 482.12 211.71 439.56 166.01 489.4 157.35 472.41 24.66 473.35 65.05 429 20.82 439.38 20.82 349.74 5.43 362.01 20.82 329.92 17.93 195.93 28.51 205.37 16.01 174.23 16.97 149.69 27.55 176.11 16.97 114.78 16.97 20.42 37.16 20.42 34.28 36.46 55.43 3.43 56.39 18.53 74.66 21.36"/><path class="cls-1" d="M83.81,416.16v-2.87c6.15-.58,6.88-1.15,6.88-8V373.84c0-7-.73-7.54-6.88-8.11v-2.87h24.68v2.87c-6.15.57-6.81,1.06-6.81,8.11v31.41c0,6.89.66,7.46,6.81,8v2.87Z"/><path class="cls-1" d="M171.13,365.64c-4.42.25-6.15,1.4-6.56,5.09a118.77,118.77,0,0,0-.73,13.69V417H159.9l-34.11-40.84h-.25v18.37a114.71,114.71,0,0,0,.66,13.37c.41,3.6,1.8,5.16,7.87,5.41v2.87H114v-2.87c4.59-.33,6.48-1.64,6.81-5.17a98.53,98.53,0,0,0,.82-13.61V377.45c0-5.41-.09-6.88-1.64-8.85s-3.37-2.63-6.89-3v-2.78h15.17l31.4,36h.25V384.42a116,116,0,0,0-.66-13.53c-.41-3.52-2.05-4.92-8.11-5.25v-2.78h20Z"/><path class="cls-1" d="M205.82,376.22c-1.64-5.16-4.76-11.23-11.4-11.23a7.75,7.75,0,0,0-7.95,8.12c0,4.51,2.95,7.05,10.17,10.74,8.61,4.18,14.51,8.77,14.51,16.89,0,9.35-8,16.65-19.93,16.65a29.22,29.22,0,0,1-8.28-1.15,34.26,34.26,0,0,1-4.92-1.8c-.82-2.05-1.88-8.94-2.46-13.86l2.87-1c1.64,5.25,6.48,14.52,14.35,14.52,5,0,8.2-3.45,8.2-8.69,0-4.84-3.61-7.88-9.76-11.16C182.86,390,177,385.57,177,377.7c0-9,7.13-16.07,18.77-16.07a36.28,36.28,0,0,1,11.4,2.13c.33,3,.9,6.72,1.56,11.81Z"/><path class="cls-1" d="M215.82,416.16v-2.87c6.15-.58,6.89-1.15,6.89-8V373.84c0-7-.74-7.54-6.89-8.11v-2.87h24.69v2.87c-6.15.57-6.81,1.06-6.81,8.11v31.41c0,6.89.66,7.46,6.81,8v2.87Z"/><path class="cls-1" d="M300.61,393.53c-4.1.82-4.59,1.14-4.59,6.64v6.56a43,43,0,0,0,.49,7.71c-4.92,1.14-12.05,2.95-18.69,2.95-19,0-31.25-10.83-31.25-27.31,0-18.7,15.17-28.45,32.47-28.45,6.73,0,13,1.64,16,2.29.24,2.79.65,7.14,1.31,13.53l-3.12.66c-2-9.19-8.12-13-15.82-13-9.84,0-18.37,8.86-18.37,23.62,0,12.38,6.07,25.34,19.51,25.34a8.87,8.87,0,0,0,4.6-1c1.23-.74,1.88-2.05,1.88-4.59v-7.79c0-5.74-.41-6.4-9-7.13v-2.87h24.6Z"/><path class="cls-1" d="M363.75,365.73c-6.4.57-6.89,1.06-6.89,8v31.57c0,6.89.66,7.38,6.89,8v2.87h-25v-2.87c6.48-.58,7.14-1.07,7.14-8V390H323.49v15.25c0,7,.65,7.46,6.72,8v2.87H305.78v-2.87c6-.58,6.72-1.07,6.72-8V373.76c0-7-.74-7.46-7.05-8v-2.87h24.6v2.87c-5.91.57-6.56,1.06-6.56,8v12.06h22.39V373.76c0-7-.66-7.46-6.81-8v-2.87h24.68Z"/><path class="cls-1" d="M414.34,376.88c-1-4.26-2.13-7.05-3.6-8.53s-3.53-1.89-8.37-1.89h-3.69v38.79c0,7,.82,7.46,8,8v2.87H380v-2.87c6.88-.58,7.7-1.07,7.7-8V366.46h-2.78c-6.81,0-8.29.83-9.43,2.22-1.4,1.39-2.38,4.18-3.45,8.28h-3c.33-6,.82-12,1-16.15h2c1.23,1.8,2.3,2.05,4.68,2.05h33a5.35,5.35,0,0,0,4.67-2.05h2.05c.09,3.44.5,10.66.91,15.9Z"/><path class="cls-1" d="M222.28,113.35l-1.48,1.85-7.4,5.18q-4.44,3.33-5.55,6.66c-1.84,1.11-3.32,5.54-3.69,12.57l-1.48,8.14c0,8.14-.37,12.58-.74,12.95-.74,9.24-1.11,17.38-1.11,23.67v31.07c0,8.51.37,14.05.74,15.9a43.21,43.21,0,0,0,3,13.32l.37.37a13.86,13.86,0,0,0,5.91,7.77,8.51,8.51,0,0,0,2.59,3c4.81,3.7,7.4,6.28,7.4,8.13,0,1.11-.74,1.85-2.59,3a2.8,2.8,0,0,0-1.48.37c-17,0-26.26,0-27.37.37l-4.44,1.11c-.37-.37-1.11-.37-3-.74h-8.5a1.36,1.36,0,0,0-1.11-.37l-26.64-.37a4,4,0,0,1-1.85-.37c-4.8,0-8.13.37-9.24,1.48-6.29.37-10-1.11-11.1-3.7a7.3,7.3,0,0,1,2.22-5.17,53.83,53.83,0,0,0,10.73-10c.74-1.48,1.48-5.18,2.22-11.47.37-4.81,1.85-8.14,4.06-10.35l.74-20.72a7.86,7.86,0,0,0,0-6.66,107.52,107.52,0,0,1,0-15.53,10.63,10.63,0,0,0,.74-4.44,32,32,0,0,0-.37-5.55,5.49,5.49,0,0,1-.37-2.59,9.2,9.2,0,0,1,.37-3V151.08c1.11-7.4-.37-14.8-3.69-21.83a30.22,30.22,0,0,0-1.85-4.06L136.47,123c-2.59-1.85-5.92-5.18-10.73-10v-2.22c0-2.59,2.22-4.07,6.66-4.81,2.22,0,5.55,0,10-.37a16.28,16.28,0,0,0,3.7-.74h71.39c.37.37,1.48.37,2.59.74.37.37.74.37,1.48.37a6.27,6.27,0,0,1,1.48,6.66Zm-71,10.36v1.11h1.11a1.36,1.36,0,0,0,.37-1.11Zm5.18,12.2c.37-1.11-.37-1.85-2.22-1.85a6.25,6.25,0,0,0,.74,1.85Zm4.07,9.25a7.94,7.94,0,0,0-2.59-1.48l-1.11-2.22a2.24,2.24,0,0,0-2.22-1.11c0,.37,0,.37-.37.37a3.6,3.6,0,0,0,3,3.7l1.48,3c.37.37,1.11,0,1.85-.37ZM156.44,120a1.65,1.65,0,0,0-1.85,0,1.92,1.92,0,0,0,.74,1.48Zm-.37,8.14V127h-.74c-.37,0-.37,0-.37.37s0,.74.37.74Zm-.74,19.23a1.36,1.36,0,0,0-.37,1.11,2,2,0,0,0,1.11,1.48c.37,0,.37,0,.37-.37Q156.44,147.38,155.33,147.38Zm5.92,74.35-.74-1.11H159a2.81,2.81,0,0,0-.74,1.48q0,.56,1.11,1.11Zm3.33-87.67H163.1l-3.33,3-1.11.74q-.56.56,1.11,2.22h1.85c.37-.37.37-1.48.37-3a9.41,9.41,0,0,0,2.59-.74Zm17.75,11.1c-2.59,0-3.7-1.11-2.59-3.33-1.11-.37-1.48-1.85-1.48-4.07,1.48-.74,2.22-1.48,2.22-2.59a2.83,2.83,0,0,0-1.85-.74,5.72,5.72,0,0,0-2.22,1.11c-2.22-.37-3.32-1.11-3.32-2.59.37,0,.37,0,.37.37,1.1.37,1.84-.37,2.58-1.48.37-.74.37-1.48-.37-1.85h-1.84c-.74,1.85-1.85,3-3.7,3a5.4,5.4,0,0,0-1.85-3c-1.85-.36-2.59-.36-3,0a6.4,6.4,0,0,0,2.22,4.44v.74c-1.11,1.11-1.85,1.85-1.85,3,0,1.48,2.59,2.22,2.59,5.18-1.11,0-4.44-2.22-5.92-2.22v1.11l1.48.74c1.11,1.11,1.48,2.59,1.85,4.81-2.59-1.11-5.18.74-4.07,3.33-2.22,0-3.33.74-3,2.59.37.37,1.11.74,2.59.37a7,7,0,0,0,.74-3,17,17,0,0,0,3.7-.37,1.36,1.36,0,0,1,.37,1.11,5.18,5.18,0,0,0,.74,4.44v.37l.74.37v3.33a3.92,3.92,0,0,1,2.59,2.21,1.37,1.37,0,0,1,.37,1.11q0,.56-1.11,1.11a2.34,2.34,0,0,0,.37,2.59,2.79,2.79,0,0,0,1.48,2.59l1.11,2.59a8.54,8.54,0,0,0-2.59,1.85v.74c.37,0,.37,0,.37-.37,0,1.11-.74,1.85-1.85,3v1.85c.74,0,1.11.74,1.48,2.22a31,31,0,0,1,3.7.74c.37-.37.73-1.11,1.1-3-1.47,0-2.21-.37-2.21-.74l1.48-.74v-2.59a7.15,7.15,0,0,0,2.58.37,3.13,3.13,0,0,0,2.22-.74,28.26,28.26,0,0,1-3.33-3.33l.37-.37c1.85-.37,3-1.11,3-2.22a2.22,2.22,0,0,0-.37-1.48c0-.37,2.22-4.44,1.85-5.54-2.59-2.59-3.33-4.07-2.59-4.81a7.22,7.22,0,0,0,2.59-.37v-1.85a4.92,4.92,0,0,1-1.11-2.59,4.52,4.52,0,0,1,1.48-3.33,8.33,8.33,0,0,1,.37-2.59,1.92,1.92,0,0,0,1.48-.74Zm-22.19-12.95v-1.48a1.13,1.13,0,0,0-1.48,0,2.81,2.81,0,0,0,.74,1.48Zm8.51,109.86c-1.11-.37-2.59-1.85-3.7-4.07-3-2.59-4.81-3.7-5.92-3.7-.37,2.59-.37,4.44,0,4.81l2.22,1.11v1.11c-.37.37-.37.37-.74.37-1.11.37-1.85,1.48-1.85,3.33a15.08,15.08,0,0,0,2.59-.74l1.11-2.22c2.59,0,3.7,1.11,4.07,3,1.48,0,2.59,0,3-.37A4.31,4.31,0,0,0,168.65,242.07ZM160.51,123H159a2.22,2.22,0,0,0,.37,1.48,1.36,1.36,0,0,0,1.11-.37Zm0,37v-1.11H159c0,.37.37.74.74,1.11Zm0,67.69h-.74a2.78,2.78,0,0,0-.37,1.48c0,1.1.74,1.47,1.85,1.84a16.22,16.22,0,0,0,1.85,3.33c1.85-.37,3-.74,3-1.11a4,4,0,0,0-.37-1.85A14.35,14.35,0,0,1,160.51,227.65Zm4.81-22.57c0-1.11,0-1.85-.37-2.22a12.79,12.79,0,0,0-4.44-1.11,2.22,2.22,0,0,0-.37,1.48l4.07,2.59Zm-4.07,3.33V207.3a1.36,1.36,0,0,1-1.11-.37,1.36,1.36,0,0,1,.37,1.11l.37.37Zm25.89,10.73q0-3.33-3.33-3.33a2.93,2.93,0,0,0-3-1.85c-.37.37,0,1.11.74,2.22a5.33,5.33,0,0,1-4.81-3c-.37-.37-.74-.37-1.85-.74l-.37-2.22a2.68,2.68,0,0,0,2.22-1.48v-2.59a7.94,7.94,0,0,0-2.59-1.48l-.73-2.22a13.8,13.8,0,0,1-4.44.74v-.74a46.52,46.52,0,0,1,4.81-5.92c0-1.84,0-2.95.36-3.32h1.11a1.36,1.36,0,0,0,1.11-.37c-.37-1.85-1.48-2.59-3.32-2.59l-3-4.07c-2.59,0-3.7-5.18-4.81-6.29h-2.59c.37,1.85,1.48,3.7,3.33,6.29,1.11.37,2.22,1.48,4.07,2.59l1.11,2.22h1.48v1.85h-1.11c0,.37,0,.37-.37.37-.74.37-1.11,0-1.11-.37a8.33,8.33,0,0,0-2.59-.37v.74l1.85,1.11a5.11,5.11,0,0,1-2.22,4.06l-1.85.74a4.7,4.7,0,0,0,2.59,4.07v1.85a7.74,7.74,0,0,1,2.22,1.48c0,.37,0,.37-.37.37h-2.59a1.36,1.36,0,0,0-.37,1.11,2.68,2.68,0,0,0,1.48,2.22c.74,1.11.37,2.59-1.48,3.7,0,.37,0,.37-.37.74,0,3.7-4.44,1.11-4.44,3.7l1.11,1.48c1.48.37,2.22,1.11,2.22,2.59-1.11.37-1.85,1.85-2.59,3.7a4.72,4.72,0,0,0,2.59,1.85c.37,1.11,1.48,2.21,2.59,4.06.37,1.11,0,1.85-1.85,2.22,0,2.59,1.11,4.07,3,4.44l1.11,2.22c1.85,0,3,0,3.33.37a7.12,7.12,0,0,0,.73,3l2.22-.74c0-1.11-.74-1.85-2.58-2.22a5.22,5.22,0,0,1-.37-3.33c2.21-.37,3.32-1.11,3.69-2.59l2.22-1.85c0-1.48-1.48-4.43-1.48-5.91l1.85-1.11c0-.74,0-1.11-.37-1.48a5.35,5.35,0,0,0-2.59.74,1.92,1.92,0,0,1-1.48-.74l1.48-1.85c1.48-3.33.74-3.33,4.07-3.33l2.59-2.59c1.48-.37,2.22.74,2.59,2.59Zm-21.82-8.88c-.37-.74-1.48-.74-2.59-.37a1.55,1.55,0,0,0,1.11,2.22C165.32,211.74,165.69,211,165.32,210.26Zm-.74-88.77v-1.85H163.1a1.36,1.36,0,0,0-.37,1.11c0,.37,0,.37.37.74Zm-1.48,74.72c-.37.36-.37.73-.37,1.47l1.11,1.11a2.22,2.22,0,0,1,1.48-.37A2,2,0,0,0,163.1,196.21Zm.37-68.06h0ZM163.1,245v1.85l.74,1.11a1.36,1.36,0,0,1,1.11-.37,9.76,9.76,0,0,0,.37-2.59Zm5.55-126.87c1.11-1.11-1.11-2.22-2.22-1.85v1.48c.37.37.37.37.74.37Zm-1.11,6.66a1.36,1.36,0,0,0-.37-1.11h-.74a1.36,1.36,0,0,0,.37,1.11Zm-1.11,101.72v-1.11c0,.37,0,.37.37.74C166.43,226.17,166.43,226.17,166.43,226.54Zm1.11,22.19c-.37,0-.74.37-1.11.74.37.37.37,1.11.74,2.22q2.78-.56,2.22-2.22A6.25,6.25,0,0,0,167.54,248.73Zm1.11-96.91-1.48-.74v-.37a2.29,2.29,0,0,1,2.59.74A1.36,1.36,0,0,0,168.65,151.82Zm2.22-32.92c-.74.37-1.11.74-1.11,1.48,0,.37,1.48,1.11,1.85,1.48,1.11-.37,1.85-.74,2.22-1.85C173.46,118.9,172.72,118.53,170.87,118.9ZM172,137.39l-1.48.74a2.22,2.22,0,0,1-.37-1.48,1.65,1.65,0,0,1,1.85,0Zm.37,109.12a.8.8,0,0,0-.74-.74,2.22,2.22,0,0,0-1.48.37v2.22C172,248,172.72,247.62,172.35,246.51Zm-1.48-93.21a1.36,1.36,0,0,1,1.11-.37c.37,1.11.74,1.48.74,1.85C171.61,154.41,170.87,153.67,170.87,153.3Zm2.59,31.07V184h-.37v.37Zm4.06-61.77c-.37,0-1.48.37-3.33.74a9.7,9.7,0,0,0-.73,2.59c0,1.11.73,2.22,2.58,2.59l1.48,1.11c1.48-.38,2.22-.74,2.22-1.48s-.74-1.85-2.22-3ZM176,199.53c-.74-.37-1.48,0-2.21,1.11v1.48a3,3,0,0,0,2.58-1.85C176.41,199.9,176.41,199.53,176,199.53Zm3-78.78a3.2,3.2,0,0,0-1.11-2.22h-1.11c0,1.11.74,1.48,1.11,3.33Q179,121.31,179,120.75Zm-2.22,118a3.24,3.24,0,0,0,2.59,2.22,1.36,1.36,0,0,1,1.11-.37C180.11,238.74,179,238,176.78,238.74Zm3.7-30c-2.59,1.11-3.7,2.22-3.33,3.7h2.59c2.22-1.48,3.33-3,3.7-4.81C182.33,207.3,181.59,207.67,180.48,208.78ZM179,146.64v1.11h-.74a1.36,1.36,0,0,1-.37-1.11Zm1.85,19.6a2.12,2.12,0,0,0,.74,2.59h1.85c.37-.37.37-1.48.37-3C183.07,165.5,182,165.87,180.85,166.24Zm2.59-14.42c-2.22,0-3,.74-2.59,1.85a7.22,7.22,0,0,0,2.59-.37Zm.37-35.14a2.77,2.77,0,0,1-.37-1.85,7.22,7.22,0,0,0-2.59.37,2.79,2.79,0,0,0,1.48,2.59Zm-.37,44.39-.74-2.22h-1.85a14.55,14.55,0,0,0,.74,2.22Zm2.22,59.55h-3a7.08,7.08,0,0,0-1.48,3c0,1.85,4.07,3.33,4.44,3.7,1.11-.37,1.85-.74,1.85-1.48s-.74-1.85-1.85-3.33Zm-4.07-81.38c.37,0,.37,0,.37-.37C181.59,138.87,181.59,138.87,181.59,139.24Zm.37,89.89c.37,0,.37,0,.74.36.74-.36,1.11-.74,1.11-1.47C182.7,228,182,228.39,182,229.13ZM183.81,258V256.5c-1.11.37-1.85.74-1.85,1.11.37.37.37.37.74.37Zm0-86.56,2.22,1.11h1.48c.37-1.85.37-3.33,0-3.7C184.92,168.83,183.44,169.57,183.81,171.42Zm3-23.3-1.48.74V150h.37c1.11,0,1.48-.37,1.48-1.48Zm0,7.4c-1.11,0-1.48.37-1.48.74s0,.37.37.74a1.36,1.36,0,0,1,1.11-.37Zm.74,10v-1.85c-.37-.37-.74-.73-1.11-.73a2,2,0,0,0-1.11,1.47,1.36,1.36,0,0,0,.37,1.11Zm1.85,38.84c-1.85,0-2.59.37-2.59,1.48,0,1.48,1.85,1.85,1.85,7.4l.74.74h.74c-.37-1.11,0-2.59.37-5.18Q190.47,205.45,189.36,204.34Zm1.11-35.88v-2.22c-.37-.37-1.11-.37-2.22-.37v3h1.48v-.37Zm0-23.3c-.74-.37-1.11-.37-1.48,0s0,.74.74,1.11c.37,0,.37,0,.74-.37Zm.74,113.19c0-.74,0-1.11-.37-1.48h-.37a2.8,2.8,0,0,0-.37,1.48h1.11Zm-.74-8.51V251c.37,0,.74-.37.74-1.11Z"/><path class="cls-1" d="M262.12,267.9c-.26.26-2.09.26-5.48.26a25.28,25.28,0,0,1-5.22-.78h-5.74c-5.22.26-7.31.26-6,.26a71.65,71.65,0,0,1-8.62-.79h-7.57V264c.79-.52,1-1.3,1.31-2.61l3.91-1c1.31-.26,3.14-1.31,5.48-3.66a22.75,22.75,0,0,0,3.14-1.82A20.74,20.74,0,0,0,242,246.5l2.35-3.92c0,1.57.53-2.35,1.83-11.74-.26-3.4.52-8.1,1.83-14.1v-8.09a10.67,10.67,0,0,0,1-2.35c.26-1.83.78-3.13,1.57-3.39,0,.26,0,.26.26.26.26,6,.52,12.53,1,19.57v12.53l1.05,3.92a70.34,70.34,0,0,0,3.39,10.44,38.75,38.75,0,0,1,2.87,3.91l2.09,2.09,9.4,5.48a5,5,0,0,1,1,3.13,3.32,3.32,0,0,1-.26,1.57C270.47,266.85,267.34,267.64,262.12,267.9ZM372.26,161.67a47.14,47.14,0,0,1-6.52,3.13,19.08,19.08,0,0,0-2.35,3.39v3.92c-.78,1-1.83,2.61-3.39,4.44a9.25,9.25,0,0,0-1.05,5c-.52,2.87-1.3,7-2.61,12.26,0,1.57-.26,4.44-.78,8.88a16.72,16.72,0,0,1-1.3,4.17c-.26.26-.26.79-.53,1.57,0,1,.27,2.61.53,4.7,0,8.09-.26,13.83-1.05,17.22V241.8c.26.52.26,2.87.26,7A8.57,8.57,0,0,1,354,253a14.4,14.4,0,0,0-.53,4.18v4.69a8.5,8.5,0,0,1-2.35,4.18l-.78.78a6.52,6.52,0,0,1-2.09.26l-20.62.27L325,266.07c-1.82-1.57-3.13-3.13-3.39-4.44a19.37,19.37,0,0,1-2.09-3.13c-1.3-.78-2.61-2.35-4.43-4.44a63.36,63.36,0,0,0-5.49-7.3l-.78-1c-.78-.78-1.83-2.35-3.65-4.17.78.26,2.09-.79,4.43-2.87a4,4,0,0,0,.27-2.88,1.89,1.89,0,0,1-.27-1.3c-.26,0-.26,0-.26-.26l-1.56-.52.26-1.57a16.21,16.21,0,0,0-1.31,1.57,4.11,4.11,0,0,0-1.82-1.05l-.26.52-2.61,1.57v.52h.26v.52h-.53v-.52h-.26a24.14,24.14,0,0,1-3.91-4.43h.26V229h-.52a1.92,1.92,0,0,1-.53,1l-.52-.78c-2.08-1.83-5.74-6.26-11-13.05a2.13,2.13,0,0,1-1.3-1.31l-3.92-4.69-.78-.53A100.69,100.69,0,0,0,271,200.3c-.26-.78-2.61-3.39-7.31-7.83a21.67,21.67,0,0,1-2.61-1.31c-3.39,0-5.74.79-7,2.09a19.34,19.34,0,0,1-2.61,3.39c-.78-.26-1.3-.78-1.57-2.08-.52-17-2.08-25.58-4.69-25.58a13.55,13.55,0,0,0-9.14-6.53l-5.48-2.87a5,5,0,0,1-2.09-3.91,19.27,19.27,0,0,1,2.87-1.83c.26-.26.79-.26,1.83-.52h11.22l.79.26q21.91.78,23.49-.78c2.87-.27,5.48-.27,7.83-.27a33.32,33.32,0,0,1,8.35.79,11.92,11.92,0,0,1,2.61,2.61l.78,1.3a52.45,52.45,0,0,1,4.7,5.22l2.35,2.35,2.35,3.92a58.16,58.16,0,0,1,8.09,9.13l4.18,4.7c.52.26,1.3,1.3,2.61,3.65a6,6,0,0,1,2.08,2.88c1.83,1.56,4.18,3.91,7.31,7,.78,1.83,3.39,4.7,7.57,8.62a16.76,16.76,0,0,0,3.39,3.65,19.4,19.4,0,0,0,5.75,5.48,8.47,8.47,0,0,0,4.17,2.35l.26.26h4.18c0-.26,0-.26.26-.26q3.13-.78,3.91-4.7a14.24,14.24,0,0,0,1.05-3.13c0-1.31-1.05-5.22-1.05-6.53a26.47,26.47,0,0,1,0-6.52c0-1.05,0-3.39-.26-7.05l-1.56-9.92-.79-1.56a34.72,34.72,0,0,0-2.87-7.57,16.56,16.56,0,0,0-5.48-6,29.29,29.29,0,0,0-6-3.92l-.78-.52a5.13,5.13,0,0,1-1.31-3.65c.26-.79,1.83-1.57,4.7-2.62h14.09a39.71,39.71,0,0,0,6.79.27c1.3.78,8.35.78,16.7,1.82a3.61,3.61,0,0,1,1.57,2.87C375.92,158.28,374.61,159.58,372.26,161.67ZM249.07,216.22V216h-.26v.26Zm1.31,21.66v.26c.26,0,.26,0,.26-.26Zm1,6.79v0Zm3.13,13.83c0-.78-.52-1-1.56-1-.26.26-.26.26-.26.52h-.79v.52a5.7,5.7,0,0,1,1.57,1.83C254.29,259.55,254.55,259,254.55,258.5Zm7.05,2.09a4.68,4.68,0,0,0-2.87.78,5.37,5.37,0,0,0,1.3,2.35c1.31-.26,2.09-1,2.09-1.83C261.86,261.63,261.86,261.11,261.6,260.59ZM270.21,175v-.26c-.26-.26-.26-.26-.52,0V175Zm4.18,2.09v-.78l-1.57-.27c0,.27,0,.27-.26.27a1.39,1.39,0,0,0,.78,1Zm1.57,2.09v-.26l-.27.26Zm4.69,0c0-1-1-2.09-2.08-2.87h-1.05a10.65,10.65,0,0,0-1.3,2.61c0,.26,0,.26.26.26l2.87-.79c.26.53.78.79,1,1C280.65,179.42,280.65,179.42,280.65,179.16Zm15.66,44.89v-.52h-1c0,.78,0,1.3.26,1.56Zm10.18-1.83.26.26c0-.26,0-.26.26-.26Zm6.53,7.83h-.26v.26Zm3.39,19.58h-1l.52.78c0-.26.26-.26.52-.26Zm.26-27.67a10.59,10.59,0,0,0,.52,1.57h.53a3.9,3.9,0,0,0,.26-1.83C317.45,221.44,316.93,221.44,316.67,222Zm19.05,17.75a37.08,37.08,0,0,0-.26-5,11.54,11.54,0,0,1-2.87-3.13,3.34,3.34,0,0,0,.26-1.57c-.26-.26-1,0-1.82.52-.53-.26-1-.26-1.31-.52v-1.56c-.26-.26-.52-.26-1.3-.53l-1.31-.78c-.78-1-5.22-.78-5.48-1.83-.26,0-.26,0-.52-.26v-.26l-.52-.26v1.05c0,1.3,0,2.08.26,2.08a2,2,0,0,1-.26,1.05c-.79.26-1,.52-1,1,0,.78.26,1.83,3.13,2.09a15.47,15.47,0,0,0,3.66,6,6.52,6.52,0,0,0,.26,2.09l1,.78.79.79h-.79l1.57,1c1.83-.26,2.35-.52,1.83-1.3.26-.27.26-.27.52-.27l.78.53.52-1h1a.79.79,0,0,1-.26,1,1,1,0,0,1-.79-.26c-.26.52,0,.78.79,1,.78,0,1-.52,1-1.31Zm-13.31,6.52V246l-.78-.52h-1.57v.26l.79.52Zm0-18h-.52a1,1,0,0,1-.26-.79h.78c0,.26,0,.26.26.26C322.41,228,322.41,228,322.41,228.23Zm15.14-5.75v.26l.26-.26Z"/></svg>