<svg id="Layer_1" data-name="Layer 1" xmlns="http://www.w3.org/2000/svg" viewBox="0 0 500 500"><defs><style>.cls-1{fill:#fff;}</style></defs><title>stress</title><rect class="cls-1" width="500" height="500"/><polygon points="74.66 21.36 84.28 69.48 110.24 21.36 285.24 21.36 295.81 8.15 301.58 21.36 322.74 64.77 331.39 32.68 349.66 27.96 396.77 21.36 475.62 24.19 441 55.33 481.39 54.39 481.39 208.2 491 216.69 484.27 216.69 494.85 230.84 488.12 240.28 482.35 261.98 480.43 354.46 487.86 380.47 483.31 388.22 484.27 474.3 459.27 474.3 444.85 494.11 432.35 474.3 311.2 475.24 328.5 494.11 284.75 474.3 204.42 482.12 211.71 439.56 166.01 489.4 157.35 472.41 24.66 473.35 65.05 429 20.82 439.38 20.82 349.74 5.43 362.01 20.82 329.92 17.93 195.93 28.51 205.37 16.01 174.23 16.97 149.69 27.55 176.11 16.97 114.78 16.97 20.42 37.16 20.42 34.28 36.46 55.43 3.43 56.39 18.53 74.66 21.36"/><path class="cls-1" d="M144.61,376.22C143,371.06,139.85,365,133.21,365a7.75,7.75,0,0,0-8,8.12c0,4.51,3,7.05,10.16,10.74,8.61,4.18,14.52,8.77,14.52,16.89,0,9.35-8,16.65-19.93,16.65a29.22,29.22,0,0,1-8.28-1.15,33.79,33.79,0,0,1-4.92-1.8c-.82-2.05-1.89-8.94-2.46-13.86l2.87-1c1.64,5.25,6.48,14.52,14.35,14.52,5,0,8.2-3.45,8.2-8.69,0-4.84-3.61-7.88-9.76-11.16-8.36-4.26-14.27-8.69-14.27-16.56,0-9,7.14-16.07,18.78-16.07a36.34,36.34,0,0,1,11.4,2.13c.33,3,.9,6.72,1.56,11.81Z"/><path class="cls-1" d="M199.38,376.88c-1-4.26-2.13-7.05-3.6-8.53s-3.53-1.89-8.37-1.89h-3.69v38.79c0,7,.82,7.46,8,8v2.87H165v-2.87c6.88-.58,7.7-1.07,7.7-8V366.46H170c-6.81,0-8.29.83-9.43,2.22-1.4,1.39-2.38,4.18-3.45,8.28h-3c.33-6,.82-12,1-16.15h2c1.23,1.8,2.3,2.05,4.68,2.05h33a5.35,5.35,0,0,0,4.67-2.05h2.05c.09,3.44.5,10.66.91,15.9Z"/><path class="cls-1" d="M258,416.9c-.49,0-1.39-.09-2.46-.09-10.33-.49-13.44-2.78-16.81-7.95-2.13-3.36-4.34-7.79-6.72-12.14-1.31-2.46-2.79-3.52-5.41-3.52h-1.56v12c0,6.81.74,7.54,7,8.12v2.87H207.25v-2.87c6.15-.58,7.06-1.31,7.06-8.12V373.68c0-6.56-.74-7.38-6.73-7.95v-2.87h23c7.21,0,11.31.82,14.67,3a12.53,12.53,0,0,1,5.5,10.91c0,7.21-4.76,11.15-10.25,13.36,1.23,2.46,4.26,7.88,6.72,11.65a68.52,68.52,0,0,0,6.23,8.94,12.52,12.52,0,0,0,5,3.52Zm-30.83-27c3.45,0,6.23-.58,8-2.13,2.78-2.3,3.93-5.58,3.93-9.76,0-8.78-5.08-11.89-9.67-11.89-2,0-3.2.32-3.69.82s-.74,1.31-.74,3v19.93Z"/><path class="cls-1" d="M305.24,402.54c-.57,3.7-2.21,11.16-2.86,13.62H260.55v-2.87c7-.58,7.79-1.07,7.79-8V373.76c0-7.13-.81-7.54-6.64-8v-2.87h38.62c.09,1.47.5,7.21.82,12.3l-3,.41c-.74-2.87-1.8-5.58-3.28-7.06s-3.61-2.05-8.2-2.05H282.7c-3,0-3.37.17-3.37,2.87v17.39h5.5c6.88,0,8-.41,9.1-6.15h2.95v16.48h-2.95c-1.07-5.9-2.13-6.23-9.1-6.23h-5.5v14.27c0,3.93.33,5.9,2,6.72,1.48.66,4.26.82,7.38.82,4.27,0,7.13-.57,9-2.62a27.28,27.28,0,0,0,4.59-8Z"/><path class="cls-1" d="M339.44,376.22C337.8,371.06,334.68,365,328,365a7.75,7.75,0,0,0-8,8.12c0,4.51,3,7.05,10.16,10.74,8.61,4.18,14.52,8.77,14.52,16.89,0,9.35-8,16.65-19.93,16.65a29.22,29.22,0,0,1-8.28-1.15,33.79,33.79,0,0,1-4.92-1.8c-.82-2.05-1.89-8.94-2.46-13.86l2.87-1c1.64,5.25,6.48,14.52,14.35,14.52,5,0,8.2-3.45,8.2-8.69,0-4.84-3.61-7.88-9.76-11.16-8.36-4.26-14.27-8.69-14.27-16.56,0-9,7.14-16.07,18.78-16.07a36.34,36.34,0,0,1,11.4,2.13c.33,3,.9,6.72,1.56,11.81Z"/><path class="cls-1" d="M380.85,376.22c-1.64-5.16-4.76-11.23-11.4-11.23a7.75,7.75,0,0,0-7.95,8.12c0,4.51,2.95,7.05,10.16,10.74,8.61,4.18,14.52,8.77,14.52,16.89,0,9.35-8,16.65-19.93,16.65a29.22,29.22,0,0,1-8.28-1.15,33.79,33.79,0,0,1-4.92-1.8c-.82-2.05-1.89-8.94-2.46-13.86l2.87-1c1.64,5.25,6.48,14.52,14.35,14.52,5,0,8.2-3.45,8.2-8.69,0-4.84-3.61-7.88-9.76-11.16C357.89,390,352,385.57,352,377.7c0-9,7.14-16.07,18.78-16.07a36.34,36.34,0,0,1,11.4,2.13c.33,3,.9,6.72,1.56,11.81Z"/><path class="cls-1" d="M321.71,221a1.36,1.36,0,0,0-1.11.37v.74c.37,0,.37,0,.37.37-.37,3.7-1.48,5.55-2.59,5.91l-.37-.73c-.74,0-1.11-.37-1.11-.74h-3l-2.22,1.47c.37.37.37.75.37,1.49h1.11v.36a1.36,1.36,0,0,1,1.11.37h.37V231a7.94,7.94,0,0,1,1.48,2.59c.37,2.22-1.48,5.92-5.54,10.73a50.87,50.87,0,0,1-6.29,7l-8.14,7.77h-.37a32.56,32.56,0,0,1-5.55,1.85c-.37.37-.74.37-1.85.73-1.11,1.85-3.7,3.7-7.4,5.92l-6.28,1.48c-5.18,0-11.47,1.11-19.24,3h-5.18c-.37-.37-.37-.37-.74-.37H236.27a55.18,55.18,0,0,1-7.77-1.85l-6.66-.74a10.24,10.24,0,0,1-3.33-.37L204.83,268c-.37,0-.37,0-.37-.37-8.51-.37-13.32-.37-14.8.37-4.44,0-7.4-1.11-8.88-3a2.84,2.84,0,0,0-.36-1.85A41.6,41.6,0,0,0,179.3,255c-.36-5.55-.36-8.88,0-9.25,0,2.59-.36-4.44-1.1-21.45a57.71,57.71,0,0,0,0-11.47,7.22,7.22,0,0,1-.37-2.59,3.72,3.72,0,0,1,2.21-3.7,6.65,6.65,0,0,1,4.07,1.11c2.22,4.44,4.81,9.62,8.14,15.17a74.71,74.71,0,0,1,6.66,11.83h.37c.74,2.22,3.7,5.55,8.88,10.36,2.59,4.07,5.17,7,8.13,8.14l1.11.74c1.48,1.48,5.55,4.44,17.76,7.4a11.4,11.4,0,0,0,3.7,1.11,11,11,0,0,0,3.7,1.1,13.7,13.7,0,0,0,5.17.74c8.51,0,8.88-2.22,16.28-5.17a19.63,19.63,0,0,0,5.55-5.55l3.33-2.59c1.85-2.59,3.33-5.18,3.7-7.77.37-.37.74-2.22.74-6.29,0-1.48-.37-1.85-1.48-7.4q-2.22-1.67-5.55-6.65a101.67,101.67,0,0,0-8.88-6.29c-1.11-1.11-4.07-1.85-8.88-3a27.46,27.46,0,0,1-5.91-1.85h-.75c-.73-.74-3.32-1.85-7.76-3.7a47.2,47.2,0,0,1-12.21-3.7c-4.81-2.22-8.51-3.7-11.1-4.07-2.22-.74-5.91-2.59-11.46-5.17a11.16,11.16,0,0,0-5.55-3.33l-2.22-1.48c-1.85-2.59-4.81-6.66-8.51-12.95l-3-5.55-2.22-7c0-.37,0-.37-.37-.37V145.16c1.11-3,2.22-7.4,4.07-13.69l8.88-13.31,7-5.92,3.33-2.59a23.31,23.31,0,0,1,10-3.7l6.29-2.22,3-1.85,3.7-1.11H244a29.75,29.75,0,0,1,5.91-.37c3,0,6.29.37,10,.74,2.59.37,5.92.74,10.73,1.85a2.77,2.77,0,0,0,1.85.37l7.76,1.11c1.85-.37,4.07,0,6.66.37,15.17,1.48,13.32-1.85,15.17,14.06,1.11,1.85,1.48,5.18,1.48,10a5.35,5.35,0,0,0-.74,2.22,25.92,25.92,0,0,0,1.11,5.18,60.06,60.06,0,0,1,.37,7.77c.37,3.33-.37,5.18-2.22,6.29h-1.85a28.93,28.93,0,0,1-4.44-7,50.33,50.33,0,0,0-4.44-6.29,21.66,21.66,0,0,0-4.07-5.18,24.67,24.67,0,0,1-2.59-6.28l-1.11-1.48-5.54-3.7c-6.29-7.4-12.95-11.47-20-11.84-1.11-.37-3-.37-4.81-.74H241.45c-2.59.37-5.55,2.22-8.51,4.81a53.74,53.74,0,0,0-7.77,5.92l-1.85,6.29a5.49,5.49,0,0,0-.37,2.59,24.87,24.87,0,0,0,1.11,6.65c.37,0,.37.37.74,1.11l3.33,3c1.48,2.59,6.29,5.92,14.43,10.73l1.85.37,13.68,4.44,1.11.37,3.7,1.48c1.11,1.11,4.81,2.59,11.47,3.7a52,52,0,0,1,5.91,1.85l9.25,4.8,6.66,3.33a40.11,40.11,0,0,0,9.62,7,25.74,25.74,0,0,1,8.13,9.62c.37,1.48.37,2.22.74,2.59a62.29,62.29,0,0,1,4.44,7c1.85,12.21,2.59,17.39,2.59,15.91ZM198.54,135.54v-.74c0-.37,0-.37-.37-.37l-3.7,7.4v2.22l.37.37,3-3.7a8.11,8.11,0,0,0-1.11-3Zm4.07,37.36a1,1,0,0,0-1.11-1.11c-.37.37,0,.74.37,1.11Zm2.22,8.88a1.92,1.92,0,0,0,.74,1.48,1.36,1.36,0,0,1,1.11-.37A4,4,0,0,0,204.83,181.78Zm1.11-5.55h-.74V177h.74Zm11.83-33.29c-2.22-1.85-3.7-3-4.81-2.59v.37c2.59,2.22,3.7,4.44,3.7,6.29-.37,0-.37,0-.74.37-3.33.37-5.17,1.85-5.17,4.44a2.21,2.21,0,0,0,1.47.37c.37-.74,1.11-.74,2.22-.37,0,.74-.73,1.11-1.85,1.48a7.39,7.39,0,0,0,.74,3.33,32.4,32.4,0,0,0,4.44-2.59c.37-.37,1.48.37,2.59,1.48H223a23.17,23.17,0,0,0,1.48-5.18A90.75,90.75,0,0,1,217.77,142.94Zm-3.33,24.78h-.37c-1.48.74-2.21,1.48-1.85,1.85a7.2,7.2,0,0,0,2.59-.37A2.22,2.22,0,0,1,214.44,167.72Zm-.73,6.66c-.75.37-1.12.74-1.12,1.11a2.81,2.81,0,0,0,.74,1.48q2.22,0,2.22-1.11a2.81,2.81,0,0,0-.74-1.48Zm7.39-11.09a1.37,1.37,0,0,0,.37-1.11c0-.74-.74-1.48-1.85-2.22a5.26,5.26,0,0,0-.74-2.22H217a10.4,10.4,0,0,1-4.07,1.85v3.33l2.22,2.21c.37.37,1.11.37,1.85.74a4.61,4.61,0,0,1,1.48-2.58Zm-3,16.27v-.37c-.37,0-.37,0-.74.37h.74Zm64,18.86a6.4,6.4,0,0,0-2.21-4.43v-1.48a6.06,6.06,0,0,0,1.47-3.33,2.83,2.83,0,0,0-.74-1.85,24.46,24.46,0,0,1-.37-4.07c-.36-.37-1.48.74-3.69,2.59a9.76,9.76,0,0,0-.37,2.59,9.2,9.2,0,0,1-3-.37l-3.7-4.44c-.37-.74,0-1.48.74-2.59,0-1.85-.37-3-1.48-3.7-.37-.74-.37-1.85.74-3.33a11.9,11.9,0,0,0,3-.37l.74-1.48h3a4.5,4.5,0,0,0,3.32,1.48v-.74c-2.58-2.22-7-3.7-13.31-4.07h-3.7c-.37-1.11-1.48-1.48-3-1.48,0,.37-.74,1.48-.74,1.85.37.37.37.74.74.74,0,.74-.74,1.48-1.85,1.85l-3,.74c-.37,1.48-1.85,2.22-4.44,1.85a4,4,0,0,0-1.48,1.85,8.67,8.67,0,0,1-7.39-4.44,24.16,24.16,0,0,1-4.07-.74V169.2a3.38,3.38,0,0,0-1.85-1.11,2,2,0,0,0-1.85,1.11,5.9,5.9,0,0,1-3,1.11,15.92,15.92,0,0,1,2.59-2.59c.37-2.22,0-3.33-.37-3.7s-1.48,0-2.59,1.11c0,.37-.37.74-1.11,1.48h-2.59l-.74-1.11a1.08,1.08,0,0,0-1.11,1.85c.37-.37.74-.37,1.48-.37v2.22l2.22,2.22-.74,1.48a5.19,5.19,0,0,1-1.48-2.59,5.69,5.69,0,0,1-2.22-1.48,5,5,0,0,0-3.33,0c-.37.74-.37,1.85,0,3.7,0,.37-2.22,1.85-2.22,3l1.11,1.11a7.22,7.22,0,0,0,2.59-.37,6.51,6.51,0,0,1,.37-2.22h1.48c1.85,1.48,2.59,2.59,1.85,3.7-1.11.37-1.85.74-1.85,1.85,1.48,1.11,4.07-1.48,5.18-1.11a2.22,2.22,0,0,1,.37,1.48,5.7,5.7,0,0,0,4.07.74l1.85,1.48c.37,2.59,1.48,3.33,2.59,2.22,0-1.85.37-2.59,1.11-2.59l1.48,2.59a3.13,3.13,0,0,1,2.22.74h2.95c1.11,1.85,2.59,2.59,5.18,1.85a5.19,5.19,0,0,1,1.48,2.59c4.81,1.11,6.66,1.48,5.55,1.48a2.22,2.22,0,0,1,1.48.37,14.55,14.55,0,0,1,2.22-.74c-.37,1.11,0,3,.74,4.8,1.11-.36,1.48-1.47,1.48-3.32l-1.11-1.48c.37-.37,1.11-.37,1.48.74a19.66,19.66,0,0,1,5.18-.37c-1.11,1.48-1.85,2.59-1.85,3.69s1.48-1.1,4.81,4.44c3,.37,3.7.37,4.07,3.33l3.69,1.85.37-.37v-1.48l-.37-1.11Zm-48.45-41.79a9.82,9.82,0,0,0-5.18-1.85v.37l1.48,1.48a3.24,3.24,0,0,1-3,3.33c-.74.74-.37,1.48,1.11,2.58l.74.75a8.26,8.26,0,0,0,2.59-2.59,3.79,3.79,0,0,1,2.22-1.85Zm2.59,33.29-4.44,2.22c-.37,1.48,0,2.58,1.85,3h.74l.74-2.59c1.48-1.11,2.22-2.22,2.22-2.59Zm-3.33-4.81c-.74,0-1.11.37-1.11.74a2.22,2.22,0,0,1,.37,1.48c.37-.37.37-.37.74-.37Zm9.25,10.72c-.37-2.21-1.85-3.32-3.7-3-1.11,3.33-1.48,4.43-1.48,3.69a1.47,1.47,0,0,0,1.85-.36,12,12,0,0,1,3.7,1.1l.74-.36c0-.38,0-.38.37-.38A2.88,2.88,0,0,0,242.19,195.83Zm-3.33-10a2.22,2.22,0,0,0,.37,1.48c1.48,0,2.22-.37,2.22-.74a2.81,2.81,0,0,0-.74-1.48C239.6,185.11,238.86,185.48,238.86,185.85Zm8.87-15.17v-2.59c.74-.37.74-1.48.37-2.59-.37-1.85-1.11-2.21-2.22-1.48v3.33a5.64,5.64,0,0,1-2.58,1.11,1.36,1.36,0,0,0-.37,1.11l1.11.74a12.24,12.24,0,0,0,3,4.07c.37,0,.74-.37,1.48-.74A8.71,8.71,0,0,0,247.73,170.68Zm-4.43-10q-.56,1.65,0,2.22a6.34,6.34,0,0,1,2.21-.38C245.51,161.44,244.78,160.7,243.3,160.7Zm.37,29.22V191a1.36,1.36,0,0,0,1.11-.37C244.41,190.29,244,189.92,243.67,189.92Zm12.57,5.18c0-1.11,0-1.48-.37-1.85-1.11,0-1.85.37-1.85,1.11a2.88,2.88,0,0,0,1.85.74Zm3.33,1.47-.37-.36a1.38,1.38,0,0,1-1.11.36c0,.38.37.74.74,1.11l.74-.37Zm.74-19.6-.74-.74c.74-1.11,1.48-1.85,2.59-1.85.37,0,.74.37,1.11.74C263.27,176.23,262.16,176.6,260.31,177Zm8.88,30.33c-.37-1.48-2.22-2.59-2.22-3.7h-1.11c-.37.37-.74.74-.74,1.11,0,1.11,1.11,1.85,3,2.59Zm2.59,2.22v-.74c-.37,0-.37,0-.74-.37l-.37.74c.37.37.37.37.74.37Zm1.11-16.64h-.74c-1.11-1.11-1.48-1.48-1.11-1.85h.74Zm.74,11.46c-.37-.37-.37-.37-.37-.74h-1.85a2.22,2.22,0,0,0,.37,1.48c1.11-.37,1.85-.37,1.48-.37Zm2.22-11.46v2.58a5.49,5.49,0,0,0-2.59.37l-1.11-1.11c0-.73.74-1.1,2.59-1.47,0-.37-.37-.37-.74-.37.74-.37,1.48-1.48,2.59-3h1.84a1.36,1.36,0,0,1,.37,1.11A9.37,9.37,0,0,0,275.85,192.88Zm-.74-10h-1.85a2.22,2.22,0,0,0-.37,1.48l.74.74a2.22,2.22,0,0,0,1.48-.37Zm-.74-7-.37.37c0,.37,0,.37.37.74.37-.37.74-.37.74-.74C274.74,175.86,274.74,175.86,274.37,175.86Zm6.28,28.85c-.37,0-.37,0-.73.37-1.12.37-2.22,1.85-3.33,4.44l.37.74c1.47-.37,2.58-1.48,3.69-3.33Zm-2.95-25.15h-.37v.74l.74.74c.36-.37.36-.37.73-.37A1,1,0,0,0,277.7,179.56Zm4.43,50.31v-.38h-.74v.38Zm11.47-13M296.19,248v-.37c0,.37,0,.37-.37.37Zm1.11,9.25v.37c.37,0,.37,0,.37-.37Zm15.9-36.62c-1.11-2.22-1.48-2.59-1.48-1.48h-.36v.37l.73,1.11Zm-.74-4.07c0-.37,0-.37-.37-.37v-.37c-.37,0-.37,0-.37.37h.37c0,.37,0,.37.37.74Z"/></svg>