<svg id="Layer_1" data-name="Layer 1" xmlns="http://www.w3.org/2000/svg" viewBox="0 0 500 500"><defs><style>.cls-1{fill:#fff;}</style></defs><title>discipline</title><rect class="cls-1" width="500" height="500"/><polygon points="74.66 21.36 84.28 69.48 110.24 21.36 285.24 21.36 295.81 8.15 301.58 21.36 322.74 64.77 331.39 32.68 349.66 27.96 396.77 21.36 475.62 24.19 441 55.33 481.39 54.39 481.39 208.2 491 216.69 484.27 216.69 494.85 230.84 488.12 240.28 482.35 261.98 480.92 330.74 454.54 326.24 482.61 347.18 484.27 474.3 459.27 474.3 444.85 494.11 432.35 474.3 311.2 475.24 328.5 494.11 284.75 474.3 204.42 482.12 211.71 439.56 166.01 489.4 157.35 472.41 24.66 473.35 65.05 429 20.82 439.38 20.82 349.74 5.43 362.01 20.82 329.92 17.93 195.93 28.51 205.37 16.01 174.23 16.97 149.69 27.55 176.11 16.97 114.78 16.97 20.42 37.16 20.42 34.28 36.46 55.43 3.43 56.39 18.53 74.66 21.36"/><path class="cls-1" d="M51.33,362.86c10.34,0,18.29,2.05,23.54,7.05a23.38,23.38,0,0,1,7.3,17.47c0,10-4,17.22-10.25,22-6.07,4.59-14.68,6.81-24.85,6.81H26v-2.87c6.47-.58,7.29-1.07,7.29-8.12V373.84c0-7-.82-7.54-6.56-8.11v-2.87Zm-7,41.82c0,5.9,1.23,7.95,7,7.95,11,0,18.53-8.94,18.53-23.61,0-7.79-2.37-14-6.15-17.72-3.36-3.44-7.7-5.08-13.36-5.08-3,0-4.59.57-5.17,1.15-.65.74-.82,2.13-.82,4.51Z"/><path class="cls-1" d="M87.74,416.16v-2.87c6.15-.58,6.89-1.15,6.89-8V373.84c0-7-.74-7.54-6.89-8.11v-2.87h24.68v2.87c-6.15.57-6.8,1.06-6.8,8.11v31.41c0,6.89.65,7.46,6.8,8v2.87Z"/><path class="cls-1" d="M149.08,376.22c-1.64-5.16-4.76-11.23-11.4-11.23a7.76,7.76,0,0,0-8,8.12c0,4.51,3,7.05,10.17,10.74,8.61,4.18,14.52,8.77,14.52,16.89,0,9.35-8,16.65-19.93,16.65a29.22,29.22,0,0,1-8.28-1.15,33.34,33.34,0,0,1-4.92-1.8c-.82-2.05-1.89-8.94-2.46-13.86l2.87-1c1.64,5.25,6.48,14.52,14.35,14.52,5,0,8.2-3.45,8.2-8.69,0-4.84-3.61-7.88-9.76-11.16-8.36-4.26-14.27-8.69-14.27-16.56,0-9,7.14-16.07,18.78-16.07a36.34,36.34,0,0,1,11.4,2.13c.33,3,.9,6.72,1.56,11.81Z"/><path class="cls-1" d="M211.23,402.14a93.49,93.49,0,0,1-4.59,13.12c-2.13.49-9.68,2.13-15.25,2.13-21.81,0-30.83-14.19-30.83-27.23,0-16.89,12.87-28.53,32.47-28.53A64,64,0,0,1,208,363.84c.74,4.51,1.31,8.28,1.89,13.37l-3,.57c-2.7-9.67-9-12.54-15.33-12.54-11.89,0-18.45,11.15-18.45,23.28,0,15.09,8.12,25,19.27,25,6.81,0,11.89-4.34,16.07-12.62Z"/><path class="cls-1" d="M215.58,416.16v-2.87c6.15-.58,6.88-1.15,6.88-8V373.84c0-7-.73-7.54-6.88-8.11v-2.87h24.68v2.87c-6.15.57-6.81,1.06-6.81,8.11v31.41c0,6.89.66,7.46,6.81,8v2.87Z"/><path class="cls-1" d="M269.62,362.86c6.47,0,11.07.9,14.34,3.19A13.89,13.89,0,0,1,290,378.11c0,11-8.12,16-16.81,17.06a26,26,0,0,1-3.36.16l-5.57-1.39v11.31c0,7,.73,7.55,7.7,8.12v2.79H246.57v-2.79c6.15-.57,6.89-1.15,6.89-8.12V373.84c0-7-.74-7.54-6.48-8.11v-2.87Zm-5.33,27.88a12.47,12.47,0,0,0,4.42.82c3,0,9.51-2.14,9.51-13.2,0-9.27-5.16-12.31-10.16-12.31a4.75,4.75,0,0,0-3,.83,3.17,3.17,0,0,0-.73,2.54Z"/><path class="cls-1" d="M337.18,402.3c-.65,3.53-2.37,11.64-3,13.86H294.21v-2.87c7.14-.58,8-1.07,8-8V373.84c0-7-.82-7.54-7.05-8.11v-2.87h25v2.87c-6.23.57-7,1.06-7,8.11v32.07c0,3.85.33,5.25,2,6a18,18,0,0,0,6.15.74c3.52,0,6.47-.57,8.44-2.79a24.78,24.78,0,0,0,4.51-8.44Z"/><path class="cls-1" d="M340.46,416.16v-2.87c6.15-.58,6.89-1.15,6.89-8V373.84c0-7-.74-7.54-6.89-8.11v-2.87h24.68v2.87c-6.14.57-6.8,1.06-6.8,8.11v31.41c0,6.89.66,7.46,6.8,8v2.87Z"/><path class="cls-1" d="M427.79,365.64c-4.42.25-6.15,1.4-6.56,5.09a118,118,0,0,0-.74,13.69V417h-3.93l-34.11-40.84h-.25v18.37a114.71,114.71,0,0,0,.66,13.37c.41,3.6,1.8,5.16,7.87,5.41v2.87H370.64v-2.87c4.59-.33,6.48-1.64,6.81-5.17a99.07,99.07,0,0,0,.81-13.61V377.45c0-5.41-.08-6.88-1.63-8.85s-3.37-2.63-6.89-3v-2.78h15.17l31.4,36h.25V384.42a116,116,0,0,0-.66-13.53c-.41-3.52-2-4.92-8.11-5.25v-2.78h20Z"/><path class="cls-1" d="M475.93,402.54c-.58,3.7-2.22,11.16-2.88,13.62H431.23v-2.87c7-.58,7.8-1.07,7.8-8V373.76c0-7.13-.82-7.54-6.65-8v-2.87H471c.08,1.47.49,7.21.82,12.3l-3,.41c-.74-2.87-1.8-5.58-3.28-7.06s-3.61-2.05-8.2-2.05h-3.93c-3,0-3.37.17-3.37,2.87v17.39h5.5c6.88,0,8-.41,9.1-6.15h2.95v16.48h-2.95c-1.07-5.9-2.13-6.23-9.1-6.23H450v14.27c0,3.93.33,5.9,2,6.72,1.48.66,4.27.82,7.38.82,4.27,0,7.14-.57,9-2.62a27.28,27.28,0,0,0,4.59-8Z"/><path class="cls-1" d="M303.53,187c-.37,1.11-.37,4.07-.74,8.87-1.11,1.85-1.48,4.81-1.48,8.88,0,1.11-1.48,4.81-4.07,10.36-1.11,3-1.85,8.14-7.4,16.64a112.37,112.37,0,0,0-6.29,10.73L282.07,245l-3,3h-.36l-4.44,3.7c-1.85.37-5.18,2.59-9.25,6.66-.37,0-1.11.37-2.22,1.48H261v.37c-.37,0-2.22.37-5.18.74l-3,1.48v.37l-10.72,3.69a78.68,78.68,0,0,0-11.1,1.11H213.64c-1.85-.74-5.17-1.11-10.35-1.11H175.55c-.74,0-5.55,0-14.06.37a91.1,91.1,0,0,0-9.62.74l-21.08-1.11H105.64a41.72,41.72,0,0,0-5.18-.74q-6.1-1.67-4.44-6.65a81.27,81.27,0,0,0,5.18-6.66q2.22-1.67,2.22-2.22h.37l3.7-5.18a68.89,68.89,0,0,0,3-8.51l1.47-11.09c.37-.74.37-3.7.37-9.25s0-14.06.38-25.52.73-20,.73-25.53c.37-.74.37-3.32.37-7.76,0-1.11,0-7-.37-17.76l-3-9.25c-.37-1.47-1.85-3.69-3.7-7l-7-7.4-1.48-.74v-.37c-2.59-.74-3.7-2.59-3.7-5.18a6.28,6.28,0,0,0,2.22-2.22c.37-.37,1.11-1.48,3.7-1.48l.37-.37a5.49,5.49,0,0,0,2.59-.37h31.81c1.85.37,6.66.37,15.16.37.37.37,5.55,0,15.17-.74a1.36,1.36,0,0,0,1.11-.37H187c0,.37.37.74.74,1.11l1.48-.74c.74-.37,3-.37,6.29,0l5.55-1.11h13.31a102.18,102.18,0,0,1,16.28-1.11l3,1.11c7,0,15.9,1.11,27.37,3a18.63,18.63,0,0,1,5.92,1.85l.74.37,4.07,2.22-1.11.74c0,1.48.74,3,2.22,3v.37h-.37v.74h.74l.37-.37c.37.37,1.48.37,2.59.37l1.1.74a2.81,2.81,0,0,0,.74-1.48c0-.37-.37-.74-1.1-1.11v-.37a8.31,8.31,0,0,1,5.17,3h.37l2.59,7,1.85,1.48h.37v.37c-1.11,0-1.85.37-1.85,1.48a8.33,8.33,0,0,0,1.85,1.85l2.22-1.48c3,1.48,3,.74,7.77,13.68.37.37,1.48,3.33,3,8.51,1.11,1.48,1.85,4.44,2.22,9.25a20.86,20.86,0,0,1,.74,3.69c0,6.29,0,10,.37,10.36ZM141.89,220.62c0,.37,0,.37-.37.74-1.48,1.11-2.59-1.48-3-1.48l-.74,1.11a2.81,2.81,0,0,0-.74,1.48c0,1.11,0,2.22,3.33,3.33,1.11,0,1.48-.37,1.48-1.48,1.48-1.85,1.85-3,1.11-3.7Zm-.37-76.57h-.37c0-1.11,0-1.48-.37-1.48l-1.85,1.85V147c-.74,1.11-.74,3-.37,5.18h-1.11v1.11l1.48-.74c1.48.37,2.59.37,3,0a15.08,15.08,0,0,0-.74-2.59c-.37-.74-.37-1.11.74-1.11l2.22-1.85c.37-.37.37-.37.37-.74A12.13,12.13,0,0,1,141.52,144.05Zm-2.22,49.2-1.11,1.11.37.74c.37,0,.37,0,.74-.37Zm1.85,21.08c-.37.37-.37.37-.37.74l-2.22.37a2.88,2.88,0,0,0,1.11,2.59l2.22-.74A11.44,11.44,0,0,0,141.15,214.33Zm0-34a1.36,1.36,0,0,1-.37-1.11h-1.11c0,.37.37.74.74,1.11Zm-.74,21.45-.74.37v.74l.37.37h.37Zm.74,12.21-.37-.37c-.37,0-.37,0-.37.37h.74Zm.37,13.69a3.1,3.1,0,0,0-.74,2.21,2.6,2.6,0,0,0,1.48,1.85c.74-.37,1.11-1.48.74-4.06Zm0-62.52v.74c0-.37,0-.37.37-.37C141.89,165.13,141.89,165.13,141.52,165.13Zm.74-3.32h-.37c0,.37,0,.37.37.73Zm10.72,64c-.74-1.11-2.59-2.59-5.92-4.44-.37.37-.37,1.48-.37,2.59v2.22a1.37,1.37,0,0,0-1.11.37c-.37,0-.74-.37-1.1-.74a1.36,1.36,0,0,0-1.11.37,2.35,2.35,0,0,0,1.84,2.22,18.58,18.58,0,0,0,3.33-.74c.74.37,1.11.37,1.11.74.37.36-.37.74-1.85,1.1a8.52,8.52,0,0,0-1.11,3.33,1.36,1.36,0,0,0,.37,1.11,8.74,8.74,0,0,0,3.33-2.22l1.11-1.85q2.77,0,3.33,3.33c2.59-.37,2.59-1.11,2.59-1.48A49.1,49.1,0,0,0,153,225.8Zm-6.66-84a1.89,1.89,0,0,0-.74-1.48c-.74.37-1.1.37-1.1.74s.36.37.73.74Zm.37,5.18V145.9c-.37,0-.73,0-.73.37s0,.37.36.74Zm.74,61.77c-.37.37-.74.74-.74,1.11l.74,1.48c1.85,0,2.59-.37,2.59-1.48a1.36,1.36,0,0,0-.37-1.11Zm3.33,8.51c-.37-.74-1.48-1.48-2.59-2.59a11.42,11.42,0,0,0-.74,4.07,8.33,8.33,0,0,1,2.59.37l1.85,3h1.48a2.22,2.22,0,0,0,.37-1.48C152.61,220.25,151.87,219.14,150.76,217.29Zm-2.22-15.17c-.37,0-.37,0-.74.37v1.11a1.36,1.36,0,0,1,1.11-.37C148.91,202.49,148.91,202.12,148.54,202.12Zm0-20.71-.37.37c.37,0,.37,0,.37.37,0-.37,0-.37.37-.74Zm4.81,10.73c0-1.48-1.11-2.59-3.7-3,0-1.11,0-1.85-.37-2.22l-.74.37a6.67,6.67,0,0,0,3.33,5.92C153,193.25,153.35,192.88,153.35,192.14ZM150,196.21v-.75a1.38,1.38,0,0,0-1.11-.36,2.2,2.2,0,0,0,.37,1.47Zm2.59,8.87-1.48.74c0,.74,0,1.11.37,1.48,1.48-.37,2.22-.74,2.22-1.48Zm-1.11-20.71c0,1.11,0,1.48.37,1.85a4,4,0,0,1,1.85-.37C153.72,184.74,153,184,151.5,184.37Zm1.85,14a1.63,1.63,0,0,0-1.85-.37,2.17,2.17,0,0,0,.74,1.85C153.35,199.53,153.72,199.16,153.35,198.42Zm0,15.54a6.48,6.48,0,0,0-.37-1.85,2.8,2.8,0,0,0-1.48.37V214h1.85Zm-1.85,19.6a3.2,3.2,0,0,0,1.11,2.22c1.11-.37,1.85-.74,1.85-1.11a2.81,2.81,0,0,0-.74-1.48C152.61,233.19,151.87,233.19,151.5,233.56Zm2.22-65.1h-1.85a10,10,0,0,0,1.11,3c.37,0,.37,0,.74-.37C154.09,169.94,154.09,168.83,153.72,168.46Zm4.07,57a2.22,2.22,0,0,0,.37-1.48,1.36,1.36,0,0,0-.37-1.11,7.21,7.21,0,0,0-3,.37,2,2,0,0,0,1.48,2.22Zm-.74-7.4c.37-.74.37-1.48-.37-1.85-.74,0-1.11,0-1.48.37l1.11,1.48Zm1.11,19.6a2.81,2.81,0,0,0-1.48-.74,2.22,2.22,0,0,0-1.48.37,4.31,4.31,0,0,0,.74,2.59,14.55,14.55,0,0,0,2.22-.74Zm-.37-49.93a1.85,1.85,0,0,0-2.22,0c-.37.74-.37,1.11.74,1.48a2.22,2.22,0,0,0,1.48-.37Zm-1.85,21.08a1.36,1.36,0,0,0-.37,1.11l.74.37c1.11-.37,1.48-.74,1.48-1.48Zm1.11,35.88h-.74c0,.37,0,.37-.37.37.37,0,.37,0,.37.37h.74Zm85.08-89.88-1.11-3.7a48,48,0,0,0-2.59-12.21L237,137l-2.22-6.29h-.37c-1.11-3.32-4.81-7.39-11.47-12.2-3.33-3-7.77-4.44-13.68-4.81l-4.81-1.48c-5.55-.37-8.88-.74-9.25-.74l-7.77,2.22c-5.92.37-9.61,3-11.46,7.4-.74.37-1.85,2.22-3,5.55l-2.22,17.75a4.75,4.75,0,0,0-1.48,3.7,7.11,7.11,0,0,0,1.48,4.44c0,3.33,0,5.18-.37,5.55l-.74,12.94a13.15,13.15,0,0,0-.74,3.7,19.09,19.09,0,0,0,.74,4.07c0,4.44,0,7-.37,7.4-.37,7-.37,11.09.74,12.94v7A59.22,59.22,0,0,1,168.52,218a36.59,36.59,0,0,0,.37,5.55v5.17c.37.74.37,4.07.37,10a15.46,15.46,0,0,0,1.48,3.7,21,21,0,0,0,6.66,10.36l6.28,3c.37.37.37.37.74.37l5.92,1.48h7.77l4.44-2.22c2.59-.74,6.29-2.59,11.83-5.55a30.26,30.26,0,0,0,4.07-3.7c3.33-1.48,7-5.18,11.1-11.47l5.55-10c0-.37,0-.37.37-.37.37-3.33,1.11-5.55,2.22-5.92l1.48-5.18a52.38,52.38,0,0,1,.37-7l1.85-9.25c0-4.8,0-5.91,1.11-8.87C242.5,168.46,242.5,157.37,242.13,154.78ZM228.44,256.13a1.36,1.36,0,0,1-.37-1.11H227v1.11ZM261,228.75c0-1.84,1.11-2.95,3.33-2.95V224a3.13,3.13,0,0,0-2.22-.74A2.88,2.88,0,0,0,261,225.8h-3a6,6,0,0,0-3-3.33L254,221a12.59,12.59,0,0,0-3.7-.37,7.37,7.37,0,0,0-3,4.44v1.48l.37.74c-2.59,2.58-3.69,4.8-3.69,6.65h.73a9.41,9.41,0,0,1,2.59-.74c1.11,0,1.48.74,1.48,1.85l-4.07,1.85c0,1.11-.37,1.85-1.1,1.85a2.81,2.81,0,0,1-1.48-.74c-1.85-.37-2.59,2.59-2.59,8.88q.56,1.67,3.33,2.22a2.8,2.8,0,0,0,1.84-.74c0-1.11-.73-3-.73-4.07,1.1-.37,1.84,0,2.21,1.48.74.37,1.48,0,1.85-1.11a42.46,42.46,0,0,0,5.18-.74v-1.48c-.37-.74,0-1.85,1.48-3.7q0-2.22-3.33-2.22l3-3.7A6.9,6.9,0,0,0,258,231h2.59a5.69,5.69,0,0,0,2.22,1.48h1.48c0-.74,0-1.11.37-1.48Zm-20.71,25.16c.37-.74.37-1.11,0-1.48h-.74v1.11l.37.37Zm7-125c0,.36.74,3.32.74,3.69.37-.37.37-.37.74-.37C248.78,130,248.41,128.89,247.3,128.89Zm8.14,67.68c0-1.11-.37-1.47-1.48-1.84v1.84Zm5.92,11.1a2.6,2.6,0,0,0-1.48-1.85,3.56,3.56,0,0,0-3.33,2.22c-1.85.74-2.59,1.48-2.59,2.22a2.81,2.81,0,0,0,.74,1.48h1.48c.74-1.11,2.22-2.22,4.44-3.7,1.85,1.85,3,3,3.33,2.59a2.24,2.24,0,0,0,1.11-2.22A6.86,6.86,0,0,0,261.36,207.67Zm-7-20c.37,0,.37,0,.37.37,0-.37,0-.37.37-.37Zm.74-40.32V147h-.37v.37Zm1.48,79.53c0,.37,0,.37-.37.37l-1.11.37h-.37v-.74Zm2.22-7.4c-.37,0-.37.37-.74.74-.37.74,0,1.11.37,1.48a1.71,1.71,0,0,0,1.85-1.11A2,2,0,0,0,258.77,219.51Zm1.11-34A2.6,2.6,0,0,0,258,184c0,.74,0,1.11.37,1.48Zm.37,6.66-.74-1.48A2.22,2.22,0,0,0,258,191a2.17,2.17,0,0,0,.74,1.85Zm-1.11,21.45v-.74h-.74l.37.74Zm.74,21.08a1.36,1.36,0,0,0-1.11-.37v1.11c0,.37,0,.37.37.37s.37,0,.74-.37ZM278,174.75a2.7,2.7,0,0,1,1.48-2.22,23.86,23.86,0,0,0-.73-3.33h-1.49c.37-.37.37-2.22.37-5.18a9.15,9.15,0,0,1-2.95-3.32c-1.11-.74-2.22-2.22-4.07-4.07a14.55,14.55,0,0,0,.74-2.22c-.74,0-1.48,1.11-1.85,3-1.11.37-1.48.74-1.11,1.48l-1.11,1.48v1.85c.37.36.37.74.37,1.47-.37.37-.74,2.22-1.11,5.18v2.22l1.85,1.48c0,1.11-4.07,2.59-4.07,4.07,0,1.11.74,1.85,1.85,2.59v3.7a2.77,2.77,0,0,0-1.85-.37v4.07a2.77,2.77,0,0,0-1.85.37c-1.48,1.11-1.11,2.22,1.11,3.7,0,1.48-2.59,4.07-2.59,5.17a34.49,34.49,0,0,1,4.07,2.59v1.85c1.11,1.11,1.48,1.85,1.48,2.22h-1.48c-.37-1.48-1.48-1.85-3-1.48-.37.37-.74.74-.74,1.11a3.2,3.2,0,0,0,1.11,2.22,7,7,0,0,1,3-.74V204a3.2,3.2,0,0,0-1.11,2.22,2,2,0,0,0,1.11,1.48l.74-.37c.37-.37.37-1.11.74-2.22.74.74,2.22.74,4.44.37,0-2.22-.37-3.33-1.48-3.7v-3.7a2.19,2.19,0,0,1,2.59.37,4,4,0,0,1-1.11,1.85v2.22q1.11,0,3.33-3.33c1.85,0,2.58-.37,2.95-.74a2.8,2.8,0,0,0-.37-1.48,4,4,0,0,1-1.84-.37v-1.11c1.48,0,2.21-1.1,2.21-3a3.41,3.41,0,0,1-1.1-1.85c0-.37,0-.37.37-.74L278,191h.38q.56-.56,0-4.44a1.34,1.34,0,0,1-.38-1.11,7,7,0,0,1,.38-2.59v-5.18c1.47-.74,2.21-1.11,2.21-1.48Zm-15.16,1.11c.37-.37.37-.37,0-.74.37-.74-.37-1.48-1.48-2.59Zm-.37,40.69c-.37.37-.37.37-.74.37,0,.37,0,.37.37.74.37-.37.74-.37.74-.74S262.84,216.55,262.47,216.55Zm0-50.68-.37.37c.37,0,.37,0,.37.37h.74c0-.37,0-.37.37-.74Zm.74,72.5h-.74c-.37.37-.37.37-.37.74.37.37.37.37.74.37a1.36,1.36,0,0,0,1.11-.37C263.58,239.11,263.58,238.74,263.21,238.37Zm.74-55.85L262.84,181h-.37l.74,1.48Zm-1.48,62.14V245c1.11-.37,1.85-.74,2.22-1.85C264.32,243.18,263.58,243.55,262.47,244.66Zm4.07-55.48a1.36,1.36,0,0,1-1.11.37v-1.48l1.11.37Zm10.72-19.61h-.73c.37-.37.37-.37.73-.37Zm3-17.38h0Zm1.11-11.1c-.37,0-.37,0-.37-.37l-.37.37ZM283.92,123v-.37h-.74c-.37.37-.37.37,0,.37ZM285,152.19h0Zm1.85,4.81v-.37h-.74l.37.37Zm5.92-20v-1.85l-1.11-1.48c-1.48,0-2.59,0-3,.37v1.11l-.37.37,3,2.59Z"/><path class="cls-1" d="M405.16,234.49a1,1,0,0,0-.78.26v.52c.26,0,.26,0,.26.26-.26,2.61-1.05,3.92-1.83,4.18l-.26-.52c-.52,0-.78-.26-.78-.52h-2.09l-1.57,1c.26.26.26.52.26,1h.79V241a.93.93,0,0,1,.78.27h.26v.26a5.58,5.58,0,0,1,1,1.82c.26,1.57-1,4.18-3.91,7.57a35.42,35.42,0,0,1-4.44,5l-5.74,5.48h-.26a23.13,23.13,0,0,1-3.92,1.31c-.26.26-.52.26-1.3.52-.78,1.3-2.61,2.61-5.22,4.18l-4.44,1a61.29,61.29,0,0,0-13.57,2.09h-3.65c-.26-.26-.26-.26-.53-.26h-9.39a39.23,39.23,0,0,1-5.48-1.31l-4.7-.52a7.26,7.26,0,0,1-2.35-.26l-9.66-.52c-.26,0-.26,0-.26-.26-6-.27-9.39-.27-10.44.26-3.13,0-5.22-.79-6.26-2.09a2,2,0,0,0-.26-1.31,28.77,28.77,0,0,0-.79-5.74c-.26-3.91-.26-6.26,0-6.52,0,1.82-.26-3.14-.78-15.14a40.86,40.86,0,0,0,0-8.09,5.15,5.15,0,0,1-.26-1.83,2.62,2.62,0,0,1,1.57-2.61,4.72,4.72,0,0,1,2.87.78c1.56,3.14,3.39,6.79,5.74,10.7a53.2,53.2,0,0,1,4.7,8.36h.26c.52,1.56,2.61,3.91,6.26,7.3,1.83,2.88,3.66,5,5.74,5.75l.79.52c1,1,3.91,3.13,12.52,5.22a7.83,7.83,0,0,0,2.62.78,7.66,7.66,0,0,0,2.6.78A9.5,9.5,0,0,0,353,265c6,0,6.26-1.57,11.48-3.66a13.78,13.78,0,0,0,3.92-3.91l2.35-1.83a13.22,13.22,0,0,0,2.61-5.48c.26-.26.52-1.57.52-4.44,0-1-.26-1.3-1-5.22a20.25,20.25,0,0,1-3.91-4.7,70.52,70.52,0,0,0-6.26-4.43c-.79-.79-2.87-1.31-6.27-2.09a19,19,0,0,1-4.17-1.31h-.53c-.52-.52-2.35-1.3-5.48-2.61a33,33,0,0,1-8.61-2.61,33,33,0,0,0-7.83-2.87c-1.57-.52-4.18-1.82-8.09-3.65a7.84,7.84,0,0,0-3.92-2.35l-1.56-1c-1.31-1.83-3.4-4.7-6-9.14l-2.08-3.91-1.57-5c0-.26,0-.26-.26-.26V181c.78-2.08,1.57-5.22,2.87-9.65l6.27-9.4,4.95-4.18,2.35-1.82a16.38,16.38,0,0,1,7.05-2.61l4.44-1.57,2.08-1.3,2.62-.79h11.48a21.17,21.17,0,0,1,4.18-.26c2.08,0,4.43.26,7,.52,1.83.27,4.18.53,7.57,1.31a2,2,0,0,0,1.31.26l5.48.78a15,15,0,0,1,4.7.26c10.7,1.05,9.39-1.3,10.7,9.92.78,1.31,1,3.66,1,7.05a3.69,3.69,0,0,0-.52,1.57,18.31,18.31,0,0,0,.78,3.65,42.5,42.5,0,0,1,.26,5.48c.26,2.35-.26,3.65-1.56,4.44H390a20.52,20.52,0,0,1-3.13-5,35.62,35.62,0,0,0-3.13-4.44,15.56,15.56,0,0,0-2.87-3.65,17.19,17.19,0,0,1-1.83-4.44l-.78-1-3.92-2.61c-4.44-5.22-9.13-8.09-14.09-8.35-.79-.27-2.09-.27-3.4-.53h-8.35c-1.82.26-3.91,1.57-6,3.4a37.19,37.19,0,0,0-5.48,4.17l-1.31,4.44a3.88,3.88,0,0,0-.26,1.83,17.54,17.54,0,0,0,.78,4.69c.27,0,.27.27.53.79l2.35,2.08c1,1.83,4.43,4.18,10.17,7.57l1.31.26,9.66,3.14.78.26,2.61,1c.78.79,3.39,1.83,8.09,2.61a37.46,37.46,0,0,1,4.18,1.31l6.52,3.39,4.7,2.35a28.51,28.51,0,0,0,6.79,5,18.22,18.22,0,0,1,5.74,6.78c.26,1.05.26,1.57.52,1.83a43.79,43.79,0,0,1,3.13,5c1.31,8.61,1.83,12.27,1.83,11.22ZM318.25,174.2v-.52c0-.26,0-.26-.27-.26l-2.6,5.21v1.57l.26.26,2.08-2.61a5.77,5.77,0,0,0-.78-2.09Zm2.87,26.36a.69.69,0,0,0-.79-.78c-.26.26,0,.52.26.78Zm1.56,6.26a1.33,1.33,0,0,0,.53,1.05,1,1,0,0,1,.78-.26A2.77,2.77,0,0,0,322.68,206.82Zm.79-3.91h-.53v.52h.53Zm8.35-23.49c-1.57-1.31-2.61-2.09-3.4-1.83v.26c1.83,1.57,2.62,3.13,2.62,4.44-.27,0-.27,0-.53.26-2.35.26-3.65,1.3-3.65,3.13a1.56,1.56,0,0,0,1,.26c.26-.52.79-.52,1.57-.26,0,.52-.52.78-1.31,1a5.13,5.13,0,0,0,.53,2.35,24.84,24.84,0,0,0,3.13-1.83c.26-.26,1,.26,1.82,1h1.83a16.79,16.79,0,0,0,1-3.65A64.15,64.15,0,0,1,331.82,179.42Zm-2.35,17.49h-.26c-1,.52-1.57,1-1.31,1.3a5.13,5.13,0,0,0,1.83-.26A1.56,1.56,0,0,1,329.47,196.91ZM329,201.6c-.53.26-.79.53-.79.79a1.92,1.92,0,0,0,.53,1q1.56,0,1.56-.78a2,2,0,0,0-.52-1.05Zm5.22-7.83a1,1,0,0,0,.26-.78c0-.52-.52-1-1.31-1.57a3.7,3.7,0,0,0-.52-1.56h-1.3a7.41,7.41,0,0,1-2.88,1.3v2.35l1.57,1.57c.26.26.78.26,1.31.52a3.32,3.32,0,0,1,1-1.83Zm-2.09,11.49V205c-.26,0-.26,0-.52.26h.52Zm45.15,13.31a4.5,4.5,0,0,0-1.56-3.13v-1.05a4.22,4.22,0,0,0,1-2.35,2,2,0,0,0-.52-1.3,17.35,17.35,0,0,1-.26-2.87c-.26-.26-1.05.52-2.61,1.82a7,7,0,0,0-.26,1.83,6.49,6.49,0,0,1-2.09-.26l-2.61-3.13c-.26-.52,0-1,.52-1.83,0-1.3-.26-2.09-1-2.61-.26-.52-.26-1.3.52-2.35a8.47,8.47,0,0,0,2.09-.26l.52-1h2.09a3.18,3.18,0,0,0,2.35,1v-.52c-1.83-1.57-5-2.61-9.4-2.87H363.4c-.26-.78-1-1.05-2.09-1.05,0,.27-.52,1.05-.52,1.31.26.26.26.52.52.52,0,.52-.52,1.05-1.3,1.31l-2.09.52c-.26,1-1.31,1.56-3.13,1.3a2.86,2.86,0,0,0-1.05,1.31,6.14,6.14,0,0,1-5.22-3.13,16.45,16.45,0,0,1-2.87-.53V198a2.38,2.38,0,0,0-1.3-.78A1.43,1.43,0,0,0,343,198a4.18,4.18,0,0,1-2.09.78,11.41,11.41,0,0,1,1.83-1.82c.26-1.57,0-2.35-.26-2.62s-1,0-1.83.79c0,.26-.26.52-.78,1h-1.83l-.52-.78a.76.76,0,1,0-.78,1.3c.26-.26.52-.26,1-.26V198l1.57,1.57-.52,1a3.56,3.56,0,0,1-1.05-1.83,4.13,4.13,0,0,1-1.57-1,3.52,3.52,0,0,0-2.34,0,4.1,4.1,0,0,0,0,2.61c0,.26-1.57,1.3-1.57,2.09l.78.78a5.13,5.13,0,0,0,1.83-.26,4.65,4.65,0,0,1,.26-1.57h1c1.31,1,1.83,1.83,1.31,2.61-.78.26-1.31.52-1.31,1.31,1.05.78,2.88-1,3.66-.79a1.6,1.6,0,0,1,.26,1.05A4,4,0,0,0,343,206l1.31,1c.26,1.83,1,2.35,1.82,1.57,0-1.3.26-1.83.79-1.83l1,1.83a2.25,2.25,0,0,1,1.57.52h2.08c.79,1.31,1.83,1.83,3.66,1.31a3.64,3.64,0,0,1,1,1.82c3.4.79,4.7,1,3.92,1a1.56,1.56,0,0,1,1,.26,10.22,10.22,0,0,1,1.57-.52,5.69,5.69,0,0,0,.52,3.39c.78-.26,1-1,1-2.35l-.78-1c.26-.26.78-.26,1,.52a14,14,0,0,1,3.66-.26,4.9,4.9,0,0,0-1.31,2.61c0,.78,1.05-.78,3.4,3.13,2.08.26,2.61.26,2.87,2.35l2.61,1.3.26-.26v-1l-.26-.78ZM343,189.08a6.86,6.86,0,0,0-3.65-1.31V188l1,1.05a2.28,2.28,0,0,1-2.09,2.34c-.52.53-.26,1.05.79,1.83l.52.52a5.81,5.81,0,0,0,1.82-1.82,2.69,2.69,0,0,1,1.57-1.31Zm1.83,23.49-3.13,1.56a1.48,1.48,0,0,0,1.3,2.09h.52l.52-1.83a3.86,3.86,0,0,0,1.57-1.82Zm-2.35-3.4c-.52,0-.78.26-.78.52a1.6,1.6,0,0,1,.26,1.05c.26-.26.26-.26.52-.26Zm6.52,7.57c-.26-1.56-1.3-2.35-2.61-2.09-.78,2.35-1,3.14-1,2.61a1.05,1.05,0,0,0,1.31-.26,8.3,8.3,0,0,1,2.6.79l.53-.27c0-.26,0-.26.26-.26A2,2,0,0,0,349,216.74Zm-2.34-7.05a1.58,1.58,0,0,0,.26,1.05c1,0,1.56-.26,1.56-.52a2,2,0,0,0-.52-1.05C347.22,209.17,346.7,209.43,346.7,209.69ZM353,199v-1.82c.52-.26.52-1,.26-1.83-.26-1.31-.78-1.57-1.57-1.05v2.35a3.88,3.88,0,0,1-1.82.79,1,1,0,0,0-.26.78l.78.52a8.48,8.48,0,0,0,2.09,2.87c.26,0,.52-.26,1-.52A6.23,6.23,0,0,0,353,199Zm-3.13-7q-.39,1.17,0,1.56a4.57,4.57,0,0,1,1.56-.26C351.39,192.47,350.87,192,349.83,192Zm.26,20.62v.78a1,1,0,0,0,.78-.26C350.61,212.83,350.35,212.57,350.09,212.57Zm8.87,3.65c0-.78,0-1-.26-1.31-.78,0-1.3.27-1.3.79a2,2,0,0,0,1.3.52Zm2.35,1-.26-.26a1,1,0,0,1-.78.26c0,.26.26.53.52.79l.52-.26Zm.52-13.83-.52-.52c.52-.78,1.05-1.31,1.83-1.31.26,0,.52.26.78.53C363.92,202.91,363.14,203.17,361.83,203.43Zm6.27,21.4c-.26-1-1.57-1.82-1.57-2.61h-.78c-.26.26-.52.52-.52.79,0,.78.78,1.3,2.08,1.82Zm1.82,1.57v-.52c-.26,0-.26,0-.52-.26l-.26.52c.26.26.26.26.52.26Zm.79-11.75h-.53c-.78-.78-1-1-.78-1.3h.52Zm.52,8.09c-.26-.26-.26-.26-.26-.52h-1.31a1.59,1.59,0,0,0,.26,1.05c.79-.26,1.31-.26,1.05-.26Zm1.56-8.09v1.83a3.86,3.86,0,0,0-1.82.26l-.79-.78c0-.52.53-.78,1.83-1.05,0-.26-.26-.26-.52-.26a7.9,7.9,0,0,0,1.83-2.08h1.3a1,1,0,0,1,.26.78A6.65,6.65,0,0,0,372.79,214.65Zm-.52-7H371a1.56,1.56,0,0,0-.26,1l.52.52a1.56,1.56,0,0,0,1-.26Zm-.52-5-.26.26c0,.26,0,.26.26.52.26-.26.52-.26.52-.52C372,202.65,372,202.65,371.75,202.65ZM376.19,223c-.26,0-.26,0-.52.26-.79.26-1.57,1.3-2.35,3.13l.26.52a4.44,4.44,0,0,0,2.61-2.35Zm-2.09-17.75h-.26v.52l.52.52c.26-.26.26-.26.52-.26A.69.69,0,0,0,374.1,205.26Zm3.13,35.49v-.26h-.52v.26Zm8.09-9.13,1.83,21.92v-.26c0,.26,0,.26-.26.26Zm.78,6.53v.26c.26,0,.26,0,.26-.26Zm11.23-25.84c-.79-1.57-1.05-1.83-1.05-1h-.26v.27l.52.78Zm-.53-2.87c0-.26,0-.26-.26-.26v-.26c-.26,0-.26,0-.26.26h.26c0,.26,0,.26.26.52Z"/></svg>