<?xml version="1.0" encoding="UTF-8" standalone="no"?>
<!-- Generator: Adobe Illustrator 16.0.0, SVG Export Plug-In . SVG Version: 6.00 Build 0)  -->

<svg
   version="1.1"
   id="Layer_1"
   x="0px"
   y="0px"
   width="492.531px"
   height="492.531px"
   viewBox="0 0 492.531 492.531"
   enable-background="new 0 0 492.531 492.531"
   xml:space="preserve"
   sodipodi:docname="10clock_7.svg"
   inkscape:version="1.1 (c68e22c387, 2021-05-23)"
   xmlns:inkscape="http://www.inkscape.org/namespaces/inkscape"
   xmlns:sodipodi="http://sodipodi.sourceforge.net/DTD/sodipodi-0.dtd"
   xmlns="http://www.w3.org/2000/svg"
   xmlns:svg="http://www.w3.org/2000/svg"><defs
   id="defs2248" /><sodipodi:namedview
   id="namedview2246"
   pagecolor="#505050"
   bordercolor="#ffffff"
   borderopacity="1"
   inkscape:pageshadow="0"
   inkscape:pageopacity="0"
   inkscape:pagecheckerboard="1"
   showgrid="false"
   inkscape:zoom="1.6425362"
   inkscape:cx="187.8193"
   inkscape:cy="235.91565"
   inkscape:window-width="2560"
   inkscape:window-height="1017"
   inkscape:window-x="-8"
   inkscape:window-y="-8"
   inkscape:window-maximized="1"
   inkscape:current-layer="Layer_1" />

<path
   style="fill:#000000;stroke-width:2.60038"
   d="m 233.89236,490.50232 c -12.5214,-1.45393 -25.57842,-5.02777 -35.49491,-9.71527 l -15.68706,-7.41531 -10.23625,5.06261 c -10.20408,5.04671 -10.26267,5.04657 -18.64653,-0.0384 -4.62563,-2.80554 -14.68455,-8.73219 -22.35313,-13.17033 -7.66861,-4.4381 -17.17637,-11.99798 -21.12837,-16.79967 -3.95202,-4.8017 -9.08901,-8.73038 -11.415586,-8.73042 -7.360652,-1.1e-4 -36.706079,-26.95217 -36.706079,-33.71236 0,-2.38945 -3.56541,-6.8057 -7.923134,-9.81387 -4.357724,-3.00817 -7.923134,-7.69531 -7.923134,-10.41579 0,-2.72051 -0.9236,-4.94639 -2.052469,-4.94639 -1.128848,0 -5.882728,-3.39153 -10.564172,-7.53677 -6.141478,-5.438 -8.511723,-9.78263 -8.511723,-15.60186 0,-5.91187 -1.410239,-8.42267 -5.282076,-9.40424 -2.905156,-0.7365 -5.282096,-2.87571 -5.282096,-4.75379 0,-1.87808 -1.485589,-4.33609 -3.301313,-5.46221 -7.7217085,-4.78906 -10.68630764,-10.85035 -7.26286,-14.84934 2.7150204,-3.17145 2.4611037,-3.84053 -1.4575199,-3.84053 -4.3289629,0 -4.2586451,-0.50546 0.8013655,-5.76082 C 10.575336,306.21304 13.564219,294.77435 9.595185,290.13805 7.729584,287.9588 7.0142042,280.80345 7.742677,271.60869 8.395365,263.37012 7.7032595,247.49911 6.2044798,236.33974 3.8233799,218.60996 4.0198934,215.66697 7.7620887,213.0142 13.631705,208.85337 13.177372,199.71494 7.0064793,197.81622 4.2355215,196.96361 1.3205211,194.62931 0.52870298,192.6289 -1.0295795,188.69212 9.7805466,168.18519 16.090194,163.10863 c 2.132651,-1.71588 3.877543,-4.17833 3.877543,-5.47214 0,-4.88224 25.198082,-40.42275 30.673818,-43.26376 5.438934,-2.82189 9.310951,-8.48666 12.581045,-18.406038 0.812421,-2.464342 3.752735,-4.480629 6.534072,-4.480629 2.835808,0 5.663634,-2.249157 6.438238,-5.120732 0.759711,-2.816407 3.094777,-5.120734 5.18902,-5.120734 2.094242,0 5.908936,-4.517325 8.477081,-10.038511 3.03147,-6.517193 6.943972,-10.591953 11.153709,-11.616246 5.6138,-1.365948 6.25356,-2.596227 4.76554,-9.164212 -1.61861,-7.144258 2.29547,-11.214199 4.53127,-4.711715 1.24527,3.62171 25.12355,-7.793311 32.21386,-15.399835 4.012,-4.304099 8.12212,-5.397464 20.29012,-5.397464 12.71762,0 15.5265,-0.81721 16.86538,-4.906718 0.88353,-2.698713 5.12324,-6.095271 9.42161,-7.5479 4.29837,-1.452648 7.81522,-3.738367 7.81522,-5.07937 0,-3.2940737 25.34224,-9.0118826 29.33614,-6.61891397 1.74703,1.04673857 7.31582,2.34538607 12.37509,2.88588517 5.05928,0.5404799 11.41134,2.1307343 14.11574,3.5338582 3.29484,1.709484 6.60244,1.6767242 10.02554,-0.099278 6.24147,-3.2383089 11.56614,-3.4607918 9.61602,-0.401817 -1.78298,2.7967806 7.53444,4.6561616 34.39188,6.8632266 22.2998,1.832534 32.75602,6.135039 32.75602,13.478373 0,2.502288 1.42617,5.93222 3.16927,7.62206 3.82754,3.710638 17.95908,4.113569 17.95908,0.51206 0,-4.655086 7.68346,-2.657888 10.68386,2.777137 1.62058,2.935597 7.01052,6.983645 11.97762,8.99563 4.96708,2.011966 9.03106,4.770149 9.03106,6.12926 0,1.486387 -2.56396,1.338583 -6.43418,-0.370958 -7.63225,-3.371249 -14.69416,-1.352544 -14.69416,4.200443 0,2.955836 1.6863,3.559377 6.60261,2.363162 4.73408,-1.151874 6.60259,-0.571779 6.60259,2.049853 0,2.011025 2.97119,6.160868 6.60263,9.221916 3.63143,3.06103 6.6026,6.452077 6.6026,7.535668 0,1.08359 2.67405,3.1075 5.94236,4.497565 3.2683,1.390086 7.0957,5.075127 8.50532,8.189002 1.40962,3.113876 6.53586,7.72253 11.39157,10.241442 5.29251,2.74553 12.01273,9.9637 16.77844,18.02178 4.6107,7.79604 9.80968,13.44436 12.37782,13.44774 3.14947,0.004 4.5162,2.35654 4.73354,8.14717 0.18303,4.87691 2.50121,9.86495 5.78141,12.43994 3.73665,2.93335 4.61674,5.13147 2.77103,6.92084 -1.84576,1.78936 -1.37523,5.11485 1.48144,10.47034 2.3025,4.31646 4.18633,9.75687 4.18633,12.08975 0,2.48484 1.45988,3.69851 3.52484,2.93033 2.1579,-0.80277 5.10565,2.06979 7.60109,7.40716 3.10226,6.63532 3.28021,8.71844 0.74473,8.71844 -1.83231,0 -4.14431,-2.59236 -5.13777,-5.76081 -0.99346,-3.16845 -2.37514,-4.44989 -3.07038,-2.84763 -0.69524,1.60225 1.32049,7.36307 4.47946,12.80181 4.33676,7.46651 6.25978,16.61593 7.85108,37.35373 1.15916,15.10582 2.84376,28.61992 3.74354,30.03135 0.89982,1.41143 0.22213,5.12737 -1.50587,8.25758 -2.33573,4.23104 -2.36707,5.94175 -0.12221,6.6672 4.27899,1.38279 3.74128,8.65257 -1.13969,15.40823 -2.28771,3.16638 -8.17183,17.3075 -13.07584,31.42471 -4.90401,14.11719 -12.54002,30.44447 -16.96891,36.28286 -4.42877,5.83835 -8.05237,13.26861 -8.05237,16.51169 0,4.25369 -1.52124,5.89652 -5.46007,5.89652 -4.07247,0 -5.07346,1.18087 -3.93883,4.64658 1.12231,3.42801 -2.93613,8.46396 -15.47522,19.20273 -9.34807,8.00588 -18.27184,14.55614 -19.83058,14.55614 -1.55878,0 -2.8341,1.16908 -2.8341,2.59799 0,3.64299 -16.06784,12.74309 -22.52056,12.75461 -2.94458,0.006 -8.99833,3.17802 -13.45283,7.05058 -11.82601,10.28107 -23.22569,16.01691 -35.96747,18.09742 -8.19812,1.33859 -11.96887,3.44528 -13.8931,7.76189 -2.18334,4.89788 -4.10019,5.69878 -11.06087,4.62141 -5.55656,-0.86005 -9.51887,-0.0205 -11.65159,2.4718 -2.60045,3.03763 -3.6642,3.12619 -5.44564,0.45339 -1.77247,-2.65932 -2.73248,-2.55584 -4.81452,0.5189 -1.73903,2.56817 -2.61399,2.78024 -2.64106,0.6401 -0.0213,-1.76026 -1.82313,-3.20047 -4.00198,-3.20047 -2.17887,0 -3.96159,1.72826 -3.96159,3.84056 0,4.38376 -7.92326,4.55974 -39.61566,0.87977 z m 5.96083,-62.03031 c -1.83211,-2.90558 -3.60707,-18.90354 -3.01582,-27.18199 0.25142,-3.52049 0.30526,-9.28132 0.11968,-12.80182 -0.1856,-3.5205 -0.99227,-25.35551 -1.79254,-48.52222 -0.80029,-23.16672 -1.97941,-42.62963 -2.62027,-43.25093 -2.02327,-1.96146 -9.21601,5.17852 -9.21601,9.14839 0,2.09034 -4.75387,9.58881 -10.56419,16.66331 -5.81029,7.07451 -10.56418,13.86438 -10.56418,15.08865 0,1.22422 -1.68956,2.2259 -3.7546,2.2259 -2.06505,0 -7.11604,5.2444 -11.22445,11.65423 -4.10841,6.40984 -11.49047,16.49126 -16.40461,22.40318 -4.91414,5.9119 -10.24394,13.62935 -11.84404,17.14987 -1.60007,3.52048 -5.02725,7.91993 -7.61594,9.77652 -2.58866,1.8566 -4.12918,4.2815 -3.42335,5.38865 0.70582,1.10715 -1.65123,4.68564 -5.23792,7.95222 -7.62641,6.94576 -8.44735,14.0058 -1.89936,16.33444 2.54199,0.90401 9.96993,4.40987 16.50651,7.79079 6.53659,3.38093 15.45012,6.95301 19.80784,7.93794 4.35772,0.9849 8.72391,3.01209 9.70262,4.5049 1.23154,1.87838 2.9329,1.78616 5.52511,-0.29948 2.06006,-1.65746 4.33405,-2.44311 5.05326,-1.74584 0.71921,0.69723 10.11763,3.44322 20.88535,6.10216 l 19.57768,4.83445 1.71285,-14.44557 c 0.94207,-7.94507 1.07096,-15.46355 0.28643,-16.70775 z m 48.18058,26.09389 c 7.16043,0.5575 32.50852,-7.11873 42.25673,-12.79672 4.35771,-2.53821 10.3213,-4.61925 13.25241,-4.62451 2.93108,-0.006 9.86668,-2.99864 15.41239,-6.65192 10.03203,-6.60867 10.05777,-6.67033 5.07869,-12.16171 -2.75246,-3.03569 -6.39429,-8.68784 -8.09292,-12.5604 -1.69865,-3.87253 -4.89663,-7.04097 -7.10663,-7.04097 -2.21001,0 -4.02161,-1.44021 -4.0258,-3.20047 -0.006,-1.76026 -3.53786,-5.49349 -7.85263,-8.29609 -4.36771,-2.83701 -8.58171,-8.34728 -9.50705,-12.43158 -0.97615,-4.3087 -4.76323,-9.06144 -9.17724,-11.51733 -4.13341,-2.29978 -8.73985,-6.787 -10.23659,-9.97159 -1.49671,-3.18464 -3.93527,-5.79022 -5.419,-5.79022 -1.48371,0 -2.69766,-1.60979 -2.69766,-3.57726 0,-1.96751 -3.2683,-7.3142 -7.26286,-11.88154 -3.9946,-4.56736 -10.53117,-12.03896 -14.52576,-16.60359 -3.99457,-4.56458 -7.26286,-9.4088 -7.26286,-10.76488 0,-1.3561 -2.21029,-4.40477 -4.91171,-6.77488 -4.76325,-4.17898 -4.90954,-3.35897 -4.83957,27.12711 0.0396,17.28998 -0.11811,37.77321 -0.35039,45.51831 -0.23238,7.74509 -0.1343,21.28424 0.21774,30.08697 0.35214,8.80276 -0.39663,16.0038 -1.66391,16.00227 -1.2673,-10e-4 -1.12475,1.4375 0.31675,3.19776 1.44145,1.76023 2.23565,10.02074 1.76479,18.35668 -0.47083,8.33595 -0.22356,16.1484 0.54949,17.36102 0.77306,1.21261 5.76965,1.39018 11.10354,0.39451 5.33386,-0.99562 12.07489,-1.62516 14.98005,-1.39897 z M 125.60952,399.56354 c 0,-1.86683 1.11399,-3.39425 2.47556,-3.39425 1.36155,0 6.33395,-7.59813 11.0498,-16.88473 5.17131,-10.18353 10.87112,-17.7313 14.36154,-19.01784 3.81312,-1.40545 6.37404,-5.16526 7.50741,-11.02198 0.94605,-4.8889 3.47136,-10.29791 5.61176,-12.02002 2.14044,-1.72215 3.8917,-4.51055 3.8917,-6.19647 0,-1.68592 2.97116,-5.5698 6.6026,-8.63084 3.63145,-3.06104 6.60263,-6.78778 6.60263,-8.28167 0,-1.49389 3.55989,-6.3982 7.91091,-10.89847 4.35098,-4.50029 7.91639,-9.27146 7.92313,-10.60259 0.006,-1.33116 3.28052,-5.80798 7.27509,-9.9485 l 7.26286,-7.52825 -7.92311,1.82681 c -4.35775,1.00476 -9.70584,3.31933 -11.88471,5.14357 -2.17887,1.8242 -8.71545,4.14187 -14.52575,5.15034 -5.81031,1.00851 -11.95303,2.94593 -13.65052,4.3054 -1.69749,1.35953 -8.38787,2.89061 -14.86748,3.4025 -6.47963,0.51187 -16.90157,3.32903 -23.1599,6.26035 -6.25832,2.93134 -13.90349,5.32969 -16.98927,5.32969 -3.08576,0 -10.88469,2.53195 -17.330976,5.62662 -6.446281,3.09464 -13.294265,5.3288 -15.217745,4.96485 -1.923499,-0.36395 -4.931576,0.49227 -6.68465,1.90275 -1.753072,1.41049 -6.399179,3.12911 -10.324674,3.8192 -3.925519,0.69009 -8.345359,1.97852 -9.821896,2.86319 -4.692039,2.81123 -2.899867,13.46433 3.524884,20.95264 3.415208,3.98059 6.683501,8.51954 7.262861,10.0865 2.263956,6.12316 27.570921,35.39286 44.408566,51.36236 l 6.38057,6.05156 6.16439,-5.61425 c 3.39043,-3.08783 6.16442,-7.14166 6.16442,-9.00847 z m 269.5602,4.19677 c 2.80963,-1.45776 5.10845,-4.83746 5.10845,-7.51045 0,-2.67298 5.79557,-10.62829 12.87907,-17.67846 7.08346,-7.0502 13.58995,-15.5644 14.4588,-18.92048 0.86887,-3.35609 4.72694,-10.59792 8.57349,-16.09295 8.66939,-12.3848 11.15466,-24.19958 5.0905,-24.19958 -2.31717,0 -7.13325,-1.85492 -10.70237,-4.12206 -3.56913,-2.2671 -8.38841,-3.41555 -10.70957,-2.55206 -2.32117,0.8635 -5.59865,0.72338 -7.28327,-0.31141 -1.68466,-1.03478 -6.03415,-2.06665 -9.66559,-2.29304 -9.92577,-0.61882 -14.2282,-1.9296 -17.15724,-5.22713 -1.45783,-1.64121 -8.59295,-3.62584 -15.85582,-4.41022 -7.26289,-0.78435 -14.98793,-1.6275 -17.1668,-1.87366 -2.17886,-0.24604 -6.30583,-2.00609 -9.17104,-3.91099 -2.86519,-1.90489 -7.2446,-3.46341 -9.732,-3.46341 -2.48736,0 -7.86815,-1.33232 -11.95729,-2.96072 -4.08917,-1.62835 -10.40599,-3.42773 -14.03743,-3.99856 -3.63145,-0.57084 -7.73166,-2.11893 -9.11161,-3.44021 -1.37995,-1.32131 -5.42666,-2.40234 -8.99273,-2.40234 -6.11404,0 -6.2345,0.26697 -2.11284,4.68224 2.40402,2.57524 4.3709,6.03173 4.3709,7.68109 0,1.64937 1.56709,2.99885 3.48238,2.99885 3.69345,0 28.21018,31.38165 28.21018,36.10934 0,3.19988 10.65759,18.51276 13.77639,19.79396 1.14538,0.47052 6.36078,7.10412 11.58984,14.74135 5.22902,7.63719 10.87143,14.74132 12.53864,15.78687 2.91853,1.83027 4.35444,3.75071 14.33143,19.16727 4.79793,7.41385 10.80056,8.7883 19.24553,4.40676 z M 50.339743,305.20256 c 5.810293,-2.02926 12.681293,-3.70695 15.268891,-3.72815 2.587596,-0.0205 5.38882,-1.7668 6.224929,-3.8791 0.836107,-2.1123 2.952516,-3.84055 4.703132,-3.84055 1.750618,0 7.973367,-2.24378 13.828365,-4.98618 5.854979,-2.7424 13.11724,-4.35955 16.13835,-3.59365 3.79348,0.96173 7.33759,-0.6642 11.45526,-5.25526 3.2793,-3.65629 7.74347,-6.64782 9.92039,-6.64782 4.42641,0 20.52317,-4.6421 27.11709,-7.82023 2.36317,-1.13901 8.86993,-2.90266 14.45948,-3.91922 5.58955,-1.01657 11.76309,-3.3997 13.719,-5.29587 1.95592,-1.89616 7.33386,-3.48421 11.95096,-3.52902 7.95306,-0.0771 8.12501,-0.27919 3.26813,-3.84053 -2.81962,-2.06751 -7.90812,-3.75911 -11.30773,-3.75911 -7.94129,0 -37.82025,-9.68833 -42.98917,-13.93936 -5.42294,-4.45997 -20.36381,-9.10391 -29.28972,-9.10391 -4.05524,0 -8.08771,-1.12086 -8.96107,-2.49078 -1.46221,-2.29364 -18.453789,-7.73781 -27.775316,-8.89934 -2.178862,-0.27151 -5.744273,-1.17384 -7.923135,-2.0052 -2.178862,-0.83136 -6.338507,-2.06483 -9.243662,-2.74105 -2.905136,-0.67623 -9.759004,-3.10661 -15.230779,-5.40087 -9.927847,-4.16265 -9.954131,-4.15751 -12.544957,2.44869 -1.427947,3.64105 -2.596272,9.42549 -2.596272,12.85432 0,3.42882 -1.049399,6.23423 -2.331997,6.23423 -1.282596,0 -2.007129,3.74453 -1.61006,8.32118 0.397068,4.57666 0.93695,8.32119 1.199741,8.32119 1.888577,0 2.35222,19.13423 0.49068,20.2496 -2.621072,1.5704 2.421884,25.53843 7.191077,34.17748 1.968323,3.5655 2.088458,5.9756 0.349785,7.01735 -3.777553,2.26333 -3.281524,8.98711 0.653123,8.85317 1.815725,-0.0616 8.055194,-1.77273 13.865485,-3.80201 z M 455.33291,293.5542 c 0.50233,-3.41018 1.88867,-7.35464 3.08077,-8.76544 3.71494,-4.39649 6.33694,-56.64972 2.9446,-58.68225 -1.63742,-0.98107 -2.97711,-5.82407 -2.97711,-10.76225 0,-15.62895 -3.52588,-19.01124 -17.88844,-17.15985 -6.86597,0.88504 -13.43399,3.16366 -14.5956,5.0636 -1.16161,1.89991 -3.76775,3.45441 -5.79139,3.45441 -2.02365,0 -7.60982,2.19774 -12.41373,4.88385 -4.80389,2.68611 -12.06503,4.84642 -16.13585,4.80068 -4.07083,-0.0456 -10.08981,2.36518 -13.37545,5.3576 -3.28565,2.99243 -8.57141,5.44078 -11.74606,5.44078 -3.17466,0 -5.77215,1.15217 -5.77215,2.56036 0,1.40819 -3.92195,2.56036 -8.71545,2.56036 -4.79348,0 -9.8445,1.01223 -11.22442,2.24939 -1.37994,1.23717 -10.82829,4.71601 -20.99631,7.73076 -25.2943,7.49959 -27.548,9.1711 -17.11795,12.69597 4.66456,1.57641 9.34832,2.34657 10.40828,1.71147 1.06001,-0.63509 8.35143,1.22054 16.20317,4.12366 7.85174,2.9031 16.51849,5.70508 19.25944,6.22662 2.74097,0.52155 6.91595,2.64364 9.27776,4.71577 2.36185,2.07209 10.22123,5.13048 17.46533,6.79635 7.24412,1.66587 16.14229,4.23314 19.77376,5.70507 3.63142,1.47196 9.57377,3.12762 13.2052,3.67924 3.63145,0.55165 10.08059,2.67479 14.33153,4.71803 4.25089,2.04328 9.89613,3.0482 12.54497,2.23318 2.64879,-0.81503 4.81604,-0.33656 4.81604,1.06329 0,2.62715 7.22605,5.25825 11.8847,4.32744 1.45258,-0.29026 3.05203,-3.31788 3.55436,-6.72809 z M 208.5515,219.18098 c -2.76714,-2.99419 -8.89369,-9.55625 -13.61455,-14.58233 -4.72088,-5.0261 -8.5834,-10.06538 -8.5834,-11.19838 0,-1.13302 -2.37694,-4.36435 -5.2821,-7.18076 -2.90513,-2.81639 -5.28206,-7.24578 -5.28206,-9.84309 0,-2.59731 -5.94237,-11.30556 -13.20524,-19.35172 -7.26288,-8.04613 -13.20523,-16.19454 -13.20523,-18.10755 0,-1.91299 -1.08844,-3.86222 -2.41878,-4.33163 -3.40657,-1.202 -29.02061,-32.66459 -33.65737,-41.342471 -3.63186,-6.797226 -10.92849,-8.35547 -9.46253,-2.020779 0.37379,1.615161 -2.23812,4.012083 -5.804219,5.32649 -3.566123,1.314407 -8.605158,5.60971 -11.197884,9.54512 -2.592727,3.9354 -6.814529,8.66081 -9.381784,10.50091 -2.567253,1.8401 -4.667736,4.82999 -4.667736,6.64418 0,1.8142 -2.346594,5.35731 -5.214651,7.87358 -2.868075,2.51627 -5.975845,7.01545 -6.90616,9.99818 -0.930334,2.98275 -3.785455,7.72749 -6.344746,10.54387 -4.375353,4.81494 -12.199012,24.11523 -10.188893,25.13511 0.507912,0.25769 3.581415,1.90875 6.829999,3.66898 3.248584,1.76025 8.229442,3.20046 11.068579,3.20046 2.839135,0 5.827761,1.04423 6.641389,2.32049 0.813647,1.27628 7.717488,3.13932 15.341881,4.14009 21.606235,2.83604 23.525765,3.35534 28.484875,7.70617 3.34555,2.93518 7.24541,3.61318 13.86158,2.4099 5.62234,-1.02252 9.8988,-0.58809 10.98518,1.11596 0.97834,1.53466 4.53434,2.79031 7.90219,2.79031 3.36785,0 7.68219,1.82087 9.58744,4.0464 2.02029,2.35997 6.00766,3.57505 9.56702,2.91543 3.35665,-0.62205 6.10299,-0.13872 6.10299,1.0743 0,1.21292 2.3068,2.20531 5.12623,2.20531 2.81942,0 5.92472,1.25254 6.90067,2.78342 0.97596,1.53087 3.72014,2.29952 6.09822,1.70808 2.37807,-0.59142 7.88916,0.40838 12.24688,2.22184 11.42019,4.75241 13.38208,4.26252 7.67221,-1.91587 z m 96.64907,-0.74075 c 4.7397,-3.85891 39.09944,-13.06931 45.31291,-12.14648 2.4072,0.35751 10.65181,-2.28469 18.32134,-5.87156 7.66955,-3.58688 16.15653,-6.52159 18.85999,-6.52159 2.70345,0 9.83509,-2.30433 15.84807,-5.12071 6.01294,-2.81641 13.01622,-5.12074 15.56281,-5.12074 2.54661,0 5.2814,-1.02155 6.07739,-2.27011 0.79596,-1.24856 5.71931,-3.04708 10.94077,-3.99671 7.60011,-1.38224 9.11506,-2.58911 7.59559,-6.05107 -1.04387,-2.37846 -3.30433,-8.0601 -5.02325,-12.62585 -1.71892,-4.56577 -5.56953,-10.90268 -8.55692,-14.08202 -6.34011,-6.74744 -12.74107,-17.74358 -11.93486,-20.50268 0.30859,-1.05615 -1.81584,-1.92028 -4.72102,-1.92028 -3.43063,0 -5.28208,-1.70691 -5.28208,-4.86971 0,-3.02977 -3.74206,-6.76245 -9.90392,-9.87911 -7.26936,-3.67684 -9.69395,-6.4116 -9.11465,-10.280638 1.4105,-9.420568 -7.94441,-7.923351 -18.5081,2.962138 -5.38758,5.55174 -9.23071,10.98019 -8.54028,12.06322 0.69045,1.08306 -0.0264,2.7368 -1.59168,3.67498 -2.58168,1.54684 -6.21987,8.70189 -7.77475,15.29038 -0.33235,1.40822 -4.04015,5.31985 -8.23954,8.69253 -4.19943,3.37268 -7.63528,8.66691 -7.63528,11.7649 0,3.09801 -2.37694,7.71814 -5.28209,10.26695 -2.90515,2.54879 -5.2821,6.12661 -5.2821,7.95067 0,1.8241 -1.67218,4.23787 -3.71594,5.36399 -3.71007,2.04427 -22.65372,27.95951 -22.74015,31.10888 -0.0264,0.91465 -2.99625,4.37629 -6.60261,7.69253 -3.6063,3.31626 -6.55697,7.18571 -6.55697,8.59875 0,3.21067 13.03233,0.27063 18.48732,-4.17066 z m -70.09783,-24.10204 c -1.04415,-3.76118 -1.50243,-15.47972 -1.01842,-26.04122 1.84804,-40.32499 0.11509,-123.294159 -2.64233,-126.515242 -1.53224,-1.789849 -2.0039,-4.012372 -1.04811,-4.93896 0.95579,-0.92657 -1.39417,-1.684694 -5.22212,-1.684694 -4.81375,0 -6.53103,1.083475 -5.56908,3.513676 1.69091,4.2718 -7.45205,6.279119 -18.72339,4.110727 -6.14862,-1.182887 -10.07849,0.08641 -17.54685,5.667108 -5.29302,3.955281 -11.73604,7.191401 -14.31777,7.191401 -2.58176,0 -6.86392,1.903681 -9.51593,4.230399 -2.65201,2.326717 -8.26178,4.135575 -12.46617,4.019687 -4.87896,-0.134424 -9.82213,2.036679 -13.66453,6.001791 -5.37487,5.546496 -5.64488,6.892492 -2.51871,12.555337 1.92584,3.488539 7.47707,10.550514 12.3361,15.693254 4.859,5.142736 8.83453,10.357776 8.83453,11.588976 0,1.2312 1.13445,2.23854 2.52101,2.23854 4.58585,0 15.96632,12.94266 15.96632,18.15802 0,2.98614 3.24811,6.93063 7.78624,9.4556 4.28241,2.38268 9.01082,6.93776 10.50753,10.12237 1.49675,3.18461 3.81903,5.79019 5.16064,5.79019 1.34162,0 3.68222,3.4565 5.20131,7.68109 1.51913,4.2246 4.01233,7.68109 5.54047,7.68109 1.52815,0 2.77844,1.2008 2.77844,2.66843 0,2.81825 3.1572,7.07359 11.97149,16.13538 2.95289,3.03581 7.66579,8.97613 10.47311,13.20074 4.26374,6.4163 5.26643,6.90994 6.08941,2.99794 0.54189,-2.57573 0.13094,-7.76047 -0.91319,-11.52163 z m 35.10398,7.99327 c 1.81572,-3.79027 3.3013,-7.98526 3.3013,-9.32222 0,-2.66712 18.06554,-24.78126 34.46427,-42.18797 5.73844,-6.09113 10.43351,-12.24489 10.43351,-13.67499 0,-1.43011 4.20355,-7.36112 9.34127,-13.18 5.13769,-5.81889 9.99883,-13.11969 10.80252,-16.22402 0.8037,-3.10431 3.13668,-6.2675 5.18449,-7.02929 2.04775,-0.761813 3.72322,-3.602319 3.72322,-6.312246 0,-2.709946 1.70494,-5.561416 3.78879,-6.336649 2.08385,-0.775214 5.17357,-3.917932 6.86609,-6.983801 2.12944,-3.857347 2.17691,-5.034858 0.15431,-3.822896 -1.60777,0.963285 -3.59505,0.05414 -4.41618,-2.02032 -0.82113,-2.074469 -4.37815,-4.473774 -7.9045,-5.33179 -3.52642,-0.858016 -6.41159,-3.288274 -6.41159,-5.400573 0,-2.771337 -1.75795,-3.412805 -6.3145,-2.304117 -3.47295,0.845036 -7.10852,0.290904 -8.07899,-1.231413 -0.97047,-1.522295 -4.29033,-2.767822 -7.37742,-2.767822 -3.0871,0 -10.52854,-2.30692 -16.53654,-5.126494 -14.18034,-6.654877 -43.03302,-8.36413 -44.7443,-2.650686 -1.34598,4.493649 -0.52923,17.948613 2.35706,38.831191 1.20311,8.704479 0.93668,16.323196 -0.67281,19.238656 -1.8447,3.34156 -1.69968,7.17966 0.47121,12.47217 1.99262,4.85779 3.05542,22.3476 2.91505,47.97088 -0.22407,40.90986 1.62859,48.05926 8.6538,33.3944 z M 151.49176,52.56855 c 5.14409,-4.986947 3.83938,-12.289743 -2.19574,-12.289743 -5.91957,0 -9.24384,5.562818 -6.88516,11.521634 1.83595,4.638246 4.82777,4.891319 9.0809,0.768109 z m 213.13231,-2.083361 c 0,-2.421867 -3.12077,-4.09717 -8.58339,-4.60779 -9.30596,-0.869845 -11.37,2.794208 -3.96157,7.032556 6.16025,3.524258 12.54496,2.290194 12.54496,-2.424766 z M 202.57167,32.541492 c -13.74501,-6.04642 -13.57708,-6.029175 -13.57708,-1.394022 0,3.37751 6.16401,5.285454 19.80784,6.131123 2.90514,0.180121 0.10125,-1.951632 -6.23076,-4.737101 z m 123.75725,0.330152 c 0,-6.4809 -6.3656,-8.491944 -15.2173,-4.807518 -9.53764,3.969953 -9.34124,3.784724 -7.34017,6.92362 0.9575,1.501884 6.42462,2.730704 12.14917,2.730704 8.45154,0 10.4083,-0.911207 10.4083,-4.846806 z m -30.50405,-5.682432 c 1.5335,-1.389029 0.84737,-2.272584 -1.76478,-2.272584 -6.34256,0 -12.62892,2.771222 -12.62892,5.567195 0,2.704512 10.39816,0.324469 14.3937,-3.294611 z"
   id="path10926" /><path
   style="fill:#000000;stroke-width:0.608815"
   d="m 266.73451,45.539807 c -4.93778,-0.324217 -12.06516,1.142145 -12.38795,7.227295 -0.97739,16.702023 3.72192,33.081123 3.18439,49.711138 -0.29523,5.42646 -3.89816,10.99772 -1.30324,16.53312 3.92193,12.18943 2.78765,25.12294 3.5712,37.83139 0.75633,16.32811 -0.62766,32.85477 1.57756,49.11256 0.0115,2.95833 3.39182,7.25142 6.05723,3.90736 3.75859,-5.08766 6.44712,-11.04765 7.99664,-17.12767 11.86947,-18.29022 27.98533,-33.27755 41.56467,-50.2272 3.3539,-4.86523 5.56899,-10.45913 9.7339,-14.7923 5.8273,-6.7299 11.30218,-13.93591 14.69122,-22.21102 2.9529,-3.85375 7.91723,-6.697716 7.95977,-12.141812 0.90532,-4.356228 6.3037,-5.177435 8.25348,-8.966935 1.24891,-2.504748 4.92259,-5.171175 3.28547,-8.147652 -1.75396,-1.958621 -5.2859,0.840092 -6.09885,-2.323483 -2.98875,-4.605941 -9.2817,-4.880084 -12.98488,-8.430655 -0.68264,-3.079679 -2.94435,-6.533861 -6.59336,-5.346621 -3.32084,0.373919 -7.7254,1.810369 -9.98495,-1.333692 -5.6075,-2.846682 -12.22627,-2.513355 -17.942,-5.207724 -11.16687,-4.284536 -22.72322,-8.274765 -34.85381,-8.030557 -1.90842,-0.04541 -3.81764,-0.0466 -5.72649,-0.03554 z"
   id="path11593" /><path
   style="fill:#000000;stroke-width:0.608815"
   d="m 385.15965,89.425588 c -8.0699,1.179421 -13.78111,7.98212 -19.14793,13.523532 -2.73055,3.02677 -5.26399,6.50991 -5.79682,10.61026 -4.32065,4.91848 -7.43683,10.78289 -9.19286,17.09675 -4.82354,7.47431 -14.88589,11.97991 -15.88982,21.63908 -1.43389,7.43636 -9.45538,11.2264 -10.93845,18.66635 -3.58426,4.58257 -8.1807,8.37449 -11.533,13.20604 -5.78606,7.26095 -10.99626,14.9975 -15.47601,23.10047 -3.48342,5.21293 -9.47649,8.74586 -11.83622,14.6496 -0.37745,4.20253 5.07707,4.10798 7.87654,3.27238 8.38169,-1.51492 14.88256,-7.61351 23.1335,-9.56116 11.93757,-3.72924 24.12685,-7.22975 36.66589,-7.91847 13.24696,-3.21602 25.07704,-10.9566 38.68707,-12.96942 10.34053,-2.66401 19.3776,-8.57675 30.08163,-9.83021 4.02259,-1.43727 7.32899,-4.45476 11.69464,-5.12902 4.45815,-1.30437 10.39671,-1.28947 12.69243,-6.09957 -4.0594,-11.54749 -8.47305,-23.50166 -16.97168,-32.65326 -4.1104,-5.49425 -8.76295,-11.27857 -9.70321,-18.24935 -2.16349,-3.64155 -9.35672,-0.28275 -9.66255,-5.56613 -1.79953,-7.48999 -9.84803,-10.20802 -15.51525,-14.10262 -3.29743,-1.53884 -3.87879,-5.115457 -3.63149,-8.383095 0.16437,-3.096767 -2.4869,-5.501117 -5.53641,-5.302157 z"
   id="path11637" /><path
   style="fill:#000000;stroke-width:0.608815"
   d="m 446.76408,196.26779 c -8.419,0.15963 -17.67743,1.35412 -23.9257,7.57689 -5.44314,2.08941 -11.1684,3.62434 -16.3418,6.46396 -6.2964,3.49575 -13.51603,3.88692 -20.36437,5.46399 -7.74495,2.10913 -13.08519,9.96504 -21.56761,9.8669 -2.41132,0.30025 -4.52609,1.77792 -5.75758,3.7171 -7.02951,2.07517 -14.84406,0.91391 -21.38343,4.89073 -12.90807,5.53339 -26.89305,8.20421 -39.64667,14.0717 -3.02325,1.08953 -3.0821,5.46169 0.0642,6.47222 6.35281,3.38234 13.69327,3.29365 20.58154,4.44542 11.14703,3.35513 22.22794,7.03063 33.20667,10.87305 6.33464,3.44384 12.50054,7.38497 19.63459,9.04601 14.98274,3.81827 29.65263,8.77092 44.64086,12.76489 7.0096,2.67152 14.26402,5.98922 21.96608,4.48763 1.51584,0.73798 2.2806,3.4846 4.40915,4.01199 4.16842,1.90351 11.18946,3.08631 13.27144,-2.33181 1.65841,-5.16608 3.17537,-10.38507 5.21654,-15.42251 4.00894,-17.45382 3.88205,-35.59215 3.16655,-53.39375 0.0846,-3.69224 -3.63483,-5.94026 -3.31756,-9.76125 -1.24444,-6.96041 0.37304,-15.84806 -5.54592,-21.0909 -2.33139,-1.93287 -5.37827,-2.3271 -8.30699,-2.15226 z"
   id="path11682" /><path
   style="fill:#000000;stroke-width:0.608815"
   d="m 288.31889,276.53857 c -2.99709,-0.54931 -6.23406,2.71576 -3.69212,5.37112 3.10554,3.30663 4.94266,7.44617 7.14287,11.3035 3.10011,2.37967 6.63729,4.26444 9.0787,7.48414 7.90921,9.00268 15.86637,18.21472 21.09686,29.07209 3.29438,10.29988 11.48306,17.88309 18.35124,25.75689 7.49508,9.69057 14.43174,19.84498 22.95351,28.69451 6.18362,6.80388 9.78308,15.78331 16.84656,21.77052 7.88847,4.46875 19.91244,-0.0656 21.8543,-9.2868 4.04928,-10.36921 13.54596,-17.20512 20.20575,-25.80295 6.70526,-7.01924 8.63678,-16.90538 14.28818,-24.63396 4.35135,-7.62744 10.86636,-15.72952 9.38234,-25.07156 -1.53323,-4.32861 -7.25217,-3.36322 -10.5187,-5.52808 -5.14551,-2.38567 -10.40813,-5.6042 -16.30706,-4.55695 -6.57764,0.29273 -12.65442,-2.95775 -19.24107,-3.02207 -5.15304,-0.3336 -10.32821,-1.63722 -14.23198,-5.17993 -9.1378,-4.63484 -19.81642,-4.15547 -29.72215,-5.7212 -7.84961,-0.20715 -13.80102,-6.68668 -21.5681,-7.66559 -9.5458,-1.46796 -18.6094,-5.41352 -27.94011,-7.50033 -6.06067,-1.7061 -11.4383,-5.67074 -17.97902,-5.48335 z"
   id="path11728" /><path
   style="fill:#000000;stroke-width:0.608815"
   d="m 262.99839,294.52833 c -4.05355,1.0259 -2.38611,6.38869 -2.95512,9.43229 -1.01212,34.68015 -1.09672,69.38466 -0.83808,104.07238 -0.13547,3.08061 -0.0958,6.39176 -1.99767,8.88609 0.0761,3.41281 2.70887,6.36872 2.23787,9.9729 0.77101,9.53419 -0.50231,19.49798 1.04402,29.06733 2.05975,3.58225 7.20298,2.05334 10.59731,1.98107 11.89041,-1.67399 24.09176,-1.5337 35.62979,-5.29863 11.87512,-2.98014 22.53212,-9.21048 34.02108,-13.20486 10.01452,-1.9101 19.54515,-6.69925 27.0102,-13.60558 2.67467,-4.47754 -2.79895,-8.32581 -4.85386,-11.7934 -4.72608,-5.82818 -6.6323,-15.12979 -14.78992,-17.2775 -2.61504,-2.22382 -3.58053,-6.03774 -6.64464,-7.98474 -5.47013,-4.21782 -11.25454,-8.92643 -13.08357,-15.91836 -2.27045,-6.69998 -8.56183,-10.35688 -13.87074,-14.36184 -4.70915,-3.70882 -6.37972,-10.62238 -12.19294,-12.92186 -3.16088,-10.4297 -11.8097,-17.80152 -18.46496,-26.03297 -5.01219,-5.61278 -9.84855,-11.46546 -13.04952,-18.31774 -2.03597,-2.58171 -4.36217,-6.1317 -7.79925,-6.69458 z"
   id="path11775" /><path
   style="fill:#000000;stroke-width:0.608815"
   d="m 230.96071,294.81014 c -4.00855,1.41315 -6.98173,5.30417 -8.80522,9.02996 -4.25258,12.78476 -15.53923,21.64488 -21.78177,33.47648 -3.17667,1.36026 -6.48431,2.9083 -8.66609,5.81822 -7.93735,9.64996 -14.40396,20.42325 -22.37514,29.99834 -5.58788,6.99289 -10.18855,14.68511 -15.10501,22.12189 -2.91805,4.02655 -8.10964,6.97304 -8.33315,12.40579 -3.63887,5.87221 -11.38867,10.29423 -11.04784,18.11342 0.81164,5.21928 7.0292,6.31089 10.80408,8.78263 11.77913,5.9188 23.96758,11.1091 36.45277,15.16329 3.1357,0.8801 5.34417,5.19487 9.05612,3.22362 2.43278,-1.06569 4.67836,-3.60708 7.55548,-1.92514 12.79741,3.83529 25.84619,7.23673 38.83696,10.0549 3.217,-0.97928 1.94238,-5.63206 2.80725,-8.34156 0.63785,-9.25419 3.30774,-18.8618 0.16185,-27.93874 -2.96588,-16.00576 -1.75896,-32.68328 -2.48995,-49.0607 -0.84173,-25.87819 -1.26187,-51.8173 -3.5649,-77.61197 -0.27243,-1.69574 -1.61037,-3.49041 -3.50544,-3.31043 z"
   id="path11823" /><path
   style="fill:#000000;stroke-width:0.608815"
   d="m 211.06365,274.1045 c -11.359,1.79958 -20.58627,9.6382 -31.90735,11.59771 -6.79227,0.98347 -12.81422,4.37193 -19.33058,6.21249 -11.28204,1.78675 -22.85259,3.33433 -33.28028,8.19046 -6.48984,2.93639 -13.55715,4.46565 -20.55225,5.83368 -10.314408,2.44418 -19.363547,9.36425 -30.125618,9.77552 -4.846553,1.30569 -9.056215,4.61193 -14.059181,5.29515 -4.900351,1.53808 -12.48615,1.70131 -13.947479,7.81101 -1.561962,9.40109 4.771624,17.33374 10.217859,24.21941 4.856098,7.85339 10.128448,15.44398 16.2697,22.37164 11.889571,13.96511 24.523352,27.45779 37.929299,39.88313 3.21345,0.60374 5.38224,-3.41272 7.91911,-5.08803 3.87969,-3.19514 6.0062,-7.93571 7.96335,-12.31304 4.92881,-2.8825 6.93308,-8.88791 10.00858,-13.44506 4.57873,-7.65031 8.13187,-16.57284 15.35256,-22.17784 5.42363,-2.69467 8.46204,-8.1976 9.54005,-13.96697 1.03046,-5.05056 3.9452,-9.28818 7.20927,-13.13349 1.87588,-3.41976 3.09362,-7.21515 6.22965,-9.80644 4.54503,-4.2879 8.16933,-9.35278 11.27853,-14.69003 5.13442,-6.78539 11.15555,-12.93877 15.23225,-20.47377 3.15399,-4.81468 7.65657,-8.54283 10.76009,-13.39392 0.43365,-1.61995 -1.15129,-2.99547 -2.70756,-2.70161 z"
   id="path11872" /></svg>
