<?xml version="1.0" encoding="UTF-8" standalone="no"?>
<!-- Generator: Adobe Illustrator 16.0.0, SVG Export Plug-In . SVG Version: 6.00 Build 0)  -->

<svg
   version="1.1"
   id="Layer_1"
   x="0px"
   y="0px"
   width="492.531px"
   height="492.531px"
   viewBox="0 0 492.531 492.531"
   enable-background="new 0 0 492.531 492.531"
   xml:space="preserve"
   sodipodi:docname="6clock_1.svg"
   inkscape:version="1.1 (c68e22c387, 2021-05-23)"
   xmlns:inkscape="http://www.inkscape.org/namespaces/inkscape"
   xmlns:sodipodi="http://sodipodi.sourceforge.net/DTD/sodipodi-0.dtd"
   xmlns="http://www.w3.org/2000/svg"
   xmlns:svg="http://www.w3.org/2000/svg"><defs
   id="defs2248" /><sodipodi:namedview
   id="namedview2246"
   pagecolor="#505050"
   bordercolor="#ffffff"
   borderopacity="1"
   inkscape:pageshadow="0"
   inkscape:pageopacity="0"
   inkscape:pagecheckerboard="1"
   showgrid="false"
   inkscape:zoom="1.6425362"
   inkscape:cx="187.8193"
   inkscape:cy="235.91565"
   inkscape:window-width="2560"
   inkscape:window-height="1017"
   inkscape:window-x="-8"
   inkscape:window-y="-8"
   inkscape:window-maximized="1"
   inkscape:current-layer="Layer_1" />

<path
   style="fill:#000000;stroke-width:1.80994"
   d="m 213.92591,490.84463 c -5.82152,-1.23458 -11.21415,-3.26067 -11.98361,-4.5024 -0.76946,-1.24175 -3.01715,-1.98431 -4.99485,-1.65014 -1.9777,0.33416 -4.88937,-0.46315 -6.47037,-1.77181 -1.58098,-1.30865 -7.9234,-3.09113 -14.09422,-3.96109 -7.53673,-1.0625 -12.63798,-2.91061 -15.54035,-5.63008 -4.18778,-3.92387 -4.39712,-3.94411 -6.80623,-0.65811 -2.37759,3.24298 -2.69459,3.25367 -7.29682,0.24611 -2.6987,-1.7636 -4.58565,-4.49736 -4.29745,-6.22602 0.41196,-2.47106 -0.93816,-3.09635 -6.81193,-3.15482 -5.60605,-0.0559 -9.8789,-1.85915 -18.20201,-7.68211 -5.98195,-4.18505 -11.86028,-7.60918 -13.06295,-7.60918 -1.20267,0 -2.18667,-1.90475 -2.18667,-4.23278 0,-3.42173 -1.47586,-4.66392 -7.702396,-6.48294 -18.315305,-5.3506 -28.544152,-15.07231 -28.544152,-27.12894 0,-4.62978 -1.0591,-5.92952 -6.771494,-8.31004 -8.712126,-3.63057 -15.769516,-10.08111 -12.938656,-11.82606 1.372334,-0.84592 0.747077,-1.98967 -1.843691,-3.37256 -2.156142,-1.15089 -3.441512,-2.86512 -2.856376,-3.80939 0.585135,-0.94428 0.200202,-1.71687 -0.855404,-1.71687 -1.055607,0 -1.919285,-1.66165 -1.919285,-3.69254 0,-2.03091 -3.556038,-7.52135 -7.902307,-12.20101 -9.07468,-9.77076 -13.263849,-16.64246 -10.145677,-16.64246 1.108327,0 -0.439634,-2.06013 -3.439914,-4.57806 -6.764976,-5.67735 -9.9169675,-14.7085 -8.2989782,-23.77838 0.995252,-5.57904 0.785405,-6.47273 -1.1022663,-4.69436 -1.840969,1.73438 -2.796016,1.56303 -4.53901,-0.8144 -2.44493498,-3.33483 0.112383,-9.51615 3.937003,-9.51615 1.139141,0 2.4902883,-1.59851 3.0025485,-3.55222 0.658238,-2.51049 -0.209892,-3.92925 -2.9601985,-4.83782 -3.784214,-1.25009 -3.766578,-1.31666 0.639238,-2.41265 l 4.5308185,-1.1271 -5.7748895,-2.5595 -5.77488898,-2.55951 -0.568256,-17.23327 c -0.312541,-9.4783 -0.0012,-18.45338 0.69197498,-19.94462 0.693128,-1.49122 1.747657,-5.75169 2.343399,-9.4677 0.658443,-4.10709 2.493766,-7.50931 4.680592,-8.67657 1.9785835,-1.05613 3.1431525,-2.65332 2.5879305,-3.54933 -1.5184822,-2.45048 -2.5718745,-23.4953 -1.1760512,-23.4953 0.6666692,0 2.2990202,-1.73581 3.6274452,-3.85736 1.836038,-2.93222 1.900127,-4.17493 0.26722,-5.18146 -2.946014,-1.81595 -3.290265,-22.74448 -0.421189,-25.606 1.772053,-1.76739 2.235203,-1.59261 2.235203,0.84352 0,3.75571 1.82642,3.88972 6.449837,0.47327 3.476502,-2.56894 3.475244,-2.63458 -0.106692,-5.57022 -3.004836,-2.46267 -3.082313,-2.80058 -0.453082,-1.97605 2.706611,0.8488 3.183144,-0.25579 3.250501,-7.53455 0.119233,-12.88506 2.801686,-24.23817 6.171221,-26.11889 1.656838,-0.92477 3.762581,-3.64926 4.67943,-6.0544 0.916849,-2.40515 2.936784,-4.373 4.488745,-4.373 1.551962,0 3.421613,-1.42344 4.154781,-3.16322 2.825491,-6.70475 12.205735,-20.335006 13.994408,-20.335006 2.238541,0 20.802299,-19.339357 20.802299,-21.671424 0,-0.891093 1.761275,-4.597449 3.913943,-8.236347 l 3.913946,-6.616178 2.252413,4.197596 c 2.188626,4.078717 2.310724,3.981617 4.311383,-3.428701 1.712134,-6.341645 2.810419,-7.626297 6.519935,-7.626297 3.207529,0 4.460959,-0.985792 4.460959,-3.508435 0,-4.485982 3.21454,-6.4374 9.51793,-5.777955 3.35679,0.35118 5.37501,-0.480586 6.16817,-2.542083 1.72316,-4.478669 13.01226,-15.284869 15.96791,-15.284869 1.39477,0 3.05364,1.626801 3.68637,3.615112 1.44831,4.551206 4.22736,4.498918 9.87101,-0.185729 3.54874,-2.945724 3.93008,-3.991202 1.90998,-5.236409 -1.44803,-0.892575 -3.91774,-0.81192 -5.79327,0.189189 -2.62358,1.400399 -3.26923,1.059028 -3.26923,-1.728522 0,-2.529789 1.60033,-3.717339 5.89007,-4.370816 3.23953,-0.493495 6.70561,-0.286207 7.70239,0.460642 2.12208,1.589991 13.1774,2.098225 17.47451,0.803336 1.63674,-0.493215 3.39536,-2.496619 3.90806,-4.452005 0.51269,-1.955386 2.23184,-3.555247 3.82033,-3.555247 1.58848,0 2.95255,-1.42345 3.03124,-3.1632241 0.091,-2.0116171 0.48505,-2.3131817 1.08239,-0.8283342 1.18173,2.9374153 6.02384,-0.5702931 6.02384,-4.3637706 0,-2.8595318 1.63316,-3.1200671 5.24799,-0.8372009 1.39121,0.8785975 2.02846,2.8996431 1.41611,4.4912111 -0.83555,2.1717127 0.003,2.8937627 3.36057,2.8937627 3.5915,0 4.47394,-0.912349 4.47394,-4.6255672 0,-2.5440622 0.7459,-4.1657949 1.65754,-3.6038506 0.91164,0.5619442 1.93107,0.3299926 2.26541,-0.5154478 1.02431,-2.59022532 14.20032,-0.1627612 14.20032,2.6161758 0,1.3824668 1.15536,2.5135765 2.56747,2.5135765 1.4121,0 2.92405,1.01675 3.35988,2.2594452 0.56903,1.6225161 1.89674,1.2816251 4.70993,-1.2092773 4.59945,-4.0725324 20.6051,-5.8949712 27.42159,-3.1222823 3.33894,1.3581552 3.67281,1.8731059 1.26919,1.9575401 -2.50904,0.088138 -2.86967,0.8131148 -1.56293,3.1419916 1.99778,3.560432 7.54305,4.841488 7.54305,1.74258 0,-1.177192 2.87535,-3.6847504 6.38965,-5.5723491 l 6.38967,-3.4319992 6.29662,6.0868699 c 3.46316,3.3477794 6.29668,5.3172584 6.29671,4.3766224 4e-5,-0.940637 5.50498,-1.71025 12.23321,-1.71025 11.3064,0 12.27701,0.308099 12.81226,4.067001 0.61087,4.289886 3.17614,5.483768 4.33466,2.017362 0.46127,-1.380166 1.57413,-1.162858 3.40712,0.665305 1.49716,1.493218 4.57804,3.302441 6.84639,4.020493 2.52805,0.800258 3.7476,2.284596 3.15102,3.83516 -0.62067,1.613149 0.64504,2.934714 3.49359,3.647769 2.45675,0.614985 4.46684,2.250077 4.46684,3.633537 0,1.38346 1.71172,2.515381 3.80384,2.515381 5.60212,0 14.19574,4.519121 24.07142,12.658431 6.53963,5.389816 9.79238,6.937829 12.92845,6.152795 2.85394,-0.714406 5.39646,0.153967 7.97206,2.722808 2.07994,2.074464 4.18949,3.771752 4.68788,3.771752 0.49839,0 1.80895,0 2.91239,0 1.10342,0 1.50784,1.295373 0.89868,2.878608 -0.74621,1.939482 0.12124,3.199114 2.65919,3.861032 2.91553,0.760422 3.52373,1.948008 2.69143,5.255395 -0.5914,2.350134 -0.26978,4.27297 0.71469,4.27297 0.9845,0 1.32235,1.215428 0.7508,2.700952 -0.57156,1.485523 -1.76929,2.250921 -2.66161,1.70088 -0.89233,-0.55004 -1.62243,-0.138667 -1.62243,0.914161 0,3.429343 3.24168,2.022056 7.04073,-3.056548 2.04512,-2.733928 3.74425,-4.02037 3.77582,-2.858756 0.0315,1.161611 2.91691,3.874634 6.41185,6.028941 3.49495,2.154304 5.89345,4.660847 5.33002,5.570091 -0.56342,0.909246 0.24704,1.653172 1.80104,1.653172 3.29834,0 3.81212,2.985831 0.69225,4.023049 -2.93283,0.975039 -0.2138,4.901464 4.6791,6.756855 2.47916,0.94008 4.94381,4.3528 6.46617,8.95342 1.89653,5.73139 3.18083,7.20613 5.60687,6.43815 2.58387,-0.81792 3.09777,0.0665 2.8725,4.94365 -0.21864,4.73383 0.36959,5.83195 2.89724,5.40866 2.40189,-0.40224 3.17157,0.71636 3.17157,4.60926 0,2.82722 0.97866,6.11648 2.17479,7.30947 1.6915,1.68704 1.42772,2.16906 -1.18705,2.16906 -3.17225,0 -3.18841,0.19113 -0.28686,3.38888 1.69125,1.86389 2.89866,4.10074 2.68312,4.97078 -0.6237,2.51765 4.37361,12.14199 8.02721,15.4596 3.23616,2.93858 3.22346,3.09427 -0.41123,5.03437 -4.76374,2.54277 -4.90563,6.2128 -0.19266,4.98358 1.95692,-0.51039 4.50342,0.20814 5.65891,1.59674 1.15546,1.38861 1.49942,2.52473 0.76434,2.52473 -0.73508,0 0.0667,2.13583 1.78159,4.74626 1.87491,2.85395 2.41263,5.19613 1.3487,5.87456 -0.97316,0.62057 -1.53346,3.26348 -1.24512,5.87313 0.43267,3.91574 -0.215,4.74483 -3.70661,4.74483 -2.6127,0 -4.57078,-1.29624 -5.11953,-3.38916 -0.5578,-2.1274 0.0604,-3.38917 1.6602,-3.38917 4.11075,0 3.07157,-1.70385 -6.51282,-10.67845 -7.44638,-6.97262 -9.06163,-9.58614 -9.06163,-14.6619 0,-4.1994 -1.34556,-7.35252 -4.20315,-9.84945 -5.7634,-5.036 -6.80699,-8.73612 -3.99085,-14.14996 2.0138,-3.87139 1.97478,-5.19639 -0.24617,-8.3589 -3.58973,-5.11156 -6.5588,-4.71998 -9.19372,1.21253 -3.13989,7.06947 -34.42613,34.83276 -53.82827,47.76702 -9.03964,6.0262 -19.40749,13.30015 -23.03965,16.16436 -3.63217,2.8642 -7.38456,5.20764 -8.33864,5.20764 -1.95249,0 -12.96983,5.73785 -27.27378,14.20424 -5.27696,3.12338 -10.22155,5.67889 -10.98798,5.67889 -0.76641,0 -3.73752,2.44019 -6.60245,5.42266 -2.93476,3.05515 -4.1679,5.42267 -2.82448,5.42267 1.31146,0 -1.07172,3.05901 -5.29594,6.79782 l -7.68041,6.79784 8.80659,5.57172 c 4.8436,3.06445 16.14649,9.50339 25.11751,14.30873 8.97102,4.80538 17.12649,9.71649 18.12327,10.9136 0.99678,1.19711 9.42849,5.48208 18.73713,9.52219 19.37616,8.40958 46.98336,23.52863 68.68987,37.61791 8.21365,5.33133 15.76841,9.69333 16.78835,9.69333 1.11886,0 0.82102,-2.46676 -0.75086,-6.21895 -2.17896,-5.20124 -2.20613,-6.54935 -0.16601,-8.23804 1.34163,-1.11053 2.95706,-5.42925 3.58987,-9.59719 1.45211,-9.56414 4.45898,-15.71205 7.68456,-15.71205 1.81842,0 2.03329,-0.83587 0.78619,-3.05845 -1.18333,-2.10892 -0.88329,-4.32618 0.96638,-7.14173 1.64157,-2.49875 2.19009,-5.63072 1.41351,-8.07107 -0.95066,-2.98739 -0.1927,-4.81338 3.02128,-7.27854 l 4.2903,-3.29073 -4.53082,-0.16719 c -3.80385,-0.14045 -3.99375,-0.37803 -1.18354,-1.48099 3.01111,-1.1818 3.06168,-1.55014 0.50361,-3.66757 -2.50204,-2.07104 -2.52357,-2.67309 -0.17924,-5.01117 1.92102,-1.91598 2.16961,-3.5794 0.89102,-5.96219 -1.39008,-2.59054 -0.8976,-3.87713 2.2786,-5.95278 4.36896,-2.8551 15.81288,-2.20568 15.81288,0.89735 0,1.00305 1.3168,0.73376 2.92622,-0.59842 2.50866,-2.07652 3.41377,-1.8216 6.34314,1.78649 4.99012,6.14632 4.30983,10.37425 -2.02359,12.57629 -5.04945,1.7556 -5.28748,2.22658 -3.31135,6.55229 1.62866,3.56512 1.62949,5.15908 0.004,6.78076 -2.58983,2.58284 -2.83705,12.24231 -0.31344,12.24231 3.71666,0 1.62421,7.31813 -3.88032,13.57094 -4.9503,5.62323 -5.43187,7.03728 -3.693,10.84367 1.32063,2.8908 1.38241,4.75766 0.18194,5.49764 -0.99973,0.61624 -1.36247,2.55098 -0.80607,4.29942 0.55641,1.74843 -0.52166,5.13693 -2.39566,7.52999 -5.87995,7.50852 -11.49644,20.02464 -10.57054,23.55594 0.48878,1.86425 -0.0544,3.41372 -1.20703,3.44329 -1.15266,0.0296 -4.92657,4.98263 -8.38649,11.00681 -3.45991,6.02418 -8.54871,12.55663 -11.30845,14.51657 -3.40572,2.41871 -5.94514,6.74544 -7.90464,13.46817 -3.51378,12.05512 -9.31225,19.24838 -15.51608,19.24838 -3.41355,0 -5.08994,1.37179 -6.62134,5.41828 -1.36508,3.60696 -2.93752,5.07882 -4.70376,4.40283 -1.79727,-0.68787 -3.29956,0.83387 -4.65685,4.71715 -3.05254,8.73343 -12.5056,17.64013 -17.61642,16.5982 -2.31987,-0.47294 -6.2568,-1.28208 -8.74875,-1.79811 -5.63393,-1.16665 -6.29641,3.48371 -0.90617,6.36088 7.06308,3.7701 3.66458,6.85918 -11.81762,10.74167 -5.24986,1.31655 -8.25419,3.4607 -10.74748,7.67039 -2.37397,4.00823 -3.73414,5.02484 -4.33152,3.23744 -1.51666,-4.53801 -4.98509,-6.95486 -7.63597,-5.32085 -1.42786,0.88014 -3.40469,0.79007 -4.61309,-0.21018 -1.43406,-1.18702 -2.46147,-0.84861 -3.19256,1.05158 -0.74407,1.9339 -2.43055,2.4633 -5.4442,1.70892 -3.20825,-0.80312 -5.087,-0.0665 -7.08424,2.7774 -2.01522,2.86957 -4.68169,3.89739 -10.31183,3.97491 -4.86411,0.0668 -7.95405,1.04094 -8.59607,2.70956 -0.87957,2.2861 -14.43114,8.9773 -16.84177,8.31575 -0.49839,-0.13683 -1.55835,0.91365 -2.35547,2.33426 -1.65777,2.95449 -13.95548,3.58173 -13.95548,0.7118 0,-1.2315 -1.31752,-1.1679 -3.85409,0.18607 -2.4955,1.33203 -7.92583,1.62232 -15.40478,0.82351 -9.75347,-1.04177 -11.55069,-1.77384 -11.55069,-4.70497 0,-4.77659 -1.66487,-4.3604 -7.11731,1.77914 l -4.66281,5.25041 z m 18.29637,-33.10604 c 4.72955,0.50269 10.16797,1.56041 12.08539,2.35045 2.94115,1.21186 3.25846,0.89283 2.02943,-2.04058 -0.80121,-1.91238 -2.13313,-7.13734 -2.95977,-11.61104 -0.82666,-4.4737 -2.74787,-12.08892 -4.26935,-16.92272 -3.92494,-12.46948 -7.84943,-64.38224 -7.1245,-94.24199 0.59486,-24.50178 -1.27934,-38.29321 -4.90053,-36.06108 -0.91646,0.56489 -1.67082,-0.0377 -1.67638,-1.33902 -0.005,-1.30137 -0.8653,-5.43757 -1.91054,-9.19155 l -1.90044,-6.82543 -12.91051,6.76643 c -7.10079,3.72154 -17.45481,11.24119 -23.00895,16.71033 -8.85307,8.71759 -11.00464,9.95091 -17.44665,10.00056 -6.14203,0.0473 -7.92696,0.94676 -10.87396,5.47932 -3.77192,5.80127 -17.30708,13.60352 -23.39228,13.48429 -3.12205,-0.0611 -2.89757,-0.50269 1.4504,-2.85279 2.82927,-1.52923 4.65066,-3.27258 4.04753,-3.87412 -0.60312,-0.60153 -2.06165,-0.13122 -3.24118,1.04524 -1.17952,1.17641 -5.1757,2.13894 -8.8804,2.13894 -3.7047,0 -7.04665,0.93004 -7.42655,2.06676 -0.51461,1.53975 -1.70845,1.52353 -4.68185,-0.0636 -2.30905,-1.23248 -3.99111,-1.39306 -3.99111,-0.38098 0,0.96215 -1.83498,2.30708 -4.07773,2.98873 -2.24276,0.68166 -5.53492,2.51638 -7.315909,4.07717 -4.447806,3.89787 -10.329193,4.21822 -8.93066,0.48645 0.897774,-2.39557 0.610921,-2.47825 -1.805558,-0.52034 -1.580098,1.28024 -4.526633,2.64536 -6.547852,3.03358 -4.689059,0.90066 -13.005816,6.29902 -13.005816,8.44201 0,0.90112 -2.038868,2.56494 -4.530817,3.69737 -2.748472,1.249 -4.5199,3.5447 -4.503065,5.83581 0.01794,2.4498 0.516178,3.0104 1.417836,1.59547 2.244799,-3.52266 14.865355,9.08385 14.865355,14.84879 0,2.81686 0.76221,4.24791 1.891716,3.55167 2.687271,-1.65646 6.856327,2.29121 11.02358,10.43821 2.777957,5.4309 4.510123,6.89556 7.666999,6.48296 4.079781,-0.53321 20.507641,8.78692 24.996541,14.18147 1.29886,1.56091 2.11563,5.17655 1.81503,8.03473 -0.56278,5.35118 2.58427,7.04623 6.2655,3.37469 1.22753,-1.22429 5.50937,-0.23724 13.05248,3.00887 6.17412,2.65698 10.84887,5.20669 10.38834,5.66603 -0.46054,0.45931 1.78054,2.64176 4.98017,4.84987 3.99665,2.75814 6.52658,3.46585 8.08292,2.26111 1.60394,-1.24159 2.26541,-0.89735 2.26541,1.17902 0,1.95497 1.57458,2.93266 4.72307,2.93266 2.87933,0 6.1143,1.76403 8.287,4.51889 3.34412,4.24016 10.26344,6.63565 7.83168,2.71133 -0.61604,-0.99415 -0.25641,-1.80755 0.7992,-1.80755 1.05561,0 1.91929,1.3197 1.91929,2.93265 0,2.40188 0.49203,2.52539 2.71849,0.68246 1.8207,-1.50706 2.71849,-1.59297 2.71849,-0.26007 0,1.42005 1.32289,1.38896 4.61828,-0.10864 4.13153,-1.87748 5.21902,-1.49956 10.31762,3.58564 4.32202,4.31062 6.27402,5.20863 8.07738,3.71591 1.36517,-1.13 6.04063,-1.57911 10.97723,-1.05441 z m 42.56549,0.0525 c 2.20163,-1.98719 5.7035,-2.91259 9.71681,-2.56773 3.89567,0.33475 8.65875,-0.86379 12.56276,-3.16114 3.52356,-2.07348 7.61971,-3.19068 9.31688,-2.54112 2.31955,0.88775 2.74778,0.42883 1.82873,-1.95984 -0.71873,-1.8681 -0.47637,-2.67294 0.60434,-2.0068 0.9924,0.61173 2.29363,-0.15943 2.89162,-1.71367 0.74007,-1.92348 3.48505,-2.83858 8.59576,-2.8656 4.12966,-0.0218 11.12747,-1.67713 15.55066,-3.67846 4.4232,-2.00131 9.20932,-3.19205 10.63582,-2.6461 1.52225,0.58259 5.19795,-1.76143 8.89805,-5.67433 5.63025,-5.95412 8.17222,-7.14862 16.37289,-7.6939 1.24598,-0.0828 2.26541,-1.72942 2.26541,-3.65906 0,-1.92964 0.81555,-4.01115 1.81233,-4.62557 0.99678,-0.61442 1.81233,-0.25573 1.81233,0.79709 0,1.05283 1.27549,1.91424 2.83442,1.91424 2.10632,0 2.68826,-1.50906 2.26541,-5.87455 -0.55506,-5.73045 -0.40754,-5.86222 6.01345,-5.37103 6.85357,0.52427 9.80635,-2.31729 7.04263,-6.77731 -0.85261,-1.37591 0.0319,-4.82628 2.15902,-8.42197 4.65054,-7.86132 9.15452,-8.19198 9.10566,-0.66848 -0.004,0.49708 -0.56253,2.73393 -1.24289,4.97078 -0.73485,2.41591 -0.46574,4.067 0.66287,4.067 1.04495,0 2.41023,-2.02788 3.03395,-4.5064 0.62371,-2.47852 1.90162,-4.03323 2.8398,-3.45494 0.93819,0.5783 3.00107,0.55573 4.5842,-0.0502 2.57203,-0.98438 2.53216,-1.48318 -0.37463,-4.6867 -3.13152,-3.45118 -3.1238,-3.85409 0.20639,-10.78691 1.90267,-3.96101 4.07106,-7.21117 4.81865,-7.22258 0.74758,-0.0109 1.35924,-2.38479 1.35924,-5.27418 0,-4.36354 0.614,-5.09329 3.62466,-4.30808 5.77498,1.50622 4.19532,-2.70404 -2.26541,-6.03801 -3.23954,-1.67172 -11.7408,-4.49831 -18.8917,-6.28133 -7.15088,-1.78302 -25.21447,-8.97685 -40.14129,-15.98628 -14.92681,-7.00941 -27.99702,-12.74441 -29.04491,-12.74441 -1.04791,0 -2.55745,-1.12531 -3.35456,-2.5007 -1.46676,-2.5308 -30.44938,-19.18998 -33.38559,-19.18998 -0.87546,0 -1.59177,-0.77517 -1.59177,-1.7226 0,-0.94741 -3.0583,-2.56967 -6.79622,-3.60502 -8.44701,-2.33966 -10.01768,-2.36906 -8.64993,-0.16177 0.59328,0.95742 -2.82466,0.55952 -7.59543,-0.88423 -4.77079,-1.44375 -9.1815,-2.63379 -9.80161,-2.64456 -0.87729,-0.0145 -2.02975,36.5263 -1.96612,62.34112 0.005,1.98832 0.90406,12.96922 1.99815,24.40201 2.25861,23.60194 2.46284,56.55607 0.46171,74.49936 -1.13637,10.18922 -0.90314,12.26014 1.4523,12.8951 1.54335,0.41605 3.14965,0.8508 3.56955,0.96612 0.41989,0.11533 2.31242,-1.18843 4.20561,-2.89724 z M 63.31926,322.41253 c 2.661611,-1.37722 5.984706,-2.50404 7.384656,-2.50404 4.91975,0 28.588105,-9.09766 32.275924,-12.40625 6.94014,-6.22646 34.45985,-20.39305 42.53963,-21.89854 4.73922,-0.88304 9.21364,-3.06137 10.91843,-5.31552 1.58869,-2.10063 5.91106,-4.65169 9.60526,-5.66902 6.9222,-1.90628 27.14835,-14.19271 23.99182,-14.57388 -0.97405,-0.11766 0.57371,-0.72768 3.43945,-1.35566 2.86576,-0.628 7.16779,-3.67657 9.56005,-6.77461 l 4.34958,-5.63278 -11.86726,-7.71149 c -11.83212,-7.68864 -32.39205,-16.27028 -38.98038,-16.27028 -4.29044,0 -10.86212,-6.76774 -10.86212,-11.18617 0,-2.62164 -1.46288,-3.27428 -7.33931,-3.27428 -4.03662,0 -9.54156,-1.15071 -12.23321,-2.55711 -5.76019,-3.00977 -18.98895,-16.27665 -14.54085,-14.58275 2.43221,0.92621 2.8299,0.35864 1.99089,-2.84129 -0.57664,-2.19929 -2.556,-4.39192 -4.39858,-4.8725 -2.10506,-0.54904 -3.35014,-2.51452 -3.35014,-5.28852 0,-2.51103 -0.78905,-3.92838 -1.82982,-3.28684 -1.00641,0.62036 -3.97081,-0.55174 -6.587562,-2.60465 -2.616749,-2.05291 -5.463289,-3.73258 -6.325645,-3.73258 -0.862354,0 -3.199013,-1.6268 -5.192574,-3.61511 -3.292302,-3.28363 -3.333846,-3.62633 -0.453082,-3.73744 2.525093,-0.0974 2.340386,-0.52215 -0.906163,-2.08378 -2.242755,-1.0788 -4.077736,-2.62965 -4.077736,-3.44636 0,-2.31239 -9.386956,-6.58891 -15.979713,-7.28005 -5.782978,-0.60625 -6.113221,-0.26486 -11.514251,11.90284 -3.058282,6.88984 -5.979632,15.64353 -6.491889,19.45265 -0.7211,5.36205 -1.454179,6.49291 -3.247013,5.0089 -4.316472,-3.57292 -5.029392,1.93028 -0.827903,6.39078 l 4.002502,4.24926 -5.607142,15.04817 c -8.264676,22.18031 -10.427362,41.38685 -5.381372,47.79124 0.873023,1.10804 1.935174,9.64875 2.360337,18.97934 1.003215,22.01653 2.658636,31.75665 5.845684,34.39471 1.993783,1.65034 2.071858,2.44607 0.344477,3.51086 -1.602054,0.98749 -0.473284,3.38587 3.991951,8.48193 5.279008,6.0248 6.554634,6.7014 8.389686,4.44999 1.190253,-1.4603 4.341778,-3.78193 7.003388,-5.15917 z M 272.53718,211.45512 c 2.49195,-1.9441 5.41468,-3.55281 6.49493,-3.57491 1.08026,-0.022 10.70594,-5.3273 21.39039,-11.78931 10.68445,-6.46202 20.45931,-11.74912 21.7219,-11.74912 1.2626,0 6.66978,-3.25496 12.01595,-7.23323 22.14196,-16.47663 60.69902,-39.07802 82.00376,-48.06898 8.72182,-3.68075 15.85786,-7.3592 15.85786,-8.17431 0,-0.81512 1.35711,-0.96264 3.01578,-0.32782 2.0278,0.77609 2.5865,0.46142 1.70539,-0.96051 -0.72075,-1.1631 -2.68952,-2.12719 -4.37505,-2.14241 -2.59515,-0.0235 -2.65595,-0.28543 -0.39692,-1.71032 2.28527,-1.44141 2.22032,-1.85386 -0.45308,-2.87704 -1.71642,-0.65692 -3.12077,-2.32748 -3.12077,-3.71235 0,-1.38487 -1.58296,-2.51794 -3.5177,-2.51794 -4.05542,0 -7.24021,-3.95497 -4.0412,-5.01849 2.7953,-0.92931 0.86113,-4.019296 -2.51587,-4.019296 -1.43634,0 -2.61152,1.220102 -2.61152,2.711326 0,1.49124 -0.71569,2.71134 -1.59043,2.71134 -1.67716,0 -5.42924,-3.883728 -5.23884,-5.422666 0.51331,-4.148901 -3.57878,-8.969834 -10.43284,-12.291021 -4.50048,-2.180752 -9.10126,-5.975694 -10.22394,-8.433206 -1.12266,-2.457512 -2.74306,-4.035574 -3.60089,-3.506804 -2.10462,1.297298 -12.40891,-6.168059 -12.40891,-8.990128 0,-1.235591 -4.05405,-3.282816 -9.00899,-4.549389 -7.01271,-1.792572 -9.84041,-3.644554 -12.76101,-8.357769 -2.06363,-3.330201 -5.14562,-6.035866 -6.84888,-6.012586 -4.38208,0.05988 -22.51057,-2.225191 -25.70014,-3.239482 -2.34872,-0.746895 -2.34872,-1.052841 0,-2.558652 2.34251,-1.501832 2.33631,-1.927285 -0.0507,-3.490196 -1.49517,-0.978933 -4.77978,-1.792332 -7.29913,-1.807556 -2.51937,-0.01518 -6.39322,-1.293903 -8.60856,-2.841509 -3.66829,-2.562573 -4.02797,-2.551044 -4.02797,0.129111 0,2.694379 -0.25439,2.689217 -3.01196,-0.0611 -1.98303,-1.977819 -5.07861,-2.763399 -9.06163,-2.299625 -4.99061,0.581095 -6.04968,0.100779 -6.04968,-2.743699 0,-2.75228 -0.8919,-3.224842 -4.41974,-2.341741 -2.43087,0.608501 -4.92565,0.289981 -5.54394,-0.707824 -2.19868,-3.548161 -6.34726,-1.850087 -6.34726,2.598023 0,2.426718 -0.81555,4.914923 -1.81233,5.529346 -2.65123,1.63424 -2.21606,4.559946 0.52239,3.511878 1.41171,-0.540305 3.8165,2.161791 6.08298,6.835066 3.74041,7.712338 3.74099,7.757171 0.27528,21.285288 -2.76476,10.791978 -3.43636,19.45934 -3.29313,42.500421 0.12705,20.45257 -0.55896,31.05816 -2.33862,36.15112 -1.73101,4.95366 -2.00072,8.72804 -0.86255,12.07041 1.02109,2.99853 0.98091,7.30163 -0.10475,11.22343 -1.06929,3.86251 -1.15759,11.18101 -0.22478,18.6352 0.84482,6.75115 0.84248,12.97513 -0.005,13.83108 -1.49859,1.51323 3.3859,17.46328 5.32328,17.38287 0.53257,-0.0221 3.00719,-1.63082 5.49914,-3.57492 z m -44.30083,-8.31581 c 1.56359,-12.48153 -0.11218,-29.99401 -3.94342,-41.20821 -2.34735,-6.87095 -2.48093,-9.42472 -0.71534,-13.67596 1.19401,-2.87506 3.35336,-5.67993 4.79853,-6.23303 2.14741,-0.82187 1.89482,-1.99415 -1.38217,-6.41487 -4.80772,-6.48567 -5.14987,-19.74905 -0.75301,-29.18975 1.56948,-3.36989 2.45944,-4.70362 1.97771,-2.96384 -0.48174,1.73977 -0.28211,3.16322 0.44362,3.16322 2.23637,0 6.00699,-7.267283 4.7898,-9.231579 -0.63198,-1.019862 0.18177,-2.824856 1.80834,-4.011094 2.02844,-1.479335 2.98191,-4.990074 3.03546,-11.17696 0.0915,-10.581177 1.29274,-15.761343 3.35922,-14.487535 2.05082,1.264133 3.99372,-13.414456 2.50625,-18.934637 -0.66971,-2.48539 -1.24766,-7.569141 -1.2843,-11.297226 -0.0367,-3.728084 -0.71805,-6.778336 -1.5142,-6.778336 -0.79614,0 -1.44754,-1.2201 -1.44754,-2.711334 0,-3.627852 -4.73808,-3.358779 -13.89811,0.789266 -4.15521,1.881661 -7.9939,2.983411 -8.53038,2.448333 -0.53649,-0.535078 -2.43782,-0.336549 -4.22517,0.441176 -1.78736,0.777724 -3.96347,1.250977 -4.83582,1.051671 -0.87234,-0.199307 -2.94006,0.859748 -4.59495,2.353457 -2.68913,2.427226 -3.57986,2.340464 -8.38172,-0.816457 -7.02014,-4.615277 -7.19355,-4.575036 -10.5332,2.444216 -2.19007,4.603067 -5.40334,7.097045 -13.79894,10.710028 -6.01925,2.590336 -10.9441,3.957193 -10.9441,3.037456 0,-2.89676 -3.15425,-1.833629 -8.92258,3.007322 -3.42577,2.875002 -5.57603,3.764999 -5.57603,2.307921 0,-1.304407 -5.52541,3.096989 -12.27869,9.78088 -6.75328,6.683889 -13.35823,12.152525 -14.67766,12.152525 -2.65469,0 -11.90574,9.230498 -13.55987,13.529746 -0.57945,1.506043 -2.51406,2.73826 -4.29913,2.73826 -1.785079,0 -4.264224,1.6268 -5.509222,3.615115 -1.244998,1.988316 -3.276159,3.624756 -4.513686,3.636526 -2.790136,0.0266 -15.842506,18.49627 -15.842506,22.4179 0,1.9949 1.692931,2.86647 5.567776,2.86647 4.097318,0 7.806768,2.11033 14.045536,7.99059 11.722292,11.04868 23.723712,20.32779 26.291562,20.32779 3.98101,0 32.62191,17.50627 41.48422,25.35654 4.83188,4.28009 10.1464,7.78199 11.81003,7.78199 1.66364,0 5.51026,2.28186 8.54805,5.07081 3.0378,2.78896 10.00877,7.01594 15.49106,9.39329 5.48229,2.37738 10.78335,5.25064 11.78013,6.38507 2.44101,2.77807 6.2686,4.14237 12.10279,4.31392 4.55849,0.13411 4.93058,-0.47261 6.12166,-9.98067 z M 140.23732,63.448867 c 0,-0.994156 0.81554,-2.310265 1.81232,-2.924687 0.99678,-0.614423 1.81233,-0.303731 1.81233,0.690425 0,0.994155 -0.81555,2.310264 -1.81233,2.924688 -0.99678,0.614422 -1.81232,0.30373 -1.81232,-0.690426 z M 122.11405,195.18712 c 0,-0.99415 -1.42721,-1.79511 -3.17158,-1.77988 -2.71042,0.0237 -2.77629,0.28244 -0.45308,1.77988 3.42025,2.20451 3.62466,2.20451 3.62466,0 z m 108.71186,-80.88814 c -0.0153,-0.74562 -0.81832,-2.57576 -1.78458,-4.067 -1.42062,-2.1925 -1.76212,-1.93308 -1.78458,1.35566 -0.0153,2.23685 0.7878,4.06701 1.78458,4.06701 0.99678,0 1.79984,-0.61005 1.78458,-1.35567 z m 239.25493,124.37617 c 0,-0.93548 0.81555,-2.20359 1.81233,-2.81802 0.99678,-0.61443 1.81232,0.15093 1.81232,1.70088 0,1.5499 -0.81554,2.81801 -1.81232,2.81801 -0.99678,0 -1.81233,-0.76539 -1.81233,-1.70087 z m -1.82889,-8.26059 c -2.44552,-2.93891 -0.52763,-3.55264 3.38162,-1.08214 1.49363,0.94391 1.7521,1.98961 0.65843,2.66376 -0.99025,0.61039 -2.80827,-0.10141 -4.04005,-1.58162 z m 7.55202,-8.1141 c 0,-2.48539 0.41136,-3.50214 0.91412,-2.25945 0.50276,1.2427 0.50276,3.2762 0,4.51889 -0.50276,1.2427 -0.91412,0.22595 -0.91412,-2.25944 z M 4.4401605,213.71457 c 0.112874,-4.40473 0.304747,-4.55911 1.684947,-1.35567 2.127154,4.93712 2.127154,6.32645 0,6.32645 -0.99678,0 -1.755006,-2.23685 -1.684947,-4.97078 z m 461.5484595,3.65956 c 1.59037,-0.55673 1.73308,-1.75306 0.48627,-4.07658 -1.3012,-2.42494 -1.06668,-3.55574 0.893,-4.30576 1.52722,-0.58451 3.44029,0.44136 4.49764,2.41182 2.88847,5.38293 2.21767,6.83256 -3.14394,6.79417 -2.74114,-0.0197 -3.97099,-0.39026 -2.73297,-0.82365 z m -0.4386,-13.14923 c 0.61605,-0.99416 2.49916,-1.7951 4.1847,-1.77988 2.64105,0.0239 2.6889,0.26985 0.34612,1.77988 -3.54921,2.28764 -5.94839,2.28764 -4.53082,0 z M 6.1251075,199.01557 c 0,-0.99415 0.815547,-2.31025 1.812327,-2.92467 0.9967803,-0.61443 1.8123273,-0.30373 1.8123273,0.69043 0,0.99415 -0.815547,2.31025 -1.8123273,2.92468 -0.99678,0.61442 -1.812327,0.30373 -1.812327,-0.69044 z M 466.45618,157.22844 c 0,-0.99416 1.22332,-1.80756 2.71849,-1.80756 1.49517,0 2.7185,0.8134 2.7185,1.80756 0,0.99415 -1.22333,1.80756 -2.7185,1.80756 -1.49517,0 -2.71849,-0.81341 -2.71849,-1.80756 z m -8.15547,-25.30579 c 0.61605,-0.99416 1.47973,-1.80755 1.91929,-1.80755 0.43956,0 0.7992,0.81339 0.7992,1.80755 0,0.99415 -0.86368,1.80756 -1.91929,1.80756 -1.05561,0 -1.41524,-0.81341 -0.7992,-1.80756 z"
   id="path2409" /><path
   style="fill:none;stroke:#000000;stroke-width:1px;stroke-linecap:butt;stroke-linejoin:miter;stroke-opacity:1"
   d="m 472.13571,198.62576 c 0.008,0.21221 -0.0642,1.2818 -0.1522,1.36983 -0.10762,0.10763 -0.32997,-0.0844 -0.45661,0 -0.0844,0.0563 0.0718,0.23266 0,0.30441 -0.1435,0.1435 -0.46532,-0.1435 -0.60882,0 -0.17681,0.17682 0.17298,2.41449 0,2.58746 -0.10762,0.10763 -0.32997,-0.0844 -0.45661,0 -0.0844,0.0563 0.0717,0.23266 0,0.30441 -0.0718,0.0718 -0.23265,-0.0718 -0.3044,0 -0.40588,0.40588 0.50734,0.30441 -0.30441,0.30441"
   id="path3420" /><path
   style="fill:none;stroke:#000000;stroke-width:1px;stroke-linecap:butt;stroke-linejoin:miter;stroke-opacity:1"
   d="m 469.85266,203.49628 c -0.45661,0.60881 -0.97829,1.17387 -1.36983,1.82644 -0.21475,0.35791 0,3.42637 0,3.95729"
   id="path3422" /><path
   style="fill:none;stroke:#000000;stroke-width:1px;stroke-linecap:butt;stroke-linejoin:miter;stroke-opacity:1"
   d="m 472.59232,216.28138 c 0.35515,0.10147 0.71029,0.20294 1.06543,0.30441 0,0.10147 -0.0718,0.23266 0,0.30441 0.0717,0.0718 0.24812,-0.0844 0.30441,0 0.0844,0.12664 -0.10763,0.34898 0,0.45661 0.10762,0.10762 0.32997,-0.0844 0.45661,0 0.21107,0.14071 -0.14071,0.54995 0,0.76102 0.0563,0.0844 0.21365,-0.0454 0.30441,0 0.64314,-0.0793 0.11562,0.48295 0.3044,0.60881 0.12664,0.0844 0.34899,-0.10762 0.45661,0 0.24942,0.24942 -0.31225,1.05954 0.30441,1.52204 0.20294,0.1522 0.54995,-0.14071 0.76102,0 0.0844,0.0563 -0.0718,0.23266 0,0.3044 0.0718,0.0718 0.24812,-0.0844 0.30441,0 0.37852,0.56779 -0.62142,1.2264 -1.05006,1.75738"
   id="path3424" /><path
   style="fill:none;stroke:#000000;stroke-width:1px;stroke-linecap:butt;stroke-linejoin:miter;stroke-opacity:1"
   d="m 475.80397,222.30046 c -4.31458,0.1721 0.51389,2.89059 -0.16757,4.02636 -0.11075,0.18458 -0.34587,0.27204 -0.45661,0.45661 -0.0803,0.1338 -0.25567,1.3211 -0.30441,1.36984 -0.18072,0.18072 -0.83776,-0.1366 -1.06543,0 -0.18457,0.11074 -0.27203,0.34586 -0.45661,0.45661 -0.087,0.0522 -0.23266,-0.0718 -0.3044,0 -0.0718,0.0718 0.0717,0.23266 0,0.30441 -0.17938,0.17937 -0.52549,-0.0942 -0.76102,0 -0.13324,0.0533 -0.17117,0.25111 -0.30441,0.3044 -0.23553,0.0942 -0.62031,-0.21107 -0.76102,0 -0.0844,0.12664 0.0844,0.32997 0,0.45661 -0.14071,0.21107 -0.54995,-0.14071 -0.76102,0 -0.0844,0.0563 0,0.20294 0,0.30441 -0.7365,0.14495 -1.47301,0.2899 -2.20952,0.43485"
   id="path3426" /><path
   style="fill:none;stroke:#000000;stroke-width:1px;stroke-linecap:butt;stroke-linejoin:miter;stroke-opacity:1"
   d="m 470.46147,229.97971 c -0.12471,0.39232 1.17328,2.2367 1.36984,2.89187 0.0729,0.24297 -0.0942,0.52549 0,0.76102 0.0377,0.0942 0.23265,-0.0718 0.3044,0 0.12217,0.12216 0,0.87095 0,1.06542 0,0.15651 -0.10068,0.99831 0,1.06543 0.5932,0.39547 0.45661,-0.54394 0.45661,0.76102"
   id="path3428" /><path
   style="fill:none;stroke:#000000;stroke-width:1px;stroke-linecap:butt;stroke-linejoin:miter;stroke-opacity:1"
   d="m 470.08084,238.67515 c 0.68496,0.6022 1.485,1.09453 2.05487,1.80661 0.20451,0.25553 -0.0597,2.12488 -0.1522,2.58746 -0.22439,1.12196 0,2.79216 0,3.9573"
   id="path3430" /><path
   style="fill:#000000;stroke-width:0.608815"
   d="m 266.29336,19.943434 c -4.17755,0.805712 -4.27783,5.700482 -5.0465,8.943154 -0.9328,2.251533 -4.6675,4.63909 -2.06189,7.186865 1.75572,1.232857 4.47819,0.609438 5.4615,3.067855 3.59396,5.001064 5.77165,11.380976 3.76585,17.352405 -3.12331,10.943649 -4.43006,22.271245 -4.37256,33.63683 -0.68133,16.358367 0.0901,32.792357 -2.12463,48.921757 -1.40295,5.04958 -3.1366,10.31087 -1.46496,15.55212 1.86433,7.02934 -1.80034,13.99733 -0.89182,21.12183 -0.18492,7.22648 2.00983,14.45076 0.54341,21.46785 -0.84345,5.49343 1.8168,10.90052 3.62554,15.96829 0.74313,2.48133 3.6714,4.41054 5.8753,2.21647 8.58989,-5.95959 18.43917,-9.6729 27.22796,-15.33168 9.71143,-5.63872 19.34445,-11.51123 29.65221,-15.98422 11.76112,-7.43552 22.68317,-16.01178 34.68103,-23.11474 20.43174,-12.835 41.62349,-24.47455 63.74026,-34.14826 3.26666,-1.20798 6.09806,-3.57681 9.1962,-4.89316 2.76097,1.44849 5.77177,-2.36206 2.96202,-4.26765 -0.95405,-1.25162 -4.47845,-0.89619 -2.10422,-2.80272 0.31266,-3.31782 -5.06098,-3.30726 -5.11832,-6.81108 -1.53588,-3.46261 -6.37885,-2.22906 -8.35811,-4.91808 3.62477,-1.79685 1.86291,-6.954966 -1.89661,-6.987099 -3.13302,-0.761889 -5.67465,2.03923 -5.68504,4.962079 -2.45185,-0.92305 -3.40208,-3.747171 -3.53754,-6.201114 -3.74016,-10.437305 -17.43574,-11.274589 -22.1385,-21.004102 -1.55762,-3.044268 -5.72304,-1.633838 -8.02161,-3.876436 -3.20753,-1.767338 -5.71937,-4.45756 -7.48414,-7.585212 -6.11013,-5.12346 -16.16542,-3.825859 -20.54613,-11.354158 -2.37894,-3.462804 -5.28558,-7.208022 -9.93395,-7.143067 -7.73848,-1.196107 -15.53006,-1.577362 -23.18954,-3.253627 3.85508,-1.673734 2.32001,-5.670698 -1.28422,-6.229648 -5.61632,-2.372608 -12.34296,-1.585043 -17.23468,-5.757578 -1.81422,-1.404237 -4.15856,0.455971 -4.55303,1.743207 -3.8565,-3.43955 -9.40881,-2.681498 -14.15851,-3.042884 -0.21257,-2.928555 -2.5742,-5.605449 -5.69455,-4.889542 -2.41975,0.223418 -5.04793,0.543384 -6.76118,-1.542251 -0.91681,-0.57112 -1.94958,-1.128985 -3.06904,-1.002404 z"
   id="path4068" /></svg>
