<?xml version="1.0" encoding="UTF-8" standalone="no"?>
<!-- Generator: Adobe Illustrator 16.0.0, SVG Export Plug-In . SVG Version: 6.00 Build 0)  -->

<svg
   version="1.1"
   id="Layer_1"
   x="0px"
   y="0px"
   width="492.531px"
   height="492.531px"
   viewBox="0 0 492.531 492.531"
   enable-background="new 0 0 492.531 492.531"
   xml:space="preserve"
   sodipodi:docname="12clock_12.svg"
   inkscape:version="1.1 (c68e22c387, 2021-05-23)"
   xmlns:inkscape="http://www.inkscape.org/namespaces/inkscape"
   xmlns:sodipodi="http://sodipodi.sourceforge.net/DTD/sodipodi-0.dtd"
   xmlns="http://www.w3.org/2000/svg"
   xmlns:svg="http://www.w3.org/2000/svg"><defs
   id="defs2248" /><sodipodi:namedview
   id="namedview2246"
   pagecolor="#505050"
   bordercolor="#ffffff"
   borderopacity="1"
   inkscape:pageshadow="0"
   inkscape:pageopacity="0"
   inkscape:pagecheckerboard="1"
   showgrid="false"
   inkscape:zoom="1.6425362"
   inkscape:cx="188.12371"
   inkscape:cy="235.91565"
   inkscape:window-width="2560"
   inkscape:window-height="1017"
   inkscape:window-x="-8"
   inkscape:window-y="-8"
   inkscape:window-maximized="1"
   inkscape:current-layer="layer1" />

<path
   style="fill:#000000;stroke-width:1.80994"
   d="m 213.92591,490.84463 c -5.82152,-1.23458 -11.21415,-3.26067 -11.98361,-4.5024 -0.76946,-1.24175 -3.01715,-1.98431 -4.99485,-1.65014 -1.9777,0.33416 -4.88937,-0.46315 -6.47037,-1.77181 -1.58098,-1.30865 -7.9234,-3.09113 -14.09422,-3.96109 -7.53673,-1.0625 -12.63798,-2.91061 -15.54035,-5.63008 -4.18778,-3.92387 -4.39712,-3.94411 -6.80623,-0.65811 -2.37759,3.24298 -2.69459,3.25367 -7.29682,0.24611 -2.6987,-1.7636 -4.58565,-4.49736 -4.29745,-6.22602 0.41196,-2.47106 -0.93816,-3.09635 -6.81193,-3.15482 -5.60605,-0.0559 -9.8789,-1.85915 -18.20201,-7.68211 -5.98195,-4.18505 -11.86028,-7.60918 -13.06295,-7.60918 -1.20267,0 -2.18667,-1.90475 -2.18667,-4.23278 0,-3.42173 -1.47586,-4.66392 -7.702396,-6.48294 -18.315305,-5.3506 -28.544152,-15.07231 -28.544152,-27.12894 0,-4.62978 -1.0591,-5.92952 -6.771494,-8.31004 -8.712126,-3.63057 -15.769516,-10.08111 -12.938656,-11.82606 1.372334,-0.84592 0.747077,-1.98967 -1.843691,-3.37256 -2.156142,-1.15089 -3.441512,-2.86512 -2.856376,-3.80939 0.585135,-0.94428 0.200202,-1.71687 -0.855404,-1.71687 -1.055607,0 -1.919285,-1.66165 -1.919285,-3.69254 0,-2.03091 -3.556038,-7.52135 -7.902307,-12.20101 -9.07468,-9.77076 -13.263849,-16.64246 -10.145677,-16.64246 1.108327,0 -0.439634,-2.06013 -3.439914,-4.57806 -6.764976,-5.67735 -9.9169675,-14.7085 -8.2989782,-23.77838 0.995252,-5.57904 0.785405,-6.47273 -1.1022663,-4.69436 -1.840969,1.73438 -2.796016,1.56303 -4.53901,-0.8144 -2.44493498,-3.33483 0.112383,-9.51615 3.937003,-9.51615 1.139141,0 2.4902883,-1.59851 3.0025485,-3.55222 0.658238,-2.51049 -0.209892,-3.92925 -2.9601985,-4.83782 -3.784214,-1.25009 -3.766578,-1.31666 0.639238,-2.41265 l 4.5308185,-1.1271 -5.7748895,-2.5595 -5.77488898,-2.55951 -0.568256,-17.23327 c -0.312541,-9.4783 -0.0012,-18.45338 0.69197498,-19.94462 0.693128,-1.49122 1.747657,-5.75169 2.343399,-9.4677 0.658443,-4.10709 2.493766,-7.50931 4.680592,-8.67657 1.9785835,-1.05613 3.1431525,-2.65332 2.5879305,-3.54933 -1.5184822,-2.45048 -2.5718745,-23.4953 -1.1760512,-23.4953 0.6666692,0 2.2990202,-1.73581 3.6274452,-3.85736 1.836038,-2.93222 1.900127,-4.17493 0.26722,-5.18146 -2.946014,-1.81595 -3.290265,-22.74448 -0.421189,-25.606 1.772053,-1.76739 2.235203,-1.59261 2.235203,0.84352 0,3.75571 1.82642,3.88972 6.449837,0.47327 3.476502,-2.56894 3.475244,-2.63458 -0.106692,-5.57022 -3.004836,-2.46267 -3.082313,-2.80058 -0.453082,-1.97605 2.706611,0.8488 3.183144,-0.25579 3.250501,-7.53455 0.119233,-12.88506 2.801686,-24.23817 6.171221,-26.11889 1.656838,-0.92477 3.762581,-3.64926 4.67943,-6.0544 0.916849,-2.40515 2.936784,-4.373 4.488745,-4.373 1.551962,0 3.421613,-1.42344 4.154781,-3.16322 2.825491,-6.70475 12.205735,-20.335006 13.994408,-20.335006 2.238541,0 20.802299,-19.339357 20.802299,-21.671424 0,-0.891093 1.761275,-4.597449 3.913943,-8.236347 l 3.913946,-6.616178 2.252413,4.197596 c 2.188626,4.078717 2.310724,3.981617 4.311383,-3.428701 1.712134,-6.341645 2.810419,-7.626297 6.519935,-7.626297 3.207529,0 4.460959,-0.985792 4.460959,-3.508435 0,-4.485982 3.21454,-6.4374 9.51793,-5.777955 3.35679,0.35118 5.37501,-0.480586 6.16817,-2.542083 1.72316,-4.478669 13.01226,-15.284869 15.96791,-15.284869 1.39477,0 3.05364,1.626801 3.68637,3.615112 1.44831,4.551206 4.22736,4.498918 9.87101,-0.185729 3.54874,-2.945724 3.93008,-3.991202 1.90998,-5.236409 -1.44803,-0.892575 -3.91774,-0.81192 -5.79327,0.189189 -2.62358,1.400399 -3.26923,1.059028 -3.26923,-1.728522 0,-2.529789 1.60033,-3.717339 5.89007,-4.370816 3.23953,-0.493495 6.70561,-0.286207 7.70239,0.460642 2.12208,1.589991 13.1774,2.098225 17.47451,0.803336 1.63674,-0.493215 3.39536,-2.496619 3.90806,-4.452005 0.51269,-1.955386 2.23184,-3.555247 3.82033,-3.555247 1.58848,0 2.95255,-1.42345 3.03124,-3.1632241 0.091,-2.0116171 0.48505,-2.3131817 1.08239,-0.8283342 1.18173,2.9374153 6.02384,-0.5702931 6.02384,-4.3637706 0,-2.8595318 1.63316,-3.1200671 5.24799,-0.8372009 1.39121,0.8785975 2.02846,2.8996431 1.41611,4.4912111 -0.83555,2.1717127 0.003,2.8937627 3.36057,2.8937627 3.5915,0 4.47394,-0.912349 4.47394,-4.6255672 0,-2.5440622 0.7459,-4.1657949 1.65754,-3.6038506 0.91164,0.5619442 1.93107,0.3299926 2.26541,-0.5154478 1.02431,-2.59022532 14.20032,-0.1627612 14.20032,2.6161758 0,1.3824668 1.15536,2.5135765 2.56747,2.5135765 1.4121,0 2.92405,1.01675 3.35988,2.2594452 0.56903,1.6225161 1.89674,1.2816251 4.70993,-1.2092773 4.59945,-4.0725324 20.6051,-5.8949712 27.42159,-3.1222823 3.33894,1.3581552 3.67281,1.8731059 1.26919,1.9575401 -2.50904,0.088138 -2.86967,0.8131148 -1.56293,3.1419916 1.99778,3.560432 7.54305,4.841488 7.54305,1.74258 0,-1.177192 2.87535,-3.6847504 6.38965,-5.5723491 l 6.38967,-3.4319992 6.29662,6.0868699 c 3.46316,3.3477794 6.29668,5.3172584 6.29671,4.3766224 4e-5,-0.940637 5.50498,-1.71025 12.23321,-1.71025 11.3064,0 12.27701,0.308099 12.81226,4.067001 0.61087,4.289886 3.17614,5.483768 4.33466,2.017362 0.46127,-1.380166 1.57413,-1.162858 3.40712,0.665305 1.49716,1.493218 4.57804,3.302441 6.84639,4.020493 2.52805,0.800258 3.7476,2.284596 3.15102,3.83516 -0.62067,1.613149 0.64504,2.934714 3.49359,3.647769 2.45675,0.614985 4.46684,2.250077 4.46684,3.633537 0,1.38346 1.71172,2.515381 3.80384,2.515381 5.60212,0 14.19574,4.519121 24.07142,12.658431 6.53963,5.389816 9.79238,6.937829 12.92845,6.152795 2.85394,-0.714406 5.39646,0.153967 7.97206,2.722808 2.07994,2.074464 4.18949,3.771752 4.68788,3.771752 0.49839,0 1.80895,0 2.91239,0 1.10342,0 1.50784,1.295373 0.89868,2.878608 -0.74621,1.939482 0.12124,3.199114 2.65919,3.861032 2.91553,0.760422 3.52373,1.948008 2.69143,5.255395 -0.5914,2.350134 -0.26978,4.27297 0.71469,4.27297 0.9845,0 1.32235,1.215428 0.7508,2.700952 -0.57156,1.485523 -1.76929,2.250921 -2.66161,1.70088 -0.89233,-0.55004 -1.62243,-0.138667 -1.62243,0.914161 0,3.429343 3.24168,2.022056 7.04073,-3.056548 2.04512,-2.733928 3.74425,-4.02037 3.77582,-2.858756 0.0315,1.161611 2.91691,3.874634 6.41185,6.028941 3.49495,2.154304 5.89345,4.660847 5.33002,5.570091 -0.56342,0.909246 0.24704,1.653172 1.80104,1.653172 3.29834,0 3.81212,2.985831 0.69225,4.023049 -2.93283,0.975039 -0.2138,4.901464 4.6791,6.756855 2.47916,0.94008 4.94381,4.3528 6.46617,8.95342 1.89653,5.73139 3.18083,7.20613 5.60687,6.43815 2.58387,-0.81792 3.09777,0.0665 2.8725,4.94365 -0.21864,4.73383 0.36959,5.83195 2.89724,5.40866 2.40189,-0.40224 3.17157,0.71636 3.17157,4.60926 0,2.82722 0.97866,6.11648 2.17479,7.30947 1.6915,1.68704 1.42772,2.16906 -1.18705,2.16906 -3.17225,0 -3.18841,0.19113 -0.28686,3.38888 1.69125,1.86389 2.89866,4.10074 2.68312,4.97078 -0.6237,2.51765 4.37361,12.14199 8.02721,15.4596 3.23616,2.93858 3.22346,3.09427 -0.41123,5.03437 -4.76374,2.54277 -4.90563,6.2128 -0.19266,4.98358 1.95692,-0.51039 4.50342,0.20814 5.65891,1.59674 1.15546,1.38861 1.49942,2.52473 0.76434,2.52473 -0.73508,0 0.0667,2.13583 1.78159,4.74626 1.87491,2.85395 2.41263,5.19613 1.3487,5.87456 -0.97316,0.62057 -1.53346,3.26348 -1.24512,5.87313 0.43267,3.91574 -0.215,4.74483 -3.70661,4.74483 -2.6127,0 -4.57078,-1.29624 -5.11953,-3.38916 -0.5578,-2.1274 0.0604,-3.38917 1.6602,-3.38917 4.11075,0 3.07157,-1.70385 -6.51282,-10.67845 -7.44638,-6.97262 -9.06163,-9.58614 -9.06163,-14.6619 0,-4.1994 -1.34556,-7.35252 -4.20315,-9.84945 -5.7634,-5.036 -6.80699,-8.73612 -3.99085,-14.14996 2.0138,-3.87139 1.97478,-5.19639 -0.24617,-8.3589 -3.58973,-5.11156 -6.5588,-4.71998 -9.19372,1.21253 -3.13989,7.06947 -34.42613,34.83276 -53.82827,47.76702 -9.03964,6.0262 -19.40749,13.30015 -23.03965,16.16436 -3.63217,2.8642 -7.38456,5.20764 -8.33864,5.20764 -1.95249,0 -12.96983,5.73785 -27.27378,14.20424 -5.27696,3.12338 -10.22155,5.67889 -10.98798,5.67889 -0.76641,0 -3.73752,2.44019 -6.60245,5.42266 -2.93476,3.05515 -4.1679,5.42267 -2.82448,5.42267 1.31146,0 -1.07172,3.05901 -5.29594,6.79782 l -7.68041,6.79784 8.80659,5.57172 c 4.8436,3.06445 16.14649,9.50339 25.11751,14.30873 8.97102,4.80538 17.12649,9.71649 18.12327,10.9136 0.99678,1.19711 9.42849,5.48208 18.73713,9.52219 19.37616,8.40958 46.98336,23.52863 68.68987,37.61791 8.21365,5.33133 15.76841,9.69333 16.78835,9.69333 1.11886,0 0.82102,-2.46676 -0.75086,-6.21895 -2.17896,-5.20124 -2.20613,-6.54935 -0.16601,-8.23804 1.34163,-1.11053 2.95706,-5.42925 3.58987,-9.59719 1.45211,-9.56414 4.45898,-15.71205 7.68456,-15.71205 1.81842,0 2.03329,-0.83587 0.78619,-3.05845 -1.18333,-2.10892 -0.88329,-4.32618 0.96638,-7.14173 1.64157,-2.49875 2.19009,-5.63072 1.41351,-8.07107 -0.95066,-2.98739 -0.1927,-4.81338 3.02128,-7.27854 l 4.2903,-3.29073 -4.53082,-0.16719 c -3.80385,-0.14045 -3.99375,-0.37803 -1.18354,-1.48099 3.01111,-1.1818 3.06168,-1.55014 0.50361,-3.66757 -2.50204,-2.07104 -2.52357,-2.67309 -0.17924,-5.01117 1.92102,-1.91598 2.16961,-3.5794 0.89102,-5.96219 -1.39008,-2.59054 -0.8976,-3.87713 2.2786,-5.95278 4.36896,-2.8551 15.81288,-2.20568 15.81288,0.89735 0,1.00305 1.3168,0.73376 2.92622,-0.59842 2.50866,-2.07652 3.41377,-1.8216 6.34314,1.78649 4.99012,6.14632 4.30983,10.37425 -2.02359,12.57629 -5.04945,1.7556 -5.28748,2.22658 -3.31135,6.55229 1.62866,3.56512 1.62949,5.15908 0.004,6.78076 -2.58983,2.58284 -2.83705,12.24231 -0.31344,12.24231 3.71666,0 1.62421,7.31813 -3.88032,13.57094 -4.9503,5.62323 -5.43187,7.03728 -3.693,10.84367 1.32063,2.8908 1.38241,4.75766 0.18194,5.49764 -0.99973,0.61624 -1.36247,2.55098 -0.80607,4.29942 0.55641,1.74843 -0.52166,5.13693 -2.39566,7.52999 -5.87995,7.50852 -11.49644,20.02464 -10.57054,23.55594 0.48878,1.86425 -0.0544,3.41372 -1.20703,3.44329 -1.15266,0.0296 -4.92657,4.98263 -8.38649,11.00681 -3.45991,6.02418 -8.54871,12.55663 -11.30845,14.51657 -3.40572,2.41871 -5.94514,6.74544 -7.90464,13.46817 -3.51378,12.05512 -9.31225,19.24838 -15.51608,19.24838 -3.41355,0 -5.08994,1.37179 -6.62134,5.41828 -1.36508,3.60696 -2.93752,5.07882 -4.70376,4.40283 -1.79727,-0.68787 -3.29956,0.83387 -4.65685,4.71715 -3.05254,8.73343 -12.5056,17.64013 -17.61642,16.5982 -2.31987,-0.47294 -6.2568,-1.28208 -8.74875,-1.79811 -5.63393,-1.16665 -6.29641,3.48371 -0.90617,6.36088 7.06308,3.7701 3.66458,6.85918 -11.81762,10.74167 -5.24986,1.31655 -8.25419,3.4607 -10.74748,7.67039 -2.37397,4.00823 -3.73414,5.02484 -4.33152,3.23744 -1.51666,-4.53801 -4.98509,-6.95486 -7.63597,-5.32085 -1.42786,0.88014 -3.40469,0.79007 -4.61309,-0.21018 -1.43406,-1.18702 -2.46147,-0.84861 -3.19256,1.05158 -0.74407,1.9339 -2.43055,2.4633 -5.4442,1.70892 -3.20825,-0.80312 -5.087,-0.0665 -7.08424,2.7774 -2.01522,2.86957 -4.68169,3.89739 -10.31183,3.97491 -4.86411,0.0668 -7.95405,1.04094 -8.59607,2.70956 -0.87957,2.2861 -14.43114,8.9773 -16.84177,8.31575 -0.49839,-0.13683 -1.55835,0.91365 -2.35547,2.33426 -1.65777,2.95449 -13.95548,3.58173 -13.95548,0.7118 0,-1.2315 -1.31752,-1.1679 -3.85409,0.18607 -2.4955,1.33203 -7.92583,1.62232 -15.40478,0.82351 -9.75347,-1.04177 -11.55069,-1.77384 -11.55069,-4.70497 0,-4.77659 -1.66487,-4.3604 -7.11731,1.77914 l -4.66281,5.25041 z m 18.29637,-33.10604 c 4.72955,0.50269 10.16797,1.56041 12.08539,2.35045 2.94115,1.21186 3.25846,0.89283 2.02943,-2.04058 -0.80121,-1.91238 -2.13313,-7.13734 -2.95977,-11.61104 -0.82666,-4.4737 -2.74787,-12.08892 -4.26935,-16.92272 -3.92494,-12.46948 -7.84943,-64.38224 -7.1245,-94.24199 0.59486,-24.50178 -1.27934,-38.29321 -4.90053,-36.06108 -0.91646,0.56489 -1.67082,-0.0377 -1.67638,-1.33902 -0.005,-1.30137 -0.8653,-5.43757 -1.91054,-9.19155 l -1.90044,-6.82543 -12.91051,6.76643 c -7.10079,3.72154 -17.45481,11.24119 -23.00895,16.71033 -8.85307,8.71759 -11.00464,9.95091 -17.44665,10.00056 -6.14203,0.0473 -7.92696,0.94676 -10.87396,5.47932 -3.77192,5.80127 -17.30708,13.60352 -23.39228,13.48429 -3.12205,-0.0611 -2.89757,-0.50269 1.4504,-2.85279 2.82927,-1.52923 4.65066,-3.27258 4.04753,-3.87412 -0.60312,-0.60153 -2.06165,-0.13122 -3.24118,1.04524 -1.17952,1.17641 -5.1757,2.13894 -8.8804,2.13894 -3.7047,0 -7.04665,0.93004 -7.42655,2.06676 -0.51461,1.53975 -1.70845,1.52353 -4.68185,-0.0636 -2.30905,-1.23248 -3.99111,-1.39306 -3.99111,-0.38098 0,0.96215 -1.83498,2.30708 -4.07773,2.98873 -2.24276,0.68166 -5.53492,2.51638 -7.315909,4.07717 -4.447806,3.89787 -10.329193,4.21822 -8.93066,0.48645 0.897774,-2.39557 0.610921,-2.47825 -1.805558,-0.52034 -1.580098,1.28024 -4.526633,2.64536 -6.547852,3.03358 -4.689059,0.90066 -13.005816,6.29902 -13.005816,8.44201 0,0.90112 -2.038868,2.56494 -4.530817,3.69737 -2.748472,1.249 -4.5199,3.5447 -4.503065,5.83581 0.01794,2.4498 0.516178,3.0104 1.417836,1.59547 2.244799,-3.52266 14.865355,9.08385 14.865355,14.84879 0,2.81686 0.76221,4.24791 1.891716,3.55167 2.687271,-1.65646 6.856327,2.29121 11.02358,10.43821 2.777957,5.4309 4.510123,6.89556 7.666999,6.48296 4.079781,-0.53321 20.507641,8.78692 24.996541,14.18147 1.29886,1.56091 2.11563,5.17655 1.81503,8.03473 -0.56278,5.35118 2.58427,7.04623 6.2655,3.37469 1.22753,-1.22429 5.50937,-0.23724 13.05248,3.00887 6.17412,2.65698 10.84887,5.20669 10.38834,5.66603 -0.46054,0.45931 1.78054,2.64176 4.98017,4.84987 3.99665,2.75814 6.52658,3.46585 8.08292,2.26111 1.60394,-1.24159 2.26541,-0.89735 2.26541,1.17902 0,1.95497 1.57458,2.93266 4.72307,2.93266 2.87933,0 6.1143,1.76403 8.287,4.51889 3.34412,4.24016 10.26344,6.63565 7.83168,2.71133 -0.61604,-0.99415 -0.25641,-1.80755 0.7992,-1.80755 1.05561,0 1.91929,1.3197 1.91929,2.93265 0,2.40188 0.49203,2.52539 2.71849,0.68246 1.8207,-1.50706 2.71849,-1.59297 2.71849,-0.26007 0,1.42005 1.32289,1.38896 4.61828,-0.10864 4.13153,-1.87748 5.21902,-1.49956 10.31762,3.58564 4.32202,4.31062 6.27402,5.20863 8.07738,3.71591 1.36517,-1.13 6.04063,-1.57911 10.97723,-1.05441 z m 42.56549,0.0525 c 2.20163,-1.98719 5.7035,-2.91259 9.71681,-2.56773 3.89567,0.33475 8.65875,-0.86379 12.56276,-3.16114 3.52356,-2.07348 7.61971,-3.19068 9.31688,-2.54112 2.31955,0.88775 2.74778,0.42883 1.82873,-1.95984 -0.71873,-1.8681 -0.47637,-2.67294 0.60434,-2.0068 0.9924,0.61173 2.29363,-0.15943 2.89162,-1.71367 0.74007,-1.92348 3.48505,-2.83858 8.59576,-2.8656 4.12966,-0.0218 11.12747,-1.67713 15.55066,-3.67846 4.4232,-2.00131 9.20932,-3.19205 10.63582,-2.6461 1.52225,0.58259 5.19795,-1.76143 8.89805,-5.67433 5.63025,-5.95412 8.17222,-7.14862 16.37289,-7.6939 1.24598,-0.0828 2.26541,-1.72942 2.26541,-3.65906 0,-1.92964 0.81555,-4.01115 1.81233,-4.62557 0.99678,-0.61442 1.81233,-0.25573 1.81233,0.79709 0,1.05283 1.27549,1.91424 2.83442,1.91424 2.10632,0 2.68826,-1.50906 2.26541,-5.87455 -0.55506,-5.73045 -0.40754,-5.86222 6.01345,-5.37103 6.85357,0.52427 9.80635,-2.31729 7.04263,-6.77731 -0.85261,-1.37591 0.0319,-4.82628 2.15902,-8.42197 4.65054,-7.86132 9.15452,-8.19198 9.10566,-0.66848 -0.004,0.49708 -0.56253,2.73393 -1.24289,4.97078 -0.73485,2.41591 -0.46574,4.067 0.66287,4.067 1.04495,0 2.41023,-2.02788 3.03395,-4.5064 0.62371,-2.47852 1.90162,-4.03323 2.8398,-3.45494 0.93819,0.5783 3.00107,0.55573 4.5842,-0.0502 2.57203,-0.98438 2.53216,-1.48318 -0.37463,-4.6867 -3.13152,-3.45118 -3.1238,-3.85409 0.20639,-10.78691 1.90267,-3.96101 4.07106,-7.21117 4.81865,-7.22258 0.74758,-0.0109 1.35924,-2.38479 1.35924,-5.27418 0,-4.36354 0.614,-5.09329 3.62466,-4.30808 5.77498,1.50622 4.19532,-2.70404 -2.26541,-6.03801 -3.23954,-1.67172 -11.7408,-4.49831 -18.8917,-6.28133 -7.15088,-1.78302 -25.21447,-8.97685 -40.14129,-15.98628 -14.92681,-7.00941 -27.99702,-12.74441 -29.04491,-12.74441 -1.04791,0 -2.55745,-1.12531 -3.35456,-2.5007 -1.46676,-2.5308 -30.44938,-19.18998 -33.38559,-19.18998 -0.87546,0 -1.59177,-0.77517 -1.59177,-1.7226 0,-0.94741 -3.0583,-2.56967 -6.79622,-3.60502 -8.44701,-2.33966 -10.01768,-2.36906 -8.64993,-0.16177 0.59328,0.95742 -2.82466,0.55952 -7.59543,-0.88423 -4.77079,-1.44375 -9.1815,-2.63379 -9.80161,-2.64456 -0.87729,-0.0145 -2.02975,36.5263 -1.96612,62.34112 0.005,1.98832 0.90406,12.96922 1.99815,24.40201 2.25861,23.60194 2.46284,56.55607 0.46171,74.49936 -1.13637,10.18922 -0.90314,12.26014 1.4523,12.8951 1.54335,0.41605 3.14965,0.8508 3.56955,0.96612 0.41989,0.11533 2.31242,-1.18843 4.20561,-2.89724 z M 63.31926,322.41253 c 2.661611,-1.37722 5.984706,-2.50404 7.384656,-2.50404 4.91975,0 28.588105,-9.09766 32.275924,-12.40625 6.94014,-6.22646 34.45985,-20.39305 42.53963,-21.89854 4.73922,-0.88304 9.21364,-3.06137 10.91843,-5.31552 1.58869,-2.10063 5.91106,-4.65169 9.60526,-5.66902 6.9222,-1.90628 27.14835,-14.19271 23.99182,-14.57388 -0.97405,-0.11766 0.57371,-0.72768 3.43945,-1.35566 2.86576,-0.628 7.16779,-3.67657 9.56005,-6.77461 l 4.34958,-5.63278 -11.86726,-7.71149 c -11.83212,-7.68864 -32.39205,-16.27028 -38.98038,-16.27028 -4.29044,0 -10.86212,-6.76774 -10.86212,-11.18617 0,-2.62164 -1.46288,-3.27428 -7.33931,-3.27428 -4.03662,0 -9.54156,-1.15071 -12.23321,-2.55711 -5.76019,-3.00977 -18.98895,-16.27665 -14.54085,-14.58275 2.43221,0.92621 2.8299,0.35864 1.99089,-2.84129 -0.57664,-2.19929 -2.556,-4.39192 -4.39858,-4.8725 -2.10506,-0.54904 -3.35014,-2.51452 -3.35014,-5.28852 0,-2.51103 -0.78905,-3.92838 -1.82982,-3.28684 -1.00641,0.62036 -3.97081,-0.55174 -6.587562,-2.60465 -2.616749,-2.05291 -5.463289,-3.73258 -6.325645,-3.73258 -0.862354,0 -3.199013,-1.6268 -5.192574,-3.61511 -3.292302,-3.28363 -3.333846,-3.62633 -0.453082,-3.73744 2.525093,-0.0974 2.340386,-0.52215 -0.906163,-2.08378 -2.242755,-1.0788 -4.077736,-2.62965 -4.077736,-3.44636 0,-2.31239 -9.386956,-6.58891 -15.979713,-7.28005 -5.782978,-0.60625 -6.113221,-0.26486 -11.514251,11.90284 -3.058282,6.88984 -5.979632,15.64353 -6.491889,19.45265 -0.7211,5.36205 -1.454179,6.49291 -3.247013,5.0089 -4.316472,-3.57292 -5.029392,1.93028 -0.827903,6.39078 l 4.002502,4.24926 -5.607142,15.04817 c -8.264676,22.18031 -10.427362,41.38685 -5.381372,47.79124 0.873023,1.10804 1.935174,9.64875 2.360337,18.97934 1.003215,22.01653 2.658636,31.75665 5.845684,34.39471 1.993783,1.65034 2.071858,2.44607 0.344477,3.51086 -1.602054,0.98749 -0.473284,3.38587 3.991951,8.48193 5.279008,6.0248 6.554634,6.7014 8.389686,4.44999 1.190253,-1.4603 4.341778,-3.78193 7.003388,-5.15917 z M 272.53718,211.45512 c 2.49195,-1.9441 5.41468,-3.55281 6.49493,-3.57491 1.08026,-0.022 10.70594,-5.3273 21.39039,-11.78931 10.68445,-6.46202 20.45931,-11.74912 21.7219,-11.74912 1.2626,0 6.66978,-3.25496 12.01595,-7.23323 22.14196,-16.47663 60.69902,-39.07802 82.00376,-48.06898 8.72182,-3.68075 15.85786,-7.3592 15.85786,-8.17431 0,-0.81512 1.35711,-0.96264 3.01578,-0.32782 2.0278,0.77609 2.5865,0.46142 1.70539,-0.96051 -0.72075,-1.1631 -2.68952,-2.12719 -4.37505,-2.14241 -2.59515,-0.0235 -2.65595,-0.28543 -0.39692,-1.71032 2.28527,-1.44141 2.22032,-1.85386 -0.45308,-2.87704 -1.71642,-0.65692 -3.12077,-2.32748 -3.12077,-3.71235 0,-1.38487 -1.58296,-2.51794 -3.5177,-2.51794 -4.05542,0 -7.24021,-3.95497 -4.0412,-5.01849 2.7953,-0.92931 0.86113,-4.019296 -2.51587,-4.019296 -1.43634,0 -2.61152,1.220102 -2.61152,2.711326 0,1.49124 -0.71569,2.71134 -1.59043,2.71134 -1.67716,0 -5.42924,-3.883728 -5.23884,-5.422666 0.51331,-4.148901 -3.57878,-8.969834 -10.43284,-12.291021 -4.50048,-2.180752 -9.10126,-5.975694 -10.22394,-8.433206 -1.12266,-2.457512 -2.74306,-4.035574 -3.60089,-3.506804 -2.10462,1.297298 -12.40891,-6.168059 -12.40891,-8.990128 0,-1.235591 -4.05405,-3.282816 -9.00899,-4.549389 -7.01271,-1.792572 -9.84041,-3.644554 -12.76101,-8.357769 -2.06363,-3.330201 -5.14562,-6.035866 -6.84888,-6.012586 -4.38208,0.05988 -22.51057,-2.225191 -25.70014,-3.239482 -2.34872,-0.746895 -2.34872,-1.052841 0,-2.558652 2.34251,-1.501832 2.33631,-1.927285 -0.0507,-3.490196 -1.49517,-0.978933 -4.77978,-1.792332 -7.29913,-1.807556 -2.51937,-0.01518 -6.39322,-1.293903 -8.60856,-2.841509 -3.66829,-2.562573 -4.02797,-2.551044 -4.02797,0.129111 0,2.694379 -0.25439,2.689217 -3.01196,-0.0611 -1.98303,-1.977819 -5.07861,-2.763399 -9.06163,-2.299625 -4.99061,0.581095 -6.04968,0.100779 -6.04968,-2.743699 0,-2.75228 -0.8919,-3.224842 -4.41974,-2.341741 -2.43087,0.608501 -4.92565,0.289981 -5.54394,-0.707824 -2.19868,-3.548161 -6.34726,-1.850087 -6.34726,2.598023 0,2.426718 -0.81555,4.914923 -1.81233,5.529346 -2.65123,1.63424 -2.21606,4.559946 0.52239,3.511878 1.41171,-0.540305 3.8165,2.161791 6.08298,6.835066 3.74041,7.712338 3.74099,7.757171 0.27528,21.285288 -2.76476,10.791978 -3.43636,19.45934 -3.29313,42.500421 0.12705,20.45257 -0.55896,31.05816 -2.33862,36.15112 -1.73101,4.95366 -2.00072,8.72804 -0.86255,12.07041 1.02109,2.99853 0.98091,7.30163 -0.10475,11.22343 -1.06929,3.86251 -1.15759,11.18101 -0.22478,18.6352 0.84482,6.75115 0.84248,12.97513 -0.005,13.83108 -1.49859,1.51323 3.3859,17.46328 5.32328,17.38287 0.53257,-0.0221 3.00719,-1.63082 5.49914,-3.57492 z m -44.30083,-8.31581 c 1.56359,-12.48153 -0.11218,-29.99401 -3.94342,-41.20821 -2.34735,-6.87095 -2.48093,-9.42472 -0.71534,-13.67596 1.19401,-2.87506 3.35336,-5.67993 4.79853,-6.23303 2.14741,-0.82187 1.89482,-1.99415 -1.38217,-6.41487 -4.80772,-6.48567 -5.14987,-19.74905 -0.75301,-29.18975 1.56948,-3.36989 2.45944,-4.70362 1.97771,-2.96384 -0.48174,1.73977 -0.28211,3.16322 0.44362,3.16322 2.23637,0 6.00699,-7.267283 4.7898,-9.231579 -0.63198,-1.019862 0.18177,-2.824856 1.80834,-4.011094 2.02844,-1.479335 2.98191,-4.990074 3.03546,-11.17696 0.0915,-10.581177 1.29274,-15.761343 3.35922,-14.487535 2.05082,1.264133 3.99372,-13.414456 2.50625,-18.934637 -0.66971,-2.48539 -1.24766,-7.569141 -1.2843,-11.297226 -0.0367,-3.728084 -0.71805,-6.778336 -1.5142,-6.778336 -0.79614,0 -1.44754,-1.2201 -1.44754,-2.711334 0,-3.627852 -4.73808,-3.358779 -13.89811,0.789266 -4.15521,1.881661 -7.9939,2.983411 -8.53038,2.448333 -0.53649,-0.535078 -2.43782,-0.336549 -4.22517,0.441176 -1.78736,0.777724 -3.96347,1.250977 -4.83582,1.051671 -0.87234,-0.199307 -2.94006,0.859748 -4.59495,2.353457 -2.68913,2.427226 -3.57986,2.340464 -8.38172,-0.816457 -7.02014,-4.615277 -7.19355,-4.575036 -10.5332,2.444216 -2.19007,4.603067 -5.40334,7.097045 -13.79894,10.710028 -6.01925,2.590336 -10.9441,3.957193 -10.9441,3.037456 0,-2.89676 -3.15425,-1.833629 -8.92258,3.007322 -3.42577,2.875002 -5.57603,3.764999 -5.57603,2.307921 0,-1.304407 -5.52541,3.096989 -12.27869,9.78088 -6.75328,6.683889 -13.35823,12.152525 -14.67766,12.152525 -2.65469,0 -11.90574,9.230498 -13.55987,13.529746 -0.57945,1.506043 -2.51406,2.73826 -4.29913,2.73826 -1.785079,0 -4.264224,1.6268 -5.509222,3.615115 -1.244998,1.988316 -3.276159,3.624756 -4.513686,3.636526 -2.790136,0.0266 -15.842506,18.49627 -15.842506,22.4179 0,1.9949 1.692931,2.86647 5.567776,2.86647 4.097318,0 7.806768,2.11033 14.045536,7.99059 11.722292,11.04868 23.723712,20.32779 26.291562,20.32779 3.98101,0 32.62191,17.50627 41.48422,25.35654 4.83188,4.28009 10.1464,7.78199 11.81003,7.78199 1.66364,0 5.51026,2.28186 8.54805,5.07081 3.0378,2.78896 10.00877,7.01594 15.49106,9.39329 5.48229,2.37738 10.78335,5.25064 11.78013,6.38507 2.44101,2.77807 6.2686,4.14237 12.10279,4.31392 4.55849,0.13411 4.93058,-0.47261 6.12166,-9.98067 z M 140.23732,63.448867 c 0,-0.994156 0.81554,-2.310265 1.81232,-2.924687 0.99678,-0.614423 1.81233,-0.303731 1.81233,0.690425 0,0.994155 -0.81555,2.310264 -1.81233,2.924688 -0.99678,0.614422 -1.81232,0.30373 -1.81232,-0.690426 z M 122.11405,195.18712 c 0,-0.99415 -1.42721,-1.79511 -3.17158,-1.77988 -2.71042,0.0237 -2.77629,0.28244 -0.45308,1.77988 3.42025,2.20451 3.62466,2.20451 3.62466,0 z m 108.71186,-80.88814 c -0.0153,-0.74562 -0.81832,-2.57576 -1.78458,-4.067 -1.42062,-2.1925 -1.76212,-1.93308 -1.78458,1.35566 -0.0153,2.23685 0.7878,4.06701 1.78458,4.06701 0.99678,0 1.79984,-0.61005 1.78458,-1.35567 z m 239.25493,124.37617 c 0,-0.93548 0.81555,-2.20359 1.81233,-2.81802 0.99678,-0.61443 1.81232,0.15093 1.81232,1.70088 0,1.5499 -0.81554,2.81801 -1.81232,2.81801 -0.99678,0 -1.81233,-0.76539 -1.81233,-1.70087 z m -1.82889,-8.26059 c -2.44552,-2.93891 -0.52763,-3.55264 3.38162,-1.08214 1.49363,0.94391 1.7521,1.98961 0.65843,2.66376 -0.99025,0.61039 -2.80827,-0.10141 -4.04005,-1.58162 z m 7.55202,-8.1141 c 0,-2.48539 0.41136,-3.50214 0.91412,-2.25945 0.50276,1.2427 0.50276,3.2762 0,4.51889 -0.50276,1.2427 -0.91412,0.22595 -0.91412,-2.25944 z M 4.4401605,213.71457 c 0.112874,-4.40473 0.304747,-4.55911 1.684947,-1.35567 2.127154,4.93712 2.127154,6.32645 0,6.32645 -0.99678,0 -1.755006,-2.23685 -1.684947,-4.97078 z m 461.5484595,3.65956 c 1.59037,-0.55673 1.73308,-1.75306 0.48627,-4.07658 -1.3012,-2.42494 -1.06668,-3.55574 0.893,-4.30576 1.52722,-0.58451 3.44029,0.44136 4.49764,2.41182 2.88847,5.38293 2.21767,6.83256 -3.14394,6.79417 -2.74114,-0.0197 -3.97099,-0.39026 -2.73297,-0.82365 z m -0.4386,-13.14923 c 0.61605,-0.99416 2.49916,-1.7951 4.1847,-1.77988 2.64105,0.0239 2.6889,0.26985 0.34612,1.77988 -3.54921,2.28764 -5.94839,2.28764 -4.53082,0 z M 6.1251075,199.01557 c 0,-0.99415 0.815547,-2.31025 1.812327,-2.92467 0.9967803,-0.61443 1.8123273,-0.30373 1.8123273,0.69043 0,0.99415 -0.815547,2.31025 -1.8123273,2.92468 -0.99678,0.61442 -1.812327,0.30373 -1.812327,-0.69044 z M 466.45618,157.22844 c 0,-0.99416 1.22332,-1.80756 2.71849,-1.80756 1.49517,0 2.7185,0.8134 2.7185,1.80756 0,0.99415 -1.22333,1.80756 -2.7185,1.80756 -1.49517,0 -2.71849,-0.81341 -2.71849,-1.80756 z m -8.15547,-25.30579 c 0.61605,-0.99416 1.47973,-1.80755 1.91929,-1.80755 0.43956,0 0.7992,0.81339 0.7992,1.80755 0,0.99415 -0.86368,1.80756 -1.91929,1.80756 -1.05561,0 -1.41524,-0.81341 -0.7992,-1.80756 z"
   id="path2409" /><path
   style="fill:none;stroke:#000000;stroke-width:1px;stroke-linecap:butt;stroke-linejoin:miter;stroke-opacity:1"
   d="m 472.13571,198.62576 c 0.008,0.21221 -0.0642,1.2818 -0.1522,1.36983 -0.10762,0.10763 -0.32997,-0.0844 -0.45661,0 -0.0844,0.0563 0.0718,0.23266 0,0.30441 -0.1435,0.1435 -0.46532,-0.1435 -0.60882,0 -0.17681,0.17682 0.17298,2.41449 0,2.58746 -0.10762,0.10763 -0.32997,-0.0844 -0.45661,0 -0.0844,0.0563 0.0717,0.23266 0,0.30441 -0.0718,0.0718 -0.23265,-0.0718 -0.3044,0 -0.40588,0.40588 0.50734,0.30441 -0.30441,0.30441"
   id="path3420" /><path
   style="fill:none;stroke:#000000;stroke-width:1px;stroke-linecap:butt;stroke-linejoin:miter;stroke-opacity:1"
   d="m 469.85266,203.49628 c -0.45661,0.60881 -0.97829,1.17387 -1.36983,1.82644 -0.21475,0.35791 0,3.42637 0,3.95729"
   id="path3422" /><path
   style="fill:none;stroke:#000000;stroke-width:1px;stroke-linecap:butt;stroke-linejoin:miter;stroke-opacity:1"
   d="m 472.59232,216.28138 c 0.35515,0.10147 0.71029,0.20294 1.06543,0.30441 0,0.10147 -0.0718,0.23266 0,0.30441 0.0717,0.0718 0.24812,-0.0844 0.30441,0 0.0844,0.12664 -0.10763,0.34898 0,0.45661 0.10762,0.10762 0.32997,-0.0844 0.45661,0 0.21107,0.14071 -0.14071,0.54995 0,0.76102 0.0563,0.0844 0.21365,-0.0454 0.30441,0 0.64314,-0.0793 0.11562,0.48295 0.3044,0.60881 0.12664,0.0844 0.34899,-0.10762 0.45661,0 0.24942,0.24942 -0.31225,1.05954 0.30441,1.52204 0.20294,0.1522 0.54995,-0.14071 0.76102,0 0.0844,0.0563 -0.0718,0.23266 0,0.3044 0.0718,0.0718 0.24812,-0.0844 0.30441,0 0.37852,0.56779 -0.62142,1.2264 -1.05006,1.75738"
   id="path3424" /><path
   style="fill:none;stroke:#000000;stroke-width:1px;stroke-linecap:butt;stroke-linejoin:miter;stroke-opacity:1"
   d="m 475.80397,222.30046 c -4.31458,0.1721 0.51389,2.89059 -0.16757,4.02636 -0.11075,0.18458 -0.34587,0.27204 -0.45661,0.45661 -0.0803,0.1338 -0.25567,1.3211 -0.30441,1.36984 -0.18072,0.18072 -0.83776,-0.1366 -1.06543,0 -0.18457,0.11074 -0.27203,0.34586 -0.45661,0.45661 -0.087,0.0522 -0.23266,-0.0718 -0.3044,0 -0.0718,0.0718 0.0717,0.23266 0,0.30441 -0.17938,0.17937 -0.52549,-0.0942 -0.76102,0 -0.13324,0.0533 -0.17117,0.25111 -0.30441,0.3044 -0.23553,0.0942 -0.62031,-0.21107 -0.76102,0 -0.0844,0.12664 0.0844,0.32997 0,0.45661 -0.14071,0.21107 -0.54995,-0.14071 -0.76102,0 -0.0844,0.0563 0,0.20294 0,0.30441 -0.7365,0.14495 -1.47301,0.2899 -2.20952,0.43485"
   id="path3426" /><path
   style="fill:none;stroke:#000000;stroke-width:1px;stroke-linecap:butt;stroke-linejoin:miter;stroke-opacity:1"
   d="m 470.46147,229.97971 c -0.12471,0.39232 1.17328,2.2367 1.36984,2.89187 0.0729,0.24297 -0.0942,0.52549 0,0.76102 0.0377,0.0942 0.23265,-0.0718 0.3044,0 0.12217,0.12216 0,0.87095 0,1.06542 0,0.15651 -0.10068,0.99831 0,1.06543 0.5932,0.39547 0.45661,-0.54394 0.45661,0.76102"
   id="path3428" /><path
   style="fill:none;stroke:#000000;stroke-width:1px;stroke-linecap:butt;stroke-linejoin:miter;stroke-opacity:1"
   d="m 470.08084,238.67515 c 0.68496,0.6022 1.485,1.09453 2.05487,1.80661 0.20451,0.25553 -0.0597,2.12488 -0.1522,2.58746 -0.22439,1.12196 0,2.79216 0,3.9573"
   id="path3430" /><g
   inkscape:groupmode="layer"
   id="layer1"
   inkscape:label="Layer 1"><path
     style="fill:#000000;stroke-width:1.80994"
     d="m 2.1523912,214.9873 c 1.23458,-5.82152 3.26067,-11.21415 4.5024,-11.98361 1.24175,-0.76946 1.98431,-3.01715 1.65014,-4.99485 -0.33416,-1.9777 0.46315,-4.88937 1.7718098,-6.47037 1.30865,-1.58098 3.09113,-7.9234 3.96109,-14.09422 1.0625,-7.53673 2.91061,-12.63798 5.63008,-15.54035 3.92387,-4.18778 3.94411,-4.39712 0.65811,-6.80623 -3.24298,-2.37759 -3.25367,-2.69459 -0.24611,-7.29682 1.7636,-2.6987 4.49736,-4.58565 6.22602,-4.29745 2.47106,0.41196 3.09635,-0.93816 3.15482,-6.81193 0.0559,-5.60605 1.85915,-9.8789 7.68211,-18.20201 4.18505,-5.98195 7.60918,-11.86028 7.60918,-13.06295 0,-1.20267 1.90475,-2.18667 4.23278,-2.18667 3.42173,0 4.66392,-1.47586 6.48294,-7.702388 5.3506,-18.31531 15.07231,-28.54416 27.12894,-28.54416 4.62978,0 5.92952,-1.0591 8.31004,-6.77149 3.63057,-8.71213 10.081119,-15.76952 11.826069,-12.93866 0.84592,1.37234 1.98967,0.74708 3.37256,-1.84369 1.15089,-2.15614 2.86512,-3.44151 3.80939,-2.85637 0.94428,0.58513 1.71687,0.2002 1.71687,-0.85541 0,-1.0556 1.66165,-1.91928 3.69254,-1.91928 2.03091,0 7.52135,-3.55604 12.20101,-7.90231 9.77076,-9.07468 16.64246,-13.26385 16.64246,-10.14568 0,1.10833 2.06013,-0.43963 4.57806,-3.43991 5.67735,-6.76498 14.7085,-9.9169701 23.77838,-8.29898 5.57904,0.99525 6.47273,0.78541 4.69436,-1.1022601 -1.73438,-1.84097 -1.56303,-2.79602 0.8144,-4.53901 3.33483,-2.44494 9.51615,0.11238 9.51615,3.937 0,1.13914 1.59851,2.4902901 3.55222,3.0025501 2.51049,0.65824 3.92925,-0.20989 4.83782,-2.9602001 1.25009,-3.78421 1.31666,-3.76658 2.41265,0.63924 l 1.1271,4.5308201 2.5595,-5.7748901 2.55951,-5.77489 17.23327,-0.56826 c 9.4783,-0.31254 18.45338,-0.001 19.94462,0.69198 1.49122,0.69312 5.75169,1.74765 9.4677,2.3434 4.10709,0.65844 7.50931,2.49376 8.67657,4.68059 1.05613,1.9785801 2.65332,3.1431501 3.54933,2.5879301 2.45048,-1.51849 23.4953,-2.5718801 23.4953,-1.17605 0,0.66667 1.73581,2.29902 3.85736,3.62744 2.93222,1.83604 4.17493,1.90013 5.18146,0.26722 1.81595,-2.94601 22.74448,-3.29026 25.606,-0.42119 1.76739,1.77206 1.59261,2.23521 -0.84352,2.23521 -3.75571,0 -3.88972,1.82642 -0.47327,6.44983 2.56894,3.4765 2.63458,3.47525 5.57022,-0.10669 2.46267,-3.00484 2.80058,-3.08231 1.97605,-0.45308 -0.8488,2.70661 0.25579,3.18314 7.53455,3.2505 12.88506,0.11923 24.23817,2.80169 26.11889,6.17122 0.92477,1.65684 3.64926,3.76258 6.0544,4.67943 2.40515,0.91685 4.373,2.93678 4.373,4.48875 0,1.55196 1.42344,3.42161 3.16322,4.15478 6.70475,2.82549 20.335,12.20573 20.335,13.9944 0,2.23855 19.33936,20.8023 21.67143,20.8023 0.89109,0 4.59745,1.76128 8.23634,3.91395 l 6.61618,3.91394 -4.19759,2.25242 c -4.07872,2.18862 -3.98162,2.31072 3.4287,4.31138 6.34164,1.71213 7.62629,2.81042 7.62629,6.519928 0,3.20753 0.9858,4.46096 3.50844,4.46096 4.48598,0 6.4374,3.21454 5.77795,9.51793 -0.35118,3.35679 0.48059,5.37501 2.54209,6.16817 4.47867,1.72316 15.28487,13.01226 15.28487,15.96791 0,1.39477 -1.62681,3.05364 -3.61512,3.68637 -4.5512,1.44831 -4.49891,4.22736 0.18573,9.87101 2.94573,3.54874 3.9912,3.93008 5.23641,1.90998 0.89258,-1.44803 0.81192,-3.91774 -0.18919,-5.79327 -1.4004,-2.62358 -1.05903,-3.26923 1.72852,-3.26923 2.52979,0 3.71734,1.60033 4.37082,5.89007 0.4935,3.23953 0.28621,6.70561 -0.46064,7.70239 -1.58999,2.12208 -2.09823,13.1774 -0.80334,17.47451 0.49322,1.63674 2.49662,3.39536 4.45201,3.90806 1.95538,0.51269 3.55524,2.23184 3.55524,3.82033 0,1.58848 1.42345,2.95255 3.16323,3.03124 2.01162,0.091 2.31318,0.48505 0.82833,1.08239 -2.93741,1.18173 0.5703,6.02384 4.36377,6.02384 2.85953,0 3.12007,1.63316 0.8372,5.24799 -0.87859,1.39121 -2.89964,2.02846 -4.49121,1.41611 -2.17171,-0.83555 -2.89376,0.003 -2.89376,3.36057 0,3.5915 0.91235,4.47394 4.62557,4.47394 2.54406,0 4.16579,0.7459 3.60385,1.65754 -0.56195,0.91164 -0.32999,1.93107 0.51545,2.26541 2.59022,1.02431 0.16276,14.20032 -2.61618,14.20032 -1.38247,0 -2.51358,1.15536 -2.51358,2.56747 0,1.4121 -1.01675,2.92405 -2.25944,3.35988 -1.62252,0.56903 -1.28163,1.89674 1.20928,4.70993 4.07253,4.59945 5.89497,20.6051 3.12228,27.42159 -1.35816,3.33894 -1.87311,3.67281 -1.95754,1.26919 -0.0881,-2.50904 -0.81312,-2.86967 -3.14199,-1.56293 -3.56044,1.99778 -4.84149,7.54305 -1.74258,7.54305 1.17719,0 3.68475,2.87535 5.57235,6.38965 l 3.43199,6.38967 -6.08687,6.29662 c -3.34777,3.46316 -5.31725,6.29668 -4.37662,6.29671 0.94064,4e-5 1.71025,5.50498 1.71025,12.23321 0,11.3064 -0.3081,12.27701 -4.067,12.81226 -4.28988,0.61087 -5.48377,3.17614 -2.01736,4.33466 1.38017,0.46127 1.16286,1.57413 -0.66531,3.40712 -1.49321,1.49716 -3.30244,4.57804 -4.02049,6.84639 -0.80026,2.52805 -2.28459,3.7476 -3.83516,3.15102 -1.61315,-0.62067 -2.93471,0.64504 -3.64777,3.49359 -0.61498,2.45675 -2.25007,4.46684 -3.63353,4.46684 -1.38346,0 -2.51539,1.71172 -2.51539,3.80384 0,5.60212 -4.51912,14.19574 -12.65843,24.07142 -5.38981,6.53963 -6.93783,9.79238 -6.15279,12.92845 0.7144,2.85394 -0.15397,5.39646 -2.72281,7.97206 -2.07446,2.07994 -3.77175,4.18949 -3.77175,4.68788 0,0.49839 0,1.80895 0,2.91239 0,1.10342 -1.29537,1.50784 -2.87861,0.89868 -1.93948,-0.74621 -3.19911,0.12124 -3.86103,2.65919 -0.76042,2.91553 -1.94801,3.52373 -5.2554,2.69143 -2.35013,-0.5914 -4.27297,-0.26978 -4.27297,0.71469 0,0.9845 -1.21542,1.32235 -2.70095,0.7508 -1.48552,-0.57156 -2.25092,-1.76929 -1.70088,-2.66161 0.55004,-0.89233 0.13867,-1.62243 -0.91416,-1.62243 -3.42934,0 -2.02206,3.24168 3.05655,7.04073 2.73393,2.04512 4.02037,3.74425 2.85875,3.77582 -1.16161,0.0315 -3.87463,2.91691 -6.02894,6.41185 -2.1543,3.49495 -4.66084,5.89345 -5.57009,5.33002 -0.90924,-0.56342 -1.65317,0.24704 -1.65317,1.80104 0,3.29834 -2.98583,3.81212 -4.02305,0.69225 -0.97504,-2.93283 -4.90146,-0.2138 -6.75685,4.6791 -0.94008,2.47916 -4.3528,4.94381 -8.95342,6.46617 -5.73139,1.89653 -7.20613,3.18083 -6.43815,5.60687 0.81792,2.58387 -0.0665,3.09777 -4.94365,2.8725 -4.73383,-0.21864 -5.83195,0.36959 -5.40866,2.89724 0.40224,2.40189 -0.71636,3.17157 -4.60926,3.17157 -2.82722,0 -6.11648,0.97866 -7.30947,2.17479 -1.68704,1.6915 -2.16906,1.42772 -2.16906,-1.18705 0,-3.17225 -0.19113,-3.18841 -3.38888,-0.28686 -1.86389,1.69125 -4.10074,2.89866 -4.97078,2.68312 -2.51765,-0.6237 -12.14199,4.37361 -15.4596,8.02721 -2.93858,3.23616 -3.09427,3.22346 -5.03437,-0.41123 -2.54277,-4.76374 -6.2128,-4.90563 -4.98358,-0.19266 0.51039,1.95692 -0.20814,4.50342 -1.59674,5.65891 -1.38861,1.15546 -2.52473,1.49942 -2.52473,0.76434 0,-0.73508 -2.13583,0.0667 -4.74626,1.78159 -2.85395,1.87491 -5.19613,2.41263 -5.87456,1.3487 -0.62057,-0.97316 -3.26348,-1.53346 -5.87313,-1.24512 -3.91574,0.43267 -4.74483,-0.215 -4.74483,-3.70661 0,-2.6127 1.29624,-4.57078 3.38916,-5.11953 2.1274,-0.5578 3.38917,0.0604 3.38917,1.6602 0,4.11075 1.70385,3.07157 10.67845,-6.51282 6.97262,-7.44638 9.58614,-9.06163 14.6619,-9.06163 4.1994,0 7.35252,-1.34556 9.84945,-4.20315 5.036,-5.7634 8.73612,-6.80699 14.14996,-3.99085 3.87139,2.0138 5.19639,1.97478 8.3589,-0.24617 5.11156,-3.58973 4.71998,-6.5588 -1.21253,-9.19372 -7.06947,-3.13989 -34.83276,-34.42613 -47.76702,-53.82827 -6.0262,-9.03964 -13.30015,-19.40749 -16.16436,-23.03965 -2.8642,-3.63217 -5.20764,-7.38456 -5.20764,-8.33864 0,-1.95249 -5.73785,-12.96983 -14.20424,-27.27378 -3.12338,-5.27696 -5.67889,-10.22155 -5.67889,-10.98798 0,-0.76641 -2.44019,-3.73752 -5.42266,-6.60245 -3.05515,-2.93476 -5.42267,-4.1679 -5.42267,-2.82448 0,1.31146 -3.05901,-1.07172 -6.79782,-5.29594 l -6.79784,-7.68041 -5.57172,8.80659 c -3.06445,4.8436 -9.50339,16.14649 -14.30873,25.11751 -4.80538,8.97102 -9.71649,17.12649 -10.9136,18.12327 -1.19711,0.99678 -5.48208,9.42849 -9.52219,18.73713 -8.40958,19.37616 -23.52863,46.98336 -37.61791,68.68987 -5.33133,8.21365 -9.69333,15.76841 -9.69333,16.78835 0,1.11886 2.46676,0.82102 6.21895,-0.75086 5.20124,-2.17896 6.54935,-2.20613 8.23804,-0.16601 1.11053,1.34163 5.42925,2.95706 9.59719,3.58987 9.56414,1.45211 15.71205,4.45898 15.71205,7.68456 0,1.81842 0.83587,2.03329 3.05845,0.78619 2.10892,-1.18333 4.32618,-0.88329 7.14173,0.96638 2.49875,1.64157 5.63072,2.19009 8.07107,1.41351 2.98739,-0.95066 4.81338,-0.1927 7.27854,3.02128 l 3.29073,4.2903 0.16719,-4.53082 c 0.14045,-3.80385 0.37803,-3.99375 1.48099,-1.18354 1.1818,3.01111 1.55014,3.06168 3.66757,0.50361 2.07104,-2.50204 2.67309,-2.52357 5.01117,-0.17924 1.91598,1.92102 3.5794,2.16961 5.96219,0.89102 2.59054,-1.39008 3.87713,-0.8976 5.95278,2.2786 2.8551,4.36896 2.20568,15.81288 -0.89735,15.81288 -1.00305,0 -0.73376,1.3168 0.59842,2.92622 2.07652,2.50866 1.8216,3.41377 -1.78649,6.34314 -6.14632,4.99012 -10.37425,4.30983 -12.57629,-2.02359 -1.7556,-5.04945 -2.22658,-5.28748 -6.55229,-3.31135 -3.56512,1.62866 -5.15908,1.62949 -6.78076,0.004 -2.58284,-2.58983 -12.24231,-2.83705 -12.24231,-0.31344 0,3.71666 -7.31813,1.62421 -13.57094,-3.88032 -5.62323,-4.9503 -7.03728,-5.43187 -10.84367,-3.693 -2.8908,1.32063 -4.75766,1.38241 -5.49764,0.18194 -0.61624,-0.99973 -2.55098,-1.36247 -4.29942,-0.80607 -1.74843,0.55641 -5.13693,-0.52166 -7.52999,-2.39566 -7.50852,-5.87995 -20.02464,-11.49644 -23.55594,-10.57054 -1.86425,0.48878 -3.41372,-0.0544 -3.44329,-1.20703 -0.0296,-1.15266 -4.98263,-4.92657 -11.00681,-8.38649 -6.02418,-3.45991 -12.55663,-8.54871 -14.51657,-11.30845 -2.41871,-3.40572 -6.74544,-5.94514 -13.468179,-7.90464 -12.05512,-3.51378 -19.24838,-9.31225 -19.24838,-15.51608 0,-3.41355 -1.37179,-5.08994 -5.41828,-6.62134 -3.60696,-1.36508 -5.07882,-2.93752 -4.40283,-4.70376 0.68787,-1.79727 -0.83387,-3.29956 -4.71715,-4.65685 -8.73343,-3.05254 -17.64013,-12.5056 -16.5982,-17.61642 0.47294,-2.31987 1.28208,-6.2568 1.79811,-8.74875 1.16665,-5.63393 -3.48371,-6.29641 -6.36088,-0.90617 -3.7701,7.06308 -6.85918,3.66458 -10.74167,-11.81762 -1.31655,-5.24986 -3.4607,-8.25419 -7.67039,-10.74748 -4.00823,-2.37397 -5.02484,-3.73414 -3.23744,-4.33152 4.53801,-1.51666 6.95486,-4.98509 5.32085,-7.63597 -0.88014,-1.42786 -0.79007,-3.40469 0.21018,-4.61309 1.18702,-1.43406 0.84861,-2.46147 -1.05158,-3.19256 -1.9339,-0.74407 -2.4633,-2.43055 -1.70892,-5.4442 0.80312,-3.20825 0.0665,-5.087 -2.7774,-7.08424 -2.86957,-2.01522 -3.89739,-4.68169 -3.97491,-10.31183 -0.0668,-4.86411 -1.04094,-7.95405 -2.70956,-8.59607 -2.2861,-0.87957 -8.9772998,-14.43114 -8.3157498,-16.84177 0.13683,-0.49839 -0.91365,-1.55835 -2.33426,-2.35547 -2.95448998,-1.65777 -3.58172998,-13.95548 -0.7118,-13.95548 1.2315,0 1.1679,-1.31752 -0.18607,-3.85409 -1.33203,-2.4955 -1.62232,-7.92583 -0.82351,-15.40478 1.04177,-9.75347 1.77384,-11.55069 4.70497,-11.55069 4.7765898,0 4.3603998,-1.66487 -1.77914,-7.11731 l -5.25040998,-4.66281 z m 33.1060398,18.29637 c -0.50269,4.72955 -1.56041,10.16797 -2.35045,12.08539 -1.21186,2.94115 -0.89283,3.25846 2.04058,2.02943 1.91238,-0.80121 7.13734,-2.13313 11.61104,-2.95977 4.4737,-0.82666 12.08892,-2.74787 16.92272,-4.26935 12.46948,-3.92494 64.382249,-7.84943 94.241999,-7.1245 24.50178,0.59486 38.29321,-1.27934 36.06108,-4.90053 -0.56489,-0.91646 0.0377,-1.67082 1.33902,-1.67638 1.30137,-0.005 5.43757,-0.8653 9.19155,-1.91054 l 6.82543,-1.90044 -6.76643,-12.91051 c -3.72154,-7.10079 -11.24119,-17.45481 -16.71033,-23.00895 -8.71759,-8.85307 -9.95091,-11.00464 -10.00056,-17.44665 -0.0473,-6.14203 -0.94676,-7.92696 -5.47932,-10.87396 -5.80127,-3.77192 -13.60352,-17.30708 -13.48429,-23.39228 0.0611,-3.12205 0.50269,-2.89757 2.85279,1.4504 1.52923,2.82927 3.27258,4.65066 3.87412,4.04753 0.60153,-0.60312 0.13122,-2.06165 -1.04524,-3.24118 -1.17641,-1.17952 -2.13894,-5.1757 -2.13894,-8.8804 0,-3.7047 -0.93004,-7.04665 -2.06676,-7.42655 -1.53975,-0.51461 -1.52353,-1.70845 0.0636,-4.68185 1.23248,-2.30905 1.39306,-3.99111 0.38098,-3.99111 -0.96215,0 -2.30708,-1.83498 -2.98873,-4.07773 -0.68166,-2.24276 -2.51638,-5.53492 -4.07717,-7.31591 -3.89787,-4.447798 -4.21822,-10.329188 -0.48645,-8.930658 2.39557,0.89778 2.47825,0.61092 0.52034,-1.80555 -1.28024,-1.5801 -2.64536,-4.52664 -3.03358,-6.54786 -0.90066,-4.68906 -6.29902,-13.00581 -8.44201,-13.00581 -0.90112,0 -2.56494,-2.03887 -3.69737,-4.53082 -1.249,-2.74847 -3.5447,-4.5199 -5.83581,-4.50306 -2.4498,0.0179 -3.0104,0.51617 -1.59547,1.41783 3.52266,2.2448 -9.08385,14.86536 -14.84879,14.86536 -2.81686,0 -4.24791,0.76221 -3.55167,1.89171 1.65646,2.68727 -2.29121,6.85633 -10.43821,11.02358 -5.430909,2.77796 -6.895569,4.51013 -6.482969,7.667 0.53321,4.079778 -8.78692,20.507638 -14.18147,24.996538 -1.56091,1.29886 -5.17655,2.11563 -8.03473,1.81503 -5.35118,-0.56278 -7.04623,2.58427 -3.37469,6.2655 1.22429,1.22753 0.23724,5.50937 -3.00887,13.05248 -2.65698,6.17412 -5.20669,10.84887 -5.66603,10.38834 -0.45931,-0.46054 -2.64176,1.78054 -4.84987,4.98017 -2.75814,3.99665 -3.46585,6.52658 -2.26111,8.08292 1.24159,1.60394 0.89735,2.26541 -1.17902,2.26541 -1.95497,0 -2.93266,1.57458 -2.93266,4.72307 0,2.87933 -1.76403,6.1143 -4.51889,8.287 -4.24016,3.34412 -6.63565,10.26344 -2.71133,7.83168 0.99415,-0.61604 1.80755,-0.25641 1.80755,0.7992 0,1.05561 -1.3197,1.91929 -2.93265,1.91929 -2.40188,0 -2.52539,0.49203 -0.68246,2.71849 1.50706,1.8207 1.59297,2.71849 0.26007,2.71849 -1.42005,0 -1.38896,1.32289 0.10864,4.61828 1.87748,4.13153 1.49956,5.21902 -3.58564,10.31762 -4.31062,4.32202 -5.20863,6.27402 -3.71591,8.07738 1.13,1.36517 1.57911,6.04063 1.05441,10.97723 z m -0.0525,42.56549 c 1.98719,2.20163 2.91259,5.7035 2.56773,9.71681 -0.33475,3.89567 0.86379,8.65875 3.16114,12.56276 2.07348,3.52356 3.19068,7.61971 2.54112,9.31688 -0.88775,2.31955 -0.42883,2.74778 1.95984,1.82873 1.8681,-0.71873 2.67294,-0.47637 2.0068,0.60434 -0.61173,0.9924 0.15943,2.29363 1.71367,2.89162 1.92348,0.74007 2.83858,3.48505 2.8656,8.59576 0.0218,4.12966 1.67713,11.12747 3.67846,15.55066 2.00131,4.4232 3.19205,9.20932 2.6461,10.63582 -0.58259,1.52225 1.76143,5.19795 5.67433,8.89805 5.95412,5.63025 7.14862,8.17222 7.6939,16.37289 0.0828,1.24598 1.72942,2.26541 3.65906,2.26541 1.92964,0 4.01115,0.81555 4.62557,1.81233 0.61442,0.99678 0.25573,1.81233 -0.79709,1.81233 -1.05283,0 -1.91424,1.27549 -1.91424,2.83442 0,2.10632 1.50906,2.68826 5.87455,2.26541 5.73045,-0.55506 5.86222,-0.40754 5.37103,6.01345 -0.52427,6.85357 2.31729,9.80635 6.77731,7.04263 1.37591,-0.85261 4.826289,0.0319 8.421979,2.15902 7.86132,4.65054 8.19198,9.15452 0.66848,9.10566 -0.49708,-0.004 -2.73393,-0.56253 -4.970779,-1.24289 -2.41592,-0.73485 -4.06701,-0.46574 -4.06701,0.66287 0,1.04495 2.02788,2.41023 4.50641,3.03395 2.478519,0.62371 4.033229,1.90162 3.454939,2.8398 -0.5783,0.93819 -0.55573,3.00107 0.0502,4.5842 0.98438,2.57203 1.48318,2.53216 4.6867,-0.37463 3.45118,-3.13152 3.85409,-3.1238 10.78691,0.20639 3.96101,1.90267 7.21117,4.07106 7.22258,4.81865 0.0109,0.74758 2.38479,1.35924 5.27418,1.35924 4.36354,0 5.09329,0.614 4.30808,3.62466 -1.50622,5.77498 2.70404,4.19532 6.03801,-2.26541 1.67172,-3.23954 4.49831,-11.7408 6.28133,-18.8917 1.78302,-7.15088 8.97685,-25.21447 15.98628,-40.14129 7.00941,-14.92681 12.74441,-27.99702 12.74441,-29.04491 0,-1.04791 1.12531,-2.55745 2.5007,-3.35456 2.5308,-1.46676 19.18998,-30.44938 19.18998,-33.38559 0,-0.87546 0.77517,-1.59177 1.7226,-1.59177 0.94741,0 2.56967,-3.0583 3.60502,-6.79622 2.33966,-8.44701 2.36906,-10.01768 0.16177,-8.64993 -0.95742,0.59328 -0.55952,-2.82466 0.88423,-7.59543 1.44375,-4.77079 2.63379,-9.1815 2.64456,-9.80161 0.0145,-0.87729 -36.5263,-2.02975 -62.34112,-1.96612 -1.98832,0.005 -12.96922,0.90406 -24.40201,1.99815 -23.601949,2.25861 -56.556079,2.46284 -74.499369,0.46171 -10.18922,-1.13637 -12.26014,-0.90314 -12.8951,1.4523 -0.41605,1.54335 -0.8508,3.14965 -0.96612,3.56955 -0.11533,0.41989 1.18843,2.31242 2.89724,4.20561 z M 170.5845,64.380652 c 1.37722,2.66161 2.50404,5.98471 2.50404,7.38466 0,4.91975 9.09766,28.588098 12.40625,32.275918 6.22646,6.94014 20.39305,34.45985 21.89854,42.53963 0.88304,4.73922 3.06137,9.21364 5.31552,10.91843 2.10063,1.58869 4.65169,5.91106 5.66902,9.60526 1.90628,6.9222 14.19271,27.14835 14.57388,23.99182 0.11766,-0.97405 0.72768,0.57371 1.35566,3.43945 0.628,2.86576 3.67657,7.16779 6.77461,9.56005 l 5.63278,4.34958 7.71149,-11.86726 c 7.68864,-11.83212 16.27028,-32.39205 16.27028,-38.98038 0,-4.29044 6.76774,-10.86212 11.18617,-10.86212 2.62164,0 3.27428,-1.46288 3.27428,-7.33931 0,-4.03662 1.15071,-9.54156 2.55711,-12.23321 3.00977,-5.76019 16.27665,-18.98895 14.58275,-14.54085 -0.92621,2.43221 -0.35864,2.8299 2.84129,1.99089 2.19929,-0.57664 4.39192,-2.556 4.8725,-4.39858 0.54904,-2.10506 2.51452,-3.35014 5.28852,-3.35014 2.51103,0 3.92838,-0.78905 3.28684,-1.82982 -0.62036,-1.00641 0.55174,-3.97081 2.60465,-6.587558 2.05291,-2.61675 3.73258,-5.46329 3.73258,-6.32564 0,-0.86236 1.6268,-3.19902 3.61511,-5.19258 3.28363,-3.2923 3.62633,-3.33384 3.73744,-0.45308 0.0974,2.52509 0.52215,2.34039 2.08378,-0.90616 1.0788,-2.24276 2.62965,-4.07774 3.44636,-4.07774 2.31239,0 6.58891,-9.38696 7.28005,-15.97971 0.60625,-5.78298 0.26486,-6.11322 -11.90284,-11.51425 -6.88984,-3.05829 -15.64353,-5.97964 -19.45265,-6.49189 -5.36205,-0.7211 -6.49291,-1.45418 -5.0089,-3.24702 3.57292,-4.31647 -1.93028,-5.02939 -6.39078,-0.8279 l -4.24926,4.0025 -15.04817,-5.60714 c -22.18031,-8.26467 -41.38685,-10.42736 -47.79124,-5.38137 -1.10804,0.87302 -9.64875,1.93517 -18.97934,2.36034 -22.01653,1.00321 -31.75665,2.65863 -34.39471,5.84568 -1.65034,1.99378 -2.44607,2.07186 -3.51086,0.34448 -0.98749,-1.60206 -3.38587,-0.47329 -8.48193,3.99195 -6.0248,5.27901 -6.7014,6.55463 -4.44999,8.38968 1.4603,1.19026 3.78193,4.34178 5.15917,7.00339 z M 281.54191,273.59857 c 1.9441,2.49195 3.55281,5.41468 3.57491,6.49493 0.022,1.08026 5.3273,10.70594 11.78931,21.39039 6.46202,10.68445 11.74912,20.45931 11.74912,21.7219 0,1.2626 3.25496,6.66978 7.23323,12.01595 16.47663,22.14196 39.07802,60.69902 48.06898,82.00376 3.68075,8.72182 7.3592,15.85786 8.17431,15.85786 0.81512,0 0.96264,1.35711 0.32782,3.01578 -0.77609,2.0278 -0.46142,2.5865 0.96051,1.70539 1.1631,-0.72075 2.12719,-2.68952 2.14241,-4.37505 0.0235,-2.59515 0.28543,-2.65595 1.71032,-0.39692 1.44141,2.28527 1.85386,2.22032 2.87704,-0.45308 0.65692,-1.71642 2.32748,-3.12077 3.71235,-3.12077 1.38487,0 2.51794,-1.58296 2.51794,-3.5177 0,-4.05542 3.95497,-7.24021 5.01849,-4.0412 0.92931,2.7953 4.01929,0.86113 4.01929,-2.51587 0,-1.43634 -1.2201,-2.61152 -2.71132,-2.61152 -1.49124,0 -2.71134,-0.71569 -2.71134,-1.59043 0,-1.67716 3.88372,-5.42924 5.42266,-5.23884 4.1489,0.51331 8.96984,-3.57878 12.29102,-10.43284 2.18076,-4.50048 5.9757,-9.10126 8.43321,-10.22394 2.45751,-1.12266 4.03557,-2.74306 3.5068,-3.60089 -1.29729,-2.10462 6.16806,-12.40891 8.99013,-12.40891 1.23559,0 3.28282,-4.05405 4.54939,-9.00899 1.79257,-7.01271 3.64455,-9.84041 8.35777,-12.76101 3.3302,-2.06363 6.03587,-5.14562 6.01259,-6.84888 -0.0599,-4.38208 2.22519,-22.51057 3.23948,-25.70014 0.74689,-2.34872 1.05284,-2.34872 2.55865,0 1.50183,2.34251 1.92728,2.33631 3.4902,-0.0507 0.97893,-1.49517 1.79233,-4.77978 1.80755,-7.29913 0.0152,-2.51937 1.2939,-6.39322 2.84151,-8.60856 2.56257,-3.66829 2.55104,-4.02797 -0.12911,-4.02797 -2.69438,0 -2.68922,-0.25439 0.0611,-3.01196 1.97782,-1.98303 2.7634,-5.07861 2.29962,-9.06163 -0.58109,-4.99061 -0.10077,-6.04968 2.7437,-6.04968 2.75228,0 3.22485,-0.8919 2.34174,-4.41974 -0.6085,-2.43087 -0.28998,-4.92565 0.70783,-5.54394 3.54816,-2.19868 1.85009,-6.34726 -2.59802,-6.34726 -2.42672,0 -4.91493,-0.81555 -5.52935,-1.81233 -1.63424,-2.65123 -4.55995,-2.21606 -3.51188,0.52239 0.54031,1.41171 -2.16179,3.8165 -6.83506,6.08298 -7.71234,3.74041 -7.75718,3.74099 -21.28529,0.27528 -10.79198,-2.76476 -19.45934,-3.43636 -42.50042,-3.29313 -20.45257,0.12705 -31.05816,-0.55896 -36.15112,-2.33862 -4.95366,-1.73101 -8.72804,-2.00072 -12.07041,-0.86255 -2.99853,1.02109 -7.30163,0.98091 -11.22343,-0.10475 -3.86251,-1.06929 -11.18101,-1.15759 -18.6352,-0.22478 -6.75115,0.84482 -12.97513,0.84248 -13.83108,-0.005 -1.51323,-1.49859 -17.46328,3.3859 -17.38287,5.32328 0.0221,0.53257 1.63082,3.00719 3.57492,5.49914 z m 8.31581,-44.30083 c 12.48153,1.56359 29.99401,-0.11218 41.20821,-3.94342 6.87095,-2.34735 9.42472,-2.48093 13.67596,-0.71534 2.87506,1.19401 5.67993,3.35336 6.23303,4.79853 0.82187,2.14741 1.99415,1.89482 6.41487,-1.38217 6.48567,-4.80772 19.74905,-5.14987 29.18975,-0.75301 3.36989,1.56948 4.70362,2.45944 2.96384,1.97771 -1.73977,-0.48174 -3.16322,-0.28211 -3.16322,0.44362 0,2.23637 7.26728,6.00699 9.23158,4.7898 1.01986,-0.63198 2.82485,0.18177 4.01109,1.80834 1.47933,2.02844 4.99007,2.98191 11.17696,3.03546 10.58118,0.0915 15.76134,1.29274 14.48753,3.35922 -1.26413,2.05082 13.41446,3.99372 18.93464,2.50625 2.48539,-0.66971 7.56914,-1.24766 11.29723,-1.2843 3.72808,-0.0367 6.77833,-0.71805 6.77833,-1.5142 0,-0.79614 1.2201,-1.44754 2.71134,-1.44754 3.62785,0 3.35878,-4.73808 -0.78927,-13.89811 -1.88166,-4.15521 -2.98341,-7.9939 -2.44833,-8.53038 0.53508,-0.53649 0.33655,-2.43782 -0.44118,-4.22517 -0.77772,-1.78736 -1.25097,-3.96347 -1.05167,-4.83582 0.19931,-0.87234 -0.85975,-2.94006 -2.35346,-4.59495 -2.42722,-2.68913 -2.34046,-3.57986 0.81646,-8.38172 4.61528,-7.02014 4.57504,-7.19355 -2.44421,-10.5332 -4.60307,-2.19007 -7.09705,-5.40334 -10.71003,-13.79894 -2.59034,-6.01925 -3.9572,-10.9441 -3.03746,-10.9441 2.89676,0 1.83363,-3.15425 -3.00732,-8.92258 -2.875,-3.42577 -3.765,-5.57603 -2.30792,-5.57603 1.30441,0 -3.09699,-5.52541 -9.78088,-12.27869 -6.68389,-6.75328 -12.15253,-13.35823 -12.15253,-14.67766 0,-2.65469 -9.23049,-11.90574 -13.52974,-13.55987 -1.50605,-0.57945 -2.73826,-2.51406 -2.73826,-4.29913 0,-1.78508 -1.6268,-4.264218 -3.61512,-5.509218 -1.98831,-1.245 -3.62475,-3.27616 -3.63652,-4.51369 -0.0266,-2.79013 -18.49627,-15.8425 -22.4179,-15.8425 -1.9949,0 -2.86647,1.69293 -2.86647,5.56777 0,4.09732 -2.11033,7.80677 -7.99059,14.04554 -11.04868,11.722288 -20.32779,23.723708 -20.32779,26.291558 0,3.98101 -17.50627,32.62191 -25.35654,41.48422 -4.28009,4.83188 -7.78199,10.1464 -7.78199,11.81003 0,1.66364 -2.28186,5.51026 -5.07081,8.54805 -2.78896,3.0378 -7.01594,10.00877 -9.39329,15.49106 -2.37738,5.48229 -5.25064,10.78335 -6.38507,11.78013 -2.77807,2.44101 -4.14237,6.2686 -4.31392,12.10279 -0.13411,4.55849 0.47261,4.93058 9.98067,6.12166 z m 139.69044,-87.99903 c 0.99416,0 2.31026,0.81554 2.92469,1.81232 0.61442,0.99678 0.30373,1.81233 -0.69043,1.81233 -0.99415,0 -2.31026,-0.81555 -2.92469,-1.81233 -0.61442,-0.99678 -0.30373,-1.81232 0.69043,-1.81232 z M 297.80991,123.17544 c 0.99415,0 1.79511,-1.42721 1.77988,-3.17158 -0.0237,-2.71042 -0.28244,-2.77629 -1.77988,-0.45308 -2.20451,3.42025 -2.20451,3.62466 0,3.62466 z m 80.88814,108.71186 c 0.74562,-0.0153 2.57576,-0.81832 4.067,-1.78458 2.1925,-1.42062 1.93308,-1.76212 -1.35566,-1.78458 -2.23685,-0.0153 -4.06701,0.7878 -4.06701,1.78458 0,0.99678 0.61005,1.79984 1.35567,1.78458 z M 254.32188,471.14223 c 0.93548,0 2.20359,0.81555 2.81802,1.81233 0.61443,0.99678 -0.15093,1.81232 -1.70088,1.81232 -1.5499,0 -2.81801,-0.81554 -2.81801,-1.81232 0,-0.99678 0.76539,-1.81233 1.70087,-1.81233 z m 8.26059,-1.82889 c 2.93891,-2.44552 3.55264,-0.52763 1.08214,3.38162 -0.94391,1.49363 -1.98961,1.7521 -2.66376,0.65843 -0.61039,-0.99025 0.10141,-2.80827 1.58162,-4.04005 z m 8.1141,7.55202 c 2.48539,0 3.50214,0.41136 2.25945,0.91412 -1.2427,0.50276 -3.2762,0.50276 -4.51889,0 -1.2427,-0.50276 -0.22595,-0.91412 2.25944,-0.91412 z M 279.28246,5.5015519 c 4.40473,0.11288 4.55911,0.30475 1.35567,1.68495 -4.93712,2.12715 -6.32645,2.12715 -6.32645,0 0,-0.99678 2.23685,-1.75501 4.97078,-1.68495 z M 275.6229,467.05001 c 0.55673,1.59037 1.75306,1.73308 4.07658,0.48627 2.42494,-1.3012 3.55574,-1.06668 4.30576,0.893 0.58451,1.52722 -0.44136,3.44029 -2.41182,4.49764 -5.38293,2.88847 -6.83256,2.21767 -6.79417,-3.14394 0.0197,-2.74114 0.39026,-3.97099 0.82365,-2.73297 z m 13.14923,-0.4386 c 0.99416,0.61605 1.7951,2.49916 1.77988,4.1847 -0.0239,2.64105 -0.26985,2.6889 -1.77988,0.34612 -2.28764,-3.54921 -2.28764,-5.94839 0,-4.53082 z M 293.98146,7.1865019 c 0.99415,0 2.31025,0.81555 2.92467,1.81233 0.61443,0.99678 0.30373,1.8123201 -0.69043,1.8123201 -0.99415,0 -2.31025,-0.8155401 -2.92468,-1.8123201 -0.61442,-0.99678 -0.30373,-1.81233 0.69044,-1.81233 z M 335.76859,467.51757 c 0.99416,0 1.80756,1.22332 1.80756,2.71849 0,1.49517 -0.8134,2.7185 -1.80756,2.7185 -0.99415,0 -1.80756,-1.22333 -1.80756,-2.7185 0,-1.49517 0.81341,-2.71849 1.80756,-2.71849 z m 25.30579,-8.15547 c 0.99416,0.61605 1.80755,1.47973 1.80755,1.91929 0,0.43956 -0.81339,0.7992 -1.80755,0.7992 -0.99415,0 -1.80756,-0.86368 -1.80756,-1.91929 0,-1.05561 0.81341,-1.41524 1.80756,-0.7992 z"
     id="path927" /><path
     style="fill:#eeefff;fill-opacity:1;stroke-width:0.608815"
     d="m 264.84029,35.269628 c -2.02589,2.959538 1.81176,5.9459 2.52563,8.820677 4.29055,7.600759 -0.48414,16.010629 -1.56841,23.777063 -2.68948,16.229512 -1.53441,32.816972 -2.35591,49.172212 -0.3518,9.82804 -0.22339,19.75074 -3.40524,29.22931 -1.20237,6.10068 2.45731,12.13343 0.33533,18.19666 -0.67551,5.77624 -1.58966,11.85245 -0.22474,17.56763 2.59762,3.07814 5.02995,-1.43004 5.7552,-3.70996 3.47042,-7.47213 5.21573,-15.5413 7.56024,-23.37396 1.90061,-4.0266 6.24653,-6.35951 10.46281,-7.00018 3.91429,-2.87955 2.2789,-8.73181 3.34906,-12.79034 0.87812,-8.3802 7.21469,-14.81277 13.16742,-20.01193 1.95501,3.328 6.51966,0.5186 8.72198,-1.2307 2.20369,-2.17562 3.2842,-5.95887 7.16784,-5.47815 2.84381,0.0583 3.99433,-2.58851 4.0334,-5.00726 2.11,-4.443512 5.20499,-8.368506 7.29031,-12.854072 0.76552,-0.974524 2.42352,-3.663613 3.19628,-3.059531 0.90534,2.85227 4.35667,1.315348 4.80393,-0.997647 3.74758,-4.470567 8.25569,-8.616315 9.67801,-14.542583 0.84601,-4.141034 3.09318,-9.465167 0.0178,-13.129943 -6.53889,-5.20612 -14.86617,-7.562171 -22.59035,-10.490161 -4.0265,-1.537687 -8.45754,-2.243721 -12.47713,-3.424582 2.09311,-1.980871 1.3452,-6.134362 -2.00718,-5.830113 -4.46705,-0.151765 -7.51111,3.733613 -10.53654,6.43655 -10.38291,-3.831947 -20.74424,-7.885694 -31.45502,-10.695874 -0.48159,0.142295 -0.96317,0.284589 -1.44475,0.426884 z"
     id="path1070" /><path
     style="fill:#eeefff;fill-opacity:1;stroke-width:0.608815"
     d="m 368.82987,74.512009 c -4.55018,0.498064 -3.40211,6.39918 -4.52806,9.586452 -2.76332,7.542604 -9.6273,12.45121 -14.32945,18.725769 -5.3366,6.74524 -12.059,12.96624 -14.34786,21.53091 -7.82353,15.8618 -18.01315,30.41614 -28.86875,44.38044 -3.24766,4.78975 -4.42765,10.73173 -8.71472,14.86725 -4.10639,5.29501 -7.26224,11.28215 -9.88861,17.42132 -0.12688,3.68862 4.04458,2.20593 5.74098,0.74748 10.69757,-6.1931 21.24094,-12.7691 32.58699,-17.70748 11.91931,-7.53322 23.03938,-16.2939 35.1988,-23.47976 19.04734,-11.73738 38.4919,-22.86255 58.97007,-31.7773 3.03646,-2.75293 -1.7785,-5.58596 -2.95489,-8.26418 -3.36843,-7.14394 -9.74128,-12.39635 -16.19661,-16.60447 -1.13195,-3.55913 -2.51973,-7.221107 -5.82297,-9.359332 -2.85912,-3.471408 -5.11788,-7.495439 -8.98478,-10.068033 -5.44446,-3.888393 -10.89139,-8.795934 -17.658,-10.000255 z"
     id="path1196" /><path
     style="fill:#eeefff;fill-opacity:1;stroke-width:0.608815"
     d="m 431.68165,139.07133 c -2.0299,0.22441 -1.20241,3.08635 -1.53393,3.61364 -4.34188,0.49762 -6.84015,5.11516 -10.11557,7.54474 -18.4767,18.17462 -39.97545,32.7619 -61.17357,47.50229 -4.38224,3.43784 -8.96541,6.61143 -14.31454,8.29893 -12.45002,5.96618 -24.08495,13.4299 -36.38041,19.68113 -2.7582,0.78049 -4.9052,5.42172 -0.72893,5.48431 11.06879,0.003 21.51996,-4.18322 32.28622,-6.05863 4.34697,0.50907 8.73756,2.8777 11.00504,6.65652 3.35507,1.685 6.3249,-2.40518 9.25588,-3.15109 7.84794,-3.95542 17.3203,-3.36018 25.26818,-0.0226 -1.05778,3.538 3.40706,5.89899 6.1155,7.0525 2.77998,0.89009 6.17124,-0.19891 8.19759,2.53038 5.64866,4.17396 13.27303,2.19027 19.75199,3.43053 2.09279,0.33283 4.77753,0.30141 5.37588,2.72064 4.07011,3.00964 9.62876,2.83057 14.49264,3.18201 7.13716,-1.25143 14.23752,-1.36839 21.41553,-2.70637 2.23696,-0.99882 4.29118,-2.17341 6.67437,-2.71589 3.81574,-3.35377 0.75809,-8.89203 -0.42929,-12.84826 -2.55454,-5.24168 -3.39482,-10.94411 -4.15177,-16.63792 -0.88478,-3.91948 -2.59196,-7.62113 -4.82584,-10.95123 1.48969,-4.11208 5.32276,-7.52335 5.49004,-12.00863 -1.52261,-4.62073 -7.67469,-4.67509 -10.44498,-8.35218 -4.19266,-5.36593 -7.09581,-11.88375 -8.67679,-18.48085 2.35996,-2.55973 0.59399,-6.22835 -1.3068,-8.59238 -1.8885,-2.96126 -4.8533,-5.64565 -4.70644,-9.35933 -1.34587,-2.31206 -3.49913,-6.06164 -6.54,-5.81227 z"
     id="path1249" /><path
     style="fill:#eeefff;fill-opacity:1;stroke-width:0.608815"
     d="m 342.94098,260.78668 c -5.64233,1.03518 -11.43026,1.59869 -17.08843,0.28063 -5.7277,-0.20279 -11.75748,-0.7737 -17.28819,0.54222 -1.84487,4.02616 4.6266,4.66001 6.87689,6.6604 9.4528,5.0702 18.76973,10.42821 27.66739,16.3937 15.51293,7.91674 31.67301,14.53694 46.84508,23.14269 18.3713,9.54364 35.42507,21.34375 53.39172,31.57095 3.4041,1.21189 4.35709,-3.30241 2.97868,-5.58992 -0.6107,-3.06595 -3.70433,-7.36367 -0.64925,-9.95388 4.56025,-7.17048 2.81317,-17.05895 8.57216,-23.55589 2.17192,-0.4496 4.33183,-2.27372 3.42117,-4.73744 -2.05881,-5.14354 3.4434,-9.11547 2.29122,-14.25353 -1.09479,-3.49608 0.18785,-6.06929 3.23275,-7.99015 4.01064,-1.61737 3.12723,-6.14446 0.63893,-6.30867 -2.4e-4,-2.61558 -2.70029,-4.91003 -4.98586,-5.91097 -2.96779,-0.24868 -1.93922,3.77285 -4.59346,4.35802 -4.79308,2.83318 -10.30577,6.42583 -16.09196,4.31686 -11.63545,-2.74005 -23.43047,-4.98906 -35.43627,-4.97403 -15.99318,-0.6518 -32.01755,-0.25607 -47.95905,-1.63334 -3.92874,-0.76682 -7.78155,-2.35382 -11.82352,-2.35765 z"
     id="path1303" /><path
     style="fill:#eeefff;fill-opacity:1;stroke-width:0.608815"
     d="m 290.89922,287.69224 c -3.82372,0.54747 -1.40114,4.78349 -0.0654,6.59589 6.14042,10.80794 12.94048,21.28363 17.78006,32.69495 12.24892,18.70481 25.36935,36.88929 36.19419,56.49826 7.1646,12.56054 13.81304,25.57484 19.71966,38.7946 2.51871,2.08538 6.52963,0.90455 9.19882,-0.40786 2.18752,-1.48889 1.70788,-4.9348 2.6802,-6.67674 1.93137,3.1396 7.53307,2.82065 7.89557,-1.27947 0.75445,-2.48359 -0.68111,-5.51212 0.24614,-7.71006 4.726,-0.30961 14.60282,0.93938 13.74114,-6.51028 -2.17364,-5.45219 1.31143,-11.74223 5.90264,-14.74235 1.52617,-0.17614 0.76073,2.92833 0.9382,3.76942 0.11958,3.28463 -2.85922,7.48565 -0.0416,10.13224 4.08606,1.37056 5.50469,-3.9667 6.63512,-6.78019 0.82154,-1.30625 3.38823,0.3139 4.69454,-0.98933 2.83241,-0.77566 4.48578,-4.28135 1.99886,-6.42941 -1.96089,-1.85482 -3.12564,-4.63699 -1.32227,-7.07153 1.54785,-4.22013 4.32861,-7.7694 6.74571,-11.4438 0.82305,-2.18984 0.82608,-4.57055 1.10705,-6.86463 2.76145,0.37925 8.069,-0.95176 6.0822,-4.75517 -5.19993,-5.9894 -13.69763,-7.36062 -20.86044,-9.86738 -25.38283,-7.18364 -48.86905,-19.74894 -73.09797,-30.07181 -5.88743,-3.88013 -11.4724,-8.27132 -17.73123,-11.61691 -6.4238,-3.79445 -13.09042,-7.53709 -19.87139,-10.43478 -2.01994,-2.53378 -5.37233,-4.4152 -8.56978,-4.83366 z"
     id="path1358" /><path
     style="fill:#eeefff;fill-opacity:1;stroke-width:0.608815"
     d="m 264.60247,307.41213 c -3.74784,1.09699 -2.16218,6.25072 -2.75354,9.14141 -0.96974,18.44368 -0.43367,36.92226 1.53934,55.28367 1.9271,27.47851 2.2247,55.18747 0.0157,82.73068 -0.72602,3.35044 1.29409,6.55387 4.71469,7.18943 5.25211,1.96516 8.01538,-5.26499 13.20604,-4.58037 5.93518,-0.0151 12.05709,-1.06204 17.34289,-4.09642 3.34538,-2.17339 7.42824,-1.28833 10.96937,-2.34489 0.96889,-2.09155 -0.43908,-4.12182 2.40077,-5.00012 2.06256,-3.55672 6.7537,-2.38755 10.07154,-3.38384 9.08215,-0.63284 17.12193,-5.50539 26.1258,-6.49664 2.69616,-0.39683 6.77936,-3.13195 3.40938,-5.62691 -18.49635,-18.14094 -34.66508,-38.51266 -49.15531,-59.94693 -5.60838,-8.68655 -12.89167,-16.29851 -16.2202,-26.2308 -6.01922,-12.00038 -13.1999,-23.39005 -19.29657,-35.34335 -0.53455,-0.7628 -1.39433,-1.38161 -2.36986,-1.29492 z"
     id="path1414" /><path
     style="fill:#eeefff;fill-opacity:1;stroke-width:0.608815"
     d="m 230.82991,307.99835 c -3.46533,1.84776 -4.38515,6.4826 -6.68266,9.50881 -5.05342,9.32992 -10.46382,18.45286 -16.18343,27.37571 -8.16297,16.52278 -15.49217,33.46634 -24.62739,49.49819 -7.56235,14.19035 -16.48147,27.54338 -24.52144,41.45765 -1.24461,2.2037 0.90587,3.80194 2.61719,4.0001 1.85226,1.21787 4.61509,1.15462 6.18922,0.51964 0.4504,4.29779 5.41485,3.79832 8.42947,4.6208 4.82399,1.80188 8.14854,8.19447 13.8755,7.18568 1.99787,-2.4863 1.6745,4.90207 5.07917,1.88439 1.68634,-1.99944 2.60986,-0.79047 4.3848,-0.0805 3.37352,-0.0755 7.23308,-3.2937 10.10847,0.0119 3.55409,2.40594 6.62448,8.11156 11.61385,6.73145 5.93829,-2.18886 12.16123,-0.94261 18.23471,-0.15102 2.94648,-0.13989 6.85429,3.81335 8.98834,0.42688 0.22883,-3.66753 -1.98046,-7.17272 -2.39483,-10.84926 -3.17347,-14.36404 -7.70605,-28.4705 -8.8528,-43.21862 -3.61678,-32.27196 -2.91393,-64.72241 -4.04289,-97.12741 -0.2296,-1.00898 -1.14735,-1.84193 -2.21528,-1.79434 z"
     id="path1471" /><path
     style="fill:#eeefff;fill-opacity:1;stroke-width:0.608815"
     d="m 202.51409,290.75534 c -6.49087,3.08054 -11.74799,8.41305 -17.30366,12.92423 -4.9651,4.38317 -9.98638,10.41506 -17.30768,9.92715 -6.22844,-0.41783 -10.54385,4.4847 -14.40948,8.59248 -4.19653,4.54333 -9.76664,7.53679 -15.54682,9.55956 2.36444,-0.85703 4.49774,-4.86392 1.06661,-5.842 -2.80909,-0.57932 -4.15321,2.84021 -7.0632,2.46261 -4.74223,0.73066 -9.85271,0.7097 -13.94923,3.47928 -2.6312,-0.17939 -6.26289,-3.61001 -8.09533,0.002 -4.61158,2.76438 -9.53277,5.0431 -14.026515,8.04063 -0.958076,0.52087 -4.038405,1.96786 -3.549437,-0.4685 -1.074946,-3.70914 -5.043035,-0.8608 -7.077469,0.22949 -6.750423,2.27262 -14.273619,5.01623 -17.973111,11.53656 -1.867361,1.58608 -6.551807,2.7431 -4.463847,5.98827 3.507954,3.60469 5.898931,7.96535 8.336717,12.30947 2.269614,2.69093 3.5498,6.81429 6.812302,8.1096 -2.352842,1.64833 -0.06789,4.4556 2.204575,4.11663 2.110262,1.35039 4.175179,3.21366 6.617291,3.71829 0.679074,4.70158 2.424644,10.11435 6.774251,12.68522 2.382627,0.60012 5.032173,-0.18349 7.260593,1.36626 7.12468,3.73223 14.88376,7.24995 20.27162,13.39987 2.55878,3.3499 7.1e-4,8.78973 4.31403,11.14179 3.40746,2.85117 7.81713,-1.16656 11.52347,1.1986 2.29211,1.06603 5.93818,2.08943 6.955,-1.14153 4.88022,-11.85517 7.3061,-24.59187 12.56274,-36.32911 6.92939,-17.18358 15.58166,-33.72214 22.23838,-50.96206 8.1592,-9.56134 14.13329,-20.81592 19.86258,-31.9485 1.12137,-1.90881 0.99594,-4.37904 3.19508,-5.33545 1.68843,-2.20217 4.85546,-6.05006 2.05475,-8.52102 -0.42438,-0.0942 -0.8226,-0.37692 -1.28421,-0.2402 z"
     id="path1529" /><path
     style="fill:#eeefff;fill-opacity:1;stroke-width:0.608815"
     d="m 157.18237,262.52037 c -25.28741,-0.0415 -50.30289,4.02919 -75.55596,3.63189 -14.804779,0.27134 -29.407774,-0.6053 -44.114156,-1.96359 -4.019741,1.06013 -1.246137,6.35949 -1.726569,9.35346 0.845842,9.42788 0.01833,19.52838 4.96922,28.02562 2.145239,2.81569 -0.656003,7.62462 2.732531,9.50678 1.303744,0.48258 2.755268,-1.07351 3.004832,0.93581 1.465291,2.0421 3.895895,3.45931 3.475714,6.3878 0.830057,3.87868 -0.0914,9.01609 3.261677,11.82908 3.550247,0.59342 5.691531,-3.60549 8.679174,-4.99537 6.84618,-4.3105 15.315964,-4.28945 22.629392,-7.54021 9.443958,-3.26082 18.405495,-7.8044 26.439635,-13.75166 12.62524,-7.84446 26.138,-14.37829 40.43638,-18.51033 5.24427,-1.81536 8.3165,-7.22309 13.68345,-8.61869 6.48904,-2.7242 13.18195,-5.48538 18.81782,-9.73161 1.93233,-3.00448 -2.36458,-4.30315 -4.62556,-4.01675 -7.35255,-0.58005 -14.73694,-0.58382 -22.10758,-0.54223 z"
     id="path1608" /><path
     style="fill:#eeefff;fill-opacity:1;stroke-width:0.608815"
     d="m 65.075383,146.5079 c -2.63687,2.63247 -3.694602,6.66102 -6.764739,9.08228 -3.167822,3.42695 -7.604593,8.38194 -5.646993,13.23101 -5.387484,1.09386 -3.236111,8.28027 -6.391364,11.42241 -1.948429,3.26066 -6.835794,5.66514 -6.089335,9.94437 1.088972,2.02824 4.539818,2.94597 3.95135,5.85033 -1.677793,4.16825 -2.757865,8.55813 -3.786066,12.86477 -5.564199,8.86625 -6.379841,19.71965 -7.633965,29.87472 -0.0063,3.24114 -2.825299,6.97209 -0.700374,9.93605 2.887914,1.66967 6.183013,-1.23327 9.234133,-1.282 16.114929,-4.04427 32.323426,-8.42399 48.903556,-9.58781 30.925134,-3.52697 62.044624,-2.20291 93.080204,-3.76314 3.21323,-1.68503 -0.0367,-4.74843 -2.30446,-5.21655 -8.42775,-3.93825 -17.17097,-7.34968 -26.3776,-8.85992 -4.61649,-2.17774 -6.69438,-7.20791 -8.4378,-11.65665 -3.40469,-3.0351 -8.68512,-1.89699 -12.9052,-2.8883 -8.12765,-0.7833 -14.34327,-7.50385 -19.23711,-13.01461 3.50041,-2.47592 0.50671,-7.72564 -2.19863,-9.66968 -2.32621,-1.19303 -4.86949,-2.77335 -4.23317,-5.81941 -0.0392,-2.63 -2.38714,-3.85945 -4.63745,-4.18561 -4.896673,-2.84911 -10.216152,-5.11813 -14.650793,-8.68393 -3.216238,-1.99709 -0.112391,-1.36108 0.81096,-3.65526 -1.253319,-3.36056 -6.271314,-3.35735 -7.702932,-6.8777 -4.111885,-4.12578 -10.025015,-6.0303 -15.60444,-7.16309 l -0.599835,0.10418 z"
     id="path1668" /><path
     style="fill:#eeefff;fill-opacity:1;stroke-width:0.608815"
     d="m 135.72285,61.661502 c -4.0491,2.290675 -6.71533,6.53786 -10.58794,9.212715 -3.65725,3.734998 -8.84158,5.457613 -12.56842,9.142094 -3.15782,3.947289 -7.19857,7.258698 -9.75768,11.620986 -4.1222,0.669109 -9.083626,3.090294 -8.982396,7.921725 -2.973537,8.336058 -7.206846,16.729918 -13.823183,22.755638 -1.826932,0.81257 -5.427563,1.29009 -4.231975,4.22008 2.354738,3.03081 6.982234,0.78253 9.864699,3.18439 8.839766,5.56549 15.587225,13.84171 24.071955,19.91965 4.91895,4.26471 10.8425,6.8095 16.72519,9.30678 14.4613,7.57264 27.98665,16.93455 40.87319,26.97714 5.32638,3.39455 11.52539,5.24918 16.19362,9.68629 4.97051,3.25118 9.94455,7.21922 15.7311,8.73035 3.63273,-0.77135 1.23191,-4.78774 -0.35548,-6.41009 -5.31663,-7.77784 -12.71946,-13.90198 -17.83643,-21.79515 -2.90931,-4.68473 -0.13444,-11.03841 -4.25456,-15.25603 -4.91418,-5.66583 -11.27402,-10.43992 -13.83865,-17.71508 -0.46588,-1.00885 -2.38797,-5.18621 -0.96435,-3.15347 0.98489,2.61064 5.58371,2.92374 5.29978,-0.46375 -1.10983,-2.98857 -3.10136,-5.67863 -3.08213,-9.07157 -0.74599,-3.77237 -0.43728,-8.31773 -3.41744,-11.20956 1.18006,-2.86788 4.03737,-6.81382 0.0939,-8.7636 -2.56048,-4.57902 -4.99794,-9.24694 -7.90864,-13.629364 -0.69487,-1.498207 -1.20468,-3.895479 1.25448,-3.481659 3.30653,-1.874871 -0.4404,-5.511276 -1.22714,-7.966909 -2.16458,-6.18644 -4.72012,-13.174737 -10.72084,-16.619925 -2.53109,-1.937217 -2.89313,-6.982365 -6.5507,-7.141681 z"
     id="path1729" /><path
     style="fill:#eeefff;fill-opacity:1;stroke-width:0.608815"
     d="m 242.2214,32.28501 c -5.00098,0.856941 -9.39471,3.837093 -14.61556,3.809507 -14.12537,1.753156 -28.71368,0.962755 -42.52858,4.82805 -2.00979,0.571172 -3.93002,2.761755 -5.63035,2.977483 -3.33959,-2.500418 -7.04304,1.612371 -9.75173,3.38891 -2.42696,2.530567 -6.57577,4.558378 -6.97283,8.339095 2.3741,4.620785 6.65879,8.262858 7.88724,13.546125 3.52952,14.559189 8.30595,29.237934 17.42613,41.33875 8.01103,12.76195 15.00482,26.35362 19.09204,40.90473 2.07428,6.14304 8.17857,9.84646 9.72201,16.26795 2.61669,6.22325 5.31469,12.75193 9.77076,17.8768 3.25592,1.59651 3.81169,-2.81843 3.13563,-5.00251 -0.57036,-9.27194 -4.25244,-17.99523 -5.65532,-27.0756 0.44787,-4.28479 2.538,-8.78544 6.35213,-10.92775 2.48831,-4.12583 -2.95702,-7.32514 -3.76466,-11.17151 -2.37662,-7.69402 -2.16478,-16.34948 0.89538,-23.82582 3.73509,1.3236 6.05282,-3.6265 7.08817,-6.46746 1.13863,-2.301432 -0.61381,-5.201989 1.83239,-6.927644 4.40564,-3.765104 2.59129,-10.084244 3.62837,-15.153003 0.50561,-3.16397 0.18086,-6.758975 1.35274,-9.669272 4.64382,-2.343565 4.38762,-8.62608 4.7849,-13.102593 0.18657,-7.575917 -2.00753,-15.034347 -1.88718,-22.557296 -0.10541,-1.010917 -1.29871,-1.435392 -2.16168,-1.396942 z"
     id="path1791" /></g></svg>
