<?xml version="1.0" encoding="UTF-8" standalone="no"?>
<!-- Generator: Adobe Illustrator 16.0.0, SVG Export Plug-In . SVG Version: 6.00 Build 0)  -->

<svg
   version="1.1"
   id="Layer_1"
   x="0px"
   y="0px"
   width="492.531px"
   height="492.531px"
   viewBox="0 0 492.531 492.531"
   enable-background="new 0 0 492.531 492.531"
   xml:space="preserve"
   sodipodi:docname="4clock_3.svg"
   inkscape:version="1.1 (c68e22c387, 2021-05-23)"
   xmlns:inkscape="http://www.inkscape.org/namespaces/inkscape"
   xmlns:sodipodi="http://sodipodi.sourceforge.net/DTD/sodipodi-0.dtd"
   xmlns="http://www.w3.org/2000/svg"
   xmlns:svg="http://www.w3.org/2000/svg"><defs
   id="defs2248" /><sodipodi:namedview
   id="namedview2246"
   pagecolor="#505050"
   bordercolor="#ffffff"
   borderopacity="1"
   inkscape:pageshadow="0"
   inkscape:pageopacity="0"
   inkscape:pagecheckerboard="1"
   showgrid="false"
   inkscape:zoom="1.6425362"
   inkscape:cx="228.00106"
   inkscape:cy="246.2655"
   inkscape:window-width="2560"
   inkscape:window-height="1017"
   inkscape:window-x="-8"
   inkscape:window-y="-8"
   inkscape:window-maximized="1"
   inkscape:current-layer="Layer_1" />

<path
   style="fill:#000000;stroke-width:1.64402"
   d="m 241.55111,491.21725 c -11.77407,-0.66186 -21.46204,-2.0941 -25.33308,-3.74514 -3.45683,-1.47438 -10.34758,-2.62551 -15.36366,-2.56659 -5.76174,0.0678 -10.60136,-0.86349 -13.20396,-2.54049 -2.46801,-1.59027 -5.6881,-2.25742 -8.06459,-1.67084 -2.33996,0.57755 -6.91452,-0.32873 -11.19762,-2.21837 -3.98282,-1.75716 -8.92002,-3.69853 -10.97158,-4.31414 -2.05156,-0.6156 -3.7301,-2.05004 -3.7301,-3.18763 0,-1.1394 -4.47739,-3.29254 -9.96937,-4.79411 -5.79039,-1.58319 -11.38624,-4.32829 -13.34943,-6.54872 -2.01786,-2.28226 -6.99666,-4.67616 -12.35394,-5.94006 -4.93562,-1.16438 -8.5826,-2.73964 -8.10442,-3.50056 0.4782,-0.7609 -0.33719,-1.38346 -1.812,-1.38346 -1.47479,0 -5.72102,-3.2845 -9.436018,-7.29889 -3.715025,-4.01438 -7.351743,-6.93597 -8.081599,-6.49236 -0.729857,0.4436 -6.297603,-1.88034 -12.372797,-5.16431 -10.243969,-5.53742 -10.97867,-6.30085 -10.121238,-10.51692 0.834842,-4.10499 0.499599,-4.51711 -3.455448,-4.24769 -4.241175,0.28893 -4.367273,0.0389 -3.978436,-7.88201 0.344309,-7.01423 -0.223548,-8.75733 -3.983255,-12.22749 -5.955728,-5.49702 -18.322462,-25.3527 -20.89693,-33.55149 -1.153613,-3.67385 -3.539971,-7.3421 -5.303039,-8.15166 -1.763042,-0.80957 -4.314457,-4.77333 -5.669804,-8.8084 -1.355348,-4.03508 -3.094947,-7.72902 -3.865784,-8.2088 -2.753384,-1.71371 -6.727547,-13.51631 -5.78922,-17.19297 0.525608,-2.05941 0.206969,-4.19946 -0.708279,-4.75567 -0.915143,-0.55622 -1.663909,-2.3436 -1.663909,-3.97196 0,-1.9732 -1.628707,-3.28098 -4.8832975,-3.92111 -6.2708173,-1.23338 -9.9884324,-7.30056 -6.1601317,-10.05345 1.5202232,-1.09321 2.0287345,-2.53018 1.1995382,-3.38975 -1.93739868,-2.00828 -2.98791418,-16.98023 -1.1914303,-16.98023 0.7822331,0 1.0850189,-3.48483 0.6728427,-7.74406 -1.10082,-11.3755 1.731518,-45.72781 4.4694895,-54.20854 1.3026858,-4.03507 2.8932112,-13.04161 3.5344781,-20.01451 0.641266,-6.97293 1.552136,-12.29822 2.024149,-11.83405 2.181384,2.14522 5.09884,-3.00844 4.201337,-7.4216 -0.531176,-2.61184 -0.308615,-4.74879 0.494575,-4.74879 2.356543,0 5.215613,-8.30769 6.007871,-17.45734 0.512008,-5.91291 2.083883,-10.22939 5.17769,-14.21833 l 4.442473,-5.72784 -3.423974,-3.36719 c -3.558827,-3.49982 -3.148593,-6.50892 0.887324,-6.50892 1.509291,0 1.975346,1.01039 1.316001,2.85308 -0.711103,1.98734 -0.479734,2.35837 0.76252,1.22274 0.980887,-0.89668 2.023191,-2.61275 2.316289,-3.81349 0.293071,-1.20077 2.586203,-4.39823 5.095835,-7.1055 2.509633,-2.70729 7.204638,-9.86608 10.433351,-15.908444 4.988491,-9.335687 7.649737,-12.186984 17.714661,-18.979812 8.456943,-5.707587 11.914149,-9.057893 12.08861,-11.714825 0.134438,-2.046626 2.605294,-6.116623 5.49089,-9.044443 2.88562,-2.927821 5.246567,-6.165125 5.246567,-7.194042 0,-2.779462 17.878578,-16.587302 22.958668,-17.731258 2.41747,-0.544379 8.33234,-2.772075 13.14412,-4.950452 4.81181,-2.178353 9.45902,-3.52898 10.32715,-3.001339 1.93776,1.177762 8.07916,-1.840771 12.07289,-5.933873 3.24529,-3.326054 7.06372,-4.178539 5.16193,-1.152415 -0.83153,1.323117 0.006,1.573397 2.80336,0.837405 2.19416,-0.577341 4.73536,-1.1113 5.64716,-1.18655 0.9118,-0.0754 0.16578,-0.785896 -1.65782,-1.579181 -2.66174,-1.157892 -2.17131,-1.399129 2.48674,-1.223257 3.1913,0.120485 7.46045,-0.661227 9.48701,-1.737169 2.02653,-1.075943 10.48653,-4.142164 18.8,-6.8138194 16.68026,-5.3604796 28.57191,-6.2360187 32.48128,-2.3914928 2.85916,2.8117618 19.6303,2.2675876 22.6846,-0.7360692 1.24036,-1.2197939 1.09098,-1.7300112 -0.50651,-1.7300112 -1.24612,0 -1.74676,-0.5103448 -1.11249,-1.134074 1.92978,-1.89778256 6.20002,-1.98500531 10.7902,-0.2203496 2.39718,0.921545 9.04106,1.8674431 14.76416,2.1019561 5.72305,0.234615 10.88303,0.8959183 11.46658,1.4697949 0.58356,0.5738513 -0.36889,1.0474882 -2.1165,1.0524811 -6.19971,0.017832 -16.23894,3.4927561 -14.0079,4.8487341 1.17545,0.714416 1.62455,2.114616 0.99802,3.111564 -0.76317,1.214343 1.04619,1.812599 5.48205,1.812599 3.64169,0 8.58369,0.733751 10.98224,1.63056 2.99706,1.120598 5.41974,1.073345 7.7461,-0.151061 2.44809,-1.28842 3.88652,-1.288496 5.1965,-2.29e-4 0.99628,0.979753 3.34075,1.756963 5.20993,1.727133 3.31254,-0.05298 3.30415,-0.131704 -0.33155,-3.114417 -4.35212,-3.570478 -4.70456,-4.983008 -1.24337,-4.983008 1.3677,0 2.48674,-0.733649 2.48674,-1.630331 0,-0.8966827 -0.79007,-1.630332 -1.75567,-1.630332 -0.96562,0 -1.2946,-0.7336494 -0.73107,-1.6303317 0.56353,-0.8966824 1.77061,-1.6303317 2.68241,-1.6303317 0.9118,0 1.19676,0.7336493 0.63324,1.6303317 -0.57599,0.9165011 0.74403,1.6303317 3.01483,1.6303317 2.22166,0 4.93991,1.0670774 6.04055,2.371266 1.71639,2.033814 1.24832,2.158942 -3.28897,0.879259 -4.94466,-1.394596 -5.22596,-1.25668 -4.30755,2.11212 0.54044,1.982304 0.99279,5.277867 1.00523,7.323501 0.0181,3.169823 0.81866,3.672856 5.41056,3.404897 6.88732,-0.401902 16.44023,1.714064 15.37695,3.405967 -0.44867,0.713932 3.42384,1.643781 8.60555,2.066368 5.18173,0.422587 9.7076,1.612909 10.05747,2.645137 0.34988,1.032229 1.58407,1.876792 2.74266,1.876792 1.15855,0 4.11891,1.834124 6.57856,4.07583 2.45963,2.241705 6.11214,4.099163 8.11671,4.127668 2.0046,0.02853 5.07087,1.113211 6.81394,2.41042 1.7431,1.297184 4.76244,1.965314 6.70965,1.484672 3.0106,-0.743075 3.5147,-0.189017 3.36859,3.703349 -0.0946,2.517462 0.52107,5.494268 1.36798,6.615121 2.18944,2.897661 6.21202,2.572945 5.04901,-0.407583 -1.0406,-2.666763 1.91157,-3.414347 3.5003,-0.886364 0.5389,0.857528 1.88848,1.34459 2.99904,1.082362 1.11052,-0.262203 1.46303,-0.170167 0.7833,0.204555 -1.79681,0.99063 13.45754,19.978543 16.05017,19.978543 1.20279,0 3.11557,1.100474 4.25067,2.445498 1.13509,1.345024 3.14415,2.445498 4.46458,2.445498 3.35313,0 18.8739,13.148828 17.70889,15.002566 -0.5246,0.83473 0.42645,2.546018 2.11339,3.802875 1.68696,1.25683 2.32119,2.33451 1.40939,2.39478 -0.91182,0.0604 0.20723,1.23477 2.48672,2.60996 2.71244,1.63637 3.031,2.1555 0.92185,1.5024 -3.14244,-0.97308 -3.14638,-0.915 -0.15748,2.3329 2.03977,2.21656 2.35672,3.33082 0.94742,3.33082 -1.69449,0 -1.70525,0.48877 -0.0538,2.4455 1.13508,1.34502 1.44802,2.4455 0.69545,2.4455 -0.75263,0 1.26101,2.75118 4.4747,6.11374 7.01318,7.33807 10.21904,12.35239 12.76867,19.97156 1.73339,5.17998 1.68227,5.41433 -0.55448,2.54149 -2.41591,-3.10291 -2.46402,-3.09682 -2.46402,0.31136 0,1.91182 0.67869,3.88856 1.50822,4.39273 2.14228,1.30204 6.94563,-0.77343 5.8446,-2.52542 -0.50446,-0.80272 -0.0891,-1.45949 0.92306,-1.45949 1.01212,0 2.90988,2.51761 4.21726,5.59469 1.30737,3.07707 3.13435,6.05494 4.05996,6.61753 0.92563,0.56257 1.68294,4.35948 1.68294,8.43758 0,5.62964 0.55004,7.20712 2.28472,6.55248 3.57531,-1.34919 6.0044,2.23532 6.0044,8.8604 0,3.33553 1.58117,16.57791 3.5137,29.42749 2.83509,18.85068 3.32388,27.63783 2.53082,45.49723 -0.7005,15.77503 -0.43033,22.67776 0.94045,24.02582 1.45925,1.43504 0.94862,2.93411 -2.11634,6.21253 -2.76468,2.95721 -3.38565,4.55063 -1.96744,5.04845 3.35989,1.17932 2.45697,5.95142 -4.55901,24.09545 -3.64722,9.43207 -6.6313,18.24276 -6.6313,19.57935 0,1.33657 -1.03431,2.43014 -2.29849,2.43014 -1.452,0 -2.70906,2.69239 -3.41327,7.31056 -1.25147,8.20702 -10.8831,20.40508 -16.11189,20.40508 -1.67401,0 -3.04368,0.73364 -3.04368,1.63033 0,0.89668 0.67369,1.63033 1.49712,1.63033 2.69152,0 -8.87767,20.42426 -17.85103,31.51423 -4.82387,5.96172 -10.88727,12.06907 -13.47426,13.57187 -5.14901,2.99118 -9.64125,10.34518 -6.31941,10.34518 3.71013,0 -5.76634,7.98067 -10.0579,8.4703 -3.17199,0.36192 -5.14281,2.15405 -7.26922,6.61027 -3.18552,6.67572 -4.73731,7.98882 -3.37163,2.85308 1.3581,-5.10723 -2.19889,-3.81654 -4.49311,1.63033 -2.05298,4.87413 -5.74842,7.14367 -3.89411,2.39154 0.84121,-2.15576 0.35831,-2.22301 -3.51141,-0.48907 -3.96069,1.77468 -4.17287,2.23607 -1.80974,3.93537 6.59666,4.74359 -55.82539,28.39912 -74.93943,28.39912 -6.65533,0 -10.15657,-0.60513 -9.50451,-1.64272 0.57558,-0.91581 -0.91776,-0.76887 -3.37486,0.33209 -3.93546,1.76338 -4.07987,2.10147 -1.34897,3.15846 1.68204,0.65099 2.11892,1.23524 0.97089,1.29823 -1.14807,0.0631 -4.4293,2.31555 -7.29165,5.0056 -5.8081,5.4585 -5.79744,5.45769 -44.50023,3.28214 z m 39.78774,-29.88439 c 0,-1.11791 1.97612,-2.19338 4.3914,-2.38997 2.41526,-0.19665 5.39934,-1.18008 6.63127,-2.18554 1.67476,-1.36688 2.23991,-1.3224 2.23991,0.17629 0,1.10241 1.08104,1.59642 2.40229,1.09782 1.60565,-0.60592 2.0966,-0.12309 1.48045,1.45591 -1.43476,3.67693 2.40624,2.77711 4.48999,-1.05185 1.20581,-2.21571 2.95085,-3.13329 4.97082,-2.61382 1.71204,0.4403 3.97756,-0.22418 5.03456,-1.47668 1.05693,-1.25245 3.13595,-2.28842 4.61992,-2.30214 2.30746,-0.0204 2.34502,-0.24456 0.25949,-1.54169 -3.65299,-2.27192 -0.69984,-4.03395 6.01551,-3.5892 4.76403,0.31552 5.75157,-0.10526 4.96689,-2.11617 -1.16809,-2.9935 1.37695,-3.20187 8.65072,-0.70829 6.17086,2.11549 10.29464,-0.12692 9.02361,-4.90668 -0.58632,-2.205 0.32483,-3.19534 3.48679,-3.78978 2.51841,-0.47343 4.29101,-0.0588 4.30595,1.00711 0.0156,1.165 0.46021,1.22978 1.24337,0.18138 0.66989,-0.89669 3.82905,-3.04055 7.02036,-4.76414 3.19131,-1.72362 7.98682,-5.20002 10.65669,-7.7254 2.66987,-2.52538 5.28095,-4.16481 5.80238,-3.64321 0.52144,0.52161 -1.84952,3.2644 -5.26884,6.09508 -7.24826,6.00048 -8.26764,8.95504 -1.65775,4.80481 4.34845,-2.73029 4.4524,-2.73022 2.2505,10e-4 -3.66527,4.54776 -1.13253,4.84435 3.70651,0.43408 4.72994,-4.31085 6.44361,-9.49411 1.91765,-5.80018 -4.91894,4.01467 -2.35527,-1.22782 3.81421,-7.79977 4.70313,-5.00994 8.38157,-7.19437 14.50594,-8.61437 10.11703,-2.34571 12.4889,-3.45329 14.66687,-6.84887 2.57094,-4.00821 -0.17097,-5.39272 -3.97512,-2.00714 -5.2486,4.67115 -5.6315,1.75474 -0.48885,-3.72335 2.54838,-2.71458 6.41056,-7.25556 8.58267,-10.09105 2.8,-3.65522 4.46441,-4.64888 5.71948,-3.41462 3.09035,3.0391 6.08057,1.89084 6.08057,-2.33496 0,-2.24171 0.70515,-4.07583 1.56697,-4.07583 0.86184,0 1.79436,-3.48483 2.07228,-7.74408 0.43108,-6.60671 1.05272,-7.82054 4.23266,-8.26468 2.46625,-0.34448 4.07705,-1.99932 4.7609,-4.891 0.56843,-2.40372 3.25977,-7.85718 5.98078,-12.11884 2.721,-4.26164 4.53508,-8.8047 4.03133,-10.09572 -0.50377,-1.29104 1.26525,-10.27628 3.93116,-19.96721 2.83166,-10.29345 4.86278,-21.78143 4.88483,-27.62832 0.0315,-8.41987 0.48636,-9.97248 2.86432,-9.78199 1.95237,0.15641 2.94714,-1.16026 3.21631,-4.25696 0.21422,-2.46589 -0.26737,-4.48341 -1.07046,-4.48341 -0.80311,0 -0.38997,-2.01755 0.91802,-4.48342 3.05331,-5.75612 3.27326,-12.90178 0.32636,-10.60177 -2.81452,2.19667 -13.62414,3.99661 -15.12688,2.51878 -2.009,-1.97567 -14.65437,-2.21617 -16.97422,-0.32283 -1.24639,1.0173 -4.3279,1.29768 -7.27219,0.66175 -3.24115,-0.70008 -6.04288,-0.34159 -7.66271,0.98043 -2.00307,1.63485 -3.23913,1.66294 -5.73449,0.13047 -2.52758,-1.55231 -3.18102,-1.51542 -3.18102,0.1796 0,1.3511 -2.1274,2.13323 -5.80238,2.13323 -3.19131,0 -5.80238,-0.80834 -5.80238,-1.79632 0,-2.61242 -11.09858,-2.50957 -16.28398,0.15106 -5.25952,2.69853 -12.51764,2.95918 -16.98145,0.60985 -2.49225,-1.31161 -3.20667,-1.15534 -3.20667,0.70145 0,1.83028 -1.06631,2.08907 -4.559,1.10648 -5.36079,-1.50811 -39.6719,-1.02285 -44.9874,0.63625 -2.08643,0.65123 -4.66486,0.32564 -5.99066,-0.75641 -1.28017,-1.04483 -3.80716,-1.43792 -5.61548,-0.8735 -3.33963,1.0424 -28.13163,2.74495 -37.82851,2.59784 -4.7166,-0.0716 -5.42107,0.51436 -6.26578,5.21125 -0.52346,2.91054 -0.91475,8.2265 -0.86955,11.81323 0.0453,3.58672 -0.11922,12.0237 -0.36548,18.74882 -0.24634,6.72512 0.2396,12.71534 1.07989,13.3116 2.56828,1.82272 1.59418,31.73627 -1.14597,35.19076 -1.09258,1.37743 -0.98168,2.03791 0.34213,2.03791 1.07727,0 1.49762,0.73366 0.93408,1.63034 -0.56352,0.89668 -0.35923,1.63033 0.45401,1.63033 2.00988,0 1.44371,5.73589 -0.83235,8.43292 -1.17039,1.38685 -1.57688,7.23663 -1.11401,16.03176 1.41275,26.84422 0.93582,39.56589 -1.54138,41.11554 -1.27443,0.79725 -0.94465,1.22201 0.96145,1.23842 3.34947,0.0287 3.87965,2.56486 0.82891,3.96494 -1.65782,0.7608 -1.65782,1.14122 0,1.90204 1.13976,0.52307 2.07228,2.40047 2.07228,4.17203 0,1.77159 -0.69936,2.79597 -1.55416,2.27643 -2.03411,-1.2363 -0.45522,7.33798 1.8554,10.07594 0.9694,1.14869 1.08396,2.08855 0.25463,2.08855 -0.8294,0 -1.62941,1.58471 -1.77775,3.52154 -0.14843,1.93689 -1.1157,4.03572 -2.14963,4.66413 -1.32776,0.80699 -1.21101,1.39495 0.39739,2.00195 1.40183,0.52898 2.20158,3.1031 2.08038,6.6958 l -0.19687,5.83643 6.05139,-3.34468 c 3.73585,-2.06484 7.90929,-3.06856 10.90676,-2.62313 4.61238,0.68546 4.66695,0.78384 1.09033,1.96588 -2.9405,0.97183 -3.3562,1.72878 -1.89817,3.45642 2.16687,2.56765 8.14995,0.27182 8.14995,-3.1273 z m -61.93895,-5.18923 c 0.52484,-1.34501 1.71181,-2.44549 2.6377,-2.44549 0.97032,0 0.80921,1.03592 -0.38035,2.44549 -1.72714,2.04656 -1.47436,2.4455 1.54961,2.4455 1.9874,0 6.94262,-0.82438 11.01166,-1.832 5.87624,-1.45512 7.02102,-2.2789 5.56485,-4.0044 -1.02378,-1.21313 -1.23908,-3.10384 -0.48757,-4.28176 2.07827,-3.25745 2.49004,-15.63204 0.55921,-16.80556 -0.98882,-0.60101 -1.28233,-3.34723 -0.68976,-6.45355 0.58164,-3.04879 0.18495,-6.96274 -0.90908,-8.9733 -1.61384,-2.96551 -1.43004,-3.94651 1.09161,-5.82598 2.86855,-2.13803 2.82777,-2.26283 -0.75619,-2.31189 -3.23064,-0.0441 -3.53508,-0.51737 -2.0678,-3.21357 1.19794,-2.20122 1.18553,-3.48696 -0.0409,-4.23233 -1.12427,-0.68334 -0.73224,-1.81077 1.08378,-3.1166 3.60892,-2.59519 3.48925,-11.14134 -0.23443,-16.72994 -3.11041,-4.66841 -2.36377,-14.76865 1.25882,-17.02904 1.56942,-0.97929 1.36646,-1.3363 -0.77018,-1.35468 -3.1043,-0.0267 -3.71871,-4.71695 -1.38679,-10.58681 0.70473,-1.77399 0.69454,-5.78394 -0.0233,-8.91107 -0.80973,-3.53073 -0.63427,-6.47921 0.46297,-7.77938 1.06717,-1.26455 1.12538,-2.09367 0.14687,-2.09367 -1.61956,0 -2.57589,-15.26918 -1.83799,-29.34598 0.43732,-8.34261 -1.75052,-42.4279 -2.83398,-44.15192 -0.71223,-1.13331 -4.11915,-1.42996 -9.29816,-0.80962 -4.49573,0.53849 -9.5651,0.24685 -11.26524,-0.64785 -1.89912,-0.9995 -5.95648,-1.10051 -10.5213,-0.26183 -4.08658,0.75081 -8.54688,0.7505 -9.91178,-6.8e-4 -1.59065,-0.87544 -3.21052,-0.50212 -4.51172,1.03972 -1.61764,1.91681 -5.23112,2.2522 -17.78628,1.65079 -8.66593,-0.41513 -16.78804,-1.59687 -18.04913,-2.62611 -1.73183,-1.41353 -2.29279,-1.40013 -2.29279,0.0547 0,1.05941 -0.74602,1.47278 -1.65782,0.91859 -0.9118,-0.55419 -1.65783,-0.35327 -1.65783,0.44649 0,1.79372 -5.02115,1.53974 -8.2403,-0.41684 -3.87832,-2.35718 -25.09853,-2.4853 -29.57532,-0.17857 -3.28578,1.69305 -5.22557,1.67242 -10.490835,-0.11159 -4.553314,-1.54275 -8.408165,-1.75813 -13.061984,-0.7298 -4.711557,1.04104 -6.609556,0.92486 -6.627663,-0.4058 -0.01302,-1.02553 -0.759983,-0.76414 -1.657822,0.58089 -1.393582,2.08768 -1.853005,2.10862 -3.139812,0.14314 -1.274323,-1.94634 -1.935768,-1.88101 -4.278219,0.42259 -2.772579,2.7266 -6.71747,2.18261 -4.919459,-0.6784 1.308022,-2.08132 -0.04663,-1.91192 -6.755342,0.84462 -3.162011,1.29927 -5.74912,1.73103 -5.74912,0.95943 0,-0.77159 -1.305536,-1.1952 -2.90119,-0.94134 -1.595655,0.25372 -3.890574,-0.31415 -5.099825,-1.26219 -1.581925,-1.24023 -2.576205,-1.12289 -3.544735,0.41826 -0.740374,1.17806 -2.024669,1.72953 -2.853994,1.22547 -0.829326,-0.50402 -2.566257,-0.27318 -3.859851,0.51305 -1.416947,0.86119 -3.197913,0.73907 -4.479877,-0.30722 -1.517011,-1.23811 -2.127866,-1.21134 -2.127866,0.0932 0,1.00648 0.82689,1.82995 1.83754,1.82995 1.118227,0 1.441658,1.55121 0.826217,3.96267 -0.556251,2.1795 -0.311747,5.7723 0.543326,7.98405 2.201406,5.69409 -0.0746,6.99001 -2.708287,1.54201 -2.163923,-4.47631 -2.178068,-4.45769 -1.404615,1.84633 0.433624,3.5341 2.521651,8.25028 4.691767,10.59714 3.300828,3.56967 3.848221,5.70793 3.511294,13.71604 -0.219403,5.21791 -0.819613,10.56465 -1.333511,11.88163 -0.513899,1.31698 0.171999,2.81204 1.524419,3.32239 1.352344,0.51035 2.458784,2.05916 2.458784,3.44182 0,1.38269 2.45122,4.85509 5.447139,7.71644 2.995918,2.86134 5.5901,6.60372 5.764844,8.31636 1.575424,15.44067 3.679642,20.23236 8.884866,20.23236 1.711962,0 3.112667,0.73364 3.112667,1.63033 0,0.89668 1.305535,1.64157 2.901188,1.65529 2.325848,0.0204 2.441558,0.31117 0.583424,1.46817 -1.821039,1.13392 -1.038625,2.54768 3.650785,6.59678 3.282722,2.83446 6.427534,6.57567 6.988499,8.31382 1.041916,3.22835 5.769973,4.482 5.769973,1.52993 0,-0.89669 0.699109,-1.63034 1.553588,-1.63034 0.854478,0 1.129883,2.56777 0.611996,5.70617 -0.871627,5.28218 -0.624818,5.70614 3.322043,5.70614 2.344989,0 4.724689,0.73366 5.28822,1.63034 0.56353,0.89668 0.278773,1.63033 -0.63277,1.63033 -2.142218,0 0.89582,5.73816 6.932185,13.09322 2.552865,3.11058 4.516033,4.55513 4.362583,3.2101 -0.15335,-1.34502 -0.19065,-4.60327 -0.0826,-7.24051 0.18755,-4.57529 0.30797,-4.65001 2.63045,-1.63033 2.75398,3.58072 3.41206,9.59365 0.88163,8.05567 -0.91181,-0.55417 -1.65783,-0.31965 -1.65783,0.52116 0,0.84083 2.23806,2.44042 4.97347,3.55467 6.49183,2.64443 6.81777,7.00408 0.41446,5.54364 -4.40657,-1.00502 -4.44815,-0.95329 -1.24337,1.54745 1.82361,1.42297 4.88527,2.61053 6.80368,2.63907 1.91841,0.0286 5.50045,1.88596 7.96006,4.12766 2.45964,2.24171 5.14572,4.07583 5.96909,4.07583 0.82339,0 3.35808,1.83015 5.63266,4.06702 3.25622,3.20226 4.94663,3.772 7.95001,2.67958 4.56996,-1.66226 8.41666,-0.64218 6.86844,1.82136 -0.726,1.15522 -0.065,1.3734 1.90628,0.62943 1.65961,-0.62631 6.65887,0.0507 11.10946,1.50444 4.45058,1.45372 9.18325,2.23134 10.51705,1.72798 1.33379,-0.50332 2.42508,-0.20456 2.42508,0.664 0,0.86857 -1.95639,1.57918 -4.34754,1.57918 -3.87501,0 -4.10023,0.29982 -2.07228,2.75844 1.93779,2.34931 1.92991,2.55379 -0.0531,1.37845 -1.62863,-0.96526 -1.95162,-0.78048 -1.07471,0.61489 0.74661,1.18803 4.03535,1.81168 8.13082,1.54186 5.71111,-0.37625 6.79448,0.0204 6.38995,2.3328 -0.2731,1.56184 0.63741,2.89332 2.07228,3.03042 1.40766,0.13445 3.49191,0.31793 4.63167,0.40759 1.13975,0.0896 1.85307,-1.12086 1.58516,-2.69004 -0.59433,-3.48089 2.70287,-3.81419 4.03216,-0.40758 0.55814,1.43033 3.11723,2.47601 6.16482,2.51901 2.86578,0.0405 7.44859,1.08135 10.18401,2.3131 6.62097,2.9814 9.03052,2.99536 10.17633,0.0588 z m -36.70149,-12.22749 c -0.56354,-0.89667 -0.23469,-1.63033 0.73108,-1.63033 0.96561,0 1.75566,0.73366 1.75566,1.63033 0,0.89669 -0.32898,1.63034 -0.73108,1.63034 -0.40207,0 -1.19212,-0.73365 -1.75566,-1.63034 z M 30.107791,243.49825 c 1.046087,-1.66452 22.891058,-1.04581 25.814705,0.73113 1.0006,0.60816 3.30601,-0.21754 5.123164,-1.83471 2.506057,-2.23034 3.982142,-2.52675 6.112366,-1.22747 1.990087,1.21379 4.499226,1.14898 8.610833,-0.22238 4.91275,-1.63861 6.112029,-1.5374 7.821943,0.66019 1.829589,2.35137 2.024513,2.33333 2.07228,-0.19182 0.04015,-2.11937 1.344105,-2.70552 5.440636,-2.4455 2.963358,0.188 5.760934,0.82059 6.216834,1.40559 1.872511,2.40284 12.635978,1.89163 16.785478,-0.79719 3.58061,-2.3202 5.62991,-2.53754 11.56396,-1.22638 5.23735,1.15727 7.53908,1.07333 8.40622,-0.30644 0.87122,-1.38629 2.89941,-1.45319 7.501,-0.24735 3.46881,0.90901 8.91088,1.12778 12.09351,0.48618 3.4084,-0.68713 6.6447,-0.46613 7.87466,0.53768 1.22997,1.00388 2.08808,1.06245 2.08808,0.1427 0,-0.85893 3.91659,-1.58159 8.70355,-1.60594 4.78698,-0.0255 10.19562,-0.1001 12.01922,-0.16839 1.8236,-0.0683 9.65681,-0.16151 17.40714,-0.20762 7.75032,-0.0459 18.78505,-0.51936 24.5216,-1.05211 l 10.43015,-0.96867 -0.092,-8.42225 c -0.0505,-4.63223 0.10518,-13.92462 0.3457,-20.64974 0.24065,-6.72512 -0.24996,-12.71533 -1.09006,-13.3116 -2.56831,-1.82272 -1.59418,-31.73627 1.14597,-35.19076 1.09258,-1.37741 0.98168,-2.03792 -0.34216,-2.03792 -1.07727,0 -1.49759,-0.73364 -0.93405,-1.63033 0.56352,-0.89669 0.3592,-1.63033 -0.45401,-1.63033 -2.00988,0 -1.44374,-5.73589 0.83235,-8.43291 1.17039,-1.38686 1.57688,-7.23664 1.11401,-16.03177 -1.41276,-26.84423 -0.93582,-39.565883 1.54138,-41.115539 1.2744,-0.797257 0.94465,-1.22201 -0.96147,-1.238415 -1.59565,-0.01268 -2.90117,-0.494321 -2.90117,-1.06797 0,-0.573672 1.30552,-2.017637 2.90117,-3.208823 2.76305,-2.062675 2.76305,-2.168265 0,-2.217659 -3.15325,-0.0563 -4.07492,-5.667364 -1.21631,-7.404762 0.92667,-0.563229 1.18392,-1.821132 0.57165,-2.795331 -0.61222,-0.974225 -1.20761,-5.240956 -1.32301,-9.481628 -0.16941,-6.2216 0.28044,-7.565427 2.32949,-6.959784 2.20376,0.651343 2.1973,0.530877 -0.0486,-0.91161 -2.51366,-1.614309 -2.76779,-6.337889 -0.99978,-18.582394 l 0.65124,-4.510211 -8.47859,0.971474 c -4.66323,0.534316 -12.58169,1.762008 -17.59659,2.728182 -5.01492,0.966201 -11.54467,1.693584 -14.51054,1.616423 -3.72805,-0.09706 -5.92078,0.830426 -7.10406,3.004753 -0.94137,1.729807 -2.99086,3.155889 -4.55444,3.169084 -4.79394,0.0405 -41.73766,12.794996 -48.33848,16.688432 -7.94196,4.684529 -18.33052,13.664116 -18.33052,15.844405 0,0.924067 -1.49204,1.680133 -3.31565,1.680133 -1.8236,0 -3.31564,0.733649 -3.31564,1.630332 0,0.896682 -1.0034,1.630332 -2.2298,1.630332 -1.22637,0 -3.59079,1.478965 -5.25426,3.286595 -2.93051,3.18447 -2.92562,3.360164 0.15749,5.654295 3.0777,2.290107 3.05617,2.369433 -0.65709,2.419591 -6.017146,0.08126 -9.742869,2.79039 -11.795071,8.576666 -1.401871,3.952589 -2.258317,4.749739 -3.308782,3.079669 -1.093592,-1.738594 -1.696081,-1.389651 -2.637595,1.52752 -1.161564,3.59914 -1.327449,3.63663 -3.45125,0.78032 -2.024693,-2.723012 -2.328334,-2.751186 -3.282928,-0.30477 -0.578554,1.48266 -2.031843,2.69575 -3.229542,2.69575 -2.886684,0 -4.776498,8.88083 -2.675493,12.57279 1.487844,2.61449 1.842203,2.4417 3.43348,-1.67417 0.975913,-2.52427 1.774388,-5.23215 1.774388,-6.01753 0,-0.78539 0.763609,-1.8921 1.696937,-2.45936 3.531499,-2.14641 -0.426863,13.06082 -4.462055,17.14225 -3.44923,3.48876 -3.863349,3.60619 -2.875002,0.81517 0.948327,-2.67803 0.75558,-2.89651 -1.07875,-1.22275 -3.203379,2.92303 -6.534954,2.51132 -6.596424,-0.81517 -0.04766,-2.57745 -0.288615,-2.54634 -2.49453,0.32207 -1.357938,1.7658 -1.986616,4.58544 -1.416325,6.35244 0.847666,2.62651 0.40855,3.01863 -2.533152,2.26213 -5.19629,-1.33634 -8.589152,4.47294 -6.92102,11.85009 1.551903,6.86309 -2.195657,14.67299 -7.040799,14.67299 -2.638658,0 -2.99856,0.82056 -2.16263,4.93081 0.919471,4.52118 0.730116,4.78729 -2.279506,3.20329 -3.61255,-1.90132 -4.413356,-0.11661 -1.314885,2.93058 1.518046,1.49285 1.139364,2.80162 -1.657823,5.72969 -4.204679,4.40146 -4.703684,6.78608 -1.13851,5.44071 1.786433,-0.67415 2.486734,0.16786 2.486734,2.99003 0,2.16064 -0.746021,4.38184 -1.657822,4.93603 -0.911803,0.55418 -1.657823,2.91212 -1.657823,5.23988 0,4.12902 -0.08082,4.1603 -3.315646,1.28143 -3.641718,-3.24104 -4.466251,-1.08472 -1.599487,4.18301 1.03057,1.89374 1.087092,3.15349 0.141426,3.15349 -0.866083,0 -2.045779,5.68579 -2.621561,12.63507 -0.575784,6.9493 -1.758459,13.90901 -2.628194,15.46604 -3.885262,6.95565 0.09921,19.21596 4.150126,12.77008 z M 58.696344,142.90559 c -1.274088,-1.25296 1.724187,-7.12213 3.638377,-7.12213 0.753274,0 1.013059,1.83412 0.57731,4.07583 -0.78358,4.03104 -2.184751,5.04356 -4.215687,3.0463 z m 318.796216,97.50435 c 0,-1.78292 10.34207,-2.29485 31.08425,-1.53862 7.18,0.26177 12.04048,-0.21831 12.07192,-1.19213 0.0291,-0.89669 1.12742,-0.23385 2.44108,1.47301 2.1532,2.79775 2.49193,2.83789 3.44026,0.40758 1.39668,-3.57934 5.66382,-3.46151 5.69601,0.15743 0.0155,1.61115 0.55558,2.14339 1.24337,1.22275 0.66989,-0.89669 2.71002,-1.84946 4.53363,-2.11724 1.8236,-0.26782 4.99419,-0.75344 7.04574,-1.07918 2.05156,-0.32577 3.7301,0.10246 3.7301,0.95184 0,0.86871 1.56028,0.72297 3.56702,-0.33323 3.14343,-1.65443 3.43826,-1.51604 2.48268,1.16541 -0.93166,2.61423 -0.79196,2.69835 0.99199,0.59723 1.142,-1.34503 3.56837,-2.4455 5.39199,-2.4455 3.15172,0 3.31165,-1.06038 3.23474,-21.44719 -0.0577,-15.29812 -0.71004,-22.19268 -2.27528,-24.04739 -1.2069,-1.4301 -1.63866,-2.60021 -0.95946,-2.60021 0.67918,0 0.32773,-1.07495 -0.78107,-2.38879 -1.10878,-1.31383 -2.26967,-6.52297 -2.57973,-11.57588 -0.31007,-5.05289 -0.97981,-9.59619 -1.48829,-10.09624 -0.50848,-0.50008 -0.11907,-1.86373 0.86555,-3.03036 2.53799,-3.00737 0.20877,-12.52512 -2.78829,-11.39408 -1.45639,0.5496 -2.67742,-0.5576 -3.29847,-2.99104 -0.54234,-2.12501 -2.78801,-5.52843 -4.99038,-7.56314 -2.2558,-2.0841 -4.00429,-5.56279 -4.00429,-7.96682 0,-2.90403 -2.38338,-6.56769 -7.46019,-11.46757 -4.10312,-3.96013 -7.46754,-7.96453 -7.47647,-8.89869 -0.007,-0.93415 -2.98571,-4.26624 -6.61503,-7.40463 -3.6293,-3.13839 -6.60606,-6.849814 -6.61502,-8.247645 -0.0259,-3.955974 -4.14082,-8.539091 -7.91328,-8.812401 -3.56491,-0.25828 -16.18164,-9.482111 -23.99452,-17.54191 -2.49562,-2.574473 -6.78524,-5.451423 -9.53247,-6.393245 -2.74728,-0.941822 -4.99503,-2.417578 -4.99503,-3.279463 0,-0.861884 -0.67869,-1.154554 -1.50822,-0.650375 -2.02517,1.230849 -6.97424,-0.727968 -5.95136,-2.355549 0.44575,-0.709296 -4.22116,-3.267286 -10.37092,-5.684431 -6.14976,-2.417145 -11.92741,-4.949407 -12.83922,-5.627243 -2.55498,-1.899413 -18.44169,-6.621007 -22.27766,-6.621007 -1.8802,0 -3.41859,-0.560018 -3.41859,-1.244503 0,-3.41394 -41.30757,-10.207456 -53.63386,-8.820732 -3.99314,0.449234 -4.61021,1.138507 -3.96958,4.434069 0.41717,2.14618 0.17173,3.545564 -0.54528,3.109731 -0.71707,-0.435834 -1.7405,-0.09756 -2.27427,0.751863 -0.53379,0.849353 -0.16837,2.031852 0.81223,2.627789 0.98052,0.595963 1.57522,2.664192 1.32157,4.596083 -0.25359,1.931893 0.11936,4.429586 0.82887,5.55044 0.70952,1.120853 0.70464,2.954976 -0.0101,4.075828 -2.0432,3.2008 -2.42351,15.573821 -0.51435,16.734158 0.98879,0.600982 1.28233,3.347224 0.68976,6.453541 -0.58164,3.048797 -0.18495,6.962739 0.90908,8.973295 1.61384,2.965496 1.43004,3.946498 -1.09163,5.825991 -2.86855,2.138027 -2.82775,2.262822 0.75619,2.311886 3.23064,0.04406 3.5351,0.517375 2.06782,3.213563 -1.19794,2.201227 -1.18553,3.486977 0.0409,4.232337 1.1247,0.68357 0.73512,1.8087 -1.07769,3.11228 -1.56157,1.12292 -2.30821,2.8866 -1.6592,3.91932 0.64974,1.03271 0.46054,1.87766 -0.4197,1.87766 -2.0048,0 -0.49278,6.13977 2.71786,11.0363 2.78307,4.24449 1.74248,14.80147 -1.66881,16.93002 -1.56943,0.9793 -1.36646,1.33629 0.77016,1.35468 3.10433,0.0267 3.7187,4.71696 1.38682,10.58685 -0.70473,1.77394 -0.69457,5.78389 0.0233,8.91102 0.80975,3.53074 0.63428,6.47923 -0.46295,7.77939 -1.06719,1.26455 -1.12538,2.09368 -0.14687,2.09368 1.4123,0 2.0149,6.42045 1.98925,21.1943 -0.0295,16.9807 0.15802,23.41233 0.97289,33.35106 0.51139,6.23786 1.26585,11.67209 1.6766,12.076 1.6456,1.61831 15.87871,2.88559 16.75463,1.49178 0.51566,-0.82052 2.16762,-0.9537 3.67107,-0.29597 3.50262,1.53232 28.42974,1.9757 28.42974,0.50564 0,-1.35246 9.62708,-2.88063 10.81123,-1.71614 0.46496,0.45727 5.86809,0.76565 12.0069,0.68527 6.13881,-0.0802 11.62742,0.59528 12.19689,1.50143 0.69163,1.1005 2.13626,1.06815 4.35095,-0.0976 1.82353,-0.95974 5.089,-1.31963 7.25658,-0.79973 2.16755,0.5199 7.29812,1.4982 11.40124,2.174 4.10311,0.67582 8.0197,1.32678 8.70356,1.44659 0.68385,0.1197 1.24337,-0.38746 1.24337,-1.12726 z M 35.601193,187.64839 c -1.023214,-3.01875 -4.080367,-3.36101 -5.166163,-0.57839 -0.687634,1.76221 0.03652,2.51441 2.420628,2.51441 1.889114,0 3.109972,-0.86089 2.745535,-1.93602 z M 432.77985,95.788111 c -0.51364,-1.316289 -1.60008,-2.393276 -2.41434,-2.393276 -1.70109,0 -2.00024,3.836375 -0.4203,5.390107 1.76848,1.739178 3.83156,-0.441948 2.83464,-2.996831 z M 91.518173,70.570191 c 0.56353,-0.896682 0.234426,-1.63033 -0.731074,-1.63033 -0.965604,0 -1.75566,0.733648 -1.75566,1.63033 0,0.896683 0.328975,1.630332 0.731075,1.630332 0.402099,0 1.19213,-0.733649 1.755659,-1.630332 z M 173.58038,28.181568 c 0,-0.896682 1.0364,-1.630332 2.30309,-1.630332 3.3704,0 10.86964,-6.397116 7.58125,-6.467092 -1.40216,-0.02981 -5.13226,2.116909 -8.28912,4.770503 -3.15689,2.653594 -4.80724,4.854541 -3.6675,4.890995 1.13976,0.03643 2.07228,-0.667392 2.07228,-1.564074 z m 35.72161,-8.899446 c 5.75733,-0.247861 8.48227,-3.320273 5.78227,-6.51962 -1.16716,-1.383005 -3.37786,-2.514583 -4.9127,-2.514583 -3.49445,0 -13.72094,7.274565 -12.25419,8.717002 0.59563,0.585747 0.0262,1.116547 -1.26562,1.17957 -1.34943,0.06572 -0.93803,0.673709 0.96707,1.428858 1.93395,0.766587 4.22415,0.598969 5.49576,-0.402233 1.19906,-0.944065 3.98341,-1.794129 6.18741,-1.888994 z m 50.48517,-5.985559 c 0,-3.161162 -0.68219,-3.3970763 -7.60436,-2.629801 -4.18242,0.4636 -8.40764,1.632853 -9.38941,2.598341 -1.27482,1.253674 -0.0492,1.47838 4.28874,0.786125 3.99351,-0.637307 6.07373,-0.337835 6.07373,0.874367 0,1.014016 1.49205,1.843651 3.31565,1.843651 2.27793,0 3.31565,-1.086897 3.31565,-3.472683 z M 467.01498,141.39341 c 0,-1.39794 0.75819,-2.08089 1.68486,-1.51769 0.92666,0.56323 1.25567,1.70701 0.73107,2.54171 -1.42114,2.26135 -2.41593,1.8397 -2.41593,-1.02402 z M 409.7721,64.367799 c -0.88541,-0.623755 -1.84581,-2.234574 -2.13424,-3.579597 -0.42031,-1.960041 0.0537,-1.88683 2.38807,0.368761 2.93445,2.835528 2.73814,5.318676 -0.25386,3.210836 z m 5.0332,-1.930593 c -0.58081,-0.924168 0.0846,-1.19748 1.55998,-0.640746 2.87205,1.08384 3.39752,2.252405 1.01286,2.252405 -0.85798,0 -2.01578,-0.725242 -2.57284,-1.611659 z m -11.68467,-9.909131 c -0.60102,-0.956342 -0.69469,-2.130283 -0.20827,-2.60876 1.18755,-1.167827 4.42088,0.889881 4.42088,2.813443 0,2.083513 -2.86209,1.944452 -4.21274,-0.20481 z M 367.54562,37.963557 c -1.49419,-0.949591 -1.69864,-1.590362 -0.51229,-1.605366 1.08592,-0.01268 2.4355,0.708684 2.99902,1.605366 1.27205,2.024108 0.69815,2.024108 -2.48673,0 z m 8.28912,0.989586 c 0,-1.546573 4.96248,-2.326024 5.84711,-0.918385 0.53891,0.857528 -0.5562,1.559131 -2.43363,1.559131 -1.87741,0 -3.41348,-0.288339 -3.41348,-0.640746 z M 337.70481,21.493386 c -5.71684,-3.029283 -5.72933,-3.05868 -0.84533,-1.994047 2.7264,0.594306 5.95026,2.057274 7.16418,3.251059 2.96423,2.915109 0.70757,2.466183 -6.31885,-1.257012 z m -18.23604,-0.648312 c 0,-1.345022 1.16307,-2.445496 2.58457,-2.445496 1.42153,0 2.12351,-0.733649 1.55999,-1.630332 -1.07586,-1.711874 4.54434,-2.324063 6.2188,-0.677377 1.58467,1.558393 -4.22603,7.198703 -7.41615,7.198703 -1.62098,0 -2.94721,-1.100474 -2.94721,-2.445498 z M 286.31232,16.67303 c 0,-0.949591 0.74602,-1.273135 1.65782,-0.71895 0.9118,0.554185 1.65782,1.331115 1.65782,1.726546 0,0.395433 -0.74602,0.718952 -1.65782,0.718952 -0.9118,0 -1.65782,-0.776955 -1.65782,-1.726548 z m 57.29248,-0.77079 c -3.14488,-2.339245 -3.13549,-2.393657 0.41445,-2.393657 2.12367,0 3.6325,1.015772 3.6325,2.445497 0,2.950162 -0.0101,2.950009 -4.04695,-0.05196 z m -69.31169,-3.473396 c 1.13975,-0.452264 3.0048,-0.452264 4.14456,0 1.13974,0.452265 0.20723,0.822324 -2.07228,0.822324 -2.27951,0 -3.21204,-0.370059 -2.07228,-0.822324 z M 230.77526,2.0962607 c 0.56354,-0.8966825 1.72661,-1.63033172 2.58457,-1.63033172 0.85801,0 1.55999,0.73364922 1.55999,1.63033172 0,0.8966825 -1.16307,1.6303317 -2.58457,1.6303317 -1.42153,0 -2.12351,-0.7336492 -1.55999,-1.6303317 z"
   id="path24246" /><path
   style="fill:#eeefff;stroke-width:0.608815"
   d="m 260.21116,27.772409 c -3.32019,-0.08533 -8.80203,0.423033 -8.41639,4.978724 0.48649,2.030697 0.23259,2.955455 -1.68137,3.656455 -2.0192,1.786899 -0.58107,4.422552 0.70513,6.040582 -0.19658,3.758932 1.3756,7.357983 1.41859,11.024063 -1.85019,6.216699 -3.08215,13.33788 -0.32819,19.421423 0.42227,5.656614 -0.0804,11.521309 2.01075,16.88747 -1.0062,2.015682 -5.49313,3.82931 -2.68954,6.161959 1.73095,0.970828 5.46477,-0.09889 3.42915,2.829947 -1.03365,1.596568 -0.59227,3.721688 0.41381,4.884788 -2.09065,1.50081 -3.27109,3.88772 -2.95252,6.52811 -2.85053,3.11038 0.35233,7.62686 1.45902,10.88732 3.11258,5.57909 3.353,13.29495 -1.05235,18.22043 -0.93361,2.62509 2.08326,2.58972 3.37227,3.73613 1.36726,2.52565 -1.01,5.43637 -0.66708,8.16549 -0.47269,6.10665 0.39052,12.38407 -0.94295,18.33935 2.4672,5.35104 1.31234,11.64053 1.88708,17.38689 0.69485,16.25251 -0.035,32.72282 2.50304,48.85023 2.00235,4.58325 8.20822,3.83351 12.3059,4.44958 3.35923,0.71056 6.56678,-1.03597 9.82784,-0.74199 8.51332,1.37376 17.28683,1.67365 25.89602,1.23666 3.86977,-1.16372 7.632,-3.0319 11.83369,-2.34231 8.40646,0.55835 16.99324,0.0955 25.20174,1.90709 4.34641,1.6003 8.7888,-1.70079 13.25242,-0.29132 6.66775,0.79266 13.29022,2.91845 19.93749,3.18795 1.40707,-0.96235 2.2835,-2.58553 4.32829,-2.2997 12.9721,-1.24499 26.28586,0.38577 39.31968,-1.30205 1.65659,-0.53751 2.23353,2.71916 4.06074,2.85381 2.83282,0.95483 3.17881,-3.58982 5.39847,-3.64932 0.83244,1.46776 0.7159,4.45561 3.38178,3.74802 4.15915,-2.21893 9.20436,-2.94956 13.83031,-2.93111 1.43446,2.02686 4.26974,1.00216 5.83844,0.22593 0.0892,3.93162 3.90537,1.85904 5.65056,0.30322 2.83569,-0.91478 7.27196,-1.55061 6.87652,-5.57327 0.4674,-12.92869 1.19912,-26.0246 -0.71227,-38.86782 -0.55617,-2.88067 -2.20268,-5.37662 -2.36867,-8.26894 -3.23847,-5.41975 -2.54836,-12.28668 -3.77787,-18.35326 -0.39318,-2.26986 -1.46841,-4.62596 0.29264,-6.66046 1.80467,-4.24813 0.88342,-10.57829 -3.43053,-12.86002 -1.46337,-0.16938 -2.86592,-0.16067 -3.07905,-2.04679 -2.20873,-6.11432 -8.83719,-10.04393 -9.11745,-16.89186 -3.32046,-8.28205 -11.5016,-13.29996 -15.91836,-20.87449 -3.60436,-4.6647 -8.91525,-8.09378 -11.69471,-13.317819 -1.12361,-5.21784 -5.14231,-9.785074 -10.52108,-10.722037 -11.15413,-4.878907 -18.80856,-14.970792 -28.84616,-21.592703 -2.93649,-1.748851 -6.34287,-2.983462 -8.54837,-5.572081 -2.36432,-0.67536 -6.16023,0.886873 -7.07509,-2.303269 -6.96878,-5.372015 -15.7005,-7.895012 -23.59632,-11.615041 -7.77053,-3.474583 -16.08898,-5.824083 -24.45128,-7.096495 -6.41934,-4.714691 -14.88373,-5.066856 -22.42603,-6.762962 -9.95714,-1.623128 -20.02761,-3.045372 -30.13774,-2.974504 z"
   id="path10110" /><path
   style="fill:#eeefff;stroke-width:0.608815"
   d="m 467.36746,250.69605 c -5.58929,2.68344 -12.31594,4.5927 -18.34886,2.02265 -5.73748,-1.13705 -11.6735,-0.49918 -17.20734,1.17839 -4.66007,0.0321 -9.60138,-1.02145 -13.80178,1.65878 -2.89652,1.48525 -6.03256,-3.68964 -8.31888,-0.1415 -0.91815,2.84292 -5.08092,1.18473 -7.27367,1.59576 -2.67565,-0.0266 -3.74727,-3.70827 -6.75285,-3.17725 -6.39427,-0.74608 -12.33624,1.7975 -18.35005,3.42339 -4.70401,1.207 -9.49159,-0.15182 -13.85989,-1.69598 -2.68047,-0.22122 -1.78413,4.53865 -4.81479,2.64725 -16.24954,-1.8519 -32.94107,-0.87107 -48.99649,0.61357 -2.77207,-0.92272 -5.5601,-2.30676 -8.63042,-1.53392 -13.00175,1.83147 -26.14767,1.76628 -39.21147,2.70637 -4.762,0.002 -6.56911,5.05138 -6.37761,9.0667 -0.46576,13.22226 -1.28812,26.52062 -0.39545,39.72883 2.79379,8.02675 1.40492,16.7709 1.39243,25.03988 -0.13778,4.42848 -0.89993,8.84021 -2.55774,12.92423 -0.0759,1.99114 2.26079,2.23538 1.94298,4.24506 2.46969,2.08109 0.73221,5.56813 -0.54104,7.97047 -1.76187,8.06887 -0.55281,16.51323 -0.95208,24.72002 -0.31101,10.24141 0.61898,20.62916 -0.68054,30.78913 -2.13313,2.02465 -0.48981,5.29212 2.35321,5.12736 -3.25764,1.51966 -2.33719,4.77263 -0.0345,6.64107 1.56012,2.15737 -0.79627,2.0262 -1.66592,3.48166 -1.06884,4.10665 1.5387,8.3858 2.76107,11.88496 -2.45911,2.45999 -1.45445,6.45053 -4.03578,8.93008 -1.13064,2.77244 3.30216,3.66737 2.29019,6.66961 0.47328,2.83974 -1.39633,6.9904 1.63263,8.80284 5.29653,-0.8865 9.84169,-5.34813 15.55806,-5.25697 -3.29599,2.38207 -0.008,6.97467 3.39486,6.60183 3.45654,-0.36661 6.25588,-2.89339 7.54597,-5.97518 3.29039,-1.12725 7.06417,-1.38945 9.9955,-3.38296 0.32989,1.70394 2.7818,1.4372 3.3901,2.02502 -0.52164,3.13404 3.64014,4.08932 5.30215,1.79315 2.01082,-1.74326 3.2742,-5.07992 6.54476,-4.14636 3.90539,0.0677 6.29539,-3.65543 9.9408,-4.28905 1.6779,-0.94193 1.54409,-3.58685 0.0523,-4.46504 3.68063,-0.88339 7.67097,0.40192 11.1941,-0.92274 0.67946,-2.47849 0.27493,-4.84077 3.65408,-3.31756 4.74514,1.81387 14.09367,3.76932 14.72095,-3.66953 0.0903,-1.73189 -0.2923,-4.25351 2.37223,-3.93232 2.36809,-0.98862 3.76705,2.97545 6.04772,0.77885 3.30636,-2.81167 7.60747,-5.07863 10.8885,-7.3462 -2.23796,2.18977 1.11782,5.08104 3.30925,3.32588 0.41697,0.21751 1.23934,3.5273 3.36631,2.39245 4.20403,-2.15593 8.53895,-5.79803 9.71369,-10.52345 -0.12173,-1.50847 -2.1435,-2.47852 -2.34965,-2.29733 4.74797,-6.59041 11.68736,-11.57535 19.79759,-12.92976 5.7394,-1.24371 13.3667,-3.63418 14.1355,-10.49295 -0.11084,-3.33437 -4.32763,-2.97132 -6.1797,-1.31989 3.96469,-4.72028 7.9203,-9.52899 12.26309,-13.88264 2.37293,1.98987 6.88856,3.02012 8.22257,-0.68848 0.67961,-2.92048 1.53934,-5.72128 3.12374,-8.26776 1.57915,-4.06396 0.60681,-8.9869 2.88354,-12.58176 2.34939,-0.79027 5.01949,-1.5662 6.00729,-4.25695 3.00802,-7.24153 7.03494,-13.85625 10.51632,-20.89352 1.57017,-6.10144 1.60432,-12.54215 3.46884,-18.61784 3.48783,-12.80901 5.96481,-25.89153 6.63606,-39.16366 -0.12806,-1.78356 0.76874,-2.49675 2.39245,-2.49352 4.2139,-1.7591 3.57625,-7.68556 2.08329,-11.07876 1.16521,-4.82826 4.88094,-10.04886 2.58389,-15.04914 -0.47067,-0.68147 -1.31538,-1.08243 -2.14155,-0.99527 z"
   id="path10154" /><path
   style="fill:#eeefff;stroke-width:0.608815"
   d="m 69.860285,255.37632 c -1.562634,1.06416 -3.354318,2.88153 -5.121415,3.23195 0.911674,-3.33931 -3.441809,-4.08645 -5.591106,-2.58866 -2.974617,0.9745 -6.216897,3.25177 -9.150055,1.26758 -3.17531,0.0689 -5.996405,-1.20838 -8.962179,-1.99768 -2.50681,-0.53048 -2.705035,3.28357 -5.240324,2.37105 -2.851826,-0.15908 -5.914306,1.30456 -8.446113,-0.43521 -3.974482,-0.24848 -2.862647,4.63028 -0.343647,5.86579 0.403871,3.44082 0.123577,6.93639 0.556494,10.38314 -1.812842,-4.42091 -6.076474,-0.26757 -4.029829,3.06429 0.371482,6.42614 5.219752,11.02628 7.731469,16.56879 0.990725,7.03662 -0.134297,14.03237 -0.964353,20.94465 0.810825,2.83073 4.088778,4.18331 4.583946,7.28318 3.59049,6.44514 10.987611,10.83286 11.266637,18.90179 1.253233,5.88991 1.133961,14.33617 7.805194,16.90293 2.129331,0.29171 4.088634,0.89586 5.2974,2.77296 1.671076,0.54747 1.449691,1.17221 1.211684,2.76107 3.296328,5.47338 9.078463,9.12991 12.235746,14.79229 1.399466,2.15736 4.658679,4.05331 6.872946,1.88233 0.316096,3.19926 -1.516234,9.02397 3.450061,8.90945 1.246671,0.41235 3.861284,0.38782 4.512094,1.09913 -1.883952,3.68508 2.285996,7.13663 3.872865,10.15603 2.563767,3.29712 4.916403,7.24999 8.74815,9.10962 1.99517,-1.78815 3.34134,1.62954 5.39847,2.0607 1.38773,0.78272 3.85466,1.77233 4.35564,2.79436 -2.15647,-0.32637 -7.15776,-0.92199 -6.25938,2.76345 2.85841,3.88188 8.15647,4.28963 12.32969,5.81109 4.63619,2.93397 8.98037,6.31841 13.68406,9.14649 3.03979,2.9624 6.91571,6.2724 11.49494,4.68739 1.50841,0.0829 5.23088,-1.92388 4.84436,0.75626 1.59633,3.69664 6.28482,0.69443 9.1774,2.18793 3.50544,0.71485 7.68344,1.74611 10.75057,2.45547 -2.13679,0.99608 -1.16001,3.62145 0.0702,4.92879 -1.78059,3.63963 3.39629,4.08747 5.81822,4.07263 2.34168,0.19523 4.78957,-0.0223 7.07033,0.21047 0.0965,3.62379 3.53678,5.70585 6.89449,5.28559 3.12504,1.12436 5.49014,-1.27068 4.67062,-4.36642 0.77039,-0.49235 2.33896,2.32686 3.68499,2.77415 4.73114,2.00109 10.2205,1.353 14.9381,3.64093 3.12312,0.71897 6.93993,3.82677 9.89844,1.09284 2.30374,2.47775 6.65512,0.75498 9.74154,0.6008 4.32483,-1.061 9.24605,-1.2871 12.95107,-3.91955 1.83744,-2.61194 -2.77224,-5.03543 -0.38051,-7.66845 1.58252,-6.09761 2.46492,-12.91779 -0.45779,-18.75197 -0.44344,-4.90744 0.94839,-10.10835 -1.51729,-14.70667 -0.83293,-3.21402 6.18381,-5.07214 2.58076,-7.91093 -1.4789,-0.98921 -5.45594,0.74825 -3.46663,-2.05722 0.86528,-1.54824 0.76855,-3.60028 -0.61357,-4.82176 6.18531,-5.60708 3.93062,-15.00739 0.21404,-21.33587 -1.10187,-4.13233 -1.35394,-9.32281 1.19028,-12.95514 2.94028,-1.70951 0.80738,-5.06174 -1.93822,-5.08812 -1.52742,-3.51141 1.25374,-7.21337 0.75983,-10.89326 0.12566,-5.35192 -0.42679,-10.85457 0.81096,-16.04441 -2.48778,-5.392 -1.32891,-11.72936 -1.90371,-17.51916 -0.62705,-18.4928 -0.23077,-37.15292 -2.73731,-55.53264 -0.69218,-4.34902 -6.27253,-2.8346 -9.35934,-3.4234 -12.21247,-0.31 -24.48038,-1.07752 -36.67751,-0.36861 -2.5232,0.9624 -4.79842,2.52451 -7.71588,1.99612 -9.58186,-0.17379 -19.27347,0.68179 -28.53237,-2.12217 -1.67646,-1.70829 -4.38813,-1.11182 -5.24389,0.84545 -2.04767,0.3461 -3.51872,2.61871 -5.86698,1.29135 -10.02484,-4.04509 -21.39409,-3.81342 -31.86763,-1.82526 -3.86765,1.68917 -8.06392,1.72355 -11.983667,0.13794 -5.890062,-1.90814 -12.174834,-0.28856 -18.086071,-0.069 -1.363723,-1.96654 -3.994283,-0.72697 -4.847924,0.60882 -1.083761,-1.2762 -2.25245,-3.13298 -4.168953,-2.01551 z m 32.409865,144.03697 c 0.50946,1.2219 1.8493,3.64678 0.93581,4.37823 -2.19703,0.89269 -0.62966,-3.96047 -0.93581,-4.37823 z m 81.7619,44.53265 c -1.2387,1.01589 -0.38838,-0.4287 0,0 z"
   id="path10199" /></svg>
