<?xml version="1.0" encoding="UTF-8" standalone="no"?>
<!-- Generator: Adobe Illustrator 16.0.0, SVG Export Plug-In . SVG Version: 6.00 Build 0)  -->

<svg
   version="1.1"
   id="Layer_1"
   x="0px"
   y="0px"
   width="492.531px"
   height="492.531px"
   viewBox="0 0 492.531 492.531"
   enable-background="new 0 0 492.531 492.531"
   xml:space="preserve"
   sodipodi:docname="8clock_6.svg"
   inkscape:version="1.1 (c68e22c387, 2021-05-23)"
   xmlns:inkscape="http://www.inkscape.org/namespaces/inkscape"
   xmlns:sodipodi="http://sodipodi.sourceforge.net/DTD/sodipodi-0.dtd"
   xmlns="http://www.w3.org/2000/svg"
   xmlns:svg="http://www.w3.org/2000/svg"><defs
   id="defs2248" /><sodipodi:namedview
   id="namedview2246"
   pagecolor="#505050"
   bordercolor="#ffffff"
   borderopacity="1"
   inkscape:pageshadow="0"
   inkscape:pageopacity="0"
   inkscape:pagecheckerboard="1"
   showgrid="false"
   inkscape:zoom="1.6425362"
   inkscape:cx="187.51489"
   inkscape:cy="246.2655"
   inkscape:window-width="2560"
   inkscape:window-height="1017"
   inkscape:window-x="-8"
   inkscape:window-y="-8"
   inkscape:window-maximized="1"
   inkscape:current-layer="Layer_1" />

<path
   style="fill:#000000;stroke-width:1.75005"
   d="m 223.91366,489.7173 c -2.56867,-2.82551 -5.09119,-3.26233 -16.49671,-2.85671 -15.72403,0.5592 -17.84941,0.0146 -17.84941,-4.57414 0,-1.93641 -0.79563,-2.91894 -1.84222,-2.27503 -2.29108,1.40955 -14.09315,-4.00858 -16.89561,-7.75649 -1.49687,-2.00186 -2.6136,-2.24605 -4.01083,-0.87695 -1.12429,1.10162 -4.66797,1.45791 -8.44976,0.84951 -5.09037,-0.81887 -6.63997,-1.93229 -7.09276,-5.09624 -0.3405,-2.37935 -2.50998,-4.89185 -5.26212,-6.0941 -2.57552,-1.12508 -6.81473,-3.48302 -9.42047,-5.23983 -2.65192,-1.78795 -6.17453,-2.74022 -8.00131,-2.16306 -2.08775,0.65962 -5.75248,-0.84346 -10.1716,-4.17186 -3.7994,-2.86162 -7.57089,-5.22485 -8.38108,-5.25156 -1.44498,-0.0476 -5.62567,-3.55279 -18.801473,-15.76341 -3.626913,-3.36123 -8.999755,-8.00952 -11.939632,-10.32952 -2.939877,-2.32003 -5.012926,-4.75344 -4.606783,-5.40762 0.406142,-0.65417 -1.617876,-3.43665 -4.497805,-6.18331 -2.879929,-2.74666 -8.113627,-9.15282 -11.63043,-14.23593 -3.516802,-5.08312 -7.052311,-9.24203 -7.856678,-9.24203 -0.804367,0 -1.462486,-1.83117 -1.462486,-4.06923 0,-2.82235 -2.416915,-5.79709 -7.887672,-9.70809 -9.109377,-6.51222 -11.839283,-10.74549 -11.172678,-17.32545 0.261448,-2.58067 -0.942445,-6.82774 -2.675311,-9.43794 -1.732875,-2.61018 -2.816029,-5.74517 -2.407031,-6.96663 0.409011,-1.22147 -1.117437,-3.67815 -3.392104,-5.45929 -2.274666,-1.78113 -5.769934,-6.4272 -7.767261,-10.32454 l -3.631503,-7.08609 3.87852,-6.86964 c 2.777514,-4.91956 3.340692,-7.40502 1.983909,-8.75567 -1.356796,-1.35064 -2.213166,-1.05965 -3.016797,1.02509 -1.374345,3.56525 -3.2259646,3.686 -6.5027619,0.42403 -1.8802058,-1.87168 -2.1717533,-4.57198 -1.1782793,-10.91307 1.0844691,-6.92195 0.686456,-9.46044 -2.2297287,-14.22111 -3.54290236,-5.78376 -3.54300759,-5.79988 -0.055252,-8.2317 2.4225326,-1.6891 3.2383444,-3.77067 2.6594066,-6.78548 -0.5309999,-2.76516 0.4944151,-6.03151 2.8157046,-8.9692 3.3535847,-4.24407 3.4409347,-5.02434 1.0728529,-9.58297 -1.4179029,-2.72951 -1.9585457,-5.34383 -1.2014195,-5.80964 1.4943883,-0.9194 1.2792199,-5.08181 -1.3655318,-26.41571 -1.8812846,-15.17529 -1.6217572,-16.31123 8.8667151,-38.80975 3.712987,-7.96465 5.781905,-10.59973 7.736135,-9.85322 3.455026,1.31982 3.384592,-1.32022 -0.20113,-7.53969 -2.798525,-4.85406 -2.714738,-5.21566 3.420413,-14.76299 3.459046,-5.38289 7.512609,-10.25441 9.007905,-10.82561 1.495295,-0.57121 2.718723,-2.21418 2.718723,-3.65106 0,-1.43687 1.493139,-3.40798 3.318079,-4.38024 1.824954,-0.97226 5.765949,-6.08547 8.757776,-11.36269 2.991828,-5.27722 7.305879,-10.812179 9.586769,-12.299901 2.912488,-1.899702 3.918564,-3.895014 3.379448,-6.702404 -0.974413,-5.074229 3.408442,-8.817738 9.063715,-7.74156 4.46789,0.850224 7.083332,-2.177409 6.45685,-7.474461 -0.341274,-2.885466 21.144906,-19.050944 33.996286,-25.577656 4.1509,-2.10808 8.71558,-5.493579 10.14375,-7.523347 5.0484,-7.174948 13.8674,-12.217301 21.3189,-12.189303 3.91263,0.01467 8.29553,0.770354 9.73978,1.679235 1.95333,1.22924 4.24446,0.0791 8.94543,-4.490436 4.98653,-4.847162 8.83466,-6.66677 18.24312,-8.626362 6.55796,-1.365889 13.18828,-3.576723 14.73406,-4.912962 1.67316,-1.4463534 9.19887,-2.9056631 18.59686,-3.60611 8.68248,-0.6471199 20.73187,-2.2258427 26.7764,-3.5082728 6.11622,-1.2976368 11.41281,-1.6508055 11.94328,-0.7963624 1.4024,2.2588452 10.23397,1.8686236 12.67363,-0.5599824 1.63709,-1.62968741 2.10484,-1.4356773 2.10484,0.8730455 0,1.6325972 1.18398,2.9683583 2.63106,2.9683583 1.44708,0 2.63106,0.8773408 2.63106,1.9496479 0,1.1730771 1.87268,1.5932839 4.70152,1.0549658 2.58584,-0.4920748 5.94043,-0.2585275 7.45466,0.5189941 1.51423,0.777523 7.48904,2.340109 13.27736,3.472414 5.78833,1.132305 12.83866,3.175569 15.6674,4.540599 4.01123,1.935635 5.43613,2.009954 6.47436,0.337672 2.20136,-3.54572 11.07384,0.516299 11.77239,5.389652 0.5237,3.653451 1.26449,3.988609 6.82907,3.089694 5.15999,-0.833567 8.32876,0.205104 18.28511,5.993599 6.6239,3.851038 13.31425,8.932574 14.86744,11.2923 1.87368,2.846651 6.14741,5.233919 12.70015,7.094228 17.89981,5.08168 24.34653,10.738405 26.42692,23.188542 0.83773,5.013478 2.07001,6.307555 7.92902,8.32682 7.62017,2.626225 15.41368,8.954156 13.94385,11.321662 -0.51379,0.827543 0.29985,1.975996 1.80808,2.552141 1.50823,0.576145 2.74223,2.142077 2.74223,3.479854 0,1.337776 0.78932,2.432326 1.75404,2.432326 0.96473,0 1.75404,1.378 1.75404,3.06224 0,1.68422 4.34125,7.59576 9.64721,13.13675 5.30596,5.541 9.6472,11.13845 9.6472,12.43879 0,1.30037 1.29133,3.43115 2.86963,4.73507 6.25935,5.17128 11.41115,15.71837 10.84371,22.20005 -0.35852,4.09544 0.19454,6.38161 1.5468,6.39404 4.81935,0.0443 6.41177,4.05037 3.418,8.59873 -3.23728,4.91836 -3.80138,9.7546 -1.13774,9.7546 0.96471,0 1.75402,1.506 1.75402,3.34669 0,1.84066 0.95686,3.66417 2.12632,4.05221 2.07779,0.68948 4.87788,17.42211 5.40934,32.32472 0.1797,5.03898 1.04595,7.42088 2.69883,7.42088 1.85374,0 2.15221,1.56143 1.25162,6.54786 -0.65042,3.60131 -2.11955,7.33643 -3.26478,8.30025 -4.41744,3.71778 -4.38128,15.41426 0.0836,27.05812 0.55238,1.44052 0.83341,3.99419 0.62451,5.67481 -0.20891,1.68061 0.4591,3.05566 1.48446,3.05566 1.02535,0 1.86429,1.66065 1.86429,3.69037 0,3.10719 -0.83154,3.56887 -5.26211,2.92154 -4.56039,-0.66629 -5.26211,-0.22702 -5.26211,3.294 0,2.81489 1.01469,4.06283 3.3035,4.06283 4.68341,0 5.79543,6.14696 1.76833,9.77492 -1.82477,1.64394 -3.31779,4.04581 -3.31779,5.3375 0,1.29166 -0.81708,2.34851 -1.81574,2.34851 -0.99867,0 -3.77508,1.27799 -6.16981,2.83996 -3.16534,2.06463 -3.86152,3.43078 -2.54996,5.00392 3.45602,4.14541 -1.18027,23.5252 -7.13839,29.83858 -2.3756,2.51726 -3.72537,6.22829 -3.72537,10.24243 0,5.19621 -0.89782,6.75709 -5.14407,8.94293 -2.82922,1.45644 -4.71866,3.33324 -4.19876,4.17066 0.51991,0.83743 -0.0463,1.85156 -1.25817,2.25366 -1.21191,0.40207 -3.79498,5.38005 -5.74016,11.06221 -3.2602,9.5235 -3.9236,10.30382 -8.48589,9.98141 -3.81574,-0.26966 -4.71138,0.26722 -3.91073,2.34419 0.65185,1.69103 -0.12142,2.99588 -2.07675,3.50492 -1.71337,0.446 -5.80148,4.97819 -9.08472,10.0715 -3.95555,6.13626 -6.90761,9.01636 -8.75003,8.53672 -1.84354,-0.4799 -3.47936,1.11935 -4.85452,4.74607 -1.14073,3.00844 -3.53156,5.84931 -5.31295,6.31303 -1.78139,0.46375 -3.99715,2.56272 -4.92388,4.6644 -0.92675,2.10168 -3.26362,3.93416 -5.19305,4.07215 -1.92944,0.13794 -4.49472,0.33445 -5.70063,0.43652 -1.20591,0.10218 -2.19255,1.01743 -2.19255,2.03411 0,2.62008 -10.41146,15.19572 -13.584,16.40764 -1.45583,0.55613 -3.73091,0.11563 -5.05572,-0.97888 -1.95482,-1.61501 -2.40874,-0.96261 -2.40874,3.46206 0,5.97031 -1.60515,6.50746 -16.82776,5.63151 -5.53535,-0.31851 -8.40652,0.61375 -12.53146,4.0689 -2.94301,2.46518 -6.22363,4.48212 -7.29027,4.48212 -1.80768,0 -2.6912,2.43945 -2.10299,5.80638 0.13839,0.79266 -1.28302,0.95624 -3.1589,0.36357 -2.45744,-0.77643 -3.72835,-0.0812 -4.54736,2.48755 -1.60584,5.03666 -7.59432,4.5776 -8.92088,-0.68384 -1.20637,-4.78481 -6.0117,-4.29733 -6.0117,0.60989 0,4.22549 -5.21317,10.39425 -6.39549,7.56782 -0.50217,-1.20045 -3.74139,-2.18261 -7.1983,-2.18261 -3.45691,0 -5.77104,-0.51195 -5.14248,-1.13765 0.62853,-0.62571 -0.87202,-2.1782 -3.33458,-3.45002 -3.9456,-2.03771 -4.91919,-1.9026 -8.19735,1.13767 -2.28104,2.11547 -6.17034,3.45 -10.05461,3.45 -3.48402,0 -7.1927,0.8542 -8.24147,1.89822 -1.37315,1.36694 -2.23674,1.36694 -3.08539,0 -0.64818,-1.04402 -2.71057,-1.89822 -4.58306,-1.89822 -1.87251,0 -3.40457,-0.8387 -3.40457,-1.86377 0,-2.3012 -6.79597,-0.42519 -10.66233,2.94333 -3.72115,3.24202 -5.76325,3.04081 -9.36671,-0.92295 z m 25.29116,-7.34708 c 0,-0.96036 -0.78932,-1.2605 -1.75403,-0.66696 -0.96472,0.59354 -1.75404,1.86488 -1.75404,2.82522 0,0.96036 0.78932,1.2605 1.75404,0.66697 0.96471,-0.59353 1.75403,-1.86489 1.75403,-2.82523 z m -15.78634,-17.45701 c 0,-2.0319 -1.3397,-7.4493 -2.97711,-12.03865 -2.6588,-7.45212 -2.72924,-9.86364 -0.65888,-22.55467 1.27501,-7.8157 2.62129,-28.13135 2.9917,-45.14589 0.37043,-17.01452 1.03746,-36.04283 1.48232,-42.28512 0.44485,-6.24228 0.73447,-17.63554 0.6436,-25.31834 -0.0909,-7.68281 -0.0574,-16.32597 0.0741,-19.20702 0.58305,-12.77005 -3.23285,-16.3636 -9.73422,-9.16699 -1.95205,2.16079 -12.55284,12.66499 -23.55733,23.34265 -11.00446,10.67767 -26.8422,27.17824 -35.19494,36.66796 -15.61667,17.74237 -39.25314,41.17019 -51.23158,50.77931 -7.43023,5.96053 -7.24548,7.83762 1.1917,12.10744 6.28345,3.17988 11.72854,8.30636 11.72854,11.04226 0,1.00049 0.98664,1.83266 2.19254,1.84927 1.2059,0.0175 4.05136,1.98094 6.32323,4.36523 2.27189,2.38427 6.02114,4.33505 8.33168,4.33505 3.11242,0 4.201,0.96031 4.201,3.70598 0,2.91589 0.50557,3.28831 2.3714,1.74683 1.75423,-1.44929 3.92256,-1.439 8.33167,0.0394 7.58994,2.5452 9.84861,4.34481 12.56302,10.00968 1.81037,3.77812 3.57054,4.67357 10.07373,5.1248 4.33403,0.3007 8.62991,1.28288 9.5464,2.1826 1.04901,1.02984 0.88657,1.63587 -0.43852,1.63587 -1.15766,0 -2.10483,0.78574 -2.10483,1.7461 0,0.96035 1.18397,1.74609 2.63105,1.74609 1.44708,0 2.63105,-0.71218 2.63105,-1.58263 0,-0.87044 1.57865,-1.17167 3.50808,-0.6694 1.92945,0.50229 3.50809,1.53377 3.50809,2.29221 0,0.75843 1.57863,0.96803 3.50807,0.46575 2.23833,-0.58269 3.5178,-0.0496 3.53492,1.47304 0.0212,1.88965 0.3667,1.85135 1.6597,-0.18393 1.43063,-2.25194 1.75877,-2.24345 2.65001,0.0687 0.55947,1.45133 3.45649,2.82381 6.43784,3.04995 4.20788,0.31917 5.19321,-0.17875 4.40416,-2.22565 -0.85388,-2.21511 -0.46577,-2.29447 2.42673,-0.49627 1.89374,1.1773 3.44317,2.7373 3.44317,3.46664 0,0.72934 0.78931,1.32607 1.75404,1.32607 0.96472,0 1.75404,-1.66246 1.75404,-3.69436 z m 25.69211,-2.4581 c 0.77962,-2.02236 2.55385,-2.38645 7.39962,-1.51841 3.50577,0.62801 7.35682,1.91809 8.55788,2.8668 1.49165,1.17825 3.55684,0.82938 6.51594,-1.10072 2.38268,-1.55411 5.91456,-2.82568 7.8486,-2.82568 1.93404,0 6.32706,-1.57149 9.76227,-3.49218 6.60678,-3.69398 11.40125,-4.5139 11.40125,-1.94973 0,0.84833 1.5496,1.94583 3.44359,2.43886 4.1318,1.0756 7.89206,-2.85001 6.41079,-6.69267 -0.80485,-2.08795 1.80441,-4.06389 10.7665,-8.15333 6.50586,-2.96866 13.69897,-5.50085 15.98471,-5.62715 4.04192,-0.2233 6.82427,-2.74087 12.75425,-11.54043 1.5828,-2.34876 3.42455,-3.74664 4.09275,-3.10639 0.66822,0.64023 -0.42948,2.80102 -2.43933,4.80176 -2.00982,2.00072 -2.9441,3.63768 -2.07619,3.63768 1.99481,0 19.47042,-18.93268 19.47042,-21.09384 0,-0.88294 1.38131,-1.61829 3.06956,-1.63408 1.78538,-0.0174 0.13436,-1.67429 -3.94659,-3.96207 -4.29309,-2.40677 -9.72035,-7.98649 -13.98375,-14.37654 -3.83216,-5.74378 -15.89374,-19.03305 -26.80347,-29.53175 -10.90974,-10.49871 -21.54259,-21.89195 -23.62854,-25.31834 -5.0548,-8.303 -46.06161,-49.00907 -49.37114,-49.00907 -1.84079,0 -2.95715,2.8121 -3.80819,9.59282 -1.19897,9.55267 -0.70281,15.8246 2.98296,37.708 1.56843,9.31212 1.46836,12.4749 -0.52469,16.58789 -2.10639,4.34682 -2.11029,6.15357 -0.0269,12.4901 3.07605,9.35569 1.38529,25.62741 -2.9937,28.81121 -3.18487,2.31559 -7.21124,20.33301 -6.86552,30.7223 0.10674,3.20562 -0.84729,6.46901 -2.1199,7.25196 -1.64542,1.01233 -2.18838,5.12929 -1.87952,14.25166 0.40009,11.81769 1.07442,20.92583 1.62846,21.99509 0.87661,1.69181 7.55151,-0.0798 8.37792,-2.22375 z m 104.10671,-5.19715 c 0,-1.44052 -0.76455,-2.61914 -1.699,-2.61914 -0.93444,0 -1.24464,1.17862 -0.68936,2.61914 0.5553,1.44053 1.31984,2.61914 1.699,2.61914 0.37914,0 0.68936,-1.17861 0.68936,-2.61914 z M 102.87748,388.69233 c 2.96832,-3.58399 7.48235,-10.07953 10.03116,-14.43449 2.54881,-4.35498 11.95994,-16.0549 20.91362,-25.99985 8.95369,-9.94494 18.85237,-21.50729 21.99709,-25.69416 3.14471,-4.18682 6.41877,-7.61243 7.2757,-7.61243 3.05571,0 35.38605,-34.01118 36.45871,-38.35419 0.60111,-2.4338 2.25898,-6.21753 3.68413,-8.4083 1.42516,-2.19075 2.05817,-4.51378 1.40672,-5.1623 -0.65147,-0.64849 -21.47795,-0.83915 -46.2811,-0.4237 -24.80314,0.41548 -62.313803,0.72696 -83.357037,0.69218 l -38.260395,-0.0632 0.34459,6.21622 c 0.189527,3.41891 -0.210683,7.51508 -0.889351,9.10259 -0.722238,1.68944 0.329304,5.9367 2.535748,10.24209 2.347916,4.58143 3.373804,8.92592 2.720052,11.51891 -0.577307,2.28975 -0.442623,4.16927 0.299296,4.17676 2.190446,0.0222 5.570855,8.61115 3.814428,9.69177 -2.906963,1.78847 -1.641307,4.18363 2.796641,5.29244 4.427504,1.10619 5.865561,4.83836 2.631057,6.82834 -0.964729,0.59354 -1.754046,3.08231 -1.754046,5.53063 0,3.74972 0.624665,4.29539 3.962463,3.46145 3.085599,-0.77093 4.832279,0.27368 7.893172,4.72051 4.734074,6.87766 4.819333,7.95155 0.861144,10.84722 -2.810652,2.05619 -2.366806,2.94641 5.262115,10.55418 4.582419,4.56973 8.331676,8.94958 8.331676,9.73303 0,0.78344 1.664208,1.42444 3.698226,1.42444 3.022374,0 3.50616,0.76182 2.647238,4.16855 -0.817969,3.24427 -0.373978,4.11535 2.002392,3.9287 1.950771,-0.15314 2.958676,0.90391 2.791105,2.92741 -0.272131,3.28591 5.959015,11.19079 9.032484,11.4587 0.964717,0.0842 4.182657,-2.77947 7.150972,-6.36348 z m 304.52667,-5.76545 c 8.88306,-8.58166 10.46283,-11.11018 18.72947,-29.97793 1.57305,-3.59031 3.45208,-6.53684 4.17562,-6.54785 0.72355,-0.0104 1.31553,-1.59152 1.31553,-3.51222 0,-1.9207 1.48144,-4.96692 3.2921,-6.76937 3.24669,-3.232 11.80086,-26.64403 12.83813,-35.13685 0.29322,-2.40088 1.51977,-4.46347 2.72568,-4.5835 1.2059,-0.11995 2.72479,-0.31648 3.37532,-0.43652 0.65052,-0.11995 -0.66943,-2.18089 -2.9332,-4.57967 -3.8705,-4.10128 -3.99332,-4.89028 -2.05979,-13.22891 2.79358,-12.04763 2.81189,-11.99246 -3.64444,-10.97789 -3.13535,0.49268 -9.25255,-0.0266 -13.5938,-1.15373 -9.75754,-2.53364 -91.42517,-5.95869 -129.41533,-5.42754 -13.0631,0.18263 -16.48967,0.77171 -17.34139,2.98124 -1.4421,3.74103 12.48222,17.77662 29.56044,29.79668 9.63231,6.77946 14.02476,11.08813 15.38995,15.09638 1.35574,3.98051 3.94906,6.54464 8.93161,8.83104 8.84517,4.0589 19.7894,17.79533 18.44053,23.14526 -0.56459,2.23932 0.11405,4.67348 1.65859,5.94957 1.43775,1.18783 2.61409,3.20232 2.61409,4.47663 0,1.27432 3.55192,6.06005 7.89317,10.63493 4.34124,4.5749 7.89317,8.93625 7.89317,9.69191 0,0.75566 -0.0354,1.79449 -0.0785,2.30855 -0.15997,1.90158 7.50119,10.43648 12.04712,13.42099 6.93313,4.55176 10.04043,3.86811 18.18609,-4.0012 z M 10.099843,269.22559 c -0.5599413,-1.3929 -0.9755694,-0.97918 -1.0597369,1.05494 -0.076169,1.84066 0.3384065,2.87195 0.9212514,2.29174 0.5828585,-0.58022 0.6451745,-2.08623 0.1384855,-3.34668 z M 62.21642,243.21703 c 9.284197,-2.9193 52.33365,-5.44314 89.31617,-5.23624 28.88581,0.16152 37.49504,-0.32523 41.21989,-2.33089 2.58953,-1.39432 6.87885,-2.99467 9.53183,-3.55632 2.65298,-0.56165 4.81857,-1.59551 4.81244,-2.29747 -0.0175,-1.94964 -45.05408,-47.24917 -56.05935,-56.38615 -5.33825,-4.43201 -21.18887,-19.48773 -35.22362,-33.45715 l -25.517708,-25.39895 -3.016559,5.23225 c -2.17649,3.77514 -3.966885,4.98487 -6.429001,4.34392 -1.930709,-0.50261 -4.392457,0.3162 -5.669468,1.88573 -1.718764,2.11249 -1.734143,2.46133 -0.06446,1.46279 3.662523,-2.19042 2.453566,0.8727 -1.946654,4.93222 -2.637055,2.43286 -4.585709,6.78279 -5.369579,11.98635 -0.953942,6.33248 -1.957559,8.16764 -4.466771,8.16764 -2.293059,0 -2.987409,0.94782 -2.382186,3.25172 0.57828,2.20135 -0.263172,3.54261 -2.604931,4.15223 -2.432596,0.63326 -3.816282,3.00474 -4.662561,7.9911 -0.871039,5.13229 -1.892494,6.82738 -3.698412,6.13753 -3.107028,-1.18689 -3.411428,4.79419 -0.396723,7.79523 1.628335,1.62097 1.351284,2.63252 -1.237071,4.5166 -2.277705,1.65795 -3.43912,4.84373 -3.662602,10.04657 -0.326935,7.61128 -3.681362,17.22227 -6.010926,17.22227 -1.573345,0 -0.827586,26.07328 0.859908,30.06404 1.032098,2.44086 2.78942,2.82008 9.433997,2.03579 4.491096,-0.53011 10.451071,-1.68247 13.244386,-2.56081 z m 387.38723,2.51601 c 6.52433,-1.07351 6.57765,-1.14948 6.57765,-9.37049 0,-5.23714 -0.96855,-9.08837 -2.63106,-10.46189 -1.44708,-1.19553 -2.63106,-3.84571 -2.63106,-5.88926 0,-2.04355 -1.13038,-9.09377 -2.51197,-15.66713 -1.38159,-6.57338 -2.12763,-12.94863 -1.65788,-14.16722 1.03564,-2.6866 -6.01896,-16.65918 -8.41104,-16.65918 -0.93634,0 -1.46242,-1.82341 -1.16906,-4.05204 0.29339,-2.2286 -1.01777,-6.35375 -2.91366,-9.16697 -5.58108,-8.28148 -7.93373,-13.2401 -6.99743,-14.74823 0.75346,-1.21356 -3.57467,-6.48935 -15.99121,-19.49265 -1.54116,-1.614 -2.28044,-3.77478 -1.64284,-4.80176 0.70259,-1.13165 -0.53503,-1.86722 -3.14168,-1.86722 -2.36553,0 -4.73829,1.13452 -5.27281,2.52115 -0.53453,1.38664 -6.3541,6.05096 -12.93242,10.36512 -6.5783,4.31418 -21.34579,17.27854 -32.81662,28.80971 -11.47086,11.53115 -23.09371,21.88839 -25.82859,23.01609 -2.73488,1.12767 -6.63431,4.72703 -8.66542,7.99855 -2.0311,3.27151 -5.81141,7.03876 -8.40064,8.37164 -2.58925,1.33289 -8.22718,6.81405 -12.52872,12.18032 -4.30154,5.36629 -8.71748,9.7569 -9.81319,9.7569 -1.09569,0 -3.23713,2.55366 -4.75874,5.6748 l -2.76656,5.67481 14.38724,0.59998 c 7.91297,0.33001 21.68128,-0.35756 30.59623,-1.52794 12.76102,-1.67529 17.30978,-1.67404 21.38382,0.006 4.07773,1.6814 6.55372,1.68073 11.67907,-0.003 9.49772,-3.12034 26.82645,-1.01241 30.11645,3.66346 1.49754,2.12836 3.63378,3.18925 5.2098,2.58721 1.46925,-0.56125 3.72058,-0.15367 5.00295,0.90578 1.28233,1.05943 8.05152,2.14023 15.0426,2.40172 7.57083,0.28319 12.98102,1.28165 13.37862,2.46909 0.72985,2.17957 9.77951,2.57241 20.10817,0.87293 z M 233.56311,165.07076 c 0.0996,-21.17828 -0.28994,-39.26494 -0.86588,-40.19259 -0.57592,-0.92766 -1.105,-19.28896 -1.1757,-40.802897 L 231.393,44.959025 223.61039,42.88692 c -10.05738,-2.677769 -14.03521,-2.612225 -19.73988,0.325218 -8.43177,4.341694 -17.88786,8.079233 -20.44067,8.079233 -1.38084,0 -6.24449,2.357224 -10.80812,5.238278 -4.56362,2.881053 -10.07702,5.238279 -12.25203,5.238279 -2.17498,0 -4.59206,1.13406 -5.37127,2.520122 -2.94785,5.243655 -21.24903,16.68691 -26.68736,16.68691 -2.96831,0 -5.39692,0.745904 -5.39692,1.657561 0,0.91167 -3.9472,5.820722 -8.77156,10.909017 -4.82436,5.08828 -8.52038,10.039002 -8.2134,11.001602 0.30699,0.96259 6.97347,6.07174 14.81441,11.35367 17.83174,12.0121 43.60615,34.68386 70.99887,62.45222 12.30682,12.47559 23.03862,21.87444 25.70206,22.50969 2.51501,0.59985 6.54605,2.48992 8.95785,4.20011 3.4939,2.47753 4.64873,2.64288 5.6823,0.81368 0.71347,-1.26269 1.37877,-19.62348 1.47847,-40.80175 z m 45.7483,31.58285 c 6.26325,-6.48238 13.54512,-15.47341 16.18194,-19.98007 3.45911,-5.91209 6.48229,-8.74855 10.85601,-10.18548 3.93613,-1.29315 7.04401,-3.93052 8.86263,-7.52088 3.94071,-7.77979 10.95471,-14.89309 18.49009,-18.75186 4.80133,-2.45871 6.67232,-2.75158 7.34446,-1.14966 0.62499,1.48953 1.77358,1.07728 3.74088,-1.34269 1.56143,-1.92069 3.84503,-3.29192 5.07465,-3.04716 1.22963,0.24476 5.72423,-2.96997 9.988,-7.14382 4.26379,-4.1739 10.67294,-8.96312 14.2426,-10.64275 7.36036,-3.46329 16.20948,-13.92621 14.82211,-17.525225 -1.00703,-2.612422 -24.16895,-16.642967 -27.47454,-16.642967 -1.12311,0 -6.07679,-3.513549 -11.00819,-7.807877 -4.93141,-4.29434 -12.75462,-9.164001 -17.38489,-10.821491 -4.63029,-1.657483 -8.4187,-3.623958 -8.4187,-4.369929 0,-2.076951 -10.40118,-6.966085 -12.3149,-5.788704 -0.9282,0.571064 -5.83825,-0.134571 -10.91122,-1.568091 -5.07298,-1.433521 -13.95949,-3.571262 -19.74781,-4.75053 -5.78832,-1.179267 -12.65564,-3.191604 -15.26072,-4.471865 -14.92544,-7.335083 -20.65535,1.133602 -14.56964,21.53358 3.38544,11.348449 6.40699,59.430559 6.19206,98.535169 -0.14102,25.64837 0.27652,31.09459 2.52601,32.95304 1.4822,1.22454 2.69489,4.48743 2.69489,7.25089 0,7.69912 3.54189,6.20922 16.07428,-6.76163 z M 43.982379,376.06464 c 0,-0.96034 0.789317,-1.74609 1.754047,-1.74609 0.964716,0 1.754033,0.78575 1.754033,1.74609 0,0.96035 -0.789317,1.74611 -1.754033,1.74611 -0.96473,0 -1.754047,-0.78576 -1.754047,-1.74611 z"
   id="path6780" /><path
   style="fill:#eeefff;fill-opacity:1;stroke-width:0.608815"
   d="m 256.74139,39.163901 c -5.88642,-0.355625 -9.27599,5.772252 -8.80878,11.015739 0.26434,10.520092 4.1739,20.647928 4.7316,31.098446 3.71517,34.990144 3.35582,70.112444 4.26774,105.276534 0.0366,4.48446 0.60631,9.15312 3.542,12.7085 1.6514,3.28471 0.13081,8.28937 3.60176,10.40691 4.65168,0.60617 7.72744,-4.27374 11.00741,-6.79803 9.37693,-8.86283 17.63994,-18.82985 24.76282,-29.57507 3.9729,-5.48368 11.97658,-5.76081 15.49504,-11.77913 5.44807,-9.08553 12.94624,-17.918 23.25863,-21.43812 1.74519,-0.64936 2.71174,2.36103 4.62794,0.85852 2.89087,-2.1664 5.59738,-4.70499 9.19643,-5.66959 8.13543,-5.27852 14.66611,-12.76623 23.26218,-17.42969 5.9088,-4.29465 12.42854,-9.16291 14.91002,-16.30482 0.54198,-4.437669 -4.83465,-6.326103 -7.56262,-8.776679 -7.31661,-5.224575 -15.36712,-9.25271 -23.43937,-13.106161 -9.14705,-6.255297 -17.38853,-14.135056 -28.03044,-17.902954 -5.99619,-2.109677 -9.71335,-8.316744 -16.33929,-9.03828 -14.05415,-1.281981 -27.70377,-5.603814 -41.41248,-8.905103 -5.62514,-1.371335 -11.05909,-4.670861 -17.07059,-4.641022 z"
   id="path9570" /><path
   style="fill:#eeefff;fill-opacity:1;stroke-width:0.608815"
   d="m 406.04009,117.69266 c -5.41523,0.72194 -8.32584,6.36642 -12.78605,8.99704 -21.14177,14.27335 -38.12226,33.50593 -57.13715,50.30056 -5.87083,5.30787 -13.50808,8.69054 -17.73183,15.69956 -4.61312,6.14921 -11.99371,9.3787 -16.57355,15.61038 -4.56986,5.4101 -9.41251,10.60126 -15.03962,14.9005 -2.26936,3.08921 -4.77239,6.64068 -5.04413,10.54248 1.59953,3.15494 6.06358,1.35284 8.91548,1.95871 15.91579,0.45336 32.01211,-0.25026 47.69457,-2.12227 4.70146,-0.77197 9.23614,0.51709 13.67593,1.80807 6.73362,0.81801 13.01447,-2.86227 19.78766,-2.19113 7.15819,0.0106 15.02782,0.87085 20.21931,6.38268 2.57759,2.29313 6.12666,-0.0642 8.85159,1.9953 8.89422,3.75456 19.2074,1.07055 28.08158,4.78133 4.53328,3.22352 10.61716,1.58997 15.80388,1.60506 4.05892,-0.78349 9.60049,-0.29359 12.18137,-4.08669 1.07,-5.59622 1.45894,-11.93194 -0.99765,-17.22993 -2.80608,-3.29013 -3.46718,-7.53598 -3.94083,-11.68986 -1.84283,-9.21326 -3.10883,-18.46637 -4.03629,-27.82889 -1.51374,-5.93698 -4.97591,-11.27565 -9.01736,-15.74544 0.52893,-9.07911 -6.89094,-15.53163 -9.72915,-23.54282 -0.50579,-7.55091 -7.5861,-12.10042 -11.84458,-17.60519 -2.05982,-2.72756 -5.40268,-5.10494 -6.26052,-8.47633 0.84395,-2.96661 -2.75012,-4.26631 -5.07266,-4.06312 z"
   id="path9725" /><path
   style="fill:#eeefff;fill-opacity:1;stroke-width:0.608815"
   d="m 310.37534,258.96737 c -8.09829,0.45212 -16.48,-0.56124 -24.3835,1.52917 -4.10576,1.60735 -2.6422,6.74315 -0.30916,9.24756 10.44498,13.36414 25.30516,22.09706 37.90941,33.14354 4.96587,4.10133 5.75224,11.66332 11.9575,14.5188 8.43761,4.38569 15.91582,11.00549 19.49871,19.89111 0.66653,3.70225 -0.11669,8.08017 3.17012,10.79695 2.08566,3.33506 3.22657,7.24911 6.18089,10.06803 3.71906,4.92057 8.84012,8.74294 11.35463,14.33806 0.96911,5.916 6.11045,10.10009 10.28564,13.98371 4.18857,3.7946 10.76023,6.76858 15.90647,2.92992 10.31935,-7.13281 17.85586,-17.63293 22.69908,-29.10776 2.33317,-5.2526 4.95466,-10.41624 8.26604,-15.07292 0.51958,-3.22116 1.34448,-6.44965 3.80747,-8.89083 6.35016,-11.38232 10.17311,-24.16335 13.28452,-36.62995 0.3867,-2.81751 4.91153,-1.12174 4.96564,-4.40796 -0.40412,-4.56054 -7.0359,-6.83955 -5.3402,-11.98603 0.62845,-5.39423 2.93276,-10.82953 2.18674,-16.25607 -2.38835,-3.43532 -7.1528,-1.1108 -10.63166,-1.59576 -9.95141,-0.86274 -20.08399,-2.71712 -30.20179,-3.1184 -33.4797,-2.22056 -67.0513,-3.44803 -100.60655,-3.38117 z"
   id="path9770" /><path
   style="fill:#eeefff;fill-opacity:1;stroke-width:0.608815"
   d="m 263.88426,283.85386 c -4.24396,1.24683 -4.09312,6.90674 -4.93829,10.45448 -2.69239,16.47692 3.59015,32.62855 3.63862,48.9751 -0.13637,5.24532 -4.34468,9.97537 -2.22242,15.32381 2.601,8.37077 2.96978,17.56467 0.92393,26.08271 -1.55466,4.58287 -5.51232,7.95364 -6.3878,12.87072 -2.92296,8.98525 -2.79042,18.5246 -4.09523,27.7629 -2.42934,3.41693 -3.66373,7.46713 -3.40793,11.6959 0.25114,9.27549 0.15687,18.70573 1.75628,27.84494 2.80842,3.86023 9.01955,1.37698 11.49614,-1.70159 1.79217,-2.11895 5.54264,-0.0387 7.92648,0.0583 3.60576,0.16829 6.70113,3.80852 10.19404,2.7671 7.12294,-4.36759 15.68995,-4.95383 22.96846,-8.98339 2.31164,-0.77382 4.82134,-2.55224 7.26659,-2.11211 2.43499,4.46361 9.38671,4.98734 12.20721,0.68136 1.54549,-1.83403 0.84119,-4.32702 1.07493,-6.37234 5.83606,-4.93352 13.47181,-7.23417 20.54512,-9.87303 4.36252,-1.2686 9.61548,-1.79658 12.57464,-5.88719 1.5856,-1.044 2.56385,-5.22528 4.21889,-2.28305 3.56923,0.11404 5.39469,-4.09839 7.96616,-6.03408 5.10459,-5.0068 9.49285,-10.70832 14.14856,-16.05923 3.16213,-1.05991 1.78285,-4.9752 -0.85615,-5.73023 -11.32724,-6.55805 -17.06344,-19.13159 -26.26575,-28.06176 -15.2613,-16.34768 -31.67715,-31.65639 -45.63525,-49.17897 -13.09296,-14.25498 -26.51557,-28.35194 -41.47407,-40.67072 -1.07469,-0.73062 -2.23872,-1.69337 -3.62316,-1.5696 z"
   id="path9816" /><path
   style="fill:#eeefff;fill-opacity:1;stroke-width:0.608815"
   d="m 230.64203,284.07265 c -5.01929,0.90119 -7.72462,6.14574 -11.53898,9.06576 -22.55046,22.21032 -44.77744,44.75838 -66.04756,68.20283 -13.28119,14.27896 -27.43916,27.60255 -42.04433,40.44666 -2.99072,2.19936 -3.2469,6.96534 0.16885,8.8944 5.79022,4.07706 13.28455,6.9318 16.17401,13.93377 1.89764,2.59898 5.62962,2.68976 7.71839,5.25103 3.02229,3.7856 7.86597,4.96715 12.21791,6.19873 -0.36005,2.71169 1.93919,6.81681 5.01559,4.7302 2.16881,-1.8841 5.66755,0.0222 8.19046,0.39954 5.04243,1.19722 8.98436,4.87097 11.13702,9.50202 2.87074,5.55639 9.84842,4.79484 15.06698,5.95497 1.26167,0.37605 3.88136,0.2377 2.01907,1.75034 -1.87636,4.1245 4.82474,6.40999 7.05488,3.16536 1.78827,-2.17084 4.50522,1.25607 6.55784,1.73013 1.89413,1.0332 4.88733,-0.60199 5.5364,1.99173 1.26611,1.26677 3.1983,0.37158 3.98584,-0.96198 3.05393,3.96969 9.02174,4.40312 13.43316,3.15109 0.31074,-3.6969 2.07628,0.0374 3.63148,1.01549 2.14123,2.63493 6.28134,0.69769 5.86579,-2.59222 -0.0368,-9.51373 -6.17554,-18.20473 -4.33824,-27.88644 4.3358,-29.37254 3.72496,-59.14219 5.28499,-88.72381 0.59865,-20.02708 1.7039,-40.14588 0.11154,-60.14575 -0.25162,-2.59299 -2.4222,-5.22937 -5.20109,-5.07385 z"
   id="path9863" /><path
   style="fill:#eeefff;fill-opacity:1;stroke-width:0.608815"
   d="m 165.00897,260.99001 c -42.62723,0.0872 -85.25388,0.3445 -127.880793,0.52083 -3.635699,1.35471 -1.433337,6.30025 -2.075723,9.33779 -0.01423,6.11515 -1.2682,12.64426 2.000692,18.26795 2.373266,4.24611 2.83869,9.03201 2.818264,13.79722 0.556806,3.29053 3.971816,5.22176 4.23792,8.72555 0.849211,2.20298 -3.290692,3.92214 -1.179578,6.41276 1.779166,2.91059 6.542784,2.46379 7.991881,5.42583 -2.858809,3.56344 -4.351266,8.52059 -2.348455,12.84693 3.186465,1.26933 7.881143,-0.69727 9.972906,3.02386 1.545734,2.62158 4.780676,5.35954 4.044099,8.63281 -2.008523,1.83533 -5.107085,4.37641 -2.866899,7.34144 4.634929,6.23768 10.801573,11.2856 15.229877,17.62828 1.677818,1.63595 6.114433,0.0531 5.092878,3.39366 -0.729537,2.87693 0.0189,6.91434 3.860977,5.86698 1.695001,0.68022 0.887762,3.68154 2.189118,4.99893 2.307491,3.96369 5.393034,8.60518 10.146512,9.58526 4.732894,-2.31267 7.414294,-7.51633 10.871654,-11.33542 7.36642,-10.38429 14.39031,-20.96691 22.96287,-30.37941 10.3872,-11.7853 20.50014,-23.81754 30.76996,-35.69256 5.9917,-5.39694 12.32723,-10.44949 17.82149,-16.40663 7.40954,-7.86213 15.40801,-15.3751 21.46134,-24.36497 1.85272,-4.99779 5.71184,-9.61559 5.93713,-15.05746 -1.66205,-4.11168 -7.23051,-1.93732 -10.58885,-2.55417 -10.15638,-0.0409 -20.31285,-0.0277 -30.46927,-0.0155 z"
   id="path9911" /></svg>
